<?xml version="1.0" encoding="UTF-8" standalone="no"?>
<!DOCTYPE svg PUBLIC "-//W3C//DTD SVG 1.1//EN" "http://www.w3.org/Graphics/SVG/1.1/DTD/svg11.dtd">
<svg xmlns="http://www.w3.org/2000/svg" version="1.1" viewBox="0.00 0.00 100.00 100.00">
<path fill="#000000" d="
  M 23.35 47.55
  A 0.26 0.26 0.0 0 0 23.53 48.00
  L 82.00 48.00
  A 2.00 2.00 0.0 0 1 84.00 50.01
  C 83.99 51.30 82.86 51.99 81.60 51.99
  Q 52.68 52.01 23.64 52.00
  A 0.30 0.30 0.0 0 0 23.43 52.51
  Q 32.36 61.34 41.27 70.35
  C 42.24 71.34 42.32 72.47 41.35 73.44
  A 1.81 1.81 0.0 0 1 38.79 73.44
  L 15.63 50.36
  A 0.51 0.51 0.0 0 1 15.63 49.64
  L 38.68 26.67
  A 1.86 1.86 0.0 0 1 41.66 27.17
  Q 42.40 28.66 41.15 29.90
  Q 32.23 38.78 23.35 47.55
  Z"
/>
</svg>
