<?xml version="1.0" encoding="UTF-8" standalone="no"?>
<!DOCTYPE svg PUBLIC "-//W3C//DTD SVG 1.1//EN" "http://www.w3.org/Graphics/SVG/1.1/DTD/svg11.dtd">
<svg xmlns="http://www.w3.org/2000/svg" version="1.1" viewBox="0.00 0.00 100.00 100.00">
<path fill="#000000" d="
  M 52.51 76.45
  Q 61.55 67.79 70.25 58.78
  C 71.31 57.68 72.75 57.65 73.64 58.90
  A 1.80 1.80 0.0 0 1 73.45 61.22
  L 50.39 84.38
  A 0.54 0.53 44.6 0 1 49.64 84.38
  L 26.67 61.31
  A 1.87 1.87 0.0 0 1 27.60 58.16
  C 29.05 57.85 29.60 58.71 30.52 59.61
  Q 39.05 68.04 47.52 76.59
  A 0.28 0.28 0.0 0 0 48.00 76.39
  Q 48.01 47.37 47.95 18.25
  Q 47.94 16.75 49.05 16.18
  A 2.03 2.02 -13.6 0 1 52.00 17.98
  L 52.00 76.23
  Q 52.00 76.93 52.51 76.45
  Z"
/>
</svg>
