<svg width="1500" height="999.9999999999999" xmlns="http://www.w3.org/2000/svg">
 <g>
  <title>background</title>
  <rect x="-1" y="-1" width="787.339827" height="525.559885" id="canvas_background" fill="none"/>
 </g>

 <g>
  <title>Layer 1</title>
  <g stroke-width="2" fill="none" id="svg_1">
   <path stroke="#edf1f9" d="m595.38,184.14q-67.65,32.09 -130.69,71.31c-50.67,31.53 -97.63,73.55 -117.39,131.05q-13.12,38.21 -5.73,78q1.69,9.13 4.04,18.44q2.33,9.19 5.64,18.06" id="svg_2"/>
   <path stroke="#888998" d="m351.25,501q-19.03,5.59 -38.64,11.36c-4.07,1.2 -7.2,3.95 -6.02,8.31q21.75,80.28 43.48,160.57c1.25,4.64 3.33,8.69 8.71,7.13q7.55,-2.2 15.76,-4.6" id="svg_3"/>
   <path stroke="#edf1f9" d="m374.54,683.77q0.36,16.24 0.81,23.23q3.25,50.43 31.99,91.72c43.61,62.65 118.96,98.1 194.16,101.26c39.3,1.66 77.88,-3.8 115.99,-14.32q51.85,-14.31 104.71,-41.24c20.36,-10.38 41.71,-20.7 59.64,-35.05" id="svg_4"/>
   <path stroke="#dde3ee" d="m881.84,809.37c19.19,11.38 40.87,17.79 60.77,27.95c20.73,10.57 41.31,21.74 65.29,13.09q10.33,-3.72 19.79,-11.34c22.51,-18.14 39.48,-46.29 40.11,-75.76c0.44,-20.49 -6.8,-41.04 -21.04,-56.04q-5.52,-5.82 -10.99,-9.08c-3.9,-2.32 -8.74,-4.88 -11.65,-7.79c-7.21,-7.22 -6.73,-18.13 -8.17,-27.63c-4.84,-31.89 -29.63,-42.16 -58.3,-32.84" id="svg_5"/>
   <path stroke="#888998" d="m957.65,629.93l0.06,-14.81" id="svg_6"/>
   <path stroke="#edf1f9" d="m957.71,615.12c24,-19.43 50.02,-30.09 79.8,-37.58c3.65,-0.92 5.51,-1.55 9.18,-0.03q29.65,12.31 59.25,24.81q8.2,3.47 11.98,3.62c8.53,0.36 13.71,-4.92 16.75,-12.62q6.25,-15.88 12.33,-31.82q0.76,-1.99 1.71,-2.32c47.07,-16.15 65.61,-59.07 82.34,-102.11q2.92,-7.52 4.4,-14.93q8.46,-42.39 3.22,-85.23c-3.87,-31.61 -16.25,-63.04 -41.77,-82.8q-40.5,-31.36 -86.49,-61.99" id="svg_7"/>
   <path stroke="#dde3ee" d="m1110.41,212.12c9.58,-6.24 14.71,-15.39 14.57,-26.92c-0.25,-20.93 -21.54,-36.46 -41.4,-26.34q-15.07,7.67 -16.24,26.96" id="svg_8"/>
   <path stroke="#edf1f9" d="m1067.34,185.82q-39.26,-22.85 -83.08,-39.58c-50.12,-19.14 -103.41,-28.25 -156.76,-25.63q-63.66,3.14 -126,22.36q-35.25,10.87 -65.68,23.35" id="svg_9"/>
   <path stroke="#dde3ee" d="m635.82,166.32c1.87,-3.49 3.83,-6.93 4.9,-10.56q6.23,-21.17 -5.53,-38.38c-12.36,-18.08 -36.93,-23.24 -54.77,-11.26c-20.07,13.48 -25.01,41.42 -11.08,61.14q9.03,12.78 26.04,16.88" id="svg_10"/>
   <path stroke="#cad5e7" d="m635.82,166.32q-14.85,20.46 -40.44,17.82" id="svg_11"/>
   <path stroke="#cad5e7" d="m1067.34,185.82q0.14,9.6 5.25,17.13q5.03,7.39 13.25,10.78q11.79,4.84 24.57,-1.61" id="svg_12"/>
   <path stroke="#767b91" d="m957.71,615.12l0.08,-77.15q0,-0.57 0.52,-0.35q74.01,30.95 147.97,62.07c3.93,1.65 8.36,4.01 12.52,3.75q9.74,-0.6 13.27,-10.36q0.19,-0.52 -0.13,-0.98l-112.58,-162.28q-0.34,-0.48 -0.91,-0.35q-17.29,4.19 -34.56,8.54q-8.97,2.27 -12.95,1.75c-5.51,-0.72 -12.41,-4.65 -13.71,-10.78q-1.4,-6.59 -6.66,-10.75q-1.95,-1.54 -2.93,-3.16q-6.3,-10.4 -12.76,-20.77q-0.25,-0.39 -0.7,-0.31l-8.06,1.58q-0.55,0.11 -0.59,-0.45l-0.09,-1.42q-0.04,-0.66 0.61,-0.78l6.46,-1.18q0.69,-0.12 0.33,-0.72q-3.07,-5.17 -6.31,-10.24c-1.24,-1.94 -1.24,-3.59 -0.97,-5.75q0.08,-0.64 0.42,-0.09q16.55,26.76 33.08,53.5q4.55,7.37 12.08,8.68q3.31,0.58 9.16,-0.87q117.09,-29.04 234.2,-58.05q0.48,-0.12 0.51,-0.61q0.84,-11.86 -9.76,-16.3q-178.11,-74.69 -356.22,-149.39q-6.94,-2.91 -10.42,-2.75q-6.26,0.3 -10.62,5.97q-0.34,0.43 -0.05,0.9l40.32,65.34q0.4,0.64 -0.35,0.64l-1.8,0.01q-0.53,0.01 -0.8,-0.44l-38.56,-62.48q-0.5,-0.8 -0.84,0.08l-24.16,62.42q-0.16,0.41 -0.61,0.41l-22.58,0q-0.4,0 -0.72,-0.25q-15.84,-12.52 -31.7,-25.04c-6.07,-4.79 -11.09,-7.17 -18.34,-5.11q-3.57,1.01 -9.37,5.6q-15.47,12.23 -31,24.48a1.46,1.45 -64.2 0 1 -0.91,0.32q-65.04,0.01 -130.08,-0.01c-9.54,0 -17.25,0.61 -20.97,9.61q-1.48,3.6 -1.47,12q0.01,49.34 0,98.88a0.93,0.92 -18.7 0 1 -0.37,0.74q-9.2,7.22 -18.38,14.55c-5.86,4.68 -7.72,9.35 -7.72,17.15q0.01,9.82 -0.05,19.72q0,0.52 -0.51,0.67l-155.72,45.69" id="svg_13"/>
   <path stroke="#666c86" d="m957.65,629.93l-2.37,0.38" id="svg_14"/>
   <path stroke="#888998" d="m955.28,630.31q-0.04,-97.23 -0.03,-194.36c0,-10.84 -4.83,-18.82 -16.87,-18.94q-1.96,-0.02 -3.83,1.18q-92.44,59.22 -184.91,118.78q-0.48,0.31 0,0.63l168.08,110.29" id="svg_15"/>
   <path stroke="#666c86" d="m917.72,647.89l-2.32,1.58" id="svg_16"/>
   <path stroke="#888998" d="m915.4,649.47q-85.59,-56.17 -170.48,-111.86c-5.46,-3.58 -9.77,-5.43 -15.84,-4.19q-3.55,0.73 -10.6,5.35q-104.03,68.27 -208.1,136.54q-0.44,0.29 -0.44,0.81c0.02,11.18 6.96,17.4 17.61,17.4q168.05,-0.05 336.27,-0.01" id="svg_17"/>
   <path stroke="#666c86" d="m863.82,693.51q0.24,1.43 -1.18,2.51" id="svg_18"/>
   <path stroke="#767b91" d="m862.64,696.02q-167.64,-0.05 -334.33,0q-6.12,0 -9.44,-1.33q-7.27,-2.91 -10.03,-10.18q-1.36,-3.58 -1.33,-11.24q0.06,-13.89 -0.04,-27.93q0,-0.57 -0.56,-0.41l-132.37,38.84" id="svg_19"/>
   <path stroke="#dde3ee" d="m915.4,649.47q-23.95,14.88 -43.28,34.73c-2.56,2.63 -5.3,6.44 -8.3,9.31" id="svg_20"/>
   <path stroke="#cad5e7" d="m881.84,809.37q-37.9,-22.32 -35.06,-66.6q1.58,-24.45 15.86,-46.75" id="svg_21"/>
   <path stroke="#dde3ee" d="m955.28,630.31q-19.93,6.91 -37.56,17.58" id="svg_22"/>
   <path stroke="#888998" d="m285.4375,451.2196a28.18,27.1 89.7 0 0 26.9521,-28.3215a28.18,27.1 89.7 0 0 -27.2471,-28.0377a28.18,27.1 89.7 0 0 -26.9521,28.3215a28.18,27.1 89.7 0 0 27.2471,28.0377" id="svg_23"/>
   <path stroke="#888998" d="m1160.785,729.7798a18.15,17.45 89.7 0 0 17.3548,-18.2412a18.15,17.45 89.7 0 0 -17.5448,-18.0584a18.15,17.45 89.7 0 0 -17.3548,18.2412a18.15,17.45 89.7 0 0 17.5448,18.0584" id="svg_24"/>
   <path stroke="#767b91" d="m478.3933,389.7099a18.12,17.42 89.8 0 0 17.3566,-18.1807a18.12,17.42 89.8 0 0 -17.4832,-18.0591a18.12,17.42 89.8 0 0 -17.3566,18.1807a18.12,17.42 89.8 0 0 17.4832,18.0591" id="svg_25"/>
   <path stroke="#767b91" d="m1133.07,589.16a0.32,0.32 0 0 0 0.56,-0.06l80.35,-207.62a0.32,0.32 0 0 0 -0.38,-0.42l-191.43,47.48a0.32,0.32 0 0 0 -0.19,0.49l111.09,160.13" id="svg_26"/>
   <path stroke="#888998" d="m738.15,254.49c-3.93,-1.61 -10.12,-1.46 -13.91,1.48q-16.28,12.62 -32.37,25.58q-0.56,0.45 0.16,0.45l80.98,0q0.9,0 0.2,-0.56q-13.11,-10.55 -26.23,-20.78q-6.88,-5.37 -8.83,-6.17" id="svg_27"/>
   <path stroke="#767b91" d="m580.7,447.16l5.45,3.17" id="svg_28"/>
   <path stroke="#888998" d="m586.15,450.33l32.63,21.27" id="svg_29"/>
   <path stroke="#767b91" d="m618.78,471.6l29.06,18.68" id="svg_30"/>
   <path stroke="#888998" d="m647.84,490.28l31.74,20.24" id="svg_31"/>
   <path stroke="#767b91" d="m679.58,510.52l28.43,18.36" id="svg_32"/>
   <path stroke="#888998" d="m708.01,528.88l10.06,6.58q0.38,0.26 0.76,-0.01q13.69,-9.85 27.42,-0.04q0.43,0.31 0.88,0.02l9.95,-6.49" id="svg_33"/>
   <path stroke="#767b91" d="m757.08,528.94l28.74,-18.46" id="svg_34"/>
   <path stroke="#888998" d="m785.82,510.48l32.73,-20.97" id="svg_35"/>
   <path stroke="#767b91" d="m818.55,489.51l27.99,-17.91" id="svg_36"/>
   <path stroke="#888998" d="m846.54,471.6l76.21,-48.95a0.54,0.53 -16.7 0 0 0.25,-0.45q0,-60.82 0,-121.71q0,-5.46 -1.33,-8.27c-3.44,-7.29 -9.59,-7.72 -17.83,-7.72q-174.7,-0.01 -349.4,0c-7.42,0 -13.33,0.98 -16.47,7.72q-1.48,3.19 -1.48,10.8q0.01,57.6 0.01,115.27q0,0.52 0.43,0.8l43.77,28.07" id="svg_37"/>
   <path stroke="#edf1f9" d="m846.54,471.6c-1.17,-0.16 -2.27,-0.61 -3.41,-0.61q-110.19,0.03 -220.38,0.01q-1.96,0 -3.97,0.6" id="svg_38"/>
   <path stroke="#edf1f9" d="m586.15,450.33q142.06,-0.13 283.23,-0.08q4.48,0 6.55,-1.09c6.06,-3.2 5.58,-13.82 -0.14,-16.48q-2.55,-1.19 -9.75,-1.19q-136.4,-0.01 -272.8,0.01c-5.7,0 -10.37,-0.15 -12.88,4.65q-2.19,4.16 0.34,11.01" id="svg_39"/>
   <path stroke="#edf1f9" d="m818.55,489.51l-169.83,0.03q-0.42,0 -0.64,0.35l-0.24,0.39" id="svg_40"/>
   <path stroke="#edf1f9" d="m785.82,510.48l-106.24,0.04" id="svg_41"/>
   <path stroke="#edf1f9" d="m757.08,528.94l-49.07,-0.06" id="svg_42"/>
   <path stroke="#888998" d="m926.03,402.16a0.33,0.33 0 0 0 -0.53,0.26l0,17.87a0.33,0.33 0 0 0 0.51,0.27l9.36,-6.01a0.33,0.33 0 0 1 0.18,-0.05l5.13,0a0.33,0.33 0 0 0 0.21,-0.59l-14.86,-11.75" id="svg_43"/>
   <path stroke="#888998" d="m524.17,413.96a0.3,0.3 0 0 0 0.19,0.54l5.3,0a0.3,0.3 0 0 1 0.16,0.05l3.72,2.38a0.3,0.3 0 0 0 0.46,-0.25l0,-9.79a0.3,0.3 0 0 0 -0.48,-0.24l-9.35,7.31" id="svg_44"/>
   <path stroke="#888998" d="m530.88,418.31c-7.13,-4.58 -17.24,1.98 -19.77,8.71q-1.11,2.98 -1.11,10.6q0,117.24 0,234.3a0.31,0.3 -16.8 0 0 0.48,0.25l205.27,-134.69a0.26,0.25 -45.4 0 0 0,-0.43q-92.44,-59.35 -184.87,-118.74" id="svg_45"/>
   <path stroke="#888998" d="m360.05,528.78q-7.73,2.23 -15.74,4.62c-8,2.38 -4.49,8.58 -2.97,14.02c1.06,3.8 4.4,3.86 7.78,2.88q7.91,-2.3 16.11,-4.74" id="svg_46"/>
   <path stroke="#767b91" d="m365.23,545.56l62.46,-18.33a4.91,4.9 -15.7 0 0 3.36,-5.97l-2.07,-7.73a4.67,4.67 0 0 0 -5.83,-3.27l-63.1,18.52" id="svg_47"/>
   <path stroke="#edf1f9" d="m365.23,545.56l-5.18,-16.78" id="svg_48"/>
   <path stroke="#888998" d="m379.39,573.23c-8.66,2.55 -7.72,15.26 0.01,17.61q2.23,0.68 5.67,-0.33q60.96,-17.86 121.92,-35.77q0.51,-0.15 0.51,-0.69l0,-17.77q0,-0.64 -0.62,-0.46q-63.8,18.67 -127.49,37.41" id="svg_49"/>
   <path stroke="#888998" d="m390.39,615.92c-8.55,2.52 -6.64,16.66 1.42,17.73q1.8,0.23 4.95,-0.69q55.12,-16.15 110.26,-32.35q0.48,-0.14 0.48,-0.64l0,-17.94q0,-0.53 -0.51,-0.38q-58.33,17.1 -116.6,34.27" id="svg_50"/>
   <path stroke="#888998" d="m718.9714,322.3617a8.5,8.5 0 0 0 -8.4851,-8.5148l-122.4598,-0.2138a8.5,8.5 0 0 0 -8.5149,8.4852l-0.003,1.76a8.5,8.5 0 0 0 8.4851,8.5148l122.4598,0.2138a8.5,8.5 0 0 0 8.5149,-8.4852l0.003,-1.76" id="svg_51"/>
   <path stroke="#edf1f9" d="m880.24,361.65a8.65,8.65 0 0 0 -8.65,-8.65l-283.48,0a8.65,8.65 0 0 0 -8.65,8.65l0,1.46a8.65,8.65 0 0 0 8.65,8.65l283.48,0a8.65,8.65 0 0 0 8.65,-8.65l0,-1.46" id="svg_52"/>
   <path stroke="#edf1f9" d="m880.24,400.88a8.63,8.63 0 0 0 -8.63,-8.63l-283.52,0a8.63,8.63 0 0 0 -8.63,8.63l0,1.5a8.63,8.63 0 0 0 8.63,8.63l283.52,0a8.63,8.63 0 0 0 8.63,-8.63l0,-1.5" id="svg_53"/>
   <path stroke="#888998" d="m478.4659,387.1394a15.57,14.91 89.5 0 0 14.7735,-15.6995a15.57,14.91 89.5 0 0 -15.0453,-15.4393a15.57,14.91 89.5 0 0 -14.7735,15.6995a15.57,14.91 89.5 0 0 15.0453,15.4393" id="svg_54"/>
   <path stroke="#888998" d="m285.29,448.61a25.59,24.55 90 0 0 24.55,-25.59a25.59,24.55 90 0 0 -24.55,-25.59a25.59,24.55 90 0 0 -24.55,25.59a25.59,24.55 90 0 0 24.55,25.59" id="svg_55"/>
   <path stroke="#666c86" d="m977.16,716.61c-5.06,-11.5 -18.63,-14.11 -29.67,-10.61c-19.16,6.09 -34.99,35.65 -26.2,54.44c6.4,13.69 22.31,18.16 34.87,10.42a0.34,0.33 70 0 1 0.51,0.24q0.85,6.53 7.13,8.57c16.86,5.46 34.08,-2.06 44.48,-15.74q11.26,-14.81 10.98,-33.53c-0.72,-50.15 -66.19,-66.66 -100.05,-38.33c-21.09,17.63 -30.32,52.29 -19.52,77.72c6.04,14.21 18.17,24.34 32.21,30.51c25.87,11.38 59.9,13.92 79.68,-10.42a0.55,0.54 -64.1 0 0 -0.3,-0.88l-12.27,-2.79q-0.51,-0.12 -0.91,0.2c-12.59,9.81 -26.31,10.8 -42.05,8.26c-15.39,-2.49 -31.97,-9.9 -40.78,-22.72q-12.01,-17.45 -6.2,-39.51c6.63,-25.17 25.42,-43.96 52.9,-41.6c10.65,0.92 22.25,4.13 30.6,10.55c23.37,17.98 18.09,52.03 -6.98,65.39c-2.92,1.56 -10.72,4.52 -9.78,-1.5q0.26,-1.65 2.42,-6.57q9.49,-21.66 18.84,-43.47q0.23,-0.54 -0.34,-0.67l-15.73,-3.53q-0.57,-0.13 -0.82,0.41l-2.3,5.16q-0.36,0.8 -0.72,0" id="svg_56"/>
   <path stroke="#cad5e7" d="m678.2071,810.2479a21.28,20.44 89.2 0 0 20.1409,-21.5633a21.28,20.44 89.2 0 0 -20.7351,-20.9925a21.28,20.44 89.2 0 0 -20.1409,21.5633a21.28,20.44 89.2 0 0 20.7351,20.9925" id="svg_57"/>
   <path stroke="#666c86" d="m956.46,717.5c-13.32,2.67 -26.13,29.06 -18.75,40.65c3.4,5.34 10.15,6.03 15.65,3.22c10.15,-5.21 20.29,-25.28 16.43,-36.43c-1.84,-5.34 -7.47,-8.61 -13.33,-7.44" id="svg_58"/>
   <path stroke="#888998" d="m1160.8086,727.1796a15.56,14.89 89.6 0 0 14.781,-15.6636a15.56,14.89 89.6 0 0 -14.9982,-15.4556a15.56,14.89 89.6 0 0 -14.781,15.6636a15.56,14.89 89.6 0 0 14.9982,15.4556" id="svg_59"/>
  </g>
  <path fill="#ffffff" d="m0,0l1500,0l0,1000l-1500,0l0,-1000zm595.38,184.14q-67.65,32.09 -130.69,71.31c-50.67,31.53 -97.63,73.55 -117.39,131.05q-13.12,38.21 -5.73,78q1.69,9.13 4.04,18.44q2.33,9.19 5.64,18.06q-19.03,5.59 -38.64,11.36c-4.07,1.2 -7.2,3.95 -6.02,8.31q21.75,80.28 43.48,160.57c1.25,4.64 3.33,8.69 8.71,7.13q7.55,-2.2 15.76,-4.6q0.36,16.24 0.81,23.23q3.25,50.43 31.99,91.72c43.61,62.65 118.96,98.1 194.16,101.26c39.3,1.66 77.88,-3.8 115.99,-14.32q51.85,-14.31 104.71,-41.24c20.36,-10.38 41.71,-20.7 59.64,-35.05c19.19,11.38 40.87,17.79 60.77,27.95c20.73,10.57 41.31,21.74 65.29,13.09q10.33,-3.72 19.79,-11.34c22.51,-18.14 39.48,-46.29 40.11,-75.76c0.44,-20.49 -6.8,-41.04 -21.04,-56.04q-5.52,-5.82 -10.99,-9.08c-3.9,-2.32 -8.74,-4.88 -11.65,-7.79c-7.21,-7.22 -6.73,-18.13 -8.17,-27.63c-4.84,-31.89 -29.63,-42.16 -58.3,-32.84l0.06,-14.81c24,-19.43 50.02,-30.09 79.8,-37.58c3.65,-0.92 5.51,-1.55 9.18,-0.03q29.65,12.31 59.25,24.81q8.2,3.47 11.98,3.62c8.53,0.36 13.71,-4.92 16.75,-12.62q6.25,-15.88 12.33,-31.82q0.76,-1.99 1.71,-2.32c47.07,-16.15 65.61,-59.07 82.34,-102.11q2.92,-7.52 4.4,-14.93q8.46,-42.39 3.22,-85.23c-3.87,-31.61 -16.25,-63.04 -41.77,-82.8q-40.5,-31.36 -86.49,-61.99c9.58,-6.24 14.71,-15.39 14.57,-26.92c-0.25,-20.93 -21.54,-36.46 -41.4,-26.34q-15.07,7.67 -16.24,26.96q-39.26,-22.85 -83.08,-39.58c-50.12,-19.14 -103.41,-28.25 -156.76,-25.63q-63.66,3.14 -126,22.36q-35.25,10.87 -65.68,23.35c1.87,-3.49 3.83,-6.93 4.9,-10.56q6.23,-21.17 -5.53,-38.38c-12.36,-18.08 -36.93,-23.24 -54.77,-11.26c-20.07,13.48 -25.01,41.42 -11.08,61.14q9.03,12.78 26.04,16.88zm-309.9425,267.0796a28.18,27.1 89.7 0 0 26.9521,-28.3215a28.18,27.1 89.7 0 0 -27.2471,-28.0377a28.18,27.1 89.7 0 0 -26.9521,28.3215a28.18,27.1 89.7 0 0 27.2471,28.0377zm875.3475,278.5602a18.15,17.45 89.7 0 0 17.3548,-18.2412a18.15,17.45 89.7 0 0 -17.5448,-18.0584a18.15,17.45 89.7 0 0 -17.3548,18.2412a18.15,17.45 89.7 0 0 17.5448,18.0584z" id="svg_60"/>
  <path fill="#aaab93" d="m635.82,166.32q-14.85,20.46 -40.44,17.82q-17.01,-4.1 -26.04,-16.88c-13.93,-19.72 -8.99,-47.66 11.08,-61.14c17.84,-11.98 42.41,-6.82 54.77,11.26q11.76,17.21 5.53,38.38c-1.07,3.63 -3.03,7.07 -4.9,10.56z" id="svg_61"/>
  <path fill="#eeeeee" d="m1067.34,185.82q0.14,9.6 5.25,17.13q5.03,7.39 13.25,10.78q11.79,4.84 24.57,-1.61q45.99,30.63 86.49,61.99c25.52,19.76 37.9,51.19 41.77,82.8q5.24,42.84 -3.22,85.23q-1.48,7.41 -4.4,14.93c-16.73,43.04 -35.27,85.96 -82.34,102.11q-0.95,0.33 -1.71,2.32q-6.08,15.94 -12.33,31.82c-3.04,7.7 -8.22,12.98 -16.75,12.62q-3.78,-0.15 -11.98,-3.62q-29.6,-12.5 -59.25,-24.81c-3.67,-1.52 -5.53,-0.89 -9.18,0.03c-29.78,7.49 -55.8,18.15 -79.8,37.58l0.08,-77.15q0,-0.57 0.52,-0.35q74.01,30.95 147.97,62.07c3.93,1.65 8.36,4.01 12.52,3.75q9.74,-0.6 13.27,-10.36q0.19,-0.52 -0.13,-0.98l-112.58,-162.28q-0.34,-0.48 -0.91,-0.35q-17.29,4.19 -34.56,8.54q-8.97,2.27 -12.95,1.75c-5.51,-0.72 -12.41,-4.65 -13.71,-10.78q-1.4,-6.59 -6.66,-10.75q-1.95,-1.54 -2.93,-3.16q-6.3,-10.4 -12.76,-20.77q-0.25,-0.39 -0.7,-0.31l-8.06,1.58q-0.55,0.11 -0.59,-0.45l-0.09,-1.42q-0.04,-0.66 0.61,-0.78l6.46,-1.18q0.69,-0.12 0.33,-0.72q-3.07,-5.17 -6.31,-10.24c-1.24,-1.94 -1.24,-3.59 -0.97,-5.75q0.08,-0.64 0.42,-0.09q16.55,26.76 33.08,53.5q4.55,7.37 12.08,8.68q3.31,0.58 9.16,-0.87q117.09,-29.04 234.2,-58.05q0.48,-0.12 0.51,-0.61q0.84,-11.86 -9.76,-16.3q-178.11,-74.69 -356.22,-149.39q-6.94,-2.91 -10.42,-2.75q-6.26,0.3 -10.62,5.97q-0.34,0.43 -0.05,0.9l40.32,65.34q0.4,0.64 -0.35,0.64l-1.8,0.01q-0.53,0.01 -0.8,-0.44l-38.56,-62.48q-0.5,-0.8 -0.84,0.08l-24.16,62.42q-0.16,0.41 -0.61,0.41l-22.58,0q-0.4,0 -0.72,-0.25q-15.84,-12.52 -31.7,-25.04c-6.07,-4.79 -11.09,-7.17 -18.34,-5.11q-3.57,1.01 -9.37,5.6q-15.47,12.23 -31,24.48a1.46,1.45 -64.2 0 1 -0.91,0.32q-65.04,0.01 -130.08,-0.01c-9.54,0 -17.25,0.61 -20.97,9.61q-1.48,3.6 -1.47,12q0.01,49.34 0,98.88a0.93,0.92 -18.7 0 1 -0.37,0.74q-9.2,7.22 -18.38,14.55c-5.86,4.68 -7.72,9.35 -7.72,17.15q0.01,9.82 -0.05,19.72q0,0.52 -0.51,0.67l-155.72,45.69q-3.31,-8.87 -5.64,-18.06q-2.35,-9.31 -4.04,-18.44q-7.39,-39.79 5.73,-78c19.76,-57.5 66.72,-99.52 117.39,-131.05q63.04,-39.22 130.69,-71.31q25.59,2.64 40.44,-17.82q30.43,-12.48 65.68,-23.35q62.34,-19.22 126,-22.36c53.35,-2.62 106.64,6.49 156.76,25.63q43.82,16.73 83.08,39.58zm-588.9467,203.8899a18.12,17.42 89.8 0 0 17.3566,-18.1807a18.12,17.42 89.8 0 0 -17.4832,-18.0591a18.12,17.42 89.8 0 0 -17.3566,18.1807a18.12,17.42 89.8 0 0 17.4832,18.0591zm654.6767,199.4501a0.32,0.32 0 0 0 0.56,-0.06l80.35,-207.62a0.32,0.32 0 0 0 -0.38,-0.42l-191.43,47.48a0.32,0.32 0 0 0 -0.19,0.49l111.09,160.13z" id="svg_62"/>
  <path fill="#aaab93" d="m1110.41,212.12q-12.78,6.45 -24.57,1.61q-8.22,-3.39 -13.25,-10.78q-5.11,-7.53 -5.25,-17.13q1.17,-19.29 16.24,-26.96c19.86,-10.12 41.15,5.41 41.4,26.34c0.14,11.53 -4.99,20.68 -14.57,26.92z" id="svg_63"/>
  <path fill="#444444" d="m957.71,615.12l-0.06,14.81l-2.37,0.38q-0.04,-97.23 -0.03,-194.36c0,-10.84 -4.83,-18.82 -16.87,-18.94q-1.96,-0.02 -3.83,1.18q-92.44,59.22 -184.91,118.78q-0.48,0.31 0,0.63l168.08,110.29l-2.32,1.58q-85.59,-56.17 -170.48,-111.86c-5.46,-3.58 -9.77,-5.43 -15.84,-4.19q-3.55,0.73 -10.6,5.35q-104.03,68.27 -208.1,136.54q-0.44,0.29 -0.44,0.81c0.02,11.18 6.96,17.4 17.61,17.4q168.05,-0.05 336.27,-0.01q0.24,1.43 -1.18,2.51q-167.64,-0.05 -334.33,0q-6.12,0 -9.44,-1.33q-7.27,-2.91 -10.03,-10.18q-1.36,-3.58 -1.33,-11.24q0.06,-13.89 -0.04,-27.93q0,-0.57 -0.56,-0.41l-132.37,38.84q-8.21,2.4 -15.76,4.6c-5.38,1.56 -7.46,-2.49 -8.71,-7.13q-21.73,-80.29 -43.48,-160.57c-1.18,-4.36 1.95,-7.11 6.02,-8.31q19.61,-5.77 38.64,-11.36l155.72,-45.69q0.51,-0.15 0.51,-0.67q0.06,-9.9 0.05,-19.72c0,-7.8 1.86,-12.47 7.72,-17.15q9.18,-7.33 18.38,-14.55a0.93,0.92 -18.7 0 0 0.37,-0.74q0.01,-49.54 0,-98.88q-0.01,-8.4 1.47,-12c3.72,-9 11.43,-9.61 20.97,-9.61q65.04,0.02 130.08,0.01a1.46,1.45 -64.2 0 0 0.91,-0.32q15.53,-12.25 31,-24.48q5.8,-4.59 9.37,-5.6c7.25,-2.06 12.27,0.32 18.34,5.11q15.86,12.52 31.7,25.04q0.32,0.25 0.72,0.25l22.58,0q0.45,0 0.61,-0.41l24.16,-62.42q0.34,-0.88 0.84,-0.08l38.56,62.48q0.27,0.45 0.8,0.44l1.8,-0.01q0.75,0 0.35,-0.64l-40.32,-65.34q-0.29,-0.47 0.05,-0.9q4.36,-5.67 10.62,-5.97q3.48,-0.16 10.42,2.75q178.11,74.7 356.22,149.39q10.6,4.44 9.76,16.3q-0.03,0.49 -0.51,0.61q-117.11,29.01 -234.2,58.05q-5.85,1.45 -9.16,0.87q-7.53,-1.31 -12.08,-8.68q-16.53,-26.74 -33.08,-53.5q-0.34,-0.55 -0.42,0.09c-0.27,2.16 -0.27,3.81 0.97,5.75q3.24,5.07 6.31,10.24q0.36,0.6 -0.33,0.72l-6.46,1.18q-0.65,0.12 -0.61,0.78l0.09,1.42q0.04,0.56 0.59,0.45l8.06,-1.58q0.45,-0.08 0.7,0.31q6.46,10.37 12.76,20.77q0.98,1.62 2.93,3.16q5.26,4.16 6.66,10.75c1.3,6.13 8.2,10.06 13.71,10.78q3.98,0.52 12.95,-1.75q17.27,-4.35 34.56,-8.54q0.57,-0.13 0.91,0.35l112.58,162.28q0.32,0.46 0.13,0.98q-3.53,9.76 -13.27,10.36c-4.16,0.26 -8.59,-2.1 -12.52,-3.75q-73.96,-31.12 -147.97,-62.07q-0.52,-0.22 -0.52,0.35l-0.08,77.15zm-219.56,-360.63c-3.93,-1.61 -10.12,-1.46 -13.91,1.48q-16.28,12.62 -32.37,25.58q-0.56,0.45 0.16,0.45l80.98,0q0.9,0 0.2,-0.56q-13.11,-10.55 -26.23,-20.78q-6.88,-5.37 -8.83,-6.17zm-157.45,192.67l5.45,3.17l32.63,21.27l29.06,18.68l31.74,20.24l28.43,18.36l10.06,6.58q0.38,0.26 0.76,-0.01q13.69,-9.85 27.42,-0.04q0.43,0.31 0.88,0.02l9.95,-6.49l28.74,-18.46l32.73,-20.97l27.99,-17.91l76.21,-48.95a0.54,0.53 -16.7 0 0 0.25,-0.45q0,-60.82 0,-121.71q0,-5.46 -1.33,-8.27c-3.44,-7.29 -9.59,-7.72 -17.83,-7.72q-174.7,-0.01 -349.4,0c-7.42,0 -13.33,0.98 -16.47,7.72q-1.48,3.19 -1.48,10.8q0.01,57.6 0.01,115.27q0,0.52 0.43,0.8l43.77,28.07zm345.33,-45a0.33,0.33 0 0 0 -0.53,0.26l0,17.87a0.33,0.33 0 0 0 0.51,0.27l9.36,-6.01a0.33,0.33 0 0 1 0.18,-0.05l5.13,0a0.33,0.33 0 0 0 0.21,-0.59l-14.86,-11.75zm-401.86,11.8a0.3,0.3 0 0 0 0.19,0.54l5.3,0a0.3,0.3 0 0 1 0.16,0.05l3.72,2.38a0.3,0.3 0 0 0 0.46,-0.25l0,-9.79a0.3,0.3 0 0 0 -0.48,-0.24l-9.35,7.31zm6.71,4.35c-7.13,-4.58 -17.24,1.98 -19.77,8.71q-1.11,2.98 -1.11,10.6q0,117.24 0,234.3a0.31,0.3 -16.8 0 0 0.48,0.25l205.27,-134.69a0.26,0.25 -45.4 0 0 0,-0.43q-92.44,-59.35 -184.87,-118.74zm-170.83,110.47q-7.73,2.23 -15.74,4.62c-8,2.38 -4.49,8.58 -2.97,14.02c1.06,3.8 4.4,3.86 7.78,2.88q7.91,-2.3 16.11,-4.74l62.46,-18.33a4.91,4.9 -15.7 0 0 3.36,-5.97l-2.07,-7.73a4.67,4.67 0 0 0 -5.83,-3.27l-63.1,18.52zm19.34,44.45c-8.66,2.55 -7.72,15.26 0.01,17.61q2.23,0.68 5.67,-0.33q60.96,-17.86 121.92,-35.77q0.51,-0.15 0.51,-0.69l0,-17.77q0,-0.64 -0.62,-0.46q-63.8,18.67 -127.49,37.41zm11,42.69c-8.55,2.52 -6.64,16.66 1.42,17.73q1.8,0.23 4.95,-0.69q55.12,-16.15 110.26,-32.35q0.48,-0.14 0.48,-0.64l0,-17.94q0,-0.53 -0.51,-0.38q-58.33,17.1 -116.6,34.27z" id="svg_64"/>
  <path fill="#ffffff" d="m724.24,255.97c3.79,-2.94 9.98,-3.09 13.91,-1.48q1.95,0.8 8.83,6.17q13.12,10.23 26.23,20.78q0.7,0.56 -0.2,0.56l-80.98,0q-0.72,0 -0.16,-0.45q16.09,-12.96 32.37,-25.58z" id="svg_65"/>
  <path fill="#ffffff" d="m846.54,471.6c-1.17,-0.16 -2.27,-0.61 -3.41,-0.61q-110.19,0.03 -220.38,0.01q-1.96,0 -3.97,0.6l-32.63,-21.27q142.06,-0.13 283.23,-0.08q4.48,0 6.55,-1.09c6.06,-3.2 5.58,-13.82 -0.14,-16.48q-2.55,-1.19 -9.75,-1.19q-136.4,-0.01 -272.8,0.01c-5.7,0 -10.37,-0.15 -12.88,4.65q-2.19,4.16 0.34,11.01l-43.77,-28.07q-0.43,-0.28 -0.43,-0.8q0,-57.67 -0.01,-115.27q0,-7.61 1.48,-10.8c3.14,-6.74 9.05,-7.72 16.47,-7.72q174.7,-0.01 349.4,0c8.24,0 14.39,0.43 17.83,7.72q1.33,2.81 1.33,8.27q0,60.89 0,121.71a0.54,0.53 -16.7 0 1 -0.25,0.45l-76.21,48.95zm-127.5686,-149.2383a8.5,8.5 0 0 0 -8.4851,-8.5148l-122.4598,-0.2138a8.5,8.5 0 0 0 -8.5149,8.4852l-0.003,1.76a8.5,8.5 0 0 0 8.4851,8.5148l122.4598,0.2138a8.5,8.5 0 0 0 8.5149,-8.4852l0.003,-1.76zm161.2686,39.2883a8.65,8.65 0 0 0 -8.65,-8.65l-283.48,0a8.65,8.65 0 0 0 -8.65,8.65l0,1.46a8.65,8.65 0 0 0 8.65,8.65l283.48,0a8.65,8.65 0 0 0 8.65,-8.65l0,-1.46zm0,39.23a8.63,8.63 0 0 0 -8.63,-8.63l-283.52,0a8.63,8.63 0 0 0 -8.63,8.63l0,1.5a8.63,8.63 0 0 0 8.63,8.63l283.52,0a8.63,8.63 0 0 0 8.63,-8.63l0,-1.5z" id="svg_66"/>
  <rect fill="#aaab93" x="579.50999" y="313.739995" transform="rotate(0.10000000149011612 649.2399902343726,323.11999511721433) " width="139.46" height="18.76" rx="8.5" id="svg_67"/>
  <rect fill="#aaab93" x="579.46" y="353" width="300.78" height="18.76" rx="8.65" id="svg_68"/>
  <path fill="#aaab93" d="m478.3933,389.7099a18.12,17.42 89.8 0 1 -17.4832,-18.0591a18.12,17.42 89.8 0 1 17.3566,-18.1807a18.12,17.42 89.8 0 1 17.4832,18.0591a18.12,17.42 89.8 0 1 -17.3566,18.1807zm0.0726,-2.5705a15.57,14.91 89.5 0 0 14.7735,-15.6995a15.57,14.91 89.5 0 0 -15.0453,-15.4393a15.57,14.91 89.5 0 0 -14.7735,15.6995a15.57,14.91 89.5 0 0 15.0453,15.4393z" id="svg_69" stroke="null"/>
  <ellipse fill="#aaab93" cx="478.329977" cy="371.569975" transform="rotate(89.5 478.32995605468744,371.5699768066406) " rx="16.403464" ry="15.317679" id="svg_70" stroke="null"/>
  <path fill="#444444" d="m1133.07,589.16l-111.09,-160.13a0.32,0.32 0 0 1 0.19,-0.49l191.43,-47.48a0.32,0.32 0 0 1 0.38,0.42l-80.35,207.62a0.32,0.32 0 0 1 -0.56,0.06z" id="svg_71"/>
  <rect fill="#aaab93" x="579.46" y="392.25" width="300.78" height="18.76" rx="8.63" id="svg_72"/>
  <path fill="#aaab93" d="m285.4375,451.2196a28.18,27.1 89.7 0 1 -27.2471,-28.0377a28.18,27.1 89.7 0 1 26.9521,-28.3215a28.18,27.1 89.7 0 1 27.2471,28.0377a28.18,27.1 89.7 0 1 -26.9521,28.3215zm-0.1475,-2.6096a25.59,24.55 90 0 0 24.55,-25.59a25.59,24.55 90 0 0 -24.55,-25.59a25.59,24.55 90 0 0 -24.55,25.59a25.59,24.55 90 0 0 24.55,25.59z" id="svg_73"/>
  <ellipse fill="#aaab93" cx="285.29001" cy="423.227456" transform="rotate(90 285.2900085449219,423.2274475097657) " rx="26.212407" ry="24.964938" id="svg_74" stroke="null"/>
  <path fill="#ffffff" d="m926.03,402.16l14.86,11.75a0.33,0.33 0 0 1 -0.21,0.59l-5.13,0a0.33,0.33 0 0 0 -0.18,0.05l-9.36,6.01a0.33,0.33 0 0 1 -0.51,-0.27l0,-17.87a0.33,0.33 0 0 1 0.53,-0.26z" id="svg_75"/>
  <path fill="#ffffff" d="m524.17,413.96l9.35,-7.31a0.3,0.3 0 0 1 0.48,0.24l0,9.79a0.3,0.3 0 0 1 -0.46,0.25l-3.72,-2.38a0.3,0.3 0 0 0 -0.16,-0.05l-5.3,0a0.3,0.3 0 0 1 -0.19,-0.54z" id="svg_76"/>
  <path fill="#ffffff" d="m511.11,427.02c2.53,-6.73 12.64,-13.29 19.77,-8.71q92.43,59.39 184.87,118.74a0.26,0.25 -45.4 0 1 0,0.43l-205.27,134.69a0.31,0.3 -16.8 0 1 -0.48,-0.25q0,-117.06 0,-234.3q0,-7.62 1.11,-10.6z" id="svg_77"/>
  <path fill="#ffffff" d="m955.28,630.31q-19.93,6.91 -37.56,17.58l-168.08,-110.29q-0.48,-0.32 0,-0.63q92.47,-59.56 184.91,-118.78q1.87,-1.2 3.83,-1.18c12.04,0.12 16.87,8.1 16.87,18.94q-0.01,97.13 0.03,194.36z" id="svg_78"/>
  <path fill="#aaab93" d="m586.15,450.33l-5.45,-3.17q-2.53,-6.85 -0.34,-11.01c2.51,-4.8 7.18,-4.65 12.88,-4.65q136.4,-0.02 272.8,-0.01q7.2,0 9.75,1.19c5.72,2.66 6.2,13.28 0.14,16.48q-2.07,1.09 -6.55,1.09q-141.17,-0.05 -283.23,0.08z" id="svg_79"/>
  <path fill="#aaab93" d="m846.54,471.6l-27.99,17.91l-169.83,0.03q-0.42,0 -0.64,0.35l-0.24,0.39l-29.06,-18.68q2.01,-0.6 3.97,-0.6q110.19,0.02 220.38,-0.01c1.14,0 2.24,0.45 3.41,0.61z" id="svg_80"/>
  <path fill="#ffffff" d="m818.55,489.51l-32.73,20.97l-106.24,0.04l-31.74,-20.24l0.24,-0.39q0.22,-0.35 0.64,-0.35l169.83,-0.03z" id="svg_81"/>
  <path fill="#eeeeee" d="m365.23,545.56l-5.18,-16.78l63.1,-18.52a4.67,4.67 0 0 1 5.83,3.27l2.07,7.73a4.91,4.9 -15.7 0 1 -3.36,5.97l-62.46,18.33z" id="svg_82"/>
  <path fill="#aaab93" d="m785.82,510.48l-28.74,18.46l-49.07,-0.06l-28.43,-18.36l106.24,-0.04z" id="svg_83"/>
  <path fill="#ffffff" d="m757.08,528.94l-9.95,6.49q-0.45,0.29 -0.88,-0.02q-13.73,-9.81 -27.42,0.04q-0.38,0.27 -0.76,0.01l-10.06,-6.58l49.07,0.06z" id="svg_84"/>
  <path fill="#ffffff" d="m360.05,528.78l5.18,16.78q-8.2,2.44 -16.11,4.74c-3.38,0.98 -6.72,0.92 -7.78,-2.88c-1.52,-5.44 -5.03,-11.64 2.97,-14.02q8.01,-2.39 15.74,-4.62z" id="svg_85"/>
  <path fill="#ffffff" d="m915.4,649.47q-23.95,14.88 -43.28,34.73c-2.56,2.63 -5.3,6.44 -8.3,9.31q-168.22,-0.04 -336.27,0.01c-10.65,0 -17.59,-6.22 -17.61,-17.4q0,-0.52 0.44,-0.81q104.07,-68.27 208.1,-136.54q7.05,-4.62 10.6,-5.35c6.07,-1.24 10.38,0.61 15.84,4.19q84.89,55.69 170.48,111.86z" id="svg_86"/>
  <path fill="#ffffff" d="m379.4,590.84c-7.73,-2.35 -8.67,-15.06 -0.01,-17.61q63.69,-18.74 127.49,-37.41q0.62,-0.18 0.62,0.46l0,17.77q0,0.54 -0.51,0.69q-60.96,17.91 -121.92,35.77q-3.44,1.01 -5.67,0.33z" id="svg_87"/>
  <path fill="#ffffff" d="m391.81,633.65c-8.06,-1.07 -9.97,-15.21 -1.42,-17.73q58.27,-17.17 116.6,-34.27q0.51,-0.15 0.51,0.38l0,17.94q0,0.5 -0.48,0.64q-55.14,16.2 -110.26,32.35q-3.15,0.92 -4.95,0.69z" id="svg_88"/>
  <path fill="#aaab93" d="m881.84,809.37q-37.9,-22.32 -35.06,-66.6q1.58,-24.45 15.86,-46.75q1.42,-1.08 1.18,-2.51c3,-2.87 5.74,-6.68 8.3,-9.31q19.33,-19.85 43.28,-34.73l2.32,-1.58q17.63,-10.67 37.56,-17.58l2.37,-0.38c28.67,-9.32 53.46,0.95 58.3,32.84c1.44,9.5 0.96,20.41 8.17,27.63c2.91,2.91 7.75,5.47 11.65,7.79q5.47,3.26 10.99,9.08c14.24,15 21.48,35.55 21.04,56.04c-0.63,29.47 -17.6,57.62 -40.11,75.76q-9.46,7.62 -19.79,11.34c-23.98,8.65 -44.56,-2.52 -65.29,-13.09c-19.9,-10.16 -41.58,-16.57 -60.77,-27.95zm95.32,-92.76c-5.06,-11.5 -18.63,-14.11 -29.67,-10.61c-19.16,6.09 -34.99,35.65 -26.2,54.44c6.4,13.69 22.31,18.16 34.87,10.42a0.34,0.33 70 0 1 0.51,0.24q0.85,6.53 7.13,8.57c16.86,5.46 34.08,-2.06 44.48,-15.74q11.26,-14.81 10.98,-33.53c-0.72,-50.15 -66.19,-66.66 -100.05,-38.33c-21.09,17.63 -30.32,52.29 -19.52,77.72c6.04,14.21 18.17,24.34 32.21,30.51c25.87,11.38 59.9,13.92 79.68,-10.42a0.55,0.54 -64.1 0 0 -0.3,-0.88l-12.27,-2.79q-0.51,-0.12 -0.91,0.2c-12.59,9.81 -26.31,10.8 -42.05,8.26c-15.39,-2.49 -31.97,-9.9 -40.78,-22.72q-12.01,-17.45 -6.2,-39.51c6.63,-25.17 25.42,-43.96 52.9,-41.6c10.65,0.92 22.25,4.13 30.6,10.55c23.37,17.98 18.09,52.03 -6.98,65.39c-2.92,1.56 -10.72,4.52 -9.78,-1.5q0.26,-1.65 2.42,-6.57q9.49,-21.66 18.84,-43.47q0.23,-0.54 -0.34,-0.67l-15.73,-3.53q-0.57,-0.13 -0.82,0.41l-2.3,5.16q-0.36,0.8 -0.72,0z" id="svg_89"/>
  <path fill="#eeeeee" d="m862.64,696.02q-14.28,22.3 -15.86,46.75q-2.84,44.28 35.06,66.6c-17.93,14.35 -39.28,24.67 -59.64,35.05q-52.86,26.93 -104.71,41.24c-38.11,10.52 -76.69,15.98 -115.99,14.32c-75.2,-3.16 -150.55,-38.61 -194.16,-101.26q-28.74,-41.29 -31.99,-91.72q-0.45,-6.99 -0.81,-23.23l132.37,-38.84q0.56,-0.16 0.56,0.41q0.1,14.04 0.04,27.93q-0.03,7.66 1.33,11.24q2.76,7.27 10.03,10.18q3.32,1.33 9.44,1.33q166.69,-0.05 334.33,0zm-184.4329,114.2279a21.28,20.44 89.2 0 0 20.1409,-21.5633a21.28,20.44 89.2 0 0 -20.7351,-20.9925a21.28,20.44 89.2 0 0 -20.1409,21.5633a21.28,20.44 89.2 0 0 20.7351,20.9925z" id="svg_90"/>
  <path fill="#ffffff" d="m977.88,716.61l2.3,-5.16q0.25,-0.54 0.82,-0.41l15.73,3.53q0.57,0.13 0.34,0.67q-9.35,21.81 -18.84,43.47q-2.16,4.92 -2.42,6.57c-0.94,6.02 6.86,3.06 9.78,1.5c25.07,-13.36 30.35,-47.41 6.98,-65.39c-8.35,-6.42 -19.95,-9.63 -30.6,-10.55c-27.48,-2.36 -46.27,16.43 -52.9,41.6q-5.81,22.06 6.2,39.51c8.81,12.82 25.39,20.23 40.78,22.72c15.74,2.54 29.46,1.55 42.05,-8.26q0.4,-0.32 0.91,-0.2l12.27,2.79a0.55,0.54 -64.1 0 1 0.3,0.88c-19.78,24.34 -53.81,21.8 -79.68,10.42c-14.04,-6.17 -26.17,-16.3 -32.21,-30.51c-10.8,-25.43 -1.57,-60.09 19.52,-77.72c33.86,-28.33 99.33,-11.82 100.05,38.33q0.28,18.72 -10.98,33.53c-10.4,13.68 -27.62,21.2 -44.48,15.74q-6.28,-2.04 -7.13,-8.57a0.34,0.33 70 0 0 -0.51,-0.24c-12.56,7.74 -28.47,3.27 -34.87,-10.42c-8.79,-18.79 7.04,-48.35 26.2,-54.44c11.04,-3.5 24.61,-0.89 29.67,10.61q0.36,0.8 0.72,0zm-21.42,0.89c-13.32,2.67 -26.13,29.06 -18.75,40.65c3.4,5.34 10.15,6.03 15.65,3.22c10.15,-5.21 20.29,-25.28 16.43,-36.43c-1.84,-5.34 -7.47,-8.61 -13.33,-7.44z" id="svg_91"/>
  <path fill="#aaab93" d="m1160.785,729.7798a18.15,17.45 89.7 0 1 -17.5448,-18.0584a18.15,17.45 89.7 0 1 17.3548,-18.2412a18.15,17.45 89.7 0 1 17.5448,18.0584a18.15,17.45 89.7 0 1 -17.3548,18.2412zm0.0236,-2.6002a15.56,14.89 89.6 0 0 14.781,-15.6636a15.56,14.89 89.6 0 0 -14.9982,-15.4556a15.56,14.89 89.6 0 0 -14.781,15.6636a15.56,14.89 89.6 0 0 14.9982,15.4556z" id="svg_92"/>
  <ellipse stroke="null" fill="#aaab93" cx="1160.701372" cy="711.814557" transform="rotate(89.5999984741211 1160.7012939453125,711.814514160156) " rx="16.140924" ry="15.281812" id="svg_93"/>
  <path fill="#aaab93" d="m937.71,758.15c-7.38,-11.59 5.43,-37.98 18.75,-40.65c5.86,-1.17 11.49,2.1 13.33,7.44c3.86,11.15 -6.28,31.22 -16.43,36.43c-5.5,2.81 -12.25,2.12 -15.65,-3.22z" id="svg_94"/>
  <ellipse fill="#aaab93" cx="677.909973" cy="788.969971" transform="rotate(89.19999694824219 677.9099731445314,788.9699707031249) " rx="21.28" ry="20.44" id="svg_95"/>
 </g>
</svg>