<svg width="1536" height="1365" xmlns="http://www.w3.org/2000/svg">
 <g>
  <title>background</title>
  <rect fill="none" id="canvas_background" height="1367" width="1538" y="-1" x="-1"/>
 </g>

 <g>
  <title>Layer 1</title>
  <g id="svg_1" fill="none" stroke-width="2">
   <path id="svg_2" d="m980.09,177.18a20.75,20.75 0 0 0 -20.75,-20.75a20.75,20.75 0 0 0 -20.75,20.75a20.75,20.75 0 0 0 20.75,20.75a20.75,20.75 0 0 0 20.75,-20.75" stroke="#dfe9f7"/>
   <path id="svg_3" d="m974.67,276.25q-41.32,-21.93 -81.28,-34.15c-111.6,-34.1 -232.33,-25.35 -338.15,26.39q-2.06,1.01 -3.53,5.22" stroke="#f6f9ff"/>
   <path id="svg_5" d="m482.66,316q-4.56,0.23 -7.42,2.5q-108.98,86.19 -153.65,217.23q-3.23,9.48 -5.91,19.11q-32.4,116.2 -5.22,232.41q21.9,93.63 81.61,172.41q0.75,0.99 2.87,1.81" stroke="#f6f9ff"/>
   <path id="svg_6" d="m394.94,961.47l0.41,3.6" stroke="#dfe9f7"/>
   <path id="svg_7" d="m395.35,965.07q-0.29,2.79 -0.29,5.68q-0.03,89.08 -0.08,178.17q0,13.83 1.57,19.01q3.65,12.03 15.47,18.1c5.55,2.84 9.69,3.06 15.98,3.18q11,0.19 16.86,-0.77" stroke="#edf1f7"/>
   <path id="svg_8" d="m444.86,1188.44q1.71,0.23 3.93,0.55q1.97,0.28 3.93,0.28q299.14,-0.02 598.28,-0.02q14.92,0 19.87,-1.42c13.18,-3.79 22.01,-16.92 21.62,-30.79q-0.11,-3.96 -0.11,-4.08q-0.08,-78.58 -0.06,-157.17" stroke="#a6b9c9"/>
   <path id="svg_9" d="m1092.32,995.79q-0.23,-2.58 1.96,-2.74q0.51,-0.04 0.87,-0.41q12.87,-13.45 23.43,-27.04q91.57,-117.81 98.18,-267.91q0.05,-1.36 0.79,-4.06q0.81,-2.99 -0.64,-4.31" stroke="#f6f9ff"/>
   <path id="svg_10" d="m1216.91,689.32l2.04,-9.47" stroke="#a6b9c9"/>
   <path id="svg_11" d="m1218.95,679.85q15.7,-9.12 25.77,-19.37q3.68,-3.74 0.22,-8.14a0.47,0.46 -16.7 0 0 -0.35,-0.18q-0.35,-0.02 -0.76,-0.11q-0.21,-0.05 -0.27,-0.26q-0.04,-0.12 -0.07,-0.27" stroke="#edf1f7"/>
   <path id="svg_12" d="m1243.49,651.52c2.88,-2.35 9.47,-7.16 10.6,-10.55c1.19,-3.56 -2.65,-7.96 -6.47,-6.86q-1.41,0.4 -3.71,2.51q-10.28,9.46 -22.17,16.85q-1.01,0.63 -1.53,3.38q-0.12,0.63 -0.56,0.16q-1.94,-2.15 -3.87,-2.58" stroke="#a6b9c9"/>
   <path id="svg_13" d="m1215.78,654.43l-0.88,-18.72" stroke="#f6f9ff"/>
   <path id="svg_14" d="m1214.9,635.71c3.72,-2.44 2.85,-6.37 1.74,-10.26q-2.97,-10.37 -6.76,-19.74" stroke="#a6b9c9"/>
   <path id="svg_15" d="m1209.88,605.71q0.03,-5.61 -2.19,-16.21q-11.93,-56.86 -34.92,-104.81" stroke="#f6f9ff"/>
   <path id="svg_16" d="m1172.77,484.69q0.08,-0.45 0.84,-0.61" stroke="#dfe9f7"/>
   <path id="svg_17" d="m1173.61,484.08q17.71,-8.63 32.23,-21.84a0.89,0.89 0 0 1 1.22,0.02q7.19,6.87 13.97,14.46c4.63,5.19 13.54,-1.38 7.44,-8.45q-6.25,-7.23 -13.32,-13.48a0.96,0.96 0 0 1 -0.16,-1.26l3.2,-4.64" stroke="#edf1f7"/>
   <path id="svg_18" d="m1218.19,448.89q4.9,4.57 9.2,9.41c2.53,2.84 5.17,4.77 8.63,2.37c4.39,-3.06 1.93,-7.76 -1.12,-10.81q-5.03,-5.03 -9.56,-9.7" stroke="#a6b9c9"/>
   <path id="svg_19" d="m1225.34,440.16q4.86,-4.79 7.86,-10.2q0.88,-1.58 1.19,-4.07" stroke="#edf1f7"/>
   <path id="svg_20" d="m1234.39,425.89c33.57,-36.24 48.61,-85.39 39.47,-134.25c-13.95,-74.55 -80.1,-127.9 -155.87,-125.75c-67.23,1.91 -123.68,46.52 -143.32,110.36" stroke="#a6b9c9"/>
   <path id="svg_21" d="m1234.39,425.89l-11.58,11q-0.42,0.4 0,0.8l2.53,2.47" stroke="#94abc1"/>
   <path id="svg_22" d="m1218.19,448.89l-4.46,-4.23q-0.41,-0.39 -0.87,-0.06l-5.51,3.96" stroke="#94abc1"/>
   <path id="svg_23" d="m1207.35,448.56l-8.53,5.13" stroke="#86a3c0"/>
   <path id="svg_24" d="m1198.82,453.69q-16.17,9.13 -34.01,14.28" stroke="#94abc1"/>
   <path id="svg_25" d="m1164.81,467.97c-59.39,16.69 -124.56,-3.17 -162.81,-52.06q-39.29,-50.21 -32.51,-115.96" stroke="#86a3c0"/>
   <path id="svg_26" d="m969.49,299.95l5.18,-23.7" stroke="#9db3c8"/>
   <path id="svg_27" d="m1198.82,453.69q1.76,3.6 5.03,6c0.9,0.65 1.93,1.93 3.27,1.19q3.8,-2.09 6.67,-6.64q0.27,-0.43 -0.06,-0.82q-2.64,-3.19 -6.38,-4.86" stroke="#ccdbef"/>
   <path id="svg_28" d="m1164.81,467.97l7.01,13.96a1.62,1.55 88.8 0 0 0.7,0.7q1.11,0.57 1.09,1.45" stroke="#ccdbef"/>
   <path id="svg_29" d="m969.49,299.95q-1.79,2.46 -2.12,3.41c-26.44,75.27 13.65,160 88.49,187.04q58.87,21.26 116.91,-5.71" stroke="#d5e3f6"/>
   <path id="svg_30" d="m1209.88,605.71c-1.26,-2.43 -2.43,-5.67 -4.55,-7.01c-4.48,-2.83 -10.01,2.2 -7.9,6.83q6.2,13.63 8.95,24.72q0.9,3.65 2.28,4.94q2.52,2.35 6.24,0.52" stroke="#9db3c8"/>
   <path id="svg_31" d="m1215.78,654.43c-4.85,0.24 -5.97,2.49 -6.21,7.11q-0.24,4.45 -0.58,9.01" stroke="#9db3c8"/>
   <path id="svg_32" d="m1208.99,670.55q-1.46,1.23 -4.2,0.92" stroke="#d5e3f6"/>
   <path id="svg_33" d="m1204.79,671.47c0.42,-6.76 -4.11,-7.54 -9.41,-5.73q-11.55,3.95 -23.68,5.46c-3.54,0.44 -6.35,1.8 -6.2,5.63c0.2,4.89 4.02,5.88 8.25,5.17q17.12,-2.85 28.06,-6.88" stroke="#9db3c8"/>
   <path id="svg_34" d="m1201.81,675.12q-0.05,14.91 -3.79,29.12q-0.62,2.35 1.3,6.12" stroke="#d5e3f6"/>
   <path id="svg_35" d="m1199.32,710.36q-2.95,0.46 -4.66,3.31q-6.16,10.19 -15.98,18.83c-3.65,3.22 -4.95,6.56 -0.92,10.11" stroke="#9db3c8"/>
   <path id="svg_36" d="m1177.76,742.61q-2.1,2.21 -7.95,7.45c-5.68,5.09 0.64,13.73 7,8.5q11.7,-9.6 19.51,-22.53c1.4,-2.31 1.37,-4.51 0.85,-7" stroke="#d5e3f6"/>
   <path id="svg_37" d="m1197.17,729.03q4.47,-5.45 7.21,-10.15q2.06,-3.55 -0.52,-6.95" stroke="#9db3c8"/>
   <path id="svg_38" d="m1203.86,711.93q7.29,-4.16 6.86,-17.53" stroke="#d5e3f6"/>
   <path id="svg_39" d="m1210.72,694.4q4.4,0.33 6.19,-5.08" stroke="#9db3c8"/>
   <path id="svg_40" d="m1092.32,995.79q0.01,-88.97 -0.01,-177.95c0,-9.53 -1.22,-16.13 -6.78,-23.03c-3.78,-4.69 -10.62,-8.99 -16.01,-13.17" stroke="#9db3c8"/>
   <path id="svg_41" d="m1069.52,781.64q9.61,1.76 18.72,2.85q4.08,0.49 5.33,-0.34c4.22,-2.79 3.79,-9.93 -1.62,-10.37q-13.31,-1.09 -26.14,-4.6q-3.29,-0.9 -4.76,-0.67q-3.08,0.49 -3.76,3.85" stroke="#d5e3f6"/>
   <path id="svg_42" d="m1057.29,772.36q-0.84,-0.56 -0.84,-1.08q0.13,-108.48 -0.01,-216.96c0,-1.55 -0.38,-3.67 -1.36,-4.63q-59.77,-58.5 -119.61,-116.93q-1.97,-1.91 -4.72,-1.91q-212.25,0.07 -424.5,0.05q-2.85,0 -10.37,1.08" stroke="#9db3c8"/>
   <path id="svg_43" d="m495.88,431.98q-10.13,-1.94 -19.14,-1.01c-19.96,2.05 -36.45,13.92 -43.24,32.74q-2.51,6.98 -2.51,12.79q-0.02,146.77 -0.01,293.55q0,1.77 -1.42,2.81q-9.35,6.86 -18.54,13.62q-6.65,4.88 -10.21,9.59c-4.99,6.62 -5.88,13.82 -5.87,22.91q0.11,71.24 0,142.49" stroke="#d5e3f6"/>
   <path id="svg_45" d="m1243.49,651.52q-6.7,5.49 -14.08,10.05c-3.28,2.04 -6.01,1.87 -8.31,-1.24q-0.5,-0.68 -0.57,0.16l-1.58,19.36" stroke="#94abc1"/>
   <path id="svg_46" d="m1210.72,694.4q-3.91,-0.43 -4.75,-3.71q-0.42,-1.65 0.42,-5.32q1.7,-7.41 2.6,-14.82" stroke="#86a3c0"/>
   <path id="svg_47" d="m495.88,431.98c-18.1,5.91 -32.1,18.68 -36.04,37.1q-1.11,5.19 -1.11,19.92q0.02,140.96 0.01,281.45a2.47,2.47 0 0 1 -0.98,1.97q-8.92,6.76 -17.75,13.43q-9.12,6.9 -11.96,10.95q-5.33,7.61 -5.32,17.45q0.08,90.11 -0.01,181.17" stroke="#86a3c0"/>
   <path id="svg_48" d="m422.72,995.42q-13.72,-14 -25.4,-29a1.16,1.12 71.8 0 0 -0.86,-0.45q-1.39,-0.07 -1.11,-0.9" stroke="#ccdbef"/>
   <path id="svg_49" d="m1204.79,671.47q-0.89,2.69 -2.98,3.65" stroke="#86a3c0"/>
   <path id="svg_50" d="m1197.17,729.03q-5.53,6.85 -12.24,12.66q-3.45,2.99 -7.17,0.92" stroke="#86a3c0"/>
   <path id="svg_51" d="m1203.86,711.93q-2.48,-1.78 -4.54,-1.57" stroke="#86a3c0"/>
   <path id="svg_52" d="m1057.29,772.36l12.23,9.28" stroke="#86a3c0"/>
   <path id="svg_53" d="m444.86,1188.44q-16.16,-6.18 -20.65,-20.55q-1.4,-4.48 -1.41,-13.44q-0.07,-79.95 -0.08,-159.03" stroke="#94abc1"/>
   <path id="svg_54" d="m1258.24,503.16c2.21,4.43 5.09,9.86 10.67,5.5c3.79,-2.96 1.08,-7.04 -0.6,-10.35c-2.27,-4.46 -11.54,-22.84 -15.62,-24.27c-4.64,-1.62 -9.54,3.79 -6.71,8q6.82,10.16 12.26,21.12" stroke="#a6b9c9"/>
   <path id="svg_55" d="m1261.88,517.77c-4.13,-8.74 -8.98,-16.98 -14.58,-24.87c-4.49,-6.33 -12.73,0.6 -9.02,6.08q7.79,11.5 13.84,24c3.63,7.51 13.94,3.64 9.76,-5.21" stroke="#edf1f7"/>
   <path id="svg_56" d="m1273.4,544.73q-7.08,-3.49 -10.01,0.85q-1.44,2.14 -0.93,3.93q3.84,13.71 4.71,26q0.14,1.95 0.43,3.37c0.75,3.79 4.72,5.14 7.93,3.34c2.98,-1.67 2.8,-3.88 2.66,-6.98q-0.3,-6.44 -1.59,-10.12" stroke="#edf1f7"/>
   <path id="svg_57" d="m1276.6,565.12c6.85,3.14 9.95,-0.67 9.35,-7.12q-1.37,-14.85 -4.74,-27q-1.53,-5.47 -6.69,-4.44c-4.09,0.82 -4.63,4.66 -3.73,8.33q1.12,4.54 2.61,9.84" stroke="#a6b9c9"/>
   <path id="svg_58" d="m1276.6,565.12q-2.61,-9.26 -3.2,-20.39" stroke="#94abc1"/>
   <path id="svg_59" d="m1261.41,618.01q-3.56,6.38 -6.82,12.56c-2.34,4.46 1.43,9.96 6.18,8.35q2.09,-0.71 3.94,-3.54q4.16,-6.36 5.88,-13.69" stroke="#edf1f7"/>
   <path id="svg_60" d="m1270.59,621.69q8.58,-13.5 12.51,-29.43q0.71,-2.84 0.05,-4.56c-1.62,-4.2 -8.66,-4.6 -10,-0.22q-4.9,16.04 -10.98,26.47q-0.53,0.91 -0.76,4.06" stroke="#a6b9c9"/>
   <path id="svg_61" d="m1270.59,621.69q-6.63,2.27 -9.18,-3.68" stroke="#94abc1"/>
   <path id="svg_62" d="m1324.81,819.89a31.99,31.99 0 0 0 -31.99,-31.99a31.99,31.99 0 0 0 -31.99,31.99a31.99,31.99 0 0 0 31.99,31.99a31.99,31.99 0 0 0 31.99,-31.99" stroke="#dfe9f7"/>
   <path id="svg_63" d="m1264.54,319.89a142.09,142.09 0 0 0 -142.09,-142.09a142.09,142.09 0 0 0 -142.09,142.09a142.09,142.09 0 0 0 142.09,142.09a142.09,142.09 0 0 0 142.09,-142.09" stroke="#a6b9c9"/>
   <path id="svg_66" d="m1162.2,567.83q10.96,3.59 18.94,12.36q2.71,2.97 3.79,3.53c3.76,1.94 8.95,-2.31 7.58,-6.39c-2.28,-6.78 -25.29,-23.94 -32.27,-19.49c-4.44,2.83 -2.62,8.48 1.96,9.99" stroke="#9db3c8"/>
   <path id="svg_67" d="m1108.21,585.3l-0.11,0.34a0.33,0.32 -66.7 0 1 -0.47,0.19q-0.18,-0.1 -0.37,-0.2q-0.18,-0.09 -0.34,0.03c-4.89,3.71 -11.54,8.64 -8.58,15.24" stroke="#d5e3f6"/>
   <path id="svg_68" d="m1098.34,600.9c-7.26,1.19 -5.93,11.69 -5.68,16.61" stroke="#9db3c8"/>
   <path id="svg_69" d="m1092.66,617.51q-6.51,-0.51 -7.32,4.98q-1.93,13.07 2.09,27.26q1.22,4.3 2.75,6.05c2.52,2.86 8.75,1.59 9.39,-2.68q0.22,-1.43 -0.76,-4.15q-1.99,-5.5 -1.9,-11.22" stroke="#d5e3f6"/>
   <path id="svg_70" d="m1096.91,637.75c4.35,5.74 12.35,1.82 10.23,-4.32q-4.82,-13.97 -3.02,-27.42q0.11,-0.85 -1.02,-2.84" stroke="#9db3c8"/>
   <path id="svg_71" d="m1103.1,603.17c1.35,-0.91 2.84,-1.33 3.94,-2.56q8.46,-9.5 20.14,-14.43c4.08,-1.72 6.4,-3.5 4.5,-8.13q-0.86,-2.11 -5.93,-3.79" stroke="#d5e3f6"/>
   <path id="svg_72" d="m1125.75,574.26q5.65,-3.49 10.65,-5.4c4.34,-1.67 4.92,-7.54 1.19,-9.74c-6.81,-4.02 -24.56,10.67 -28.89,15.16c-3.56,3.69 -5.38,7.38 -0.49,11.02" stroke="#9db3c8"/>
   <path id="svg_73" d="m1125.75,574.26q-3.98,2.74 -11.55,10.18q-2.31,2.27 -5.99,0.86" stroke="#86a3c0"/>
   <path id="svg_74" d="m1103.1,603.17q-1.81,-2.21 -4.76,-2.27" stroke="#86a3c0"/>
   <path id="svg_75" d="m1096.91,637.75q-3.58,-9.91 -4.25,-20.24" stroke="#86a3c0"/>
   <path id="svg_76" d="m1177.81,600.55c4.2,1.45 9.27,-3.92 6.38,-7.75q-9.45,-12.57 -24.91,-18.27c-3.43,-1.26 -7.09,-1.48 -8.71,2.22c-1.18,2.69 -0.34,6.35 2.61,7.38q12.2,4.23 20.01,12.65q2.97,3.2 4.62,3.77" stroke="#d5e3f6"/>
   <path id="svg_77" d="m1204.43,628.73q-2.43,-7.8 -5.17,-11.74c-3.71,-5.33 -12.23,-0.65 -9.74,4.99q6.43,14.61 9.19,25.44c0.91,3.58 2.7,6.84 6.75,5.78q5.67,-1.5 4.1,-7.97c-1.35,-5.58 -3.47,-11.16 -5.13,-16.5" stroke="#d5e3f6"/>
   <path id="svg_78" d="m1116.23,666.64c6.48,6.14 14.4,10.48 22.94,13.05c8.65,2.6 11.16,-8.12 4.67,-10.09q-13.49,-4.1 -22.52,-13.18c-6.11,-6.14 -13.63,3.09 -7.09,8.54q1.89,1.58 2,1.68" stroke="#9db3c8"/>
   <path id="svg_79" d="m1139.08,693.82c2.05,-4.68 -0.85,-6.78 -5.05,-8.1q-11.33,-3.57 -19.75,-11.92q-1.77,-1.76 -2.81,-2.23c-3.56,-1.64 -7.94,1.39 -7.63,5.13q0.19,2.41 2.64,4.88q10.91,10.99 26.03,15.1q4.76,1.29 6.57,-2.86" stroke="#d5e3f6"/>
   <path id="svg_80" d="m1195.74,690.46c3.57,-3.95 -0.56,-10.56 -5.54,-8.91q-14.54,4.82 -25.56,6.26q-3.8,0.49 -5.16,1.56c-2.74,2.13 -2.26,7.71 1.3,9.21q1.45,0.61 4.02,0.31q13.99,-1.62 27.23,-6.32q2.66,-0.94 3.71,-2.11" stroke="#d5e3f6"/>
   <path id="svg_81" d="m1156.72,758.96c5.33,-1.92 7,-8.75 1,-11.06q-1.73,-0.66 -2.93,-0.15q-12.73,5.46 -26.34,7.87q-3.26,0.58 -4.57,1.95c-2.22,2.31 -1.75,6.1 0.7,8.14c4.15,3.45 25.62,-4.41 32.14,-6.75" stroke="#9db3c8"/>
   <path id="svg_82" d="m1069.2,762.58q14.34,4.11 28.06,5.18c9.02,0.7 9.45,-10.38 0.98,-10.94q-11.84,-0.78 -25.05,-4.51c-3.02,-0.86 -5.77,-1.06 -7.59,1.57c-2.54,3.63 -0.54,7.52 3.6,8.7" stroke="#9db3c8"/>
   <path id="svg_83" d="m1124.37,771.57c-2.48,0.45 -5.69,0.67 -7.59,2.13c-4.32,3.32 -1.5,10.49 3.95,9.74c5.34,-0.74 29.95,-5.85 32.48,-11c2.64,-5.39 -3.28,-9.33 -8.22,-7.16q-9.94,4.35 -20.62,6.29" stroke="#d5e3f6"/>
   <path id="svg_84" d="m581.16,857.66l52.75,32.57" stroke="#9db3c8"/>
   <path id="svg_85" d="m633.91,890.23l59.83,36.89" stroke="#a6b9c9"/>
   <path id="svg_86" d="m693.74,927.12l35.6,21.97" stroke="#9db3c8"/>
   <path id="svg_87" d="m729.34,949.09l6.87,4.2q0.48,0.29 0.97,0q20.4,-12.32 40.71,0.04a0.84,0.84 0 0 0 0.88,0l7.66,-4.61" stroke="#86a3c0"/>
   <path id="svg_88" d="m786.43,948.72l35.59,-22.01" stroke="#9db3c8"/>
   <path id="svg_89" d="m822.02,926.71l59.51,-36.72" stroke="#a6b9c9"/>
   <path id="svg_90" d="m881.53,889.99l54.05,-33.36" stroke="#9db3c8"/>
   <path id="svg_91" d="m935.58,856.63l107.65,-66.43a1.3,1.28 -15.9 0 0 0.62,-1.1l-0.11,-197.89" stroke="#a6b9c9"/>
   <path id="svg_92" d="m1043.74,591.21l0.2,-30.79q0.01,-0.61 -0.61,-0.61l-92.55,0.02" stroke="#94abc1"/>
   <path id="svg_93" d="m950.78,559.83c-15.34,-2.57 -26.31,-14.54 -26.26,-30.33q0.14,-42.95 0.24,-85.63q0,-0.62 -0.63,-0.62q-203.7,0.02 -407.29,0q-13.48,-0.01 -19.04,1.53c-15.5,4.27 -26.54,18.43 -26.54,34.72q-0.01,154.77 -0.01,309.68a1.2,1.18 16 0 0 0.57,1.01l109.34,67.47" stroke="#a6b9c9"/>
   <path id="svg_94" d="m950.78,559.83q0.1,1.3 1.4,1.83q10.89,4.46 25.83,7.56q30.22,6.27 61,8.74q0.5,0.04 1.99,0.63q0.4,0.16 0.84,0.13l1.08,-0.1q0.7,-0.06 0.7,0.64l0.12,11.95" stroke="#edf1f7"/>
   <path id="svg_95" d="m935.58,856.63q-2.96,-1.51 -6.94,-1.24q-5.48,0.39 -5.55,0.39q-165.33,-0.1 -330.65,0.01c-2.97,0.01 -6.46,-0.29 -9.73,-0.27q-1.07,0.01 -1.55,2.14" stroke="#f6f9ff"/>
   <path id="svg_96" d="m881.53,889.99c-0.87,-1.76 -2.88,-0.75 -4.07,-0.74q-151.72,0.32 -239.46,-0.02q-2.7,-0.02 -4.09,1" stroke="#f6f9ff"/>
   <path id="svg_97" d="m822.02,926.71q-0.6,-0.16 -0.72,-1.17a0.64,0.64 0 0 0 -0.64,-0.57q-62.46,-0.17 -124.91,0.11q-1.89,0.01 -2.01,2.04" stroke="#f6f9ff"/>
   <path id="svg_98" d="m786.43,948.72q-3.82,-1.65 -12.27,-7.4q-16.45,-11.19 -33.63,0.25q-5.63,3.75 -11.19,7.52" stroke="#d5e3f6"/>
   <path id="svg_99" d="m937.12,529.75c-0.02,7.03 3.88,13.54 10.23,16.28q3.42,1.47 11.51,1.48q37.55,0.01 75.26,0.02a0.34,0.34 0 0 0 0.24,-0.59l-96.55,-94.49a0.31,0.31 0 0 0 -0.53,0.22q-0.04,38.44 -0.16,77.08" stroke="#94abc1"/>
   <path id="svg_100" d="m568.07,1059.77l156.49,-98.51a0.35,0.35 0 0 0 0,-0.6l-6.51,-4.05" stroke="#86a3c0"/>
   <path id="svg_101" d="m718.05,956.61q-129.64,-80.02 -258.02,-159.22c-8.57,-5.29 -20.32,1.75 -23.41,9.61q-1.56,3.96 -1.56,14.2q0.05,161.13 -0.01,322.13a0.29,0.29 0 0 0 0.44,0.24l132.58,-83.8" stroke="#94abc1"/>
   <path id="svg_102" d="m718.05,956.61q-26.64,18.55 -61.36,41.61q-31.67,21.04 -72.29,49.13q-3.83,2.66 -7.81,5.15q-0.81,0.51 -3.26,2.53q-1.39,1.15 -3.43,2.33q-1.28,0.74 -1.83,2.41" stroke="#ccdbef"/>
   <path id="svg_103" d="m796.86,956.82l-6.2,3.88q-0.5,0.31 0.01,0.63l152.48,95.94" stroke="#86a3c0"/>
   <path id="svg_104" d="m943.15,1057.27l136.58,86.33a0.18,0.18 0 0 0 0.28,-0.15q0.02,-164.19 0.17,-328.45c0.01,-12.37 -10.19,-20.75 -22.13,-18.99q-1.05,0.15 -2.78,1.22q-127.32,78.58 -254.68,157.1q-2.07,1.28 -3.73,2.49" stroke="#94abc1"/>
   <path id="svg_105" d="m943.15,1057.27q0.52,-0.96 -0.49,-1.05q-3.01,-3.68 -7.02,-6.03q-5.79,-3.39 -5.87,-3.45q-66.42,-44.96 -132.91,-89.92" stroke="#ccdbef"/>
   <path id="svg_106" d="m762.34,960q-9.35,-2.01 -18.25,3.6q-154.43,97.35 -308.28,194.35q-1.13,0.71 -0.89,2.03q2.14,11.72 11.66,15.48q3.56,1.41 11.04,1.41q299.01,-0.05 598.03,-0.01q9.11,0 13.01,-1.48q10.13,-3.86 11.43,-16.43a0.72,0.71 19.6 0 0 -0.33,-0.68q-153.4,-96.91 -306.59,-193.14q-6.79,-4.26 -10.83,-5.13" stroke="#a6b9c9"/>
   <path id="svg_108" d="m990.52,594.98a16.72,16.72 0 0 0 -16.72,-16.72l-397.94,0a16.72,16.72 0 0 0 -16.72,16.72l0,0.3a16.72,16.72 0 0 0 16.72,16.72l397.94,0a16.72,16.72 0 0 0 16.72,-16.72l0,-0.3" stroke="#f6f9ff"/>
   <path id="svg_109" d="m988.84,664.33a16.65,16.65 0 0 0 -16.65,-16.65l-440.78,0a16.65,16.65 0 0 0 -16.65,16.65l0,0.28a16.65,16.65 0 0 0 16.65,16.65l440.78,0a16.65,16.65 0 0 0 16.65,-16.65l0,-0.28" stroke="#f6f9ff"/>
   <path id="svg_110" d="m988.82,733.65a16.73,16.73 0 0 0 -16.73,-16.73l-440.56,0a16.73,16.73 0 0 0 -16.73,16.73l0,0.28a16.73,16.73 0 0 0 16.73,16.73l440.56,0a16.73,16.73 0 0 0 16.73,-16.73l0,-0.28" stroke="#f6f9ff"/>
   <path id="svg_111" d="m988.82,803a16.74,16.74 0 0 0 -16.74,-16.74l-440.56,0a16.74,16.74 0 0 0 -16.74,16.74l0,0.26a16.74,16.74 0 0 0 16.74,16.74l440.56,0a16.74,16.74 0 0 0 16.74,-16.74l0,-0.26" stroke="#f6f9ff"/>
  </g>
  <path id="svg_112" d="m0,0l1536,0l0,1365l-1536,0l0,-1365zm980.09,177.18a20.75,20.75 0 0 0 -20.75,-20.75a20.75,20.75 0 0 0 -20.75,20.75a20.75,20.75 0 0 0 20.75,20.75a20.75,20.75 0 0 0 20.75,-20.75zm-5.42,99.07q-41.32,-21.93 -81.28,-34.15c-111.6,-34.1 -232.33,-25.35 -338.15,26.39q-2.06,1.01 -3.53,5.22q-9.54,-18.25 -28.01,-22.37c-37.05,-8.26 -63.88,33.41 -41.04,64.66q-4.56,0.23 -7.42,2.5q-108.98,86.19 -153.65,217.23q-3.23,9.48 -5.91,19.11q-32.4,116.2 -5.22,232.41q21.9,93.63 81.61,172.41q0.75,0.99 2.87,1.81l0.41,3.6q-0.29,2.79 -0.29,5.68q-0.03,89.08 -0.08,178.17q0,13.83 1.57,19.01q3.65,12.03 15.47,18.1c5.55,2.84 9.69,3.06 15.98,3.18q11,0.19 16.86,-0.77q1.71,0.23 3.93,0.55q1.97,0.28 3.93,0.28q299.14,-0.02 598.28,-0.02q14.92,0 19.87,-1.42c13.18,-3.79 22.01,-16.92 21.62,-30.79q-0.11,-3.96 -0.11,-4.08q-0.08,-78.58 -0.06,-157.17q-0.23,-2.58 1.96,-2.74q0.51,-0.04 0.87,-0.41q12.87,-13.45 23.43,-27.04q91.57,-117.81 98.18,-267.91q0.05,-1.36 0.79,-4.06q0.81,-2.99 -0.64,-4.31l2.04,-9.47q15.7,-9.12 25.77,-19.37q3.68,-3.74 0.22,-8.14a0.47,0.46 -16.7 0 0 -0.35,-0.18q-0.35,-0.02 -0.76,-0.11q-0.21,-0.05 -0.27,-0.26q-0.04,-0.12 -0.07,-0.27c2.88,-2.35 9.47,-7.16 10.6,-10.55c1.19,-3.56 -2.65,-7.96 -6.47,-6.86q-1.41,0.4 -3.71,2.51q-10.28,9.46 -22.17,16.85q-1.01,0.63 -1.53,3.38q-0.12,0.63 -0.56,0.16q-1.94,-2.15 -3.87,-2.58l-0.88,-18.72c3.72,-2.44 2.85,-6.37 1.74,-10.26q-2.97,-10.37 -6.76,-19.74q0.03,-5.61 -2.19,-16.21q-11.93,-56.86 -34.92,-104.81q0.08,-0.45 0.84,-0.61q17.71,-8.63 32.23,-21.84a0.89,0.89 0 0 1 1.22,0.02q7.19,6.87 13.97,14.46c4.63,5.19 13.54,-1.38 7.44,-8.45q-6.25,-7.23 -13.32,-13.48a0.96,0.96 0 0 1 -0.16,-1.26l3.2,-4.64q4.9,4.57 9.2,9.41c2.53,2.84 5.17,4.77 8.63,2.37c4.39,-3.06 1.93,-7.76 -1.12,-10.81q-5.03,-5.03 -9.56,-9.7q4.86,-4.79 7.86,-10.2q0.88,-1.58 1.19,-4.07c33.57,-36.24 48.61,-85.39 39.47,-134.25c-13.95,-74.55 -80.1,-127.9 -155.87,-125.75c-67.23,1.91 -123.68,46.52 -143.32,110.36zm283.57,226.91c2.21,4.43 5.09,9.86 10.67,5.5c3.79,-2.96 1.08,-7.04 -0.6,-10.35c-2.27,-4.46 -11.54,-22.84 -15.62,-24.27c-4.64,-1.62 -9.54,3.79 -6.71,8q6.82,10.16 12.26,21.12zm3.64,14.61c-4.13,-8.74 -8.98,-16.98 -14.58,-24.87c-4.49,-6.33 -12.73,0.6 -9.02,6.08q7.79,11.5 13.84,24c3.63,7.51 13.94,3.64 9.76,-5.21zm11.52,26.96q-7.08,-3.49 -10.01,0.85q-1.44,2.14 -0.93,3.93q3.84,13.71 4.71,26q0.14,1.95 0.43,3.37c0.75,3.79 4.72,5.14 7.93,3.34c2.98,-1.67 2.8,-3.88 2.66,-6.98q-0.3,-6.44 -1.59,-10.12c6.85,3.14 9.95,-0.67 9.35,-7.12q-1.37,-14.85 -4.74,-27q-1.53,-5.47 -6.69,-4.44c-4.09,0.82 -4.63,4.66 -3.73,8.33q1.12,4.54 2.61,9.84zm-11.99,73.28q-3.56,6.38 -6.82,12.56c-2.34,4.46 1.43,9.96 6.18,8.35q2.09,-0.71 3.94,-3.54q4.16,-6.36 5.88,-13.69q8.58,-13.5 12.51,-29.43q0.71,-2.84 0.05,-4.56c-1.62,-4.2 -8.66,-4.6 -10,-0.22q-4.9,16.04 -10.98,26.47q-0.53,0.91 -0.76,4.06zm63.4,201.88a31.99,31.99 0 0 0 -31.99,-31.99a31.99,31.99 0 0 0 -31.99,31.99a31.99,31.99 0 0 0 31.99,31.99a31.99,31.99 0 0 0 31.99,-31.99z" fill="#ffffff"/>
  <circle id="svg_113" r="20.75" cy="177.18" cx="959.34" fill="#bed3ee"/>
  <path id="svg_114" d="m1234.39,425.89l-11.58,11q-0.42,0.4 0,0.8l2.53,2.47q4.53,4.67 9.56,9.7c3.05,3.05 5.51,7.75 1.12,10.81c-3.46,2.4 -6.1,0.47 -8.63,-2.37q-4.3,-4.84 -9.2,-9.41l-4.46,-4.23q-0.41,-0.39 -0.87,-0.06l-5.51,3.96l-8.53,5.13q-16.17,9.13 -34.01,14.28c-59.39,16.69 -124.56,-3.17 -162.81,-52.06q-39.29,-50.21 -32.51,-115.96l5.18,-23.7c19.64,-63.84 76.09,-108.45 143.32,-110.36c75.77,-2.15 141.92,51.2 155.87,125.75c9.14,48.86 -5.9,98.01 -39.47,134.25zm30.15,-106a142.09,142.09 0 0 0 -142.09,-142.09a142.09,142.09 0 0 0 -142.09,142.09a142.09,142.09 0 0 0 142.09,142.09a142.09,142.09 0 0 0 142.09,-142.09z" fill="#636363"/>
  <path id="svg_115" d="m1264.250983,319.89a142.09,142.09 0 0 1 -142.09,142.09a142.09,142.09 0 0 1 -142.09,-142.09a142.09,142.09 0 0 1 142.09,-142.09a142.09,142.09 0 0 1 142.09,142.09zm-174.77,-49.59c-1.93,2.08 -4.26,4.18 -5.8,6.18q-13.47,17.58 -8.89,38.61q1.18,5.45 5.53,14.4q7.26,14.96 14.42,29.96q0.92,1.93 0,3.81q-3.55,7.35 -6.93,14.78c-1.25,2.75 -2.24,5.08 -0.43,7.83c2.46,3.75 6.49,3.62 10.39,1.72q47.62,-23.12 95.29,-46.12c4.86,-2.35 9.64,-5.24 7.5,-11.19c-0.85,-2.39 -2.6,-3.12 -4.91,-3.68q-8.7,-2.13 -17.41,-4.27q-2.2,-0.54 -3.46,-3.08q-5.98,-12.05 -11.79,-24.19q-6.05,-12.64 -9.79,-17.37q-15.89,-20.07 -44.58,-16.8q-0.86,0.1 -1.25,-0.68c-1.2,-2.41 -2.48,-5.14 -4.53,-6.78c-7.09,-5.65 -16.12,-0.87 -15.81,8.03c0.1,2.68 1.48,5.31 2.62,7.86a0.91,0.89 -35.7 0 1 -0.17,0.98zm45.63,113.01c7.59,6.56 18.71,6.33 26.36,0.25q6.91,-5.5 7.69,-15.31c0.55,-6.85 -2.95,-9.61 -9.2,-6.6q-11.62,5.58 -23.17,11.28c-5.07,2.5 -6.38,6.32 -1.68,10.38z" fill="#ffffff"/>
  <path id="svg_116" d="m974.67,276.25l-5.18,23.7q-1.79,2.46 -2.12,3.41c-26.44,75.27 13.65,160 88.49,187.04q58.87,21.26 116.91,-5.71q22.99,47.95 34.92,104.81q2.22,10.6 2.19,16.21c-1.26,-2.43 -2.43,-5.67 -4.55,-7.01c-4.48,-2.83 -10.01,2.2 -7.9,6.83q6.2,13.63 8.95,24.72q0.9,3.65 2.28,4.94q2.52,2.35 6.24,0.52l0.88,18.72c-4.85,0.24 -5.97,2.49 -6.21,7.11q-0.24,4.45 -0.58,9.01q-1.46,1.23 -4.2,0.92c0.42,-6.76 -4.11,-7.54 -9.41,-5.73q-11.55,3.95 -23.68,5.46c-3.54,0.44 -6.35,1.8 -6.2,5.63c0.2,4.89 4.02,5.88 8.25,5.17q17.12,-2.85 28.06,-6.88q-0.05,14.91 -3.79,29.12q-0.62,2.35 1.3,6.12q-2.95,0.46 -4.66,3.31q-6.16,10.19 -15.98,18.83c-3.65,3.22 -4.95,6.56 -0.92,10.11q-2.1,2.21 -7.95,7.45c-5.68,5.09 0.64,13.73 7,8.5q11.7,-9.6 19.51,-22.53c1.4,-2.31 1.37,-4.51 0.85,-7q4.47,-5.45 7.21,-10.15q2.06,-3.55 -0.52,-6.95q7.29,-4.16 6.86,-17.53q4.4,0.33 6.19,-5.08q1.45,1.32 0.64,4.31q-0.74,2.7 -0.79,4.06q-6.61,150.1 -98.18,267.91q-10.56,13.59 -23.43,27.04q-0.36,0.37 -0.87,0.41q-2.19,0.16 -1.96,2.74q0.01,-88.97 -0.01,-177.95c0,-9.53 -1.22,-16.13 -6.78,-23.03c-3.78,-4.69 -10.62,-8.99 -16.01,-13.17q9.61,1.76 18.72,2.85q4.08,0.49 5.33,-0.34c4.22,-2.79 3.79,-9.93 -1.62,-10.37q-13.31,-1.09 -26.14,-4.6q-3.29,-0.9 -4.76,-0.67q-3.08,0.49 -3.76,3.85q-0.84,-0.56 -0.84,-1.08q0.13,-108.48 -0.01,-216.96c0,-1.55 -0.38,-3.67 -1.36,-4.63q-59.77,-58.5 -119.61,-116.93q-1.97,-1.91 -4.72,-1.91q-212.25,0.07 -424.5,0.05q-2.85,0 -10.37,1.08q-10.13,-1.94 -19.14,-1.01c-19.96,2.05 -36.45,13.92 -43.24,32.74q-2.51,6.98 -2.51,12.79q-0.02,146.77 -0.01,293.55q0,1.77 -1.42,2.81q-9.35,6.86 -18.54,13.62q-6.65,4.88 -10.21,9.59c-4.99,6.62 -5.88,13.82 -5.87,22.91q0.11,71.24 0,142.49q-2.12,-0.82 -2.87,-1.81q-59.71,-78.78 -81.61,-172.41q-27.18,-116.21 5.22,-232.41q2.68,-9.63 5.91,-19.11q44.67,-131.04 153.65,-217.23q2.86,-2.27 7.42,-2.5q12.84,15.34 31.65,15.49c22.11,0.18 40.2,-16.8 41.02,-39.01q0.36,-9.73 -3.62,-18.77q1.47,-4.21 3.53,-5.22c105.82,-51.74 226.55,-60.49 338.15,-26.39q39.96,12.22 81.28,34.15zm187.53,291.58q10.96,3.59 18.94,12.36q2.71,2.97 3.79,3.53c3.76,1.94 8.95,-2.31 7.58,-6.39c-2.28,-6.78 -25.29,-23.94 -32.27,-19.49c-4.44,2.83 -2.62,8.48 1.96,9.99zm-53.99,17.47l-0.11,0.34a0.33,0.32 -66.7 0 1 -0.47,0.19q-0.18,-0.1 -0.37,-0.2q-0.18,-0.09 -0.34,0.03c-4.89,3.71 -11.54,8.64 -8.58,15.24c-7.26,1.19 -5.93,11.69 -5.68,16.61q-6.51,-0.51 -7.32,4.98q-1.93,13.07 2.09,27.26q1.22,4.3 2.75,6.05c2.52,2.86 8.75,1.59 9.39,-2.68q0.22,-1.43 -0.76,-4.15q-1.99,-5.5 -1.9,-11.22c4.35,5.74 12.35,1.82 10.23,-4.32q-4.82,-13.97 -3.02,-27.42q0.11,-0.85 -1.02,-2.84c1.35,-0.91 2.84,-1.33 3.94,-2.56q8.46,-9.5 20.14,-14.43c4.08,-1.72 6.4,-3.5 4.5,-8.13q-0.86,-2.11 -5.93,-3.79q5.65,-3.49 10.65,-5.4c4.34,-1.67 4.92,-7.54 1.19,-9.74c-6.81,-4.02 -24.56,10.67 -28.89,15.16c-3.56,3.69 -5.38,7.38 -0.49,11.02zm69.6,15.25c4.2,1.45 9.27,-3.92 6.38,-7.75q-9.45,-12.57 -24.91,-18.27c-3.43,-1.26 -7.09,-1.48 -8.71,2.22c-1.18,2.69 -0.34,6.35 2.61,7.38q12.2,4.23 20.01,12.65q2.97,3.2 4.62,3.77zm26.62,28.18q-2.43,-7.8 -5.17,-11.74c-3.71,-5.33 -12.23,-0.65 -9.74,4.99q6.43,14.61 9.19,25.44c0.91,3.58 2.7,6.84 6.75,5.78q5.67,-1.5 4.1,-7.97c-1.35,-5.58 -3.47,-11.16 -5.13,-16.5zm-88.2,37.91c6.48,6.14 14.4,10.48 22.94,13.05c8.65,2.6 11.16,-8.12 4.67,-10.09q-13.49,-4.1 -22.52,-13.18c-6.11,-6.14 -13.63,3.09 -7.09,8.54q1.89,1.58 2,1.68zm22.85,27.18c2.05,-4.68 -0.85,-6.78 -5.05,-8.1q-11.33,-3.57 -19.75,-11.92q-1.77,-1.76 -2.81,-2.23c-3.56,-1.64 -7.94,1.39 -7.63,5.13q0.19,2.41 2.64,4.88q10.91,10.99 26.03,15.1q4.76,1.29 6.57,-2.86zm56.66,-3.36c3.57,-3.95 -0.56,-10.56 -5.54,-8.91q-14.54,4.82 -25.56,6.26q-3.8,0.49 -5.16,1.56c-2.74,2.13 -2.26,7.71 1.3,9.21q1.45,0.61 4.02,0.31q13.99,-1.62 27.23,-6.32q2.66,-0.94 3.71,-2.11zm-39.02,68.5c5.33,-1.92 7,-8.75 1,-11.06q-1.73,-0.66 -2.93,-0.15q-12.73,5.46 -26.34,7.87q-3.26,0.58 -4.57,1.95c-2.22,2.31 -1.75,6.1 0.7,8.14c4.15,3.45 25.62,-4.41 32.14,-6.75zm-87.52,3.62q14.34,4.11 28.06,5.18c9.02,0.7 9.45,-10.38 0.98,-10.94q-11.84,-0.78 -25.05,-4.51c-3.02,-0.86 -5.77,-1.06 -7.59,1.57c-2.54,3.63 -0.54,7.52 3.6,8.7zm55.17,8.99c-2.48,0.45 -5.69,0.67 -7.59,2.13c-4.32,3.32 -1.5,10.49 3.95,9.74c5.34,-0.74 29.95,-5.85 32.48,-11c2.64,-5.39 -3.28,-9.33 -8.22,-7.16q-9.94,4.35 -20.62,6.29z" fill="#ecf2fe"/>
  <path id="svg_117" d="m551.71,273.71q3.98,9.04 3.62,18.77c-0.82,22.21 -18.91,39.19 -41.02,39.01q-18.81,-0.15 -31.65,-15.49c-22.84,-31.25 3.99,-72.92 41.04,-64.66q18.47,4.12 28.01,22.37z" fill="#bed3ee"/>
  <path id="svg_118" d="m1090.118272,269.161825c-1.14,-2.55 -2.52,-5.18 -2.62,-7.86c-0.31,-8.9 8.72,-13.68 15.81,-8.03c2.05,1.64 3.33,4.37 4.53,6.78q0.39,0.78 1.25,0.68q28.69,-3.27 44.58,16.8q3.74,4.73 9.79,17.37q5.81,12.14 11.79,24.19q1.26,2.54 3.46,3.08q8.71,2.14 17.41,4.27c2.31,0.56 4.06,1.29 4.91,3.68c2.14,5.95 -2.64,8.84 -7.5,11.19q-47.67,23 -95.29,46.12c-3.9,1.9 -7.93,2.03 -10.39,-1.72c-1.81,-2.75 -0.82,-5.08 0.43,-7.83q3.38,-7.43 6.93,-14.78q0.92,-1.88 0,-3.81q-7.16,-15 -14.42,-29.96q-4.35,-8.95 -5.53,-14.4q-4.58,-21.03 8.89,-38.61c1.54,-2 3.87,-4.1 5.8,-6.18a0.91,0.89 -35.7 0 0 0.17,-0.98z" fill="#bed3ee"/>
  <path id="svg_119" d="m969.49,299.95q-6.78,65.75 32.51,115.96c38.25,48.89 103.42,68.75 162.81,52.06l7.01,13.96a1.62,1.55 88.8 0 0 0.7,0.7q1.11,0.57 1.09,1.45q-0.76,0.16 -0.84,0.61q-58.04,26.97 -116.91,5.71c-74.84,-27.04 -114.93,-111.77 -88.49,-187.04q0.33,-0.95 2.12,-3.41z" fill="#bed3ee"/>
  <path id="svg_120" d="m1161.76,383.56c-7.65,6.08 -18.77,6.31 -26.36,-0.25c-4.7,-4.06 -3.39,-7.88 1.68,-10.38q11.55,-5.7 23.17,-11.28c6.25,-3.01 9.75,-0.25 9.2,6.6q-0.78,9.81 -7.69,15.31z" fill="#bed3ee"/>
  <path id="svg_121" d="m1234.39,425.89q-0.31,2.49 -1.19,4.07q-3,5.41 -7.86,10.2l-2.53,-2.47q-0.42,-0.4 0,-0.8l11.58,-11z" fill="#dae2ef"/>
  <path id="svg_122" d="m495.88,431.98c-18.1,5.91 -32.1,18.68 -36.04,37.1q-1.11,5.19 -1.11,19.92q0.02,140.96 0.01,281.45a2.47,2.47 0 0 1 -0.98,1.97q-8.92,6.76 -17.75,13.43q-9.12,6.9 -11.96,10.95q-5.33,7.61 -5.32,17.45q0.08,90.11 -0.01,181.17q-13.72,-14 -25.4,-29a1.16,1.12 71.8 0 0 -0.86,-0.45q-1.39,-0.07 -1.11,-0.9l-0.41,-3.6q0.11,-71.25 0,-142.49c-0.01,-9.09 0.88,-16.29 5.87,-22.91q3.56,-4.71 10.21,-9.59q9.19,-6.76 18.54,-13.62q1.42,-1.04 1.42,-2.81q-0.01,-146.78 0.01,-293.55q0,-5.81 2.51,-12.79c6.79,-18.82 23.28,-30.69 43.24,-32.74q9.01,-0.93 19.14,1.01z" fill="#bed3ee"/>
  <path id="svg_123" d="m1057.29,772.36l12.23,9.28c5.39,4.18 12.23,8.48 16.01,13.17c5.56,6.9 6.78,13.5 6.78,23.03q0.02,88.98 0.01,177.95q-0.02,78.59 0.06,157.17q0,0.12 0.11,4.08c0.39,13.87 -8.44,27 -21.62,30.79q-4.95,1.42 -19.87,1.42q-299.14,0 -598.28,0.02q-1.96,0 -3.93,-0.28q-2.22,-0.32 -3.93,-0.55q-16.16,-6.18 -20.65,-20.55q-1.4,-4.48 -1.41,-13.44q-0.07,-79.95 -0.08,-159.03q0.09,-91.06 0.01,-181.17q-0.01,-9.84 5.32,-17.45q2.84,-4.05 11.96,-10.95q8.83,-6.67 17.75,-13.43a2.47,2.47 0 0 0 0.98,-1.97q0.01,-140.49 -0.01,-281.45q0,-14.73 1.11,-19.92c3.94,-18.42 17.94,-31.19 36.04,-37.1q7.52,-1.08 10.37,-1.08q212.25,0.02 424.5,-0.05q2.75,0 4.72,1.91q59.84,58.43 119.61,116.93c0.98,0.96 1.36,3.08 1.36,4.63q0.14,108.48 0.01,216.96q0,0.52 0.84,1.08zm-476.13,85.3l52.75,32.57l59.83,36.89l35.6,21.97l6.87,4.2q0.48,0.29 0.97,0q20.4,-12.32 40.71,0.04a0.84,0.84 0 0 0 0.88,0l7.66,-4.61l35.59,-22.01l59.51,-36.72l54.05,-33.36l107.65,-66.43a1.3,1.28 -15.9 0 0 0.62,-1.1l-0.11,-197.89l0.2,-30.79q0.01,-0.61 -0.61,-0.61l-92.55,0.02c-15.34,-2.57 -26.31,-14.54 -26.26,-30.33q0.14,-42.95 0.24,-85.63q0,-0.62 -0.63,-0.62q-203.7,0.02 -407.29,0q-13.48,-0.01 -19.04,1.53c-15.5,4.27 -26.54,18.43 -26.54,34.72q-0.01,154.77 -0.01,309.68a1.2,1.18 16 0 0 0.57,1.01l109.34,67.47zm355.96,-327.91c-0.02,7.03 3.88,13.54 10.23,16.28q3.42,1.47 11.51,1.48q37.55,0.01 75.26,0.02a0.34,0.34 0 0 0 0.24,-0.59l-96.55,-94.49a0.31,0.31 0 0 0 -0.53,0.22q-0.04,38.44 -0.16,77.08zm-369.05,530.02l156.49,-98.51a0.35,0.35 0 0 0 0,-0.6l-6.51,-4.05q-129.64,-80.02 -258.02,-159.22c-8.57,-5.29 -20.32,1.75 -23.41,9.61q-1.56,3.96 -1.56,14.2q0.05,161.13 -0.01,322.13a0.29,0.29 0 0 0 0.44,0.24l132.58,-83.8zm228.79,-102.95l-6.2,3.88q-0.5,0.31 0.01,0.63l152.48,95.94l136.58,86.33a0.18,0.18 0 0 0 0.28,-0.15q0.02,-164.19 0.17,-328.45c0.01,-12.37 -10.19,-20.75 -22.13,-18.99q-1.05,0.15 -2.78,1.22q-127.32,78.58 -254.68,157.1q-2.07,1.28 -3.73,2.49zm-34.52,3.18q-9.35,-2.01 -18.25,3.6q-154.43,97.35 -308.28,194.35q-1.13,0.71 -0.89,2.03q2.14,11.72 11.66,15.48q3.56,1.41 11.04,1.41q299.01,-0.05 598.03,-0.01q9.11,0 13.01,-1.48q10.13,-3.86 11.43,-16.43a0.72,0.71 19.6 0 0 -0.33,-0.68q-153.4,-96.91 -306.59,-193.14q-6.79,-4.26 -10.83,-5.13z" fill="#636363"/>
  <path id="svg_124" d="m950.78,559.83q0.1,1.3 1.4,1.83q10.89,4.46 25.83,7.56q30.22,6.27 61,8.74q0.5,0.04 1.99,0.63q0.4,0.16 0.84,0.13l1.08,-0.1q0.7,-0.06 0.7,0.64l0.12,11.95l0.11,197.89a1.3,1.28 -15.9 0 1 -0.62,1.1l-107.65,66.43q-2.96,-1.51 -6.94,-1.24q-5.48,0.39 -5.55,0.39q-165.33,-0.1 -330.65,0.01c-2.97,0.01 -6.46,-0.29 -9.73,-0.27q-1.07,0.01 -1.55,2.14l-109.34,-67.47a1.2,1.18 16 0 1 -0.57,-1.01q0,-154.91 0.01,-309.68c0,-16.29 11.04,-30.45 26.54,-34.72q5.56,-1.54 19.04,-1.53q203.59,0.02 407.29,0q0.63,0 0.63,0.62q-0.1,42.68 -0.24,85.63c-0.05,15.79 10.92,27.76 26.26,30.33zm-235.14,-39.17a20.9,20.9 0 0 0 -20.9,-20.9l-159,0a20.9,20.9 0 0 0 -20.9,20.9l0,0.94a20.9,20.9 0 0 0 20.9,20.9l159,0a20.9,20.9 0 0 0 20.9,-20.9l0,-0.94zm274.88,74.32a16.72,16.72 0 0 0 -16.72,-16.72l-397.94,0a16.72,16.72 0 0 0 -16.72,16.72l0,0.3a16.72,16.72 0 0 0 16.72,16.72l397.94,0a16.72,16.72 0 0 0 16.72,-16.72l0,-0.3zm-1.68,69.35a16.65,16.65 0 0 0 -16.65,-16.65l-440.78,0a16.65,16.65 0 0 0 -16.65,16.65l0,0.28a16.65,16.65 0 0 0 16.65,16.65l440.78,0a16.65,16.65 0 0 0 16.65,-16.65l0,-0.28zm-0.02,69.32a16.73,16.73 0 0 0 -16.73,-16.73l-440.56,0a16.73,16.73 0 0 0 -16.73,16.73l0,0.28a16.73,16.73 0 0 0 16.73,16.73l440.56,0a16.73,16.73 0 0 0 16.73,-16.73l0,-0.28zm0,69.35a16.74,16.74 0 0 0 -16.74,-16.74l-440.56,0a16.74,16.74 0 0 0 -16.74,16.74l0,0.26a16.74,16.74 0 0 0 16.74,16.74l440.56,0a16.74,16.74 0 0 0 16.74,-16.74l0,-0.26z" fill="#ffffff"/>
  <path id="svg_125" d="m1218.19,448.89l-3.2,4.64a0.96,0.96 0 0 0 0.16,1.26q7.07,6.25 13.32,13.48c6.1,7.07 -2.81,13.64 -7.44,8.45q-6.78,-7.59 -13.97,-14.46a0.89,0.89 0 0 0 -1.22,-0.02q-14.52,13.21 -32.23,21.84q0.02,-0.88 -1.09,-1.45a1.62,1.55 88.8 0 1 -0.7,-0.7l-7.01,-13.96q17.84,-5.15 34.01,-14.28q1.76,3.6 5.03,6c0.9,0.65 1.93,1.93 3.27,1.19q3.8,-2.09 6.67,-6.64q0.27,-0.43 -0.06,-0.82q-2.64,-3.19 -6.38,-4.86l5.51,-3.96q0.46,-0.33 0.87,0.06l4.46,4.23z" fill="#dae2ef"/>
  <path id="svg_126" d="m1207.35,448.56q3.74,1.67 6.38,4.86q0.33,0.39 0.06,0.82q-2.87,4.55 -6.67,6.64c-1.34,0.74 -2.37,-0.54 -3.27,-1.19q-3.27,-2.4 -5.03,-6l8.53,-5.13z" fill="#bed3ee"/>
  <path id="svg_127" d="m947.35,546.03c-6.35,-2.74 -10.25,-9.25 -10.23,-16.28q0.12,-38.64 0.16,-77.08a0.31,0.31 0 0 1 0.53,-0.22l96.55,94.49a0.34,0.34 0 0 1 -0.24,0.59q-37.71,-0.01 -75.26,-0.02q-8.09,-0.01 -11.51,-1.48z" fill="#dae2ef"/>
  <path id="svg_128" d="m1258.24,503.16q-5.44,-10.96 -12.26,-21.12c-2.83,-4.21 2.07,-9.62 6.71,-8c4.08,1.43 13.35,19.81 15.62,24.27c1.68,3.31 4.39,7.39 0.6,10.35c-5.58,4.36 -8.46,-1.07 -10.67,-5.5z" fill="#636363"/>
  <path id="svg_129" d="m1247.3,492.9c5.6,7.89 10.45,16.13 14.58,24.87c4.18,8.85 -6.13,12.72 -9.76,5.21q-6.05,-12.5 -13.84,-24c-3.71,-5.48 4.53,-12.41 9.02,-6.08z" fill="#dae2ef"/>
  <rect id="svg_130" rx="20.9" height="42.74" width="200.8" y="499.76" x="514.84" fill="#bed3ee"/>
  <path id="svg_131" d="m1276.6,565.12q-2.61,-9.26 -3.2,-20.39q-1.49,-5.3 -2.61,-9.84c-0.9,-3.67 -0.36,-7.51 3.73,-8.33q5.16,-1.03 6.69,4.44q3.37,12.15 4.74,27c0.6,6.45 -2.5,10.26 -9.35,7.12z" fill="#636363"/>
  <path id="svg_132" d="m1273.4,544.73q0.59,11.13 3.2,20.39q1.29,3.68 1.59,10.12c0.14,3.1 0.32,5.31 -2.66,6.98c-3.21,1.8 -7.18,0.45 -7.93,-3.34q-0.29,-1.42 -0.43,-3.37q-0.87,-12.29 -4.71,-26q-0.51,-1.79 0.93,-3.93q2.93,-4.34 10.01,-0.85z" fill="#dae2ef"/>
  <path id="svg_133" d="m1162.2,567.83c-4.58,-1.51 -6.4,-7.16 -1.96,-9.99c6.98,-4.45 29.99,12.71 32.27,19.49c1.37,4.08 -3.82,8.33 -7.58,6.39q-1.08,-0.56 -3.79,-3.53q-7.98,-8.77 -18.94,-12.36z" fill="#636363"/>
  <path id="svg_134" d="m1125.75,574.26q-3.98,2.74 -11.55,10.18q-2.31,2.27 -5.99,0.86c-4.89,-3.64 -3.07,-7.33 0.49,-11.02c4.33,-4.49 22.08,-19.18 28.89,-15.16c3.73,2.2 3.15,8.07 -1.19,9.74q-5,1.91 -10.65,5.4z" fill="#636363"/>
  <path id="svg_135" d="m950.78,559.83l92.55,-0.02q0.62,0 0.61,0.61l-0.2,30.79l-0.12,-11.95q0,-0.7 -0.7,-0.64l-1.08,0.1q-0.44,0.03 -0.84,-0.13q-1.49,-0.59 -1.99,-0.63q-30.78,-2.47 -61,-8.74q-14.94,-3.1 -25.83,-7.56q-1.3,-0.53 -1.4,-1.83z" fill="#dae2ef"/>
  <path id="svg_136" d="m1184.19,592.8c2.89,3.83 -2.18,9.2 -6.38,7.75q-1.65,-0.57 -4.62,-3.77q-7.81,-8.42 -20.01,-12.65c-2.95,-1.03 -3.79,-4.69 -2.61,-7.38c1.62,-3.7 5.28,-3.48 8.71,-2.22q15.46,5.7 24.91,18.27z" fill="#bed3ee"/>
  <path id="svg_137" d="m1125.75,574.26q5.07,1.68 5.93,3.79c1.9,4.63 -0.42,6.41 -4.5,8.13q-11.68,4.93 -20.14,14.43c-1.1,1.23 -2.59,1.65 -3.94,2.56q-1.81,-2.21 -4.76,-2.27c-2.96,-6.6 3.69,-11.53 8.58,-15.24q0.16,-0.12 0.34,-0.03q0.19,0.1 0.37,0.2a0.33,0.32 -66.7 0 0 0.47,-0.19l0.11,-0.34q3.68,1.41 5.99,-0.86q7.57,-7.44 11.55,-10.18z" fill="#bed3ee"/>
  <rect id="svg_138" rx="16.72" height="33.74" width="431.38" y="578.26" x="559.14" fill="#ecf2fe"/>
  <path id="svg_139" d="m1270.59,621.69q-6.63,2.27 -9.18,-3.68q0.23,-3.15 0.76,-4.06q6.08,-10.43 10.98,-26.47c1.34,-4.38 8.38,-3.98 10,0.22q0.66,1.72 -0.05,4.56q-3.93,15.93 -12.51,29.43z" fill="#636363"/>
  <path id="svg_140" d="m1209.88,605.71q3.79,9.37 6.76,19.74c1.11,3.89 1.98,7.82 -1.74,10.26q-3.72,1.83 -6.24,-0.52q-1.38,-1.29 -2.28,-4.94q-2.75,-11.09 -8.95,-24.72c-2.11,-4.63 3.42,-9.66 7.9,-6.83c2.12,1.34 3.29,4.58 4.55,7.01z" fill="#636363"/>
  <path id="svg_141" d="m1098.34,600.9q2.95,0.06 4.76,2.27q1.13,1.99 1.02,2.84q-1.8,13.45 3.02,27.42c2.12,6.14 -5.88,10.06 -10.23,4.32q-3.58,-9.91 -4.25,-20.24c-0.25,-4.92 -1.58,-15.42 5.68,-16.61z" fill="#636363"/>
  <path id="svg_142" d="m1204.43,628.73c1.66,5.34 3.78,10.92 5.13,16.5q1.57,6.47 -4.1,7.97c-4.05,1.06 -5.84,-2.2 -6.75,-5.78q-2.76,-10.83 -9.19,-25.44c-2.49,-5.64 6.03,-10.32 9.74,-4.99q2.74,3.94 5.17,11.74z" fill="#bed3ee"/>
  <path id="svg_143" d="m1092.66,617.51q0.67,10.33 4.25,20.24q-0.09,5.72 1.9,11.22q0.98,2.72 0.76,4.15c-0.64,4.27 -6.87,5.54 -9.39,2.68q-1.53,-1.75 -2.75,-6.05q-4.02,-14.19 -2.09,-27.26q0.81,-5.49 7.32,-4.98z" fill="#bed3ee"/>
  <path id="svg_144" d="m1261.41,618.01q2.55,5.95 9.18,3.68q-1.72,7.33 -5.88,13.69q-1.85,2.83 -3.94,3.54c-4.75,1.61 -8.52,-3.89 -6.18,-8.35q3.26,-6.18 6.82,-12.56z" fill="#dae2ef"/>
  <path id="svg_145" d="m1243.49,651.52q-6.7,5.49 -14.08,10.05c-3.28,2.04 -6.01,1.87 -8.31,-1.24q-0.5,-0.68 -0.57,0.16l-1.58,19.36l-2.04,9.47q-1.79,5.41 -6.19,5.08q-3.91,-0.43 -4.75,-3.71q-0.42,-1.65 0.42,-5.32q1.7,-7.41 2.6,-14.82q0.34,-4.56 0.58,-9.01c0.24,-4.62 1.36,-6.87 6.21,-7.11q1.93,0.43 3.87,2.58q0.44,0.47 0.56,-0.16q0.52,-2.75 1.53,-3.38q11.89,-7.39 22.17,-16.85q2.3,-2.11 3.71,-2.51c3.82,-1.1 7.66,3.3 6.47,6.86c-1.13,3.39 -7.72,8.2 -10.6,10.55z" fill="#636363"/>
  <rect id="svg_146" rx="16.65" height="33.58" width="474.08" y="647.68" x="514.76" fill="#ecf2fe"/>
  <path id="svg_147" d="m1243.49,651.52q0.03,0.15 0.07,0.27q0.06,0.21 0.27,0.26q0.41,0.09 0.76,0.11a0.47,0.46 -16.7 0 1 0.35,0.18q3.46,4.4 -0.22,8.14q-10.07,10.25 -25.77,19.37l1.58,-19.36q0.07,-0.84 0.57,-0.16c2.3,3.11 5.03,3.28 8.31,1.24q7.38,-4.56 14.08,-10.05z" fill="#dae2ef"/>
  <path id="svg_148" d="m1139.17,679.69c-8.54,-2.57 -16.46,-6.91 -22.94,-13.05q-0.11,-0.1 -2,-1.68c-6.54,-5.45 0.98,-14.68 7.09,-8.54q9.03,9.08 22.52,13.18c6.49,1.97 3.98,12.69 -4.67,10.09z" fill="#636363"/>
  <path id="svg_149" d="m1204.79,671.47q-0.89,2.69 -2.98,3.65q-10.94,4.03 -28.06,6.88c-4.23,0.71 -8.05,-0.28 -8.25,-5.17c-0.15,-3.83 2.66,-5.19 6.2,-5.63q12.13,-1.51 23.68,-5.46c5.3,-1.81 9.83,-1.03 9.41,5.73z" fill="#636363"/>
  <path id="svg_150" d="m1208.99,670.55q-0.9,7.41 -2.6,14.82q-0.84,3.67 -0.42,5.32q0.84,3.28 4.75,3.71q0.43,13.37 -6.86,17.53q-2.48,-1.78 -4.54,-1.57q-1.92,-3.77 -1.3,-6.12q3.74,-14.21 3.79,-29.12q2.09,-0.96 2.98,-3.65q2.74,0.31 4.2,-0.92z" fill="#bed3ee"/>
  <path id="svg_151" d="m1139.08,693.82q-1.81,4.15 -6.57,2.86q-15.12,-4.11 -26.03,-15.1q-2.45,-2.47 -2.64,-4.88c-0.31,-3.74 4.07,-6.77 7.63,-5.13q1.04,0.47 2.81,2.23q8.42,8.35 19.75,11.92c4.2,1.32 7.1,3.42 5.05,8.1z" fill="#bed3ee"/>
  <path id="svg_152" d="m1192.03,692.57q-13.24,4.7 -27.23,6.32q-2.57,0.3 -4.02,-0.31c-3.56,-1.5 -4.04,-7.08 -1.3,-9.21q1.36,-1.07 5.16,-1.56q11.02,-1.44 25.56,-6.26c4.98,-1.65 9.11,4.96 5.54,8.91q-1.05,1.17 -3.71,2.11z" fill="#bed3ee"/>
  <path id="svg_153" d="m1199.32,710.36q2.06,-0.21 4.54,1.57q2.58,3.4 0.52,6.95q-2.74,4.7 -7.21,10.15q-5.53,6.85 -12.24,12.66q-3.45,2.99 -7.17,0.92c-4.03,-3.55 -2.73,-6.89 0.92,-10.11q9.82,-8.64 15.98,-18.83q1.71,-2.85 4.66,-3.31z" fill="#636363"/>
  <rect id="svg_154" rx="16.73" height="33.74" width="474.02" y="716.92" x="514.8" fill="#ecf2fe"/>
  <path id="svg_155" d="m1197.17,729.03c0.52,2.49 0.55,4.69 -0.85,7q-7.81,12.93 -19.51,22.53c-6.36,5.23 -12.68,-3.41 -7,-8.5q5.85,-5.24 7.95,-7.45q3.72,2.07 7.17,-0.92q6.71,-5.81 12.24,-12.66z" fill="#bed3ee"/>
  <path id="svg_156" d="m1156.72,758.96c-6.52,2.34 -27.99,10.2 -32.14,6.75c-2.45,-2.04 -2.92,-5.83 -0.7,-8.14q1.31,-1.37 4.57,-1.95q13.61,-2.41 26.34,-7.87q1.2,-0.51 2.93,0.15c6,2.31 4.33,9.14 -1,11.06z" fill="#636363"/>
  <path id="svg_157" d="m1069.2,762.58c-4.14,-1.18 -6.14,-5.07 -3.6,-8.7c1.82,-2.63 4.57,-2.43 7.59,-1.57q13.21,3.73 25.05,4.51c8.47,0.56 8.04,11.64 -0.98,10.94q-13.72,-1.07 -28.06,-5.18z" fill="#636363"/>
  <path id="svg_158" d="m1124.37,771.57q10.68,-1.94 20.62,-6.29c4.94,-2.17 10.86,1.77 8.22,7.16c-2.53,5.15 -27.14,10.26 -32.48,11c-5.45,0.75 -8.27,-6.42 -3.95,-9.74c1.9,-1.46 5.11,-1.68 7.59,-2.13z" fill="#bed3ee"/>
  <path id="svg_159" d="m1069.52,781.64l-12.23,-9.28q0.68,-3.36 3.76,-3.85q1.47,-0.23 4.76,0.67q12.83,3.51 26.14,4.6c5.41,0.44 5.84,7.58 1.62,10.37q-1.25,0.83 -5.33,0.34q-9.11,-1.09 -18.72,-2.85z" fill="#bed3ee"/>
  <rect id="svg_160" rx="16.74" height="33.74" width="474.04" y="786.26" x="514.78" fill="#ecf2fe"/>
  <circle id="svg_161" r="31.99" cy="819.89" cx="1292.82" fill="#bed3ee"/>
  <path id="svg_162" d="m718.05,956.61q-26.64,18.55 -61.36,41.61q-31.67,21.04 -72.29,49.13q-3.83,2.66 -7.81,5.15q-0.81,0.51 -3.26,2.53q-1.39,1.15 -3.43,2.33q-1.28,0.74 -1.83,2.41l-132.58,83.8a0.29,0.29 0 0 1 -0.44,-0.24q0.06,-161 0.01,-322.13q0,-10.24 1.56,-14.2c3.09,-7.86 14.84,-14.9 23.41,-9.61q128.38,79.2 258.02,159.22z" fill="#dae2ef"/>
  <path id="svg_163" d="m943.15,1057.27q0.52,-0.96 -0.49,-1.05q-3.01,-3.68 -7.02,-6.03q-5.79,-3.39 -5.87,-3.45q-66.42,-44.96 -132.91,-89.92q1.66,-1.21 3.73,-2.49q127.36,-78.52 254.68,-157.1q1.73,-1.07 2.78,-1.22c11.94,-1.76 22.14,6.62 22.13,18.99q-0.15,164.26 -0.17,328.45a0.18,0.18 0 0 1 -0.28,0.15l-136.58,-86.33z" fill="#dae2ef"/>
  <path id="svg_164" d="m935.58,856.63l-54.05,33.36c-0.87,-1.76 -2.88,-0.75 -4.07,-0.74q-151.72,0.32 -239.46,-0.02q-2.7,-0.02 -4.09,1l-52.75,-32.57q0.48,-2.13 1.55,-2.14c3.27,-0.02 6.76,0.28 9.73,0.27q165.32,-0.11 330.65,-0.01q0.07,0 5.55,-0.39q3.98,-0.27 6.94,1.24z" fill="#ecf2fe"/>
  <path id="svg_165" d="m881.53,889.99l-59.51,36.72q-0.6,-0.16 -0.72,-1.17a0.64,0.64 0 0 0 -0.64,-0.57q-62.46,-0.17 -124.91,0.11q-1.89,0.01 -2.01,2.04l-59.83,-36.89q1.39,-1.02 4.09,-1q87.74,0.34 239.46,0.02c1.19,-0.01 3.2,-1.02 4.07,0.74z" fill="#ffffff"/>
  <path id="svg_166" d="m822.02,926.71l-35.59,22.01q-3.82,-1.65 -12.27,-7.4q-16.45,-11.19 -33.63,0.25q-5.63,3.75 -11.19,7.52l-35.6,-21.97q0.12,-2.03 2.01,-2.04q62.45,-0.28 124.91,-0.11a0.64,0.64 0 0 1 0.64,0.57q0.12,1.01 0.72,1.17z" fill="#ecf2fe"/>
  <path id="svg_167" d="m786.43,948.72l-7.66,4.61a0.84,0.84 0 0 1 -0.88,0q-20.31,-12.36 -40.71,-0.04q-0.49,0.29 -0.97,0l-6.87,-4.2q5.56,-3.77 11.19,-7.52q17.18,-11.44 33.63,-0.25q8.45,5.75 12.27,7.4z" fill="#bed3ee"/>
  <path id="svg_168" d="m718.05,956.61l6.51,4.05a0.35,0.35 0 0 1 0,0.6l-156.49,98.51q0.55,-1.67 1.83,-2.41q2.04,-1.18 3.43,-2.33q2.45,-2.02 3.26,-2.53q3.98,-2.49 7.81,-5.15q40.62,-28.09 72.29,-49.13q34.72,-23.06 61.36,-41.61z" fill="#bed3ee"/>
  <path id="svg_169" d="m796.86,956.82q66.49,44.96 132.91,89.92q0.08,0.06 5.87,3.45q4.01,2.35 7.02,6.03q1.01,0.09 0.49,1.05l-152.48,-95.94q-0.51,-0.32 -0.01,-0.63l6.2,-3.88z" fill="#bed3ee"/>
  <path id="svg_170" d="m773.17,965.13q153.19,96.23 306.59,193.14a0.72,0.71 19.6 0 1 0.33,0.68q-1.3,12.57 -11.43,16.43q-3.9,1.48 -13.01,1.48q-299.02,-0.04 -598.03,0.01q-7.48,0 -11.04,-1.41q-9.52,-3.76 -11.66,-15.48q-0.24,-1.32 0.89,-2.03q153.85,-97 308.28,-194.35q8.9,-5.61 18.25,-3.6q4.04,0.87 10.83,5.13z" fill="#ffffff"/>
  <path id="svg_171" d="m395.35,965.07q-0.28,0.83 1.11,0.9a1.16,1.12 71.8 0 1 0.86,0.45q11.68,15 25.4,29q0.01,79.08 0.08,159.03q0.01,8.96 1.41,13.44q4.49,14.37 20.65,20.55q-5.86,0.96 -16.86,0.77c-6.29,-0.12 -10.43,-0.34 -15.98,-3.18q-11.82,-6.07 -15.47,-18.1q-1.57,-5.18 -1.57,-19.01q0.05,-89.09 0.08,-178.17q0,-2.89 0.29,-5.68z" fill="#dae2ef"/>
 </g>
</svg>