<?xml version="1.0" encoding="UTF-8" standalone="no"?>
<!DOCTYPE svg PUBLIC "-//W3C//DTD SVG 1.1//EN" "http://www.w3.org/Graphics/SVG/1.1/DTD/svg11.dtd">
<svg xmlns="http://www.w3.org/2000/svg" version="1.1" viewBox="0.00 0.00 608.00 608.00">
<g stroke-width="2.00" fill="none" stroke-linecap="butt">
<path stroke="#f6f9ff" vector-effect="non-scaling-stroke" d="
  M 292.43 162.36
  L 291.03 161.34
  Q 290.62 161.05 290.12 161.09
  Q 275.45 162.43 265.08 165.60
  Q 201.35 185.04 170.23 242.92
  C 167.06 248.81 164.41 255.51 161.76 261.96"
/>
<path stroke="#fadaa2" vector-effect="non-scaling-stroke" d="
  M 161.76 261.96
  Q 159.67 261.05 157.97 261.31
  A 1.37 1.36 46.9 0 0 157.88 263.99
  L 160.04 264.49"
/>
<path stroke="#f6f9ff" vector-effect="non-scaling-stroke" d="
  M 160.04 264.49
  L 153.53 295.83
  Q 153.44 296.29 153.65 296.71
  L 153.83 297.08
  Q 154.13 297.68 153.46 297.72
  L 151.53 297.83"
/>
<path stroke="#fadaa2" vector-effect="non-scaling-stroke" d="
  M 151.53 297.83
  L 149.13 297.55
  A 1.37 1.37 0.0 0 0 148.46 300.18
  Q 151.08 301.24 153.70 301.12"
/>
<path stroke="#f6f9ff" vector-effect="non-scaling-stroke" d="
  M 153.70 301.12
  Q 153.91 304.66 152.39 306.15"
/>
<path stroke="#fadaa2" vector-effect="non-scaling-stroke" d="
  M 152.39 306.15
  Q 150.78 305.80 150.40 306.91
  Q 149.87 308.46 151.62 309.58"
/>
<path stroke="#f6f9ff" vector-effect="non-scaling-stroke" d="
  M 151.62 309.58
  Q 151.53 311.54 152.17 313.46
  Q 152.92 315.71 152.96 317.17
  Q 153.99 355.44 171.82 387.95
  Q 179.35 401.67 190.78 416.13"
/>
<path stroke="#f4f4f4" vector-effect="non-scaling-stroke" d="
  M 190.78 416.13
  Q 200.61 460.56 210.46 504.01
  C 212.74 514.08 218.90 513.54 227.65 511.60
  Q 335.03 487.73 442.40 463.75
  Q 449.55 462.16 451.80 460.13
  Q 455.99 456.35 454.45 449.03"
/>
<path stroke="#fce0b3" vector-effect="non-scaling-stroke" d="
  M 454.45 449.03
  Q 465.06 446.35 461.65 434.49"
/>
<path stroke="#fadaa2" vector-effect="non-scaling-stroke" d="
  M 461.65 434.49
  L 448.25 374.56"
/>
<path stroke="#f6f9ff" vector-effect="non-scaling-stroke" d="
  M 448.25 374.56
  Q 449.88 373.15 450.27 371.98
  C 452.98 364.03 456.28 354.00 457.97 345.52
  Q 464.89 310.86 456.38 276.26
  Q 456.26 275.77 455.84 275.51
  Q 455.23 275.13 455.35 274.46
  Q 455.44 273.94 456.12 273.43
  Q 459.59 270.85 463.17 268.43
  Q 464.61 267.45 464.96 264.46"
/>
<path stroke="#a9e8de" vector-effect="non-scaling-stroke" d="
  M 464.96 264.46
  C 490.27 244.34 492.81 208.02 469.61 185.33
  C 448.97 165.14 415.49 166.51 395.59 187.59"
/>
<path stroke="#f6f9ff" vector-effect="non-scaling-stroke" d="
  M 395.59 187.59
  Q 362.52 165.32 323.40 160.85
  Q 322.86 160.79 322.51 161.20
  L 321.55 162.34"
/>
<path stroke="#b2d1f3" vector-effect="non-scaling-stroke" d="
  M 321.55 162.34
  L 317.04 158.07
  A 1.86 1.85 -63.2 0 1 316.49 156.39
  L 317.93 148.56
  A 2.00 2.00 0.0 0 0 315.03 146.43
  L 307.54 150.36
  Q 307.00 150.64 306.46 150.35
  L 299.33 146.51
  A 2.07 2.07 0.0 0 0 296.30 148.67
  L 297.65 156.91
  A 0.98 0.97 -26.4 0 1 297.35 157.79
  L 292.43 162.36"
/>
<path stroke="#a8cbf3" vector-effect="non-scaling-stroke" d="
  M 321.55 162.34
  L 322.27 163.04
  A 2.36 2.35 62.8 0 1 320.98 167.07
  L 313.34 168.19
  A 1.17 1.16 -81.0 0 0 312.47 168.83
  L 308.88 176.25
  A 1.64 1.61 2.2 0 1 307.99 177.06
  Q 305.83 177.87 304.85 175.45
  Q 303.41 171.89 301.27 168.65
  Q 300.98 168.21 300.46 168.14
  L 292.46 167.03
  A 1.84 1.83 -68.9 0 1 291.20 164.17
  L 292.43 162.36"
/>
<path stroke="#9fe2de" vector-effect="non-scaling-stroke" d="
  M 395.59 187.59
  Q 390.66 193.05 387.53 199.14"
/>
<path stroke="#ebeef4" vector-effect="non-scaling-stroke" d="
  M 387.53 199.14
  Q 386.20 201.04 384.73 200.48
  Q 384.15 200.26 383.96 200.86
  Q 383.68 201.77 383.05 201.88"
/>
<path stroke="#f6f9ff" vector-effect="non-scaling-stroke" d="
  M 383.05 201.88
  L 385.40 197.63
  A 1.34 1.33 -60.8 0 0 384.89 195.82
  C 380.62 193.41 376.88 193.83 371.71 194.99
  Q 285.01 214.50 198.25 233.83
  C 189.31 235.82 184.15 238.96 182.38 248.05
  Q 181.87 250.63 182.43 253.26
  C 188.17 280.35 194.57 307.28 200.37 334.35
  Q 200.39 334.46 201.26 339.16
  Q 201.81 342.14 202.68 344.43"
/>
<path stroke="#f0d4a2" vector-effect="non-scaling-stroke" d="
  M 202.68 344.43
  Q 197.23 350.27 192.55 355.82
  Q 189.20 359.81 190.20 364.26
  Q 197.19 395.45 204.13 426.61"
/>
<path stroke="#ebeef4" vector-effect="non-scaling-stroke" d="
  M 204.13 426.61
  Q 201.89 427.16 200.14 425.22
  Q 197.38 422.13 194.52 418.93
  Q 194.16 418.52 193.62 418.51
  Q 191.66 418.46 190.78 416.13"
/>
<path stroke="#f0d4a2" vector-effect="non-scaling-stroke" d="
  M 151.62 309.58
  Q 154.43 311.58 157.72 313.34
  Q 159.09 314.08 160.05 313.38
  A 1.49 1.49 0.0 0 0 159.97 310.91
  L 152.39 306.15"
/>
<path stroke="#f0d4a2" vector-effect="non-scaling-stroke" d="
  M 153.70 301.12
  Q 156.56 301.41 158.17 300.70
  A 1.52 1.52 0.0 0 0 157.55 297.79
  L 151.53 297.83"
/>
<path stroke="#f0d4a2" vector-effect="non-scaling-stroke" d="
  M 160.04 264.49
  L 165.51 267.54
  A 1.24 1.23 -68.0 0 0 167.31 266.77
  C 167.52 265.98 167.44 265.50 166.76 264.95
  Q 164.50 263.09 161.76 261.96"
/>
<path stroke="#9fe2de" vector-effect="non-scaling-stroke" d="
  M 464.96 264.46
  Q 437.66 282.83 408.48 268.33"
/>
<path stroke="#9eddd3" vector-effect="non-scaling-stroke" d="
  M 408.48 268.33
  C 383.92 253.66 375.15 225.26 387.53 199.14"
/>
<path stroke="#fadaa2" vector-effect="non-scaling-stroke" d="
  M 271.49 377.62
  L 312.48 391.89"
/>
<path stroke="#f0d4a2" vector-effect="non-scaling-stroke" d="
  M 312.48 391.89
  L 314.79 392.78"
/>
<path stroke="#f7bb56" vector-effect="non-scaling-stroke" d="
  M 314.79 392.78
  L 315.08 392.93
  A 1.14 1.13 37.1 0 1 315.34 394.77
  Q 302.43 406.77 290.07 419.21
  Q 278.81 430.55 275.95 433.38
  Q 249.41 459.62 222.99 485.99
  Q 219.59 489.38 218.55 490.91"
/>
<path stroke="#efcf97" vector-effect="non-scaling-stroke" d="
  M 218.55 490.91
  L 204.13 426.61"
/>
<path stroke="#ebeef4" vector-effect="non-scaling-stroke" d="
  M 408.48 268.33
  Q 406.79 269.25 407.75 271.00
  Q 409.72 274.62 409.76 279.53"
/>
<path stroke="#f4f4f4" vector-effect="non-scaling-stroke" d="
  M 383.05 201.88
  C 379.13 209.06 375.97 216.93 375.37 225.15
  Q 372.86 259.60 403.52 277.29
  Q 405.81 278.61 409.76 279.53"
/>
<path stroke="#f6f9ff" vector-effect="non-scaling-stroke" d="
  M 409.76 279.53
  L 414.10 297.28"
/>
<path stroke="#fadaa2" vector-effect="non-scaling-stroke" d="
  M 414.10 297.28
  L 416.14 306.91
  A 0.99 0.98 -28.7 0 1 415.87 307.81
  L 379.64 343.18"
/>
<path stroke="#f6f9ff" vector-effect="non-scaling-stroke" d="
  M 379.64 343.18
  Q 376.49 343.04 373.18 344.00
  Q 367.81 345.57 367.70 345.60
  Q 310.20 358.69 252.52 371.10"
/>
<path stroke="#fadaa2" vector-effect="non-scaling-stroke" d="
  M 252.52 371.10
  L 205.61 354.89
  Q 205.09 354.71 204.97 354.18
  L 202.68 344.43"
/>
<path stroke="#f1d5a8" vector-effect="non-scaling-stroke" d="
  M 454.45 449.03
  Q 342.88 473.80 231.37 498.87
  Q 220.85 501.24 218.55 490.91"
/>
<path stroke="#f0d4a2" vector-effect="non-scaling-stroke" d="
  M 448.25 374.56
  Q 441.23 343.53 434.40 312.47
  C 433.42 308.00 432.25 305.27 428.27 303.40
  Q 421.46 300.22 414.10 297.28"
/>
<path stroke="#f6f9ff" vector-effect="non-scaling-stroke" d="
  M 365.44 357.11
  Q 362.52 356.91 359.52 357.77
  Q 355.00 359.07 354.90 359.09
  Q 313.49 368.27 271.49 377.62"
/>
<path stroke="#f0d4a2" vector-effect="non-scaling-stroke" d="
  M 271.49 377.62
  L 252.52 371.10"
/>
<path stroke="#f6f9ff" vector-effect="non-scaling-stroke" d="
  M 334.16 387.60
  Q 322.10 381.02 314.14 391.21
  Q 313.83 391.61 313.32 391.61
  Q 312.83 391.61 312.48 391.89"
/>
<path stroke="#f3d9b3" vector-effect="non-scaling-stroke" d="
  M 332.15 389.40
  Q 331.84 389.92 331.02 389.61
  Q 322.76 386.41 317.38 392.55
  Q 317.05 392.93 316.55 392.90
  L 314.79 392.78"
/>
<path stroke="#f7bb56" vector-effect="non-scaling-stroke" d="
  M 461.65 434.49
  L 461.62 435.39
  A 0.52 0.52 0.0 0 1 460.93 435.86
  L 332.76 390.02
  A 0.82 0.75 80.1 0 1 332.41 389.75
  L 332.15 389.40"
/>
<path stroke="#f0d4a2" vector-effect="non-scaling-stroke" d="
  M 332.15 389.40
  Q 333.96 388.53 334.16 387.60"
/>
<path stroke="#fadaa2" vector-effect="non-scaling-stroke" d="
  M 334.16 387.60
  L 365.44 357.11"
/>
<path stroke="#f0d4a2" vector-effect="non-scaling-stroke" d="
  M 365.44 357.11
  L 379.64 343.18"
/>
<path stroke="#f4f4f4" vector-effect="non-scaling-stroke" d="
  M 104.65 151.77
  Q 104.23 152.95 103.65 152.92
  A 1.08 1.08 0.0 0 0 102.76 154.69
  Q 111.29 164.96 119.30 173.88
  C 120.09 174.77 120.96 174.79 121.64 175.85
  Q 122.84 177.73 124.71 178.85
  Q 125.10 179.08 125.13 179.53
  L 125.27 181.73"
/>
<path stroke="#a9e8de" vector-effect="non-scaling-stroke" d="
  M 125.27 181.73
  L 119.99 213.65"
/>
<path stroke="#fadaa2" vector-effect="non-scaling-stroke" d="
  M 119.99 213.65
  L 116.24 221.75
  A 1.50 1.49 21.4 0 0 117.14 223.80
  Q 118.78 224.34 119.57 222.58
  Q 120.34 220.87 121.40 218.43"
/>
<path stroke="#f4f4f4" vector-effect="non-scaling-stroke" d="
  M 121.40 218.43
  L 144.45 204.30
  A 3.12 3.11 -37.0 0 1 148.37 204.85
  L 157.75 215.04
  A 1.70 1.69 47.0 0 0 160.17 215.13
  L 219.46 159.33
  Q 219.86 158.95 219.71 158.43
  L 219.08 156.15"
/>
<path stroke="#a9e8de" vector-effect="non-scaling-stroke" d="
  M 219.08 156.15
  Q 220.86 155.05 221.79 153.57
  Q 222.09 153.08 221.51 153.06
  L 102.47 148.35
  Q 101.87 148.32 102.14 148.86
  Q 102.91 150.41 104.65 151.77"
/>
<path stroke="#9eddd3" vector-effect="non-scaling-stroke" d="
  M 219.08 156.15
  L 161.00 210.65
  Q 160.29 211.32 159.63 210.60
  L 149.21 199.27
  Q 148.37 198.36 147.30 198.99
  L 122.07 213.73"
/>
<path stroke="#a3c380" vector-effect="non-scaling-stroke" d="
  M 122.07 213.73
  Q 119.51 215.61 119.99 213.65"
/>
<path stroke="#9eddd3" vector-effect="non-scaling-stroke" d="
  M 125.27 181.73
  L 126.29 175.82
  A 2.05 2.04 -61.7 0 0 125.77 174.08
  L 104.65 151.77"
/>
<path stroke="#efcf97" vector-effect="non-scaling-stroke" d="
  M 121.40 218.43
  L 122.82 214.17
  A 0.40 0.38 38.0 0 0 122.77 213.81
  Q 122.53 213.46 122.07 213.73"
/>
<path stroke="#fadaa2" vector-effect="non-scaling-stroke" d="
  M 116.6675 230.3038
  A 1.41 1.41 0.0 0 0 115.5932 228.6239
  L 115.1635 228.5295
  A 1.41 1.41 0.0 0 0 113.4836 229.6038
  L 111.5725 238.2962
  A 1.41 1.41 0.0 0 0 112.6468 239.9761
  L 113.0765 240.0705
  A 1.41 1.41 0.0 0 0 114.7564 238.9962
  L 116.6675 230.3038"
/>
<path stroke="#fadaa2" vector-effect="non-scaling-stroke" d="
  M 114.0225 246.5823
  A 1.42 1.42 0.0 0 0 112.5115 245.2596
  L 112.4117 245.2662
  A 1.42 1.42 0.0 0 0 111.0890 246.7772
  L 111.6775 255.6377
  A 1.42 1.42 0.0 0 0 113.1885 256.9604
  L 113.2883 256.9538
  A 1.42 1.42 0.0 0 0 114.6110 255.4428
  L 114.0225 246.5823"
/>
<path stroke="#fadaa2" vector-effect="non-scaling-stroke" d="
  M 116.4937 262.8275
  A 1.48 1.48 0.0 0 0 114.5463 262.0604
  L 114.4363 262.1083
  A 1.48 1.48 0.0 0 0 113.6692 264.0557
  L 117.1463 272.0525
  A 1.48 1.48 0.0 0 0 119.0937 272.8196
  L 119.2037 272.7717
  A 1.48 1.48 0.0 0 0 119.9708 270.8243
  L 116.4937 262.8275"
/>
<path stroke="#fadaa2" vector-effect="non-scaling-stroke" d="
  M 144.32 271.54
  L 151.87 264.68
  A 0.73 0.73 0.0 0 0 151.92 263.65
  L 151.39 263.07
  A 3.95 1.95 -42.3 0 0 147.16 264.29
  L 144.38 266.82
  A 3.95 1.95 -42.3 0 0 142.77 270.92
  L 143.29 271.49
  A 0.73 0.73 0.0 0 0 144.32 271.54"
/>
<path stroke="#fadaa2" vector-effect="non-scaling-stroke" d="
  M 141.9584 277.5107
  A 1.55 1.55 0.0 0 0 140.5030 275.8715
  L 140.1237 275.8489
  A 1.55 1.55 0.0 0 0 138.4845 277.3043
  L 137.9816 285.7693
  A 1.55 1.55 0.0 0 0 139.4370 287.4085
  L 139.8163 287.4311
  A 1.55 1.55 0.0 0 0 141.4555 285.9757
  L 141.9584 277.5107"
/>
<path stroke="#fadaa2" vector-effect="non-scaling-stroke" d="
  M 124.2089 277.4407
  A 1.57 1.57 0.0 0 0 122.0003 277.2124
  L 121.9072 277.2881
  A 1.57 1.57 0.0 0 0 121.6790 279.4967
  L 127.1911 286.2793
  A 1.57 1.57 0.0 0 0 129.3997 286.5076
  L 129.4928 286.4319
  A 1.57 1.57 0.0 0 0 129.7210 284.2233
  L 124.2089 277.4407"
/>
<path stroke="#fadaa2" vector-effect="non-scaling-stroke" d="
  M 139.93 292.98
  C 138.39 292.12 136.06 289.62 134.66 289.26
  Q 133.42 288.93 133.01 290.27
  A 1.64 1.63 29.6 0 0 133.48 291.97
  Q 137.24 295.34 141.75 297.61
  A 1.72 1.67 88.4 0 1 142.50 298.34
  C 143.25 299.75 144.98 304.99 147.47 302.27
  A 0.73 0.72 52.8 0 0 147.58 301.45
  L 143.21 292.80
  A 0.81 0.81 0.0 0 0 142.21 292.41
  L 140.52 293.02
  A 0.70 0.67 -40.0 0 1 139.93 292.98"
/>
<path stroke="#b2d1f3" vector-effect="non-scaling-stroke" d="
  M 495.27 303.10
  A 9.79 9.79 0.0 0 0 485.48 293.31
  A 9.79 9.79 0.0 0 0 475.69 303.10
  A 9.79 9.79 0.0 0 0 485.48 312.89
  A 9.79 9.79 0.0 0 0 495.27 303.10"
/>
<path stroke="#b2d1f3" vector-effect="non-scaling-stroke" d="
  M 163.59 426.11
  A 7.67 7.67 0.0 0 0 155.92 418.44
  A 7.67 7.67 0.0 0 0 148.25 426.11
  A 7.67 7.67 0.0 0 0 155.92 433.78
  A 7.67 7.67 0.0 0 0 163.59 426.11"
/>
<path stroke="#f0d4a2" vector-effect="non-scaling-stroke" d="
  M 171.34 279.88
  Q 171.32 280.86 171.41 281.50
  A 1.49 1.49 0.0 0 0 174.37 281.37
  Q 174.56 276.46 172.34 272.13
  A 1.43 1.43 0.0 0 0 169.73 273.31
  C 170.43 275.09 171.39 277.81 171.34 279.88"
/>
<path stroke="#f0d4a2" vector-effect="non-scaling-stroke" d="
  M 170.29 287.44
  L 163.16 295.82
  A 0.26 0.26 0.0 0 0 163.19 296.18
  L 163.96 296.84
  A 4.22 2.07 -49.6 0 0 168.27 294.97
  L 170.27 292.62
  A 4.22 2.07 -49.6 0 0 171.43 288.06
  L 170.66 287.41
  A 0.26 0.26 0.0 0 0 170.29 287.44"
/>
<path stroke="#f0d4a2" vector-effect="non-scaling-stroke" d="
  M 176.7856 315.8941
  A 1.19 1.19 0.0 0 0 175.7704 314.5518
  L 166.8757 313.3176
  A 1.19 1.19 0.0 0 0 165.5334 314.3327
  L 165.4344 315.0459
  A 1.19 1.19 0.0 0 0 166.4496 316.3882
  L 175.3443 317.6224
  A 1.19 1.19 0.0 0 0 176.6866 316.6073
  L 176.7856 315.8941"
/>
<path stroke="#f0d4a2" vector-effect="non-scaling-stroke" d="
  M 193.5824 314.5591
  A 1.45 1.45 0.0 0 0 191.9577 313.3079
  L 183.5682 314.3975
  A 1.45 1.45 0.0 0 0 182.3170 316.0222
  L 182.3376 316.1809
  A 1.45 1.45 0.0 0 0 183.9623 317.4321
  L 192.3518 316.3425
  A 1.45 1.45 0.0 0 0 193.6030 314.7178
  L 193.5824 314.5591"
/>
<path stroke="#a9e8de" vector-effect="non-scaling-stroke" d="
  M 433.39 237.34
  Q 434.13 239.99 435.82 240.74
  C 442.20 243.57 449.93 241.92 455.61 237.79
  Q 464.91 231.01 466.03 219.45
  C 467.69 202.36 454.48 191.89 438.75 190.35
  Q 415.97 188.13 405.08 207.58
  C 400.77 215.28 399.73 226.54 402.79 234.94
  C 408.46 250.50 429.09 256.88 444.57 255.58
  Q 454.92 254.70 461.97 246.57
  Q 462.45 246.02 461.74 245.89
  L 455.95 244.77
  A 1.48 1.44 -57.1 0 0 454.81 245.03
  C 446.67 251.07 435.75 250.29 426.61 247.46
  C 409.44 242.12 402.39 227.50 411.04 210.25
  C 418.06 196.25 433.46 193.13 447.20 198.87
  C 464.48 206.09 464.38 226.84 447.95 235.16
  Q 446.03 236.14 443.96 235.70
  A 0.78 0.77 5.3 0 1 443.35 234.97
  Q 443.30 233.65 444.03 232.01
  Q 449.17 220.50 454.30 209.16
  A 0.59 0.59 0.0 0 0 453.89 208.34
  L 446.44 206.68
  Q 445.92 206.56 445.68 207.04
  L 444.64 209.15
  Q 444.29 209.84 443.92 209.16
  Q 440.72 203.46 433.98 203.26
  C 419.56 202.83 405.63 225.74 418.41 235.97
  Q 424.46 240.81 432.73 237.04
  Q 433.23 236.80 433.39 237.34"
/>
<path stroke="#a9e8de" vector-effect="non-scaling-stroke" d="
  M 425.2668 232.3421
  A 12.67 7.86 118.9 0 0 438.2712 225.0486
  A 12.67 7.86 118.9 0 0 437.5132 210.1579
  A 12.67 7.86 118.9 0 0 424.5088 217.4514
  A 12.67 7.86 118.9 0 0 425.2668 232.3421"
/>
<path stroke="#a9e8de" vector-effect="non-scaling-stroke" d="
  M 284.8930 243.4707
  A 4.04 4.04 0.0 0 0 280.0690 240.4093
  L 212.1452 255.5920
  A 4.04 4.04 0.0 0 0 209.0838 260.4160
  L 209.5070 262.3093
  A 4.04 4.04 0.0 0 0 214.3310 265.3707
  L 282.2548 250.1880
  A 4.04 4.04 0.0 0 0 285.3162 245.3640
  L 284.8930 243.4707"
/>
<path stroke="#f6f9ff" vector-effect="non-scaling-stroke" d="
  M 380.7995 261.0486
  A 4.40 4.40 0.0 0 0 375.5456 257.7144
  L 220.5700 292.3556
  A 4.40 4.40 0.0 0 0 217.2358 297.6094
  L 217.5805 299.1514
  A 4.40 4.40 0.0 0 0 222.8344 302.4856
  L 377.8100 267.8444
  A 4.40 4.40 0.0 0 0 381.1442 262.5906
  L 380.7995 261.0486"
/>
<path stroke="#f6f9ff" vector-effect="non-scaling-stroke" d="
  M 385.4127 281.3551
  A 4.15 4.15 0.0 0 0 380.4574 278.2103
  L 224.7401 313.0173
  A 4.15 4.15 0.0 0 0 221.5953 317.9726
  L 222.0273 319.9049
  A 4.15 4.15 0.0 0 0 226.9826 323.0497
  L 382.6999 288.2427
  A 4.15 4.15 0.0 0 0 385.8447 283.2874
  L 385.4127 281.3551"
/>
<path stroke="#f6f9ff" vector-effect="non-scaling-stroke" d="
  M 390.0774 301.8972
  A 4.21 4.21 0.0 0 0 385.0504 298.7069
  L 228.9427 333.6011
  A 4.21 4.21 0.0 0 0 225.7525 338.6281
  L 226.1626 340.4628
  A 4.21 4.21 0.0 0 0 231.1896 343.6531
  L 387.2973 308.7589
  A 4.21 4.21 0.0 0 0 390.4875 303.7319
  L 390.0774 301.8972"
/>
<path stroke="#fadaa2" vector-effect="non-scaling-stroke" d="
  M 209.7467 309.2039
  A 1.55 1.55 0.0 0 0 207.7585 308.2809
  L 199.7949 311.1952
  A 1.55 1.55 0.0 0 0 198.8720 313.1834
  L 198.9133 313.2961
  A 1.55 1.55 0.0 0 0 200.9015 314.2191
  L 208.8651 311.3048
  A 1.55 1.55 0.0 0 0 209.7880 309.3166
  L 209.7467 309.2039"
/>
<path stroke="#f6f9ff" vector-effect="non-scaling-stroke" d="
  M 232.02 355.30
  C 229.58 357.91 230.95 363.86 235.75 363.43
  C 238.46 363.19 241.01 362.95 243.72 362.35
  Q 315.36 346.38 386.99 330.39
  C 391.25 329.44 397.40 327.62 394.39 321.84
  C 393.50 320.13 392.53 318.48 390.49 318.95
  Q 313.63 336.44 236.62 353.30
  Q 233.18 354.06 232.02 355.30"
/>
</g>
<path fill="#ffffff" d="
  M 0.00 0.00
  L 608.00 0.00
  L 608.00 608.00
  L 0.00 608.00
  L 0.00 0.00
  Z
  M 292.43 162.36
  L 291.03 161.34
  Q 290.62 161.05 290.12 161.09
  Q 275.45 162.43 265.08 165.60
  Q 201.35 185.04 170.23 242.92
  C 167.06 248.81 164.41 255.51 161.76 261.96
  Q 159.67 261.05 157.97 261.31
  A 1.37 1.36 46.9 0 0 157.88 263.99
  L 160.04 264.49
  L 153.53 295.83
  Q 153.44 296.29 153.65 296.71
  L 153.83 297.08
  Q 154.13 297.68 153.46 297.72
  L 151.53 297.83
  L 149.13 297.55
  A 1.37 1.37 0.0 0 0 148.46 300.18
  Q 151.08 301.24 153.70 301.12
  Q 153.91 304.66 152.39 306.15
  Q 150.78 305.80 150.40 306.91
  Q 149.87 308.46 151.62 309.58
  Q 151.53 311.54 152.17 313.46
  Q 152.92 315.71 152.96 317.17
  Q 153.99 355.44 171.82 387.95
  Q 179.35 401.67 190.78 416.13
  Q 200.61 460.56 210.46 504.01
  C 212.74 514.08 218.90 513.54 227.65 511.60
  Q 335.03 487.73 442.40 463.75
  Q 449.55 462.16 451.80 460.13
  Q 455.99 456.35 454.45 449.03
  Q 465.06 446.35 461.65 434.49
  L 448.25 374.56
  Q 449.88 373.15 450.27 371.98
  C 452.98 364.03 456.28 354.00 457.97 345.52
  Q 464.89 310.86 456.38 276.26
  Q 456.26 275.77 455.84 275.51
  Q 455.23 275.13 455.35 274.46
  Q 455.44 273.94 456.12 273.43
  Q 459.59 270.85 463.17 268.43
  Q 464.61 267.45 464.96 264.46
  C 490.27 244.34 492.81 208.02 469.61 185.33
  C 448.97 165.14 415.49 166.51 395.59 187.59
  Q 362.52 165.32 323.40 160.85
  Q 322.86 160.79 322.51 161.20
  L 321.55 162.34
  L 317.04 158.07
  A 1.86 1.85 -63.2 0 1 316.49 156.39
  L 317.93 148.56
  A 2.00 2.00 0.0 0 0 315.03 146.43
  L 307.54 150.36
  Q 307.00 150.64 306.46 150.35
  L 299.33 146.51
  A 2.07 2.07 0.0 0 0 296.30 148.67
  L 297.65 156.91
  A 0.98 0.97 -26.4 0 1 297.35 157.79
  L 292.43 162.36
  Z
  M 104.65 151.77
  Q 104.23 152.95 103.65 152.92
  A 1.08 1.08 0.0 0 0 102.76 154.69
  Q 111.29 164.96 119.30 173.88
  C 120.09 174.77 120.96 174.79 121.64 175.85
  Q 122.84 177.73 124.71 178.85
  Q 125.10 179.08 125.13 179.53
  L 125.27 181.73
  L 119.99 213.65
  L 116.24 221.75
  A 1.50 1.49 21.4 0 0 117.14 223.80
  Q 118.78 224.34 119.57 222.58
  Q 120.34 220.87 121.40 218.43
  L 144.45 204.30
  A 3.12 3.11 -37.0 0 1 148.37 204.85
  L 157.75 215.04
  A 1.70 1.69 47.0 0 0 160.17 215.13
  L 219.46 159.33
  Q 219.86 158.95 219.71 158.43
  L 219.08 156.15
  Q 220.86 155.05 221.79 153.57
  Q 222.09 153.08 221.51 153.06
  L 102.47 148.35
  Q 101.87 148.32 102.14 148.86
  Q 102.91 150.41 104.65 151.77
  Z
  M 116.6675 230.3038
  A 1.41 1.41 0.0 0 0 115.5932 228.6239
  L 115.1635 228.5295
  A 1.41 1.41 0.0 0 0 113.4836 229.6038
  L 111.5725 238.2962
  A 1.41 1.41 0.0 0 0 112.6468 239.9761
  L 113.0765 240.0705
  A 1.41 1.41 0.0 0 0 114.7564 238.9962
  L 116.6675 230.3038
  Z
  M 114.0225 246.5823
  A 1.42 1.42 0.0 0 0 112.5115 245.2596
  L 112.4117 245.2662
  A 1.42 1.42 0.0 0 0 111.0890 246.7772
  L 111.6775 255.6377
  A 1.42 1.42 0.0 0 0 113.1885 256.9604
  L 113.2883 256.9538
  A 1.42 1.42 0.0 0 0 114.6110 255.4428
  L 114.0225 246.5823
  Z
  M 116.4937 262.8275
  A 1.48 1.48 0.0 0 0 114.5463 262.0604
  L 114.4363 262.1083
  A 1.48 1.48 0.0 0 0 113.6692 264.0557
  L 117.1463 272.0525
  A 1.48 1.48 0.0 0 0 119.0937 272.8196
  L 119.2037 272.7717
  A 1.48 1.48 0.0 0 0 119.9708 270.8243
  L 116.4937 262.8275
  Z
  M 144.32 271.54
  L 151.87 264.68
  A 0.73 0.73 0.0 0 0 151.92 263.65
  L 151.39 263.07
  A 3.95 1.95 -42.3 0 0 147.16 264.29
  L 144.38 266.82
  A 3.95 1.95 -42.3 0 0 142.77 270.92
  L 143.29 271.49
  A 0.73 0.73 0.0 0 0 144.32 271.54
  Z
  M 141.9584 277.5107
  A 1.55 1.55 0.0 0 0 140.5030 275.8715
  L 140.1237 275.8489
  A 1.55 1.55 0.0 0 0 138.4845 277.3043
  L 137.9816 285.7693
  A 1.55 1.55 0.0 0 0 139.4370 287.4085
  L 139.8163 287.4311
  A 1.55 1.55 0.0 0 0 141.4555 285.9757
  L 141.9584 277.5107
  Z
  M 124.2089 277.4407
  A 1.57 1.57 0.0 0 0 122.0003 277.2124
  L 121.9072 277.2881
  A 1.57 1.57 0.0 0 0 121.6790 279.4967
  L 127.1911 286.2793
  A 1.57 1.57 0.0 0 0 129.3997 286.5076
  L 129.4928 286.4319
  A 1.57 1.57 0.0 0 0 129.7210 284.2233
  L 124.2089 277.4407
  Z
  M 139.93 292.98
  C 138.39 292.12 136.06 289.62 134.66 289.26
  Q 133.42 288.93 133.01 290.27
  A 1.64 1.63 29.6 0 0 133.48 291.97
  Q 137.24 295.34 141.75 297.61
  A 1.72 1.67 88.4 0 1 142.50 298.34
  C 143.25 299.75 144.98 304.99 147.47 302.27
  A 0.73 0.72 52.8 0 0 147.58 301.45
  L 143.21 292.80
  A 0.81 0.81 0.0 0 0 142.21 292.41
  L 140.52 293.02
  A 0.70 0.67 -40.0 0 1 139.93 292.98
  Z
  M 495.27 303.10
  A 9.79 9.79 0.0 0 0 485.48 293.31
  A 9.79 9.79 0.0 0 0 475.69 303.10
  A 9.79 9.79 0.0 0 0 485.48 312.89
  A 9.79 9.79 0.0 0 0 495.27 303.10
  Z
  M 163.59 426.11
  A 7.67 7.67 0.0 0 0 155.92 418.44
  A 7.67 7.67 0.0 0 0 148.25 426.11
  A 7.67 7.67 0.0 0 0 155.92 433.78
  A 7.67 7.67 0.0 0 0 163.59 426.11
  Z"
/>
<path fill="#64a3e6" d="
  M 321.55 162.34
  L 322.27 163.04
  A 2.36 2.35 62.8 0 1 320.98 167.07
  L 313.34 168.19
  A 1.17 1.16 -81.0 0 0 312.47 168.83
  L 308.88 176.25
  A 1.64 1.61 2.2 0 1 307.99 177.06
  Q 305.83 177.87 304.85 175.45
  Q 303.41 171.89 301.27 168.65
  Q 300.98 168.21 300.46 168.14
  L 292.46 167.03
  A 1.84 1.83 -68.9 0 1 291.20 164.17
  L 292.43 162.36
  L 297.35 157.79
  A 0.98 0.97 -26.4 0 0 297.65 156.91
  L 296.30 148.67
  A 2.07 2.07 0.0 0 1 299.33 146.51
  L 306.46 150.35
  Q 307.00 150.64 307.54 150.36
  L 315.03 146.43
  A 2.00 2.00 0.0 0 1 317.93 148.56
  L 316.49 156.39
  A 1.86 1.85 -63.2 0 0 317.04 158.07
  L 321.55 162.34
  Z"
/>
<path fill="#52d1bc" d="
  M 219.08 156.15
  L 161.00 210.65
  Q 160.29 211.32 159.63 210.60
  L 149.21 199.27
  Q 148.37 198.36 147.30 198.99
  L 122.07 213.73
  Q 119.51 215.61 119.99 213.65
  L 125.27 181.73
  L 126.29 175.82
  A 2.05 2.04 -61.7 0 0 125.77 174.08
  L 104.65 151.77
  Q 102.91 150.41 102.14 148.86
  Q 101.87 148.32 102.47 148.35
  L 221.51 153.06
  Q 222.09 153.08 221.79 153.57
  Q 220.86 155.05 219.08 156.15
  Z"
/>
<path fill="#e9e9e9" d="
  M 104.65 151.77
  L 125.77 174.08
  A 2.05 2.04 -61.7 0 1 126.29 175.82
  L 125.27 181.73
  L 125.13 179.53
  Q 125.10 179.08 124.71 178.85
  Q 122.84 177.73 121.64 175.85
  C 120.96 174.79 120.09 174.77 119.30 173.88
  Q 111.29 164.96 102.76 154.69
  A 1.08 1.08 0.0 0 1 103.65 152.92
  Q 104.23 152.95 104.65 151.77
  Z"
/>
<path fill="#e9e9e9" d="
  M 219.08 156.15
  L 219.71 158.43
  Q 219.86 158.95 219.46 159.33
  L 160.17 215.13
  A 1.70 1.69 47.0 0 1 157.75 215.04
  L 148.37 204.85
  A 3.12 3.11 -37.0 0 0 144.45 204.30
  L 121.40 218.43
  L 122.82 214.17
  A 0.40 0.38 38.0 0 0 122.77 213.81
  Q 122.53 213.46 122.07 213.73
  L 147.30 198.99
  Q 148.37 198.36 149.21 199.27
  L 159.63 210.60
  Q 160.29 211.32 161.00 210.65
  L 219.08 156.15
  Z"
/>
<path fill="#ecf2ff" d="
  M 292.43 162.36
  L 291.20 164.17
  A 1.84 1.83 -68.9 0 0 292.46 167.03
  L 300.46 168.14
  Q 300.98 168.21 301.27 168.65
  Q 303.41 171.89 304.85 175.45
  Q 305.83 177.87 307.99 177.06
  A 1.64 1.61 2.2 0 0 308.88 176.25
  L 312.47 168.83
  A 1.17 1.16 -81.0 0 1 313.34 168.19
  L 320.98 167.07
  A 2.36 2.35 62.8 0 0 322.27 163.04
  L 321.55 162.34
  L 322.51 161.20
  Q 322.86 160.79 323.40 160.85
  Q 362.52 165.32 395.59 187.59
  Q 390.66 193.05 387.53 199.14
  Q 386.20 201.04 384.73 200.48
  Q 384.15 200.26 383.96 200.86
  Q 383.68 201.77 383.05 201.88
  L 385.40 197.63
  A 1.34 1.33 -60.8 0 0 384.89 195.82
  C 380.62 193.41 376.88 193.83 371.71 194.99
  Q 285.01 214.50 198.25 233.83
  C 189.31 235.82 184.15 238.96 182.38 248.05
  Q 181.87 250.63 182.43 253.26
  C 188.17 280.35 194.57 307.28 200.37 334.35
  Q 200.39 334.46 201.26 339.16
  Q 201.81 342.14 202.68 344.43
  Q 197.23 350.27 192.55 355.82
  Q 189.20 359.81 190.20 364.26
  Q 197.19 395.45 204.13 426.61
  Q 201.89 427.16 200.14 425.22
  Q 197.38 422.13 194.52 418.93
  Q 194.16 418.52 193.62 418.51
  Q 191.66 418.46 190.78 416.13
  Q 179.35 401.67 171.82 387.95
  Q 153.99 355.44 152.96 317.17
  Q 152.92 315.71 152.17 313.46
  Q 151.53 311.54 151.62 309.58
  Q 154.43 311.58 157.72 313.34
  Q 159.09 314.08 160.05 313.38
  A 1.49 1.49 0.0 0 0 159.97 310.91
  L 152.39 306.15
  Q 153.91 304.66 153.70 301.12
  Q 156.56 301.41 158.17 300.70
  A 1.52 1.52 0.0 0 0 157.55 297.79
  L 151.53 297.83
  L 153.46 297.72
  Q 154.13 297.68 153.83 297.08
  L 153.65 296.71
  Q 153.44 296.29 153.53 295.83
  L 160.04 264.49
  L 165.51 267.54
  A 1.24 1.23 -68.0 0 0 167.31 266.77
  C 167.52 265.98 167.44 265.50 166.76 264.95
  Q 164.50 263.09 161.76 261.96
  C 164.41 255.51 167.06 248.81 170.23 242.92
  Q 201.35 185.04 265.08 165.60
  Q 275.45 162.43 290.12 161.09
  Q 290.62 161.05 291.03 161.34
  L 292.43 162.36
  Z
  M 171.34 279.88
  Q 171.32 280.86 171.41 281.50
  A 1.49 1.49 0.0 0 0 174.37 281.37
  Q 174.56 276.46 172.34 272.13
  A 1.43 1.43 0.0 0 0 169.73 273.31
  C 170.43 275.09 171.39 277.81 171.34 279.88
  Z
  M 170.29 287.44
  L 163.16 295.82
  A 0.26 0.26 0.0 0 0 163.19 296.18
  L 163.96 296.84
  A 4.22 2.07 -49.6 0 0 168.27 294.97
  L 170.27 292.62
  A 4.22 2.07 -49.6 0 0 171.43 288.06
  L 170.66 287.41
  A 0.26 0.26 0.0 0 0 170.29 287.44
  Z
  M 176.7856 315.8941
  A 1.19 1.19 0.0 0 0 175.7704 314.5518
  L 166.8757 313.3176
  A 1.19 1.19 0.0 0 0 165.5334 314.3327
  L 165.4344 315.0459
  A 1.19 1.19 0.0 0 0 166.4496 316.3882
  L 175.3443 317.6224
  A 1.19 1.19 0.0 0 0 176.6866 316.6073
  L 176.7856 315.8941
  Z
  M 193.5824 314.5591
  A 1.45 1.45 0.0 0 0 191.9577 313.3079
  L 183.5682 314.3975
  A 1.45 1.45 0.0 0 0 182.3170 316.0222
  L 182.3376 316.1809
  A 1.45 1.45 0.0 0 0 183.9623 317.4321
  L 192.3518 316.3425
  A 1.45 1.45 0.0 0 0 193.6030 314.7178
  L 193.5824 314.5591
  Z"
/>
<path fill="#52d1bc" d="
  M 464.96 264.46
  Q 437.66 282.83 408.48 268.33
  C 383.92 253.66 375.15 225.26 387.53 199.14
  Q 390.66 193.05 395.59 187.59
  C 415.49 166.51 448.97 165.14 469.61 185.33
  C 492.81 208.02 490.27 244.34 464.96 264.46
  Z
  M 433.39 237.34
  Q 434.13 239.99 435.82 240.74
  C 442.20 243.57 449.93 241.92 455.61 237.79
  Q 464.91 231.01 466.03 219.45
  C 467.69 202.36 454.48 191.89 438.75 190.35
  Q 415.97 188.13 405.08 207.58
  C 400.77 215.28 399.73 226.54 402.79 234.94
  C 408.46 250.50 429.09 256.88 444.57 255.58
  Q 454.92 254.70 461.97 246.57
  Q 462.45 246.02 461.74 245.89
  L 455.95 244.77
  A 1.48 1.44 -57.1 0 0 454.81 245.03
  C 446.67 251.07 435.75 250.29 426.61 247.46
  C 409.44 242.12 402.39 227.50 411.04 210.25
  C 418.06 196.25 433.46 193.13 447.20 198.87
  C 464.48 206.09 464.38 226.84 447.95 235.16
  Q 446.03 236.14 443.96 235.70
  A 0.78 0.77 5.3 0 1 443.35 234.97
  Q 443.30 233.65 444.03 232.01
  Q 449.17 220.50 454.30 209.16
  A 0.59 0.59 0.0 0 0 453.89 208.34
  L 446.44 206.68
  Q 445.92 206.56 445.68 207.04
  L 444.64 209.15
  Q 444.29 209.84 443.92 209.16
  Q 440.72 203.46 433.98 203.26
  C 419.56 202.83 405.63 225.74 418.41 235.97
  Q 424.46 240.81 432.73 237.04
  Q 433.23 236.80 433.39 237.34
  Z"
/>
<path fill="#ffffff" d="
  M 432.73 237.04
  Q 424.46 240.81 418.41 235.97
  C 405.63 225.74 419.56 202.83 433.98 203.26
  Q 440.72 203.46 443.92 209.16
  Q 444.29 209.84 444.64 209.15
  L 445.68 207.04
  Q 445.92 206.56 446.44 206.68
  L 453.89 208.34
  A 0.59 0.59 0.0 0 1 454.30 209.16
  Q 449.17 220.50 444.03 232.01
  Q 443.30 233.65 443.35 234.97
  A 0.78 0.77 5.3 0 0 443.96 235.70
  Q 446.03 236.14 447.95 235.16
  C 464.38 226.84 464.48 206.09 447.20 198.87
  C 433.46 193.13 418.06 196.25 411.04 210.25
  C 402.39 227.50 409.44 242.12 426.61 247.46
  C 435.75 250.29 446.67 251.07 454.81 245.03
  A 1.48 1.44 -57.1 0 1 455.95 244.77
  L 461.74 245.89
  Q 462.45 246.02 461.97 246.57
  Q 454.92 254.70 444.57 255.58
  C 429.09 256.88 408.46 250.50 402.79 234.94
  C 399.73 226.54 400.77 215.28 405.08 207.58
  Q 415.97 188.13 438.75 190.35
  C 454.48 191.89 467.69 202.36 466.03 219.45
  Q 464.91 231.01 455.61 237.79
  C 449.93 241.92 442.20 243.57 435.82 240.74
  Q 434.13 239.99 433.39 237.34
  Q 433.23 236.80 432.73 237.04
  Z
  M 425.2668 232.3421
  A 12.67 7.86 118.9 0 0 438.2712 225.0486
  A 12.67 7.86 118.9 0 0 437.5132 210.1579
  A 12.67 7.86 118.9 0 0 424.5088 217.4514
  A 12.67 7.86 118.9 0 0 425.2668 232.3421
  Z"
/>
<path fill="#ffffff" d="
  M 383.05 201.88
  C 379.13 209.06 375.97 216.93 375.37 225.15
  Q 372.86 259.60 403.52 277.29
  Q 405.81 278.61 409.76 279.53
  L 414.10 297.28
  L 416.14 306.91
  A 0.99 0.98 -28.7 0 1 415.87 307.81
  L 379.64 343.18
  Q 376.49 343.04 373.18 344.00
  Q 367.81 345.57 367.70 345.60
  Q 310.20 358.69 252.52 371.10
  L 205.61 354.89
  Q 205.09 354.71 204.97 354.18
  L 202.68 344.43
  Q 201.81 342.14 201.26 339.16
  Q 200.39 334.46 200.37 334.35
  C 194.57 307.28 188.17 280.35 182.43 253.26
  Q 181.87 250.63 182.38 248.05
  C 184.15 238.96 189.31 235.82 198.25 233.83
  Q 285.01 214.50 371.71 194.99
  C 376.88 193.83 380.62 193.41 384.89 195.82
  A 1.34 1.33 -60.8 0 1 385.40 197.63
  L 383.05 201.88
  Z
  M 284.8930 243.4707
  A 4.04 4.04 0.0 0 0 280.0690 240.4093
  L 212.1452 255.5920
  A 4.04 4.04 0.0 0 0 209.0838 260.4160
  L 209.5070 262.3093
  A 4.04 4.04 0.0 0 0 214.3310 265.3707
  L 282.2548 250.1880
  A 4.04 4.04 0.0 0 0 285.3162 245.3640
  L 284.8930 243.4707
  Z
  M 380.7995 261.0486
  A 4.40 4.40 0.0 0 0 375.5456 257.7144
  L 220.5700 292.3556
  A 4.40 4.40 0.0 0 0 217.2358 297.6094
  L 217.5805 299.1514
  A 4.40 4.40 0.0 0 0 222.8344 302.4856
  L 377.8100 267.8444
  A 4.40 4.40 0.0 0 0 381.1442 262.5906
  L 380.7995 261.0486
  Z
  M 385.4127 281.3551
  A 4.15 4.15 0.0 0 0 380.4574 278.2103
  L 224.7401 313.0173
  A 4.15 4.15 0.0 0 0 221.5953 317.9726
  L 222.0273 319.9049
  A 4.15 4.15 0.0 0 0 226.9826 323.0497
  L 382.6999 288.2427
  A 4.15 4.15 0.0 0 0 385.8447 283.2874
  L 385.4127 281.3551
  Z
  M 390.0774 301.8972
  A 4.21 4.21 0.0 0 0 385.0504 298.7069
  L 228.9427 333.6011
  A 4.21 4.21 0.0 0 0 225.7525 338.6281
  L 226.1626 340.4628
  A 4.21 4.21 0.0 0 0 231.1896 343.6531
  L 387.2973 308.7589
  A 4.21 4.21 0.0 0 0 390.4875 303.7319
  L 390.0774 301.8972
  Z
  M 209.7467 309.2039
  A 1.55 1.55 0.0 0 0 207.7585 308.2809
  L 199.7949 311.1952
  A 1.55 1.55 0.0 0 0 198.8720 313.1834
  L 198.9133 313.2961
  A 1.55 1.55 0.0 0 0 200.9015 314.2191
  L 208.8651 311.3048
  A 1.55 1.55 0.0 0 0 209.7880 309.3166
  L 209.7467 309.2039
  Z
  M 232.02 355.30
  C 229.58 357.91 230.95 363.86 235.75 363.43
  C 238.46 363.19 241.01 362.95 243.72 362.35
  Q 315.36 346.38 386.99 330.39
  C 391.25 329.44 397.40 327.62 394.39 321.84
  C 393.50 320.13 392.53 318.48 390.49 318.95
  Q 313.63 336.44 236.62 353.30
  Q 233.18 354.06 232.02 355.30
  Z"
/>
<path fill="#e9e9e9" d="
  M 387.53 199.14
  C 375.15 225.26 383.92 253.66 408.48 268.33
  Q 406.79 269.25 407.75 271.00
  Q 409.72 274.62 409.76 279.53
  Q 405.81 278.61 403.52 277.29
  Q 372.86 259.60 375.37 225.15
  C 375.97 216.93 379.13 209.06 383.05 201.88
  Q 383.68 201.77 383.96 200.86
  Q 384.15 200.26 384.73 200.48
  Q 386.20 201.04 387.53 199.14
  Z"
/>
<ellipse fill="#52d1bc" cx="0.00" cy="0.00" transform="translate(431.39,221.25) rotate(118.9)" rx="12.67" ry="7.86"/>
<path fill="#f4b544" d="
  M 119.99 213.65
  Q 119.51 215.61 122.07 213.73
  Q 122.53 213.46 122.77 213.81
  A 0.40 0.38 38.0 0 1 122.82 214.17
  L 121.40 218.43
  Q 120.34 220.87 119.57 222.58
  Q 118.78 224.34 117.14 223.80
  A 1.50 1.49 21.4 0 1 116.24 221.75
  L 119.99 213.65
  Z"
/>
<rect fill="#f4b544" x="-1.63" y="-5.86" transform="translate(114.12,234.30) rotate(12.4)" width="3.26" height="11.72" rx="1.41"/>
<rect fill="#52d1bc" x="-38.84" y="-5.01" transform="translate(247.20,252.89) rotate(-12.6)" width="77.68" height="10.02" rx="4.04"/>
<rect fill="#f4b544" x="-1.47" y="-5.86" transform="translate(112.85,251.11) rotate(-3.8)" width="2.94" height="11.72" rx="1.42"/>
<rect fill="#ecf2ff" x="-83.80" y="-5.19" transform="translate(299.19,280.10) rotate(-12.6)" width="167.60" height="10.38" rx="4.40"/>
<path fill="#f4b544" d="
  M 161.76 261.96
  Q 164.50 263.09 166.76 264.95
  C 167.44 265.50 167.52 265.98 167.31 266.77
  A 1.24 1.23 -68.0 0 1 165.51 267.54
  L 160.04 264.49
  L 157.88 263.99
  A 1.37 1.36 46.9 0 1 157.97 261.31
  Q 159.67 261.05 161.76 261.96
  Z"
/>
<rect fill="#f4b544" x="-1.54" y="-5.84" transform="translate(116.82,267.44) rotate(-23.5)" width="3.08" height="11.68" rx="1.48"/>
<path fill="#f4b544" d="
  M 144.32 271.54
  A 0.73 0.73 0.0 0 1 143.29 271.49
  L 142.77 270.92
  A 3.95 1.95 -42.3 0 1 144.38 266.82
  L 147.16 264.29
  A 3.95 1.95 -42.3 0 1 151.39 263.07
  L 151.92 263.65
  A 0.73 0.73 0.0 0 1 151.87 264.68
  L 144.32 271.54
  Z"
/>
<path fill="#ecf2ff" d="
  M 464.96 264.46
  Q 464.61 267.45 463.17 268.43
  Q 459.59 270.85 456.12 273.43
  Q 455.44 273.94 455.35 274.46
  Q 455.23 275.13 455.84 275.51
  Q 456.26 275.77 456.38 276.26
  Q 464.89 310.86 457.97 345.52
  C 456.28 354.00 452.98 364.03 450.27 371.98
  Q 449.88 373.15 448.25 374.56
  Q 441.23 343.53 434.40 312.47
  C 433.42 308.00 432.25 305.27 428.27 303.40
  Q 421.46 300.22 414.10 297.28
  L 409.76 279.53
  Q 409.72 274.62 407.75 271.00
  Q 406.79 269.25 408.48 268.33
  Q 437.66 282.83 464.96 264.46
  Z"
/>
<path fill="#f4b544" d="
  M 171.34 279.88
  C 171.39 277.81 170.43 275.09 169.73 273.31
  A 1.43 1.43 0.0 0 1 172.34 272.13
  Q 174.56 276.46 174.37 281.37
  A 1.49 1.49 0.0 0 1 171.41 281.50
  Q 171.32 280.86 171.34 279.88
  Z"
/>
<rect fill="#f4b544" x="-1.74" y="-5.79" transform="translate(139.97,281.64) rotate(3.4)" width="3.48" height="11.58" rx="1.55"/>
<rect fill="#f4b544" x="-1.63" y="-5.94" transform="translate(125.70,281.86) rotate(-39.1)" width="3.26" height="11.88" rx="1.57"/>
<rect fill="#ecf2ff" x="-83.93" y="-5.14" transform="translate(303.72,300.63) rotate(-12.6)" width="167.86" height="10.28" rx="4.15"/>
<path fill="#f4b544" d="
  M 170.29 287.44
  A 0.26 0.26 0.0 0 1 170.66 287.41
  L 171.43 288.06
  A 4.22 2.07 -49.6 0 1 170.27 292.62
  L 168.27 294.97
  A 4.22 2.07 -49.6 0 1 163.96 296.84
  L 163.19 296.18
  A 0.26 0.26 0.0 0 1 163.16 295.82
  L 170.29 287.44
  Z"
/>
<path fill="#f4b544" d="
  M 140.52 293.02
  L 142.21 292.41
  A 0.81 0.81 0.0 0 1 143.21 292.80
  L 147.58 301.45
  A 0.73 0.72 52.8 0 1 147.47 302.27
  C 144.98 304.99 143.25 299.75 142.50 298.34
  A 1.72 1.67 88.4 0 0 141.75 297.61
  Q 137.24 295.34 133.48 291.97
  A 1.64 1.63 29.6 0 1 133.01 290.27
  Q 133.42 288.93 134.66 289.26
  C 136.06 289.62 138.39 292.12 139.93 292.98
  A 0.70 0.67 -40.0 0 0 140.52 293.02
  Z"
/>
<circle fill="#64a3e6" cx="485.48" cy="303.10" r="9.79"/>
<path fill="#f4b544" d="
  M 448.25 374.56
  L 461.65 434.49
  L 461.62 435.39
  A 0.52 0.52 0.0 0 1 460.93 435.86
  L 332.76 390.02
  A 0.82 0.75 80.1 0 1 332.41 389.75
  L 332.15 389.40
  Q 333.96 388.53 334.16 387.60
  L 365.44 357.11
  L 379.64 343.18
  L 415.87 307.81
  A 0.99 0.98 -28.7 0 0 416.14 306.91
  L 414.10 297.28
  Q 421.46 300.22 428.27 303.40
  C 432.25 305.27 433.42 308.00 434.40 312.47
  Q 441.23 343.53 448.25 374.56
  Z"
/>
<path fill="#f4b544" d="
  M 151.53 297.83
  L 157.55 297.79
  A 1.52 1.52 0.0 0 1 158.17 300.70
  Q 156.56 301.41 153.70 301.12
  Q 151.08 301.24 148.46 300.18
  A 1.37 1.37 0.0 0 1 149.13 297.55
  L 151.53 297.83
  Z"
/>
<rect fill="#ecf2ff" x="-84.19" y="-5.15" transform="translate(308.12,321.18) rotate(-12.6)" width="168.38" height="10.30" rx="4.21"/>
<path fill="#f4b544" d="
  M 152.39 306.15
  L 159.97 310.91
  A 1.49 1.49 0.0 0 1 160.05 313.38
  Q 159.09 314.08 157.72 313.34
  Q 154.43 311.58 151.62 309.58
  Q 149.87 308.46 150.40 306.91
  Q 150.78 305.80 152.39 306.15
  Z"
/>
<rect fill="#f4b544" x="-5.79" y="-1.61" transform="translate(204.33,311.25) rotate(-20.1)" width="11.58" height="3.22" rx="1.55"/>
<rect fill="#f4b544" x="-5.68" y="-1.55" transform="translate(171.11,315.47) rotate(7.9)" width="11.36" height="3.10" rx="1.19"/>
<rect fill="#f4b544" x="-5.68" y="-1.53" transform="translate(187.96,315.37) rotate(-7.4)" width="11.36" height="3.06" rx="1.45"/>
<path fill="#ecf2ff" d="
  M 235.75 363.43
  C 230.95 363.86 229.58 357.91 232.02 355.30
  Q 233.18 354.06 236.62 353.30
  Q 313.63 336.44 390.49 318.95
  C 392.53 318.48 393.50 320.13 394.39 321.84
  C 397.40 327.62 391.25 329.44 386.99 330.39
  Q 315.36 346.38 243.72 362.35
  C 241.01 362.95 238.46 363.19 235.75 363.43
  Z"
/>
<path fill="#ecf2ff" d="
  M 379.64 343.18
  L 365.44 357.11
  Q 362.52 356.91 359.52 357.77
  Q 355.00 359.07 354.90 359.09
  Q 313.49 368.27 271.49 377.62
  L 252.52 371.10
  Q 310.20 358.69 367.70 345.60
  Q 367.81 345.57 373.18 344.00
  Q 376.49 343.04 379.64 343.18
  Z"
/>
<path fill="#f4b544" d="
  M 202.68 344.43
  L 204.97 354.18
  Q 205.09 354.71 205.61 354.89
  L 252.52 371.10
  L 271.49 377.62
  L 312.48 391.89
  L 314.79 392.78
  L 315.08 392.93
  A 1.14 1.13 37.1 0 1 315.34 394.77
  Q 302.43 406.77 290.07 419.21
  Q 278.81 430.55 275.95 433.38
  Q 249.41 459.62 222.99 485.99
  Q 219.59 489.38 218.55 490.91
  L 204.13 426.61
  Q 197.19 395.45 190.20 364.26
  Q 189.20 359.81 192.55 355.82
  Q 197.23 350.27 202.68 344.43
  Z"
/>
<path fill="#ffffff" d="
  M 365.44 357.11
  L 334.16 387.60
  Q 322.10 381.02 314.14 391.21
  Q 313.83 391.61 313.32 391.61
  Q 312.83 391.61 312.48 391.89
  L 271.49 377.62
  Q 313.49 368.27 354.90 359.09
  Q 355.00 359.07 359.52 357.77
  Q 362.52 356.91 365.44 357.11
  Z"
/>
<path fill="#ecf2ff" d="
  M 334.16 387.60
  Q 333.96 388.53 332.15 389.40
  Q 331.84 389.92 331.02 389.61
  Q 322.76 386.41 317.38 392.55
  Q 317.05 392.93 316.55 392.90
  L 314.79 392.78
  L 312.48 391.89
  Q 312.83 391.61 313.32 391.61
  Q 313.83 391.61 314.14 391.21
  Q 322.10 381.02 334.16 387.60
  Z"
/>
<path fill="#f9c067" d="
  M 332.15 389.40
  L 332.41 389.75
  A 0.82 0.75 80.1 0 0 332.76 390.02
  L 460.93 435.86
  A 0.52 0.52 0.0 0 0 461.62 435.39
  L 461.65 434.49
  Q 465.06 446.35 454.45 449.03
  Q 342.88 473.80 231.37 498.87
  Q 220.85 501.24 218.55 490.91
  Q 219.59 489.38 222.99 485.99
  Q 249.41 459.62 275.95 433.38
  Q 278.81 430.55 290.07 419.21
  Q 302.43 406.77 315.34 394.77
  A 1.14 1.13 37.1 0 0 315.08 392.93
  L 314.79 392.78
  L 316.55 392.90
  Q 317.05 392.93 317.38 392.55
  Q 322.76 386.41 331.02 389.61
  Q 331.84 389.92 332.15 389.40
  Z"
/>
<path fill="#e9e9e9" d="
  M 190.78 416.13
  Q 191.66 418.46 193.62 418.51
  Q 194.16 418.52 194.52 418.93
  Q 197.38 422.13 200.14 425.22
  Q 201.89 427.16 204.13 426.61
  L 218.55 490.91
  Q 220.85 501.24 231.37 498.87
  Q 342.88 473.80 454.45 449.03
  Q 455.99 456.35 451.80 460.13
  Q 449.55 462.16 442.40 463.75
  Q 335.03 487.73 227.65 511.60
  C 218.90 513.54 212.74 514.08 210.46 504.01
  Q 200.61 460.56 190.78 416.13
  Z"
/>
<circle fill="#64a3e6" cx="155.92" cy="426.11" r="7.67"/>
</svg>
