<svg width="611.9999999999999" height="611.9999999999999" xmlns="http://www.w3.org/2000/svg">
 <g>
  <title>background</title>
  <rect fill="none" id="canvas_background" height="149.467906" width="149.467906" y="-1" x="-1"/>
 </g>

 <g>
  <title>Layer 1</title>
  <g id="svg_1" fill="none" stroke-width="2">
   <path id="svg_2" d="m139.58,267.92q-19.13,75.29 -29.5,119.33q-0.55,2.33 0.45,5.22" stroke="#9dc1f9"/>
   <path id="svg_3" d="m110.53,392.47q0.96,2.84 3.07,5.03q0.34,0.36 0.47,0.84q1.53,5.87 6.95,7.32q17.97,4.8 57.61,14.31q0.08,0.02 2.24,0.35q1.54,0.24 3.14,1.13" stroke="#e7eaef"/>
   <path id="svg_4" d="m184.01,421.45q-0.02,2.43 1.86,4.94c9.19,12.25 16.77,23.11 26.94,33.22q8.5,8.45 11.62,11.2q20.17,17.77 45.3,26.96q2.65,0.96 6.04,1.72c5.21,1.15 10.69,2.59 15.4,3.24c24.35,3.38 51.21,-1.23 72.51,-12.33q13.94,-7.25 17.84,-9.86q24.66,-16.43 44.88,-42.86q18.02,-23.55 28.88,-51.21q0.74,-1.9 0.91,-4.33" stroke="#f6f9ff"/>
   <path id="svg_5" d="m456.19,382.14q7.69,-3.69 9.92,-5.26q12.2,-8.61 14,-22.25" stroke="#e7eaef"/>
   <path id="svg_6" d="m480.11,354.63q5.03,-13.21 1.86,-26.52" stroke="#a9e8de"/>
   <path id="svg_7" d="m481.97,328.11q5.4,-1.68 10.44,-4.07q4.28,-2.04 5.88,-4.57q2.14,-3.41 1.49,-7.82" stroke="#e7eaef"/>
   <path id="svg_8" d="m499.78,311.65c3.88,-6.11 1.47,-10.97 -0.92,-16.49q-22.23,-51.31 -44.47,-102.64q-3.12,-7.2 -5.5,-9.17q-4.76,-3.93 -12.1,-0.82q-11.76,5 -22.77,9.77" stroke="#fcdfb0"/>
   <path id="svg_9" d="m414.02,192.3q-24.91,-24.58 -54.22,-39.37c-41.4,-20.89 -89.44,-33.52 -135.13,-21.66c-4.84,1.26 -9.54,3.45 -14.3,5.4c-26.52,10.82 -46.41,31.83 -58.39,57.6q-9.34,20.08 -12.43,46.48q-0.6,5.18 -1.23,22.39q-0.05,1.28 0.37,2.43q0.42,1.16 0.89,2.35" stroke="#f6f9ff"/>
   <path id="svg_10" d="m414.02,192.3l-104.23,45.03" stroke="#f3d9b0"/>
   <path id="svg_11" d="m309.79,237.33q-2.26,0.03 -4.77,-0.82q-1.99,-0.67 -3.61,-2.68q-14.6,-18.1 -18.77,-22.98q-5.48,-6.42 -13.41,-2.99q-12.27,5.3 -24.61,10.46c-2.51,1.05 -4.34,2.14 -7.12,1.45q-23.37,-5.82 -46.72,-11.61q-13.87,-3.44 -20.6,6.28q-2.47,3.56 -4.88,13.18q-3.41,13.6 -6.81,27.26q-0.13,0.5 -0.6,0.71q-6.61,2.92 -13.1,5.68q-3.45,1.46 -5.21,6.65" stroke="#94bbf9"/>
   <path id="svg_12" d="m359.27,305.1q3.36,6.73 8.31,10.63" stroke="#85ace9"/>
   <path id="svg_13" d="m367.58,315.73l2.12,4.76" stroke="#9dc1f9"/>
   <path id="svg_14" d="m369.7,320.49q-0.08,2.75 -1.59,9.02q-6.09,25.17 -8.56,34.21c-0.55,2.02 -0.74,4.14 -1.21,6.24" stroke="#85ace9"/>
   <path id="svg_15" d="m358.34,369.96l-0.33,1.33" stroke="#9aa1aa"/>
   <path id="svg_16" d="m358.01,371.29l-10.49,41.9" stroke="#85ace9"/>
   <path id="svg_17" d="m347.52,413.19q-2.02,-1.05 -3.9,-0.68" stroke="#47aad7"/>
   <path id="svg_18" d="m343.62,412.51q10.63,-42.21 21.1,-84.43q1.22,-4.9 0.95,-6.7c-0.54,-3.65 -4.14,-6.37 -8.17,-5.11q-8.15,2.56 -13.53,4.31q-4.6,1.49 -13.58,4.13q-7.1,2.1 -13.99,4.64" stroke="#9dc1f9"/>
   <path id="svg_19" d="m316.4,329.35q-2.03,-0.08 -2.96,0.88" stroke="#85ace9"/>
   <path id="svg_20" d="m313.44,330.23l-55.67,17.72" stroke="#9dc1f9"/>
   <path id="svg_21" d="m257.77,347.95q-1.27,-0.15 -3.79,1.12a0.9,0.89 -32.3 0 0 -0.31,1.34q2.6,3.37 5.75,6.34q1.67,1.58 3.88,4.28q1.86,2.27 4.16,4.09c2.15,1.7 3.28,3.78 5.29,5.58q3.62,3.23 4.23,3.89q10.52,11.4 21.75,22.29" stroke="#85ace9"/>
   <path id="svg_22" d="m298.73,396.88l38.12,40.41a0.45,0.45 0 0 0 0.76,-0.2l5.81,-23.5" stroke="#9dc1f9"/>
   <path id="svg_23" d="m343.42,413.59l3.21,3.32" stroke="#47aad7"/>
   <path id="svg_24" d="m346.63,416.91q-2.54,10.29 -4.96,20.04c-1.81,7.3 -2.39,12.49 -9.5,14.15q-2.76,0.65 -7.27,-0.48q-103.3,-25.81 -206.66,-51.37q-4.69,-1.16 -7.71,-6.78" stroke="#85ace9"/>
   <path id="svg_25" d="m499.78,311.65q-1.54,1.86 -3.06,2.6q-4.37,2.12 -17.42,7.44" stroke="#e4caa0"/>
   <path id="svg_26" d="m479.3,321.69l-1.8,-3.38" stroke="#a6c88f"/>
   <path id="svg_27" d="m477.5,318.31q7.76,-3.08 15.27,-6.54c4.27,-1.96 6.6,-4.45 4.89,-9.2a0.86,0.86 0 0 0 -0.68,-0.57l-101.19,-15.7" stroke="#fcdfb0"/>
   <path id="svg_28" d="m395.79,286.3q-1.89,-0.96 -4.02,-0.48q-0.51,0.12 -0.77,0.56q-1.08,1.78 -1.82,3.7q-0.83,2.13 -1.92,3.5q-5.1,6.4 -6.11,8.9q-3.38,8.36 -12.91,8q-6.17,-0.23 -8.97,-5.38" stroke="#e4caa0"/>
   <path id="svg_29" d="m359.27,305.1q0.14,-0.57 -0.02,-0.81" stroke="#9aa1aa"/>
   <path id="svg_30" d="m359.25,304.29q1.37,-0.95 2.25,0.57q0.25,0.43 0.71,0.58c7.4,2.43 11.51,3.13 15.97,-4.2q34.62,-56.93 68.91,-113.66a1.06,1.06 0 0 0 -0.4,-1.48c-4.09,-2.25 -6.6,-0.81 -11.21,1.17q-59.42,25.62 -119.38,51.79" stroke="#fcdfb0"/>
   <path id="svg_31" d="m316.1,239.06q-2.67,0.07 -6.31,-1.73" stroke="#9aa1aa"/>
   <path id="svg_32" d="m343.62,412.51l-0.2,1.08" stroke="#a9e8de"/>
   <path id="svg_33" d="m298.73,396.88q-1.38,-3.1 -3.49,-5.5q-2.29,-2.6 -2.33,-2.65c-6.24,-7.74 -14.43,-16.69 -19.45,-22.54q-7.66,-8.95 -15.69,-18.24" stroke="#e7eaef"/>
   <path id="svg_34" d="m313.44,330.23q1.59,0.24 2.96,-0.88" stroke="#e7eaef"/>
   <path id="svg_35" d="m409.75,352.21c-2.01,0.78 -4.09,1.23 -5.96,2.07q-18.69,8.33 -37.53,16.33c-1.71,0.73 -2.88,2.35 -5.4,2.21a1.01,1 -71.5 0 0 -0.89,0.45q-0.62,0.91 -1.59,0.36q-0.43,-0.24 -0.49,-0.72q-0.11,-0.8 0.12,-1.62" stroke="#e4caa0"/>
   <path id="svg_36" d="m456.19,382.14q-9.99,2.33 -15.17,1.69q-22.6,-2.79 -31.94,-23.1a0.6,0.59 65.4 0 0 -0.78,-0.3l-45.08,19.51a5.36,5.35 -4.9 0 0 -3.06,3.63l-8.06,33.11" stroke="#dde3ef"/>
   <path id="svg_37" d="m352.1,416.68q-3.82,-0.9 -4.58,-3.49" stroke="#90d3ce"/>
   <path id="svg_38" d="m477.5,318.31c-15.37,-23.94 -49.73,-23.7 -64.52,0.41q-7.51,12.24 -5.08,27.85" stroke="#a9e8de"/>
   <path id="svg_39" d="m407.9,346.57q0.79,1.54 -1.85,2.75q-8.71,3.99 -39.86,17.18" stroke="#fcdfb0"/>
   <path id="svg_40" d="m366.19,366.5q-1.4,0.33 -2.03,-0.5q-0.3,-0.39 -0.05,-0.81q0.94,-1.63 1.34,-3.45q3.25,-14.42 7.33,-28.67q1.16,-4.03 0.55,-6.47q-0.85,-3.41 -3.63,-6.11" stroke="#e7eaef"/>
   <path id="svg_41" d="m395.79,286.3q-6.11,10.9 -12.11,21.4q-3.32,5.83 -5.87,7.16q-3.98,2.07 -10.23,0.87" stroke="#e7eaef"/>
   <path id="svg_42" d="m366.19,366.5c-0.72,2.26 -2.99,0.64 -4.19,2.54q-0.27,0.41 -0.75,0.31q-1.71,-0.34 -2.91,0.61" stroke="#e4caa0"/>
   <path id="svg_43" d="m359.25,304.29q3.06,-13.64 6.65,-27.11q2.44,-9.16 2.12,-13.07c-0.85,-10.02 -7.69,-13.85 -17.03,-16.18q-17.11,-4.24 -34.89,-8.87" stroke="#9dc1f9"/>
   <path id="svg_44" d="m346.63,416.91q2.09,-0.13 4.45,3.22" stroke="#90d3ce"/>
   <path id="svg_45" d="m479.3,321.69l2.67,6.42" stroke="#90d3ce"/>
   <path id="svg_46" d="m480.11,354.63q-13.29,23.33 -39.39,21.55q-0.59,-0.04 -0.77,0.53l-1.29,4.17a1.12,1.11 -32.7 0 1 -2.17,-0.47l0.53,-4.01a1.03,1.03 0 0 0 -0.74,-1.13q-18.66,-5.14 -26.53,-23.06" stroke="#90d3ce"/>
   <path id="svg_47" d="m409.75,352.21l-1.85,-5.64" stroke="#a6c88f"/>
   <path id="svg_48" d="m184.01,421.45q72.83,18.1 145.49,36.29q7.48,1.88 11.55,-2.67q2.12,-2.38 3.96,-9.72q3.15,-12.62 6.07,-25.22" stroke="#dde3ef"/>
   <path id="svg_49" d="m351.08,420.13q1.56,-2.11 1.02,-3.45" stroke="#9fe2de"/>
   <path id="svg_50" d="m454.41,440.91a6.17,6.17 0 0 0 -6.17,-6.17a6.17,6.17 0 0 0 -6.17,6.17a6.17,6.17 0 0 0 6.17,6.17a6.17,6.17 0 0 0 6.17,-6.17" stroke="#a9e8de"/>
   <path id="svg_51" d="m185.59,458.26a8.78,8.78 0 0 0 -8.78,-8.78a8.78,8.78 0 0 0 -8.78,8.78a8.78,8.78 0 0 0 8.78,8.78a8.78,8.78 0 0 0 8.78,-8.78" stroke="#a9e8de"/>
   <path id="svg_52" d="m323.01,165.02a8.76,8.76 0 0 0 -8.76,-8.76a8.76,8.76 0 0 0 -8.76,8.76a8.76,8.76 0 0 0 8.76,8.76a8.76,8.76 0 0 0 8.76,-8.76" stroke="#9fe2de"/>
   <path id="svg_53" d="m437.33,212.54q-2.01,1.69 -3.33,3.93q-1.84,3.11 -1.92,3.23q-6.95,10.31 -13.1,21.12q-1.76,3.09 -5.84,9.17q-3.05,4.53 -5.46,9.47q-0.46,0.94 -1.42,2.15c-1.39,1.74 -2.29,4.18 -3.23,5.6q-4.22,6.37 -8.05,13.21q-0.76,1.35 0.79,1.49l2.47,0.22" stroke="#e4caa0"/>
   <path id="svg_54" d="m398.24,282.13l96.6,15.64a0.44,0.44 0 0 0 0.47,-0.61l-45.49,-105.09a0.37,0.37 0 0 0 -0.66,-0.04l-11.83,20.51" stroke="#fcdfb0"/>
   <path id="svg_55" d="m398.24,282.13l39.09,-69.59" stroke="#e7eaef"/>
   <path id="svg_56" d="m247.62,222.11l48.38,12.21a0.35,0.33 76.4 0 0 0.32,-0.56q-7.51,-9.38 -15.1,-18.98c-3.01,-3.8 -5.56,-5.62 -10.25,-3.59q-11.77,5.12 -23.41,10.07a0.45,0.45 0 0 0 0.06,0.85" stroke="#9dc1f9"/>
   <path id="svg_57" d="m161.04,262.92q-0.57,1.04 -0.24,2.82q0.22,1.24 1.32,2.34q12.41,12.39 24.26,25.3c1.45,1.58 3.84,3.4 5.86,5.63q6.61,7.29 17.45,17.36q4.57,4.24 9.48,9.86q5.68,6.49 11.84,12.51q0.77,0.75 2.29,1.57q1.24,0.67 2.35,1.69a1.07,1.06 -27 0 0 0.85,0.27q6.92,-0.81 12.54,3.18a1.39,1.36 -33.2 0 0 1.11,0.22c2.6,-0.61 5.34,-0.84 7.81,-1.68q7.68,-2.65 15.37,-5.26c12.38,-4.2 25.71,-7.82 38.48,-12.06c2.02,-0.67 4.62,-0.98 6.82,-1.85c10.11,-4.03 20.84,-6.91 31.22,-10.23q1.51,-0.48 2.23,-1.39q1.08,-1.34 0.92,-2.66" stroke="#85ace9"/>
   <path id="svg_58" d="m353,310.54q4.96,-19.2 9.24,-37.07q1.43,-5.97 0.97,-9.06c-1.19,-7.99 -6.91,-10.41 -14.74,-12.35q-77.75,-19.19 -155.42,-38.71q-8.28,-2.07 -11.94,-1.42q-7.96,1.41 -10.17,10.73q-4.56,19.19 -9.9,40.26" stroke="#9dc1f9"/>
   <path id="svg_59" d="m353,310.54l-34.73,11.79" stroke="#e7eaef"/>
   <path id="svg_60" d="m318.27,322.33q-61.55,-15.31 -123.37,-30.72c-2.58,-0.64 -4.29,-2.02 -7.47,-0.98" stroke="#f6f9ff"/>
   <path id="svg_61" d="m187.43,290.63l-26.39,-27.71" stroke="#e7eaef"/>
   <path id="svg_62" d="m298.58,329.3l1.14,-0.96q0.33,-0.28 0.13,-0.66c-0.46,-0.86 -0.89,-1.28 -1.88,-1.45q-6.03,-1.01 -11.96,-2.49q-42.64,-10.63 -85.26,-21.3q-0.44,-0.12 -0.94,-0.61q-0.37,-0.36 -0.8,-0.08q-0.31,0.19 -0.21,0.68" stroke="#f6f9ff"/>
   <path id="svg_63" d="m187.43,290.63l11.37,11.8" stroke="#dde3ef"/>
   <path id="svg_64" d="m198.8,302.43l2.53,2.78" stroke="#e7eaef"/>
   <path id="svg_65" d="m201.33,305.21l7.23,8.62q0.32,0.38 0.77,0.61q1.86,0.93 3.67,3.56q1.63,2.35 8.88,8.88c1.54,1.39 2.16,2.94 3.56,4.39" stroke="#dde3ef"/>
   <path id="svg_66" d="m225.44,331.27q3.02,2.3 5.28,5.27c1.09,1.45 2.1,1.77 3.79,1.26c4.06,-1.24 7.92,-2.57 12.28,-0.92c2.03,0.77 4.56,5.22 7.19,5.96q1.4,0.39 3.25,-0.05q5.63,-1.36 7.84,-2.52" stroke="#e7eaef"/>
   <path id="svg_67" d="m265.07,340.27l24.02,-7.94" stroke="#dde3ef"/>
   <path id="svg_68" d="m289.09,332.33l9.49,-3.03" stroke="#e7eaef"/>
   <path id="svg_69" d="m298.58,329.3q3.07,-1.52 6.22,-2.57c3.3,-1.09 7.28,-3.05 11.23,-3.66c0.87,-0.13 1.37,-0.71 2.24,-0.74" stroke="#dde3ef"/>
   <path id="svg_70" d="m289.09,332.33q-1.57,-0.25 -4.73,1.09q-1.78,0.75 -3.78,-0.02q-3.08,-1.2 -3.35,-1.26q-32.3,-7.71 -64.49,-16.06q-0.49,-0.13 -0.86,-0.49l-10.55,-10.38" stroke="#f6f9ff"/>
   <path id="svg_71" d="m265.07,340.27l0.06,-0.71q0.03,-0.32 -0.23,-0.49c-0.47,-0.31 -0.62,-0.53 -1.21,-0.68q-18.24,-4.57 -37.75,-9.43a0.96,0.96 0 0 0 -1.05,1.44l0.55,0.87" stroke="#f6f9ff"/>
   <path id="svg_72" d="m155.65,261.09a0.37,0.36 40.7 0 0 0.03,0.33q0.17,0.27 0.63,0.27a0.59,0.51 44.9 0 0 -0.08,-1.1q-0.32,-0.05 -0.58,0.5" stroke="#85ace9"/>
   <path id="svg_73" d="m163.25,366.02q20.44,-5.43 40.09,-12.31q3.56,-1.25 7.16,-2.38q3.48,-1.09 7.16,-2.43q6.18,-2.24 12.57,-4.1a0.77,0.77 0 0 0 0.33,-1.29l-3.55,-3.54" stroke="#85ace9"/>
   <path id="svg_74" d="m227.01,339.97q-36.26,-36.98 -72.44,-74.12q-1.65,-1.69 -3.48,-1.92c-6.2,-0.78 -7.36,3.94 -8.52,9.34q-1.18,5.51 -2.55,10.97q-12.2,48.61 -24.22,97.34a0.43,0.43 0 0 0 0.55,0.51l46.9,-16.07" stroke="#9dc1f9"/>
   <path id="svg_75" d="m227.01,339.97q-0.07,1.96 -0.54,1.25q-5.94,2 -11.79,4.21q-25.76,9.76 -51.43,20.59" stroke="#e7eaef"/>
   <path id="svg_76" d="m245.6,348.14c-2.59,-2.7 -5.87,-2.46 -9.26,-1.34q-61.01,20.01 -121.23,40.16a1.81,1.81 0 0 0 -1.18,2.15c1.44,5.85 4.08,5.97 9.92,7.43q101.13,25.17 202.27,50.27c4.26,1.06 8.02,0.73 9.86,-3.49a1.57,1.57 0 0 0 -0.31,-1.73q-45.54,-47.03 -90.07,-93.45" stroke="#9dc1f9"/>
   <path id="svg_77" d="m259.0934,254.952a3.89,3.89 0 0 0 -2.8333,-4.7156l-62.72,-15.6378a3.89,3.89 0 0 0 -4.7155,2.8334l-0.358,1.436a3.89,3.89 0 0 0 2.8333,4.7156l62.72,15.6378a3.89,3.89 0 0 0 4.7155,-2.8334l0.358,-1.436" stroke="#a9e8de"/>
   <path id="svg_78" d="m332.1325,308.9364a3.42,3.42 0 0 0 -2.4982,-4.1415l-145.2192,-35.9381a3.42,3.42 0 0 0 -4.1415,2.4983l-0.5861,2.3685a3.42,3.42 0 0 0 2.4982,4.1415l145.2192,35.9381a3.42,3.42 0 0 0 4.1415,-2.4983l0.5861,-2.3685" stroke="#f6f9ff"/>
   <path id="svg_79" d="m455.29,330.63l-0.48,-1.85a1.65,1.6 -75.4 0 0 -0.4,-0.71q-6.08,-6.22 -14.17,-2.6c-6.33,2.83 -11.89,10.13 -9.37,17.16q2.14,5.94 10.42,5.68q0.46,-0.01 0.62,0.42l0.83,2.28a1.09,1.08 -81.5 0 0 0.38,0.52c8.4,6.34 19.65,2.17 24.52,-6.39c4.1,-7.21 3.29,-14.91 -1.94,-21.35c-8.63,-10.65 -26.4,-12.48 -36.03,-3.3c-10.98,10.48 -11.92,26.03 0.84,36.07c8.42,6.63 19.96,10.15 29.38,4.79a0.5,0.49 -45.4 0 0 0,-0.86l-3.57,-1.98q-0.46,-0.26 -0.96,-0.08c-8.48,3.04 -18.43,-1.91 -24.39,-7.89c-9.19,-9.23 -5.16,-22.13 4.91,-28.61q7.41,-4.76 16.06,-1.82c9.35,3.16 17.85,12.43 11.89,22.69q-3.42,5.89 -10.3,7.36q-2.25,0.49 -3.48,-0.63q-0.87,-0.8 -0.09,-1.68l12.35,-14.12a1.04,1.04 0 0 0 -0.28,-1.59l-3.99,-2.22q-0.55,-0.31 -1.03,0.1l-0.96,0.85a0.47,0.47 0 0 1 -0.76,-0.24" stroke="#a9e8de"/>
   <path id="svg_80" d="m450.6955,330.3898a9.24,5.73 -44.1 0 0 -10.6231,2.3153a9.24,5.73 -44.1 0 0 -2.6479,10.5451a9.24,5.73 -44.1 0 0 10.6231,-2.3153a9.24,5.73 -44.1 0 0 2.6479,-10.5451" stroke="#a9e8de"/>
   <path id="svg_81" d="m329.7308,388.0697a1.19,1.19 0 0 0 -1.5625,-0.625l-0.0736,0.0316a1.19,1.19 0 0 0 -0.6249,1.5625l3.1594,7.3715a1.19,1.19 0 0 0 1.5625,0.625l0.0736,-0.0316a1.19,1.19 0 0 0 0.6249,-1.5625l-3.1594,-7.3715" stroke="#a9e8de"/>
   <path id="svg_82" d="m340.7388,409.5578a5.48,1.48 53.9 0 0 -2.033,-5.2998a5.48,1.48 53.9 0 0 -4.4246,-3.5558a5.48,1.48 53.9 0 0 2.033,5.2998a5.48,1.48 53.9 0 0 4.4246,3.5558" stroke="#a9e8de"/>
   <path id="svg_83" d="m437.0814,387.5952a1.3,1.3 0 0 0 -0.7301,-1.6872l-0.093,-0.0369a1.3,1.3 0 0 0 -1.6873,0.7302l-2.8124,7.1035a1.3,1.3 0 0 0 0.7301,1.6872l0.093,0.0369a1.3,1.3 0 0 0 1.6873,-0.7302l2.8124,-7.1035" stroke="#9fe2de"/>
   <path id="svg_84" d="m371.64,391.81q3.99,-1.04 8.15,-0.75a1.14,1.14 0 0 0 0.31,-2.26q-4.74,-0.98 -9.17,0.92a1.11,1.11 0 0 0 0.71,2.09" stroke="#9fe2de"/>
   <path id="svg_85" d="m385.12,393.39c1.54,2.35 2.59,3.33 3.27,6.86a0.68,0.68 0 0 0 0.75,0.55l0.84,-0.11a0.7,0.69 83.1 0 0 0.61,-0.78q-0.56,-4.59 -3.53,-7.99a1.22,1.22 0 0 0 -1.94,1.47" stroke="#9fe2de"/>
   <path id="svg_86" d="m362.93,402.17c1.65,-2.12 1.6,-4.42 4.03,-7.19a0.8,0.8 0 0 0 -0.25,-1.25l-1,-0.5a0.66,0.64 33.7 0 0 -0.76,0.14q-3.12,3.43 -3.88,7.98a1.05,1.05 0 0 0 1.86,0.82" stroke="#9fe2de"/>
   <path id="svg_87" d="m430.6012,401.2508a1.14,1.14 0 0 0 -0.2911,-1.5857l-0.0823,-0.0568a1.14,1.14 0 0 0 -1.5857,0.291l-4.4633,6.4699a1.14,1.14 0 0 0 0.2911,1.5857l0.0823,0.0568a1.14,1.14 0 0 0 1.5857,-0.291l4.4633,-6.4699" stroke="#9fe2de"/>
   <path id="svg_88" d="m390.29,406.44l-1.52,-0.79a0.37,0.37 0 0 0 -0.5,0.15l-3.35,6.38a2.29,1.01 -62.3 0 0 -0.17,2.49l0.39,0.21a2.29,1.01 -62.3 0 0 1.96,-1.56l3.35,-6.38a0.37,0.37 0 0 0 -0.16,-0.5" stroke="#9fe2de"/>
   <path id="svg_89" d="m366.27,415.84l-3.82,-8.66a0.43,0.43 0 0 0 -0.57,-0.22l-0.32,0.14a4.03,2.04 66.2 0 0 -0.24,4.52l0.92,2.06a4.03,2.04 66.2 0 0 3.49,2.87l0.32,-0.14a0.43,0.43 0 0 0 0.22,-0.57" stroke="#9fe2de"/>
   <path id="svg_90" d="m421.0763,411.4989a1.14,1.14 0 0 0 -1.5973,-0.2188l-6.2448,4.74a1.14,1.14 0 0 0 -0.2188,1.5973l0.0483,0.0637a1.14,1.14 0 0 0 1.5973,0.2188l6.2448,-4.74a1.14,1.14 0 0 0 0.2188,-1.5973l-0.0483,-0.0637" stroke="#9fe2de"/>
   <path id="svg_91" d="m378.96,420.16l1.69,-1.26a1.14,1.14 0 0 0 -1.14,-1.96c-3.26,1.4 -4.97,2.68 -8.67,1.6a1.18,1.18 0 0 0 -0.96,2.13q3.91,2.44 8.63,2.75q0.65,0.04 0.53,-0.6l-0.36,-1.94q-0.09,-0.44 0.28,-0.72" stroke="#9fe2de"/>
   <path id="svg_92" d="m408.7152,419.7491a1.11,1.11 0 0 0 -1.3649,-0.7753l-7.7514,2.135a1.11,1.11 0 0 0 -0.7753,1.3649l0.0212,0.0772a1.11,1.11 0 0 0 1.3649,0.7753l7.7514,-2.135a1.11,1.11 0 0 0 0.7753,-1.3649l-0.0212,-0.0772" stroke="#9fe2de"/>
   <path id="svg_93" d="m366.5377,422.1293a1.05,1.05 0 0 0 -0.877,-1.1983l-7.8267,-1.2116a1.05,1.05 0 0 0 -1.1983,0.877l-0.0734,0.4743a1.05,1.05 0 0 0 0.877,1.1983l7.8267,1.2116a1.05,1.05 0 0 0 1.1983,-0.877l0.0734,-0.4743" stroke="#9fe2de"/>
   <path id="svg_94" d="m394.1191,423.0531a1.07,1.07 0 0 0 -1.0756,-1.0643l-8.1199,0.0425a1.07,1.07 0 0 0 -1.0644,1.0756l0.0017,0.32a1.07,1.07 0 0 0 1.0756,1.0643l8.1199,-0.0425a1.07,1.07 0 0 0 1.0644,-1.0756l-0.0017,-0.32" stroke="#9fe2de"/>
  </g>
  <path id="svg_95" d="m0,0l612,0l0,612l-612,0l0,-612zm139.58,267.92q-19.13,75.29 -29.5,119.33q-0.55,2.33 0.45,5.22q0.96,2.84 3.07,5.03q0.34,0.36 0.47,0.84q1.53,5.87 6.95,7.32q17.97,4.8 57.61,14.31q0.08,0.02 2.24,0.35q1.54,0.24 3.14,1.13q-0.02,2.43 1.86,4.94c9.19,12.25 16.77,23.11 26.94,33.22q8.5,8.45 11.62,11.2q20.17,17.77 45.3,26.96q2.65,0.96 6.04,1.72c5.21,1.15 10.69,2.59 15.4,3.24c24.35,3.38 51.21,-1.23 72.51,-12.33q13.94,-7.25 17.84,-9.86q24.66,-16.43 44.88,-42.86q18.02,-23.55 28.88,-51.21q0.74,-1.9 0.91,-4.33q7.69,-3.69 9.92,-5.26q12.2,-8.61 14,-22.25q5.03,-13.21 1.86,-26.52q5.4,-1.68 10.44,-4.07q4.28,-2.04 5.88,-4.57q2.14,-3.41 1.49,-7.82c3.88,-6.11 1.47,-10.97 -0.92,-16.49q-22.23,-51.31 -44.47,-102.64q-3.12,-7.2 -5.5,-9.17q-4.76,-3.93 -12.1,-0.82q-11.76,5 -22.77,9.77q-24.91,-24.58 -54.22,-39.37c-41.4,-20.89 -89.44,-33.52 -135.13,-21.66c-4.84,1.26 -9.54,3.45 -14.3,5.4c-26.52,10.82 -46.41,31.83 -58.39,57.6q-9.34,20.08 -12.43,46.48q-0.6,5.18 -1.23,22.39q-0.05,1.28 0.37,2.43q0.42,1.16 0.89,2.35zm314.83,172.99a6.17,6.17 0 0 0 -6.17,-6.17a6.17,6.17 0 0 0 -6.17,6.17a6.17,6.17 0 0 0 6.17,6.17a6.17,6.17 0 0 0 6.17,-6.17zm-268.82,17.35a8.78,8.78 0 0 0 -8.78,-8.78a8.78,8.78 0 0 0 -8.78,8.78a8.78,8.78 0 0 0 8.78,8.78a8.78,8.78 0 0 0 8.78,-8.78z" fill="#ffffff"/>
  <path id="svg_96" d="m414.02,192.3l-104.23,45.03q-2.26,0.03 -4.77,-0.82q-1.99,-0.67 -3.61,-2.68q-14.6,-18.1 -18.77,-22.98q-5.48,-6.42 -13.41,-2.99q-12.27,5.3 -24.61,10.46c-2.51,1.05 -4.34,2.14 -7.12,1.45q-23.37,-5.82 -46.72,-11.61q-13.87,-3.44 -20.6,6.28q-2.47,3.56 -4.88,13.18q-3.41,13.6 -6.81,27.26q-0.13,0.5 -0.6,0.71q-6.61,2.92 -13.1,5.68q-3.45,1.46 -5.21,6.65q-0.47,-1.19 -0.89,-2.35q-0.42,-1.15 -0.37,-2.43q0.63,-17.21 1.23,-22.39q3.09,-26.4 12.43,-46.48c11.98,-25.77 31.87,-46.78 58.39,-57.6c4.76,-1.95 9.46,-4.14 14.3,-5.4c45.69,-11.86 93.73,0.77 135.13,21.66q29.31,14.79 54.22,39.37zm-91.01,-27.28a8.76,8.76 0 0 0 -8.76,-8.76a8.76,8.76 0 0 0 -8.76,8.76a8.76,8.76 0 0 0 8.76,8.76a8.76,8.76 0 0 0 8.76,-8.76z" fill="#eeeeee"/>
  <circle id="svg_97" r="8.76" cy="165.02" cx="314.25" fill="#aaab93"/>
  <path id="svg_98" d="m499.78,311.65q-1.54,1.86 -3.06,2.6q-4.37,2.12 -17.42,7.44l-1.8,-3.38q7.76,-3.08 15.27,-6.54c4.27,-1.96 6.6,-4.45 4.89,-9.2a0.86,0.86 0 0 0 -0.68,-0.57l-101.19,-15.7q-1.89,-0.96 -4.02,-0.48q-0.51,0.12 -0.77,0.56q-1.08,1.78 -1.82,3.7q-0.83,2.13 -1.92,3.5q-5.1,6.4 -6.11,8.9q-3.38,8.36 -12.91,8q-6.17,-0.23 -8.97,-5.38q0.14,-0.57 -0.02,-0.81q1.37,-0.95 2.25,0.57q0.25,0.43 0.71,0.58c7.4,2.43 11.51,3.13 15.97,-4.2q34.62,-56.93 68.91,-113.66a1.06,1.06 0 0 0 -0.4,-1.48c-4.09,-2.25 -6.6,-0.81 -11.21,1.17q-59.42,25.62 -119.38,51.79q-2.67,0.07 -6.31,-1.73l104.23,-45.03q11.01,-4.77 22.77,-9.77q7.34,-3.11 12.1,0.82q2.38,1.97 5.5,9.17q22.24,51.33 44.47,102.64c2.39,5.52 4.8,10.38 0.92,16.49zm-62.45,-99.11q-2.01,1.69 -3.33,3.93q-1.84,3.11 -1.92,3.23q-6.95,10.31 -13.1,21.12q-1.76,3.09 -5.84,9.17q-3.05,4.53 -5.46,9.47q-0.46,0.94 -1.42,2.15c-1.39,1.74 -2.29,4.18 -3.23,5.6q-4.22,6.37 -8.05,13.21q-0.76,1.35 0.79,1.49l2.47,0.22l96.6,15.64a0.44,0.44 0 0 0 0.47,-0.61l-45.49,-105.09a0.37,0.37 0 0 0 -0.66,-0.04l-11.83,20.51z" fill="#000000"/>
  <path id="svg_99" d="m359.25,304.29q3.06,-13.64 6.65,-27.11q2.44,-9.16 2.12,-13.07c-0.85,-10.02 -7.69,-13.85 -17.03,-16.18q-17.11,-4.24 -34.89,-8.87q59.96,-26.17 119.38,-51.79c4.61,-1.98 7.12,-3.42 11.21,-1.17a1.06,1.06 0 0 1 0.4,1.48q-34.29,56.73 -68.91,113.66c-4.46,7.33 -8.57,6.63 -15.97,4.2q-0.46,-0.15 -0.71,-0.58q-0.88,-1.52 -2.25,-0.57z" fill="#ffffff"/>
  <path id="svg_100" d="m398.24,282.13l39.09,-69.59l11.83,-20.51a0.37,0.37 0 0 1 0.66,0.04l45.49,105.09a0.44,0.44 0 0 1 -0.47,0.61l-96.6,-15.64z" fill="#ffffff"/>
  <path id="svg_101" d="m309.79,237.33q3.64,1.8 6.31,1.73q17.78,4.63 34.89,8.87c9.34,2.33 16.18,6.16 17.03,16.18q0.32,3.91 -2.12,13.07q-3.59,13.47 -6.65,27.11q0.16,0.24 0.02,0.81q3.36,6.73 8.31,10.63l2.12,4.76q-0.08,2.75 -1.59,9.02q-6.09,25.17 -8.56,34.21c-0.55,2.02 -0.74,4.14 -1.21,6.24l-0.33,1.33l-10.49,41.9q-2.02,-1.05 -3.9,-0.68q10.63,-42.21 21.1,-84.43q1.22,-4.9 0.95,-6.7c-0.54,-3.65 -4.14,-6.37 -8.17,-5.11q-8.15,2.56 -13.53,4.31q-4.6,1.49 -13.58,4.13q-7.1,2.1 -13.99,4.64q-2.03,-0.08 -2.96,0.88l-55.67,17.72q-1.27,-0.15 -3.79,1.12a0.9,0.89 -32.3 0 0 -0.31,1.34q2.6,3.37 5.75,6.34q1.67,1.58 3.88,4.28q1.86,2.27 4.16,4.09c2.15,1.7 3.28,3.78 5.29,5.58q3.62,3.23 4.23,3.89q10.52,11.4 21.75,22.29l38.12,40.41a0.45,0.45 0 0 0 0.76,-0.2l5.81,-23.5l3.21,3.32q-2.54,10.29 -4.96,20.04c-1.81,7.3 -2.39,12.49 -9.5,14.15q-2.76,0.65 -7.27,-0.48q-103.3,-25.81 -206.66,-51.37q-4.69,-1.16 -7.71,-6.78q-1,-2.89 -0.45,-5.22q10.37,-44.04 29.5,-119.33q1.76,-5.19 5.21,-6.65q6.49,-2.76 13.1,-5.68q0.47,-0.21 0.6,-0.71q3.4,-13.66 6.81,-27.26q2.41,-9.62 4.88,-13.18q6.73,-9.72 20.6,-6.28q23.35,5.79 46.72,11.61c2.78,0.69 4.61,-0.4 7.12,-1.45q12.34,-5.16 24.61,-10.46q7.93,-3.43 13.41,2.99q4.17,4.88 18.77,22.98q1.62,2.01 3.61,2.68q2.51,0.85 4.77,0.82zm-62.17,-15.22l48.38,12.21a0.35,0.33 76.4 0 0 0.32,-0.56q-7.51,-9.38 -15.1,-18.98c-3.01,-3.8 -5.56,-5.62 -10.25,-3.59q-11.77,5.12 -23.41,10.07a0.45,0.45 0 0 0 0.06,0.85zm-86.58,40.81q-0.57,1.04 -0.24,2.82q0.22,1.24 1.32,2.34q12.41,12.39 24.26,25.3c1.45,1.58 3.84,3.4 5.86,5.63q6.61,7.29 17.45,17.36q4.57,4.24 9.48,9.86q5.68,6.49 11.84,12.51q0.77,0.75 2.29,1.57q1.24,0.67 2.35,1.69a1.07,1.06 -27 0 0 0.85,0.27q6.92,-0.81 12.54,3.18a1.39,1.36 -33.2 0 0 1.11,0.22c2.6,-0.61 5.34,-0.84 7.81,-1.68q7.68,-2.65 15.37,-5.26c12.38,-4.2 25.71,-7.82 38.48,-12.06c2.02,-0.67 4.62,-0.98 6.82,-1.85c10.11,-4.03 20.84,-6.91 31.22,-10.23q1.51,-0.48 2.23,-1.39q1.08,-1.34 0.92,-2.66q4.96,-19.2 9.24,-37.07q1.43,-5.97 0.97,-9.06c-1.19,-7.99 -6.91,-10.41 -14.74,-12.35q-77.75,-19.19 -155.42,-38.71q-8.28,-2.07 -11.94,-1.42q-7.96,1.41 -10.17,10.73q-4.56,19.19 -9.9,40.26zm-5.39,-1.83a0.37,0.36 40.7 0 0 0.03,0.33q0.17,0.27 0.63,0.27a0.59,0.51 44.9 0 0 -0.08,-1.1q-0.32,-0.05 -0.58,0.5zm7.6,104.93q20.44,-5.43 40.09,-12.31q3.56,-1.25 7.16,-2.38q3.48,-1.09 7.16,-2.43q6.18,-2.24 12.57,-4.1a0.77,0.77 0 0 0 0.33,-1.29l-3.55,-3.54q-36.26,-36.98 -72.44,-74.12q-1.65,-1.69 -3.48,-1.92c-6.2,-0.78 -7.36,3.94 -8.52,9.34q-1.18,5.51 -2.55,10.97q-12.2,48.61 -24.22,97.34a0.43,0.43 0 0 0 0.55,0.51l46.9,-16.07zm82.35,-17.88c-2.59,-2.7 -5.87,-2.46 -9.26,-1.34q-61.01,20.01 -121.23,40.16a1.81,1.81 0 0 0 -1.18,2.15c1.44,5.85 4.08,5.97 9.92,7.43q101.13,25.17 202.27,50.27c4.26,1.06 8.02,0.73 9.86,-3.49a1.57,1.57 0 0 0 -0.31,-1.73q-45.54,-47.03 -90.07,-93.45z" fill="#000000"/>
  <path id="svg_102" d="m296,234.32l-48.38,-12.21a0.45,0.45 0 0 1 -0.06,-0.85q11.64,-4.95 23.41,-10.07c4.69,-2.03 7.24,-0.21 10.25,3.59q7.59,9.6 15.1,18.98a0.35,0.33 76.4 0 1 -0.32,0.56z" fill="#ffffff"/>
  <path id="svg_103" d="m353,310.54l-34.73,11.79q-61.55,-15.31 -123.37,-30.72c-2.58,-0.64 -4.29,-2.02 -7.47,-0.98l-26.39,-27.71q5.34,-21.07 9.9,-40.26q2.21,-9.32 10.17,-10.73q3.66,-0.65 11.94,1.42q77.67,19.52 155.42,38.71c7.83,1.94 13.55,4.36 14.74,12.35q0.46,3.09 -0.97,9.06q-4.28,17.87 -9.24,37.07zm-93.9066,-55.588a3.89,3.89 0 0 0 -2.8333,-4.7156l-62.72,-15.6378a3.89,3.89 0 0 0 -4.7155,2.8334l-0.358,1.436a3.89,3.89 0 0 0 2.8333,4.7156l62.72,15.6378a3.89,3.89 0 0 0 4.7155,-2.8334l0.358,-1.436zm73.0391,53.9844a3.42,3.42 0 0 0 -2.4982,-4.1415l-145.2192,-35.9381a3.42,3.42 0 0 0 -4.1415,2.4983l-0.5861,2.3685a3.42,3.42 0 0 0 2.4982,4.1415l145.2192,35.9381a3.42,3.42 0 0 0 4.1415,-2.4983l0.5861,-2.3685z" fill="#ffffff"/>
  <path id="svg_104" d="m437.33,212.54l-39.09,69.59l-2.47,-0.22q-1.55,-0.14 -0.79,-1.49q3.83,-6.84 8.05,-13.21c0.94,-1.42 1.84,-3.86 3.23,-5.6q0.96,-1.21 1.42,-2.15q2.41,-4.94 5.46,-9.47q4.08,-6.08 5.84,-9.17q6.15,-10.81 13.1,-21.12q0.08,-0.12 1.92,-3.23q1.32,-2.24 3.33,-3.93z" fill="#ced4df"/>
  <rect id="svg_105" rx="3.89" height="9.26" width="72.42" transform="rotate(14 223.7799987792968,246.9100036621093) " y="242.280004" x="187.569999" fill="#aaab93"/>
  <path id="svg_106" d="m155.65,261.09q0.26,-0.55 0.58,-0.5a0.59,0.51 44.9 0 1 0.08,1.1q-0.46,0 -0.63,-0.27a0.37,0.36 40.7 0 1 -0.03,-0.33z" fill="#ced4df"/>
  <path id="svg_107" d="m161.04,262.92l26.39,27.71l11.37,11.8l2.53,2.78l7.23,8.62q0.32,0.38 0.77,0.61q1.86,0.93 3.67,3.56q1.63,2.35 8.88,8.88c1.54,1.39 2.16,2.94 3.56,4.39q3.02,2.3 5.28,5.27c1.09,1.45 2.1,1.77 3.79,1.26c4.06,-1.24 7.92,-2.57 12.28,-0.92c2.03,0.77 4.56,5.22 7.19,5.96q1.4,0.39 3.25,-0.05q5.63,-1.36 7.84,-2.52l24.02,-7.94l9.49,-3.03q3.07,-1.52 6.22,-2.57c3.3,-1.09 7.28,-3.05 11.23,-3.66c0.87,-0.13 1.37,-0.71 2.24,-0.74l34.73,-11.79q0.16,1.32 -0.92,2.66q-0.72,0.91 -2.23,1.39c-10.38,3.32 -21.11,6.2 -31.22,10.23c-2.2,0.87 -4.8,1.18 -6.82,1.85c-12.77,4.24 -26.1,7.86 -38.48,12.06q-7.69,2.61 -15.37,5.26c-2.47,0.84 -5.21,1.07 -7.81,1.68a1.39,1.36 -33.2 0 1 -1.11,-0.22q-5.62,-3.99 -12.54,-3.18a1.07,1.06 -27 0 1 -0.85,-0.27q-1.11,-1.02 -2.35,-1.69q-1.52,-0.82 -2.29,-1.57q-6.16,-6.02 -11.84,-12.51q-4.91,-5.62 -9.48,-9.86q-10.84,-10.07 -17.45,-17.36c-2.02,-2.23 -4.41,-4.05 -5.86,-5.63q-11.85,-12.91 -24.26,-25.3q-1.1,-1.1 -1.32,-2.34q-0.33,-1.78 0.24,-2.82z" fill="#ced4df"/>
  <path id="svg_108" d="m227.01,339.97q-0.07,1.96 -0.54,1.25q-5.94,2 -11.79,4.21q-25.76,9.76 -51.43,20.59l-46.9,16.07a0.43,0.43 0 0 1 -0.55,-0.51q12.02,-48.73 24.22,-97.34q1.37,-5.46 2.55,-10.97c1.16,-5.4 2.32,-10.12 8.52,-9.34q1.83,0.23 3.48,1.92q36.18,37.14 72.44,74.12z" fill="#ffffff"/>
  <rect id="svg_109" rx="3.42" height="9.28" width="156.44" transform="rotate(13.899999618530273 255.91000366210935,291.3300170898437) " y="286.689987" x="177.690004" fill="#aaab93"/>
  <path id="svg_110" d="m395.79,286.3q-6.11,10.9 -12.11,21.4q-3.32,5.83 -5.87,7.16q-3.98,2.07 -10.23,0.87q-4.95,-3.9 -8.31,-10.63q2.8,5.15 8.97,5.38q9.53,0.36 12.91,-8q1.01,-2.5 6.11,-8.9q1.09,-1.37 1.92,-3.5q0.74,-1.92 1.82,-3.7q0.26,-0.44 0.77,-0.56q2.13,-0.48 4.02,0.48z" fill="#ced4df"/>
  <path id="svg_111" d="m395.79,286.3l101.19,15.7a0.86,0.86 0 0 1 0.68,0.57c1.71,4.75 -0.62,7.24 -4.89,9.2q-7.51,3.46 -15.27,6.54c-15.37,-23.94 -49.73,-23.7 -64.52,0.41q-7.51,12.24 -5.08,27.85q0.79,1.54 -1.85,2.75q-8.71,3.99 -39.86,17.18q-1.4,0.33 -2.03,-0.5q-0.3,-0.39 -0.05,-0.81q0.94,-1.63 1.34,-3.45q3.25,-14.42 7.33,-28.67q1.16,-4.03 0.55,-6.47q-0.85,-3.41 -3.63,-6.11l-2.12,-4.76q6.25,1.2 10.23,-0.87q2.55,-1.33 5.87,-7.16q6,-10.5 12.11,-21.4z" fill="#ffffff"/>
  <path id="svg_112" d="m318.27,322.33c-0.87,0.03 -1.37,0.61 -2.24,0.74c-3.95,0.61 -7.93,2.57 -11.23,3.66q-3.15,1.05 -6.22,2.57l1.14,-0.96q0.33,-0.28 0.13,-0.66c-0.46,-0.86 -0.89,-1.28 -1.88,-1.45q-6.03,-1.01 -11.96,-2.49q-42.64,-10.63 -85.26,-21.3q-0.44,-0.12 -0.94,-0.61q-0.37,-0.36 -0.8,-0.08q-0.31,0.19 -0.21,0.68l-11.37,-11.8c3.18,-1.04 4.89,0.34 7.47,0.98q61.82,15.41 123.37,30.72z" fill="#aaab93"/>
  <path id="svg_113" d="m477.5,318.31l1.8,3.38l2.67,6.42q3.17,13.31 -1.86,26.52q-13.29,23.33 -39.39,21.55q-0.59,-0.04 -0.77,0.53l-1.29,4.17a1.12,1.11 -32.7 0 1 -2.17,-0.47l0.53,-4.01a1.03,1.03 0 0 0 -0.74,-1.13q-18.66,-5.14 -26.53,-23.06l-1.85,-5.64q-2.43,-15.61 5.08,-27.85c14.79,-24.11 49.15,-24.35 64.52,-0.41zm-22.21,12.32l-0.48,-1.85a1.65,1.6 -75.4 0 0 -0.4,-0.71q-6.08,-6.22 -14.17,-2.6c-6.33,2.83 -11.89,10.13 -9.37,17.16q2.14,5.94 10.42,5.68q0.46,-0.01 0.62,0.42l0.83,2.28a1.09,1.08 -81.5 0 0 0.38,0.52c8.4,6.34 19.65,2.17 24.52,-6.39c4.1,-7.21 3.29,-14.91 -1.94,-21.35c-8.63,-10.65 -26.4,-12.48 -36.03,-3.3c-10.98,10.48 -11.92,26.03 0.84,36.07c8.42,6.63 19.96,10.15 29.38,4.79a0.5,0.49 -45.4 0 0 0,-0.86l-3.57,-1.98q-0.46,-0.26 -0.96,-0.08c-8.48,3.04 -18.43,-1.91 -24.39,-7.89c-9.19,-9.23 -5.16,-22.13 4.91,-28.61q7.41,-4.76 16.06,-1.82c9.35,3.16 17.85,12.43 11.89,22.69q-3.42,5.89 -10.3,7.36q-2.25,0.49 -3.48,-0.63q-0.87,-0.8 -0.09,-1.68l12.35,-14.12a1.04,1.04 0 0 0 -0.28,-1.59l-3.99,-2.22q-0.55,-0.31 -1.03,0.1l-0.96,0.85a0.47,0.47 0 0 1 -0.76,-0.24z" fill="#aaab93"/>
  <path id="svg_114" d="m298.58,329.3l-9.49,3.03q-1.57,-0.25 -4.73,1.09q-1.78,0.75 -3.78,-0.02q-3.08,-1.2 -3.35,-1.26q-32.3,-7.71 -64.49,-16.06q-0.49,-0.13 -0.86,-0.49l-10.55,-10.38l-2.53,-2.78q-0.1,-0.49 0.21,-0.68q0.43,-0.28 0.8,0.08q0.5,0.49 0.94,0.61q42.62,10.67 85.26,21.3q5.93,1.48 11.96,2.49c0.99,0.17 1.42,0.59 1.88,1.45q0.2,0.38 -0.13,0.66l-1.14,0.96z" fill="#ffffff"/>
  <path id="svg_115" d="m201.33,305.21l10.55,10.38q0.37,0.36 0.86,0.49q32.19,8.35 64.49,16.06q0.27,0.06 3.35,1.26q2,0.77 3.78,0.02q3.16,-1.34 4.73,-1.09l-24.02,7.94l0.06,-0.71q0.03,-0.32 -0.23,-0.49c-0.47,-0.31 -0.62,-0.53 -1.21,-0.68q-18.24,-4.57 -37.75,-9.43a0.96,0.96 0 0 0 -1.05,1.44l0.55,0.87c-1.4,-1.45 -2.02,-3 -3.56,-4.39q-7.25,-6.53 -8.88,-8.88q-1.81,-2.63 -3.67,-3.56q-0.45,-0.23 -0.77,-0.61l-7.23,-8.62z" fill="#aaab93"/>
  <path id="svg_116" d="m499.78,311.65q0.65,4.41 -1.49,7.82q-1.6,2.53 -5.88,4.57q-5.04,2.39 -10.44,4.07l-2.67,-6.42q13.05,-5.32 17.42,-7.44q1.52,-0.74 3.06,-2.6z" fill="#ced4df"/>
  <path id="svg_117" d="m456.05,330.87l0.96,-0.85q0.48,-0.41 1.03,-0.1l3.99,2.22a1.04,1.04 0 0 1 0.28,1.59l-12.35,14.12q-0.78,0.88 0.09,1.68q1.23,1.12 3.48,0.63q6.88,-1.47 10.3,-7.36c5.96,-10.26 -2.54,-19.53 -11.89,-22.69q-8.65,-2.94 -16.06,1.82c-10.07,6.48 -14.1,19.38 -4.91,28.61c5.96,5.98 15.91,10.93 24.39,7.89q0.5,-0.18 0.96,0.08l3.57,1.98a0.5,0.49 -45.4 0 1 0,0.86c-9.42,5.36 -20.96,1.84 -29.38,-4.79c-12.76,-10.04 -11.82,-25.59 -0.84,-36.07c9.63,-9.18 27.4,-7.35 36.03,3.3c5.23,6.44 6.04,14.14 1.94,21.35c-4.87,8.56 -16.12,12.73 -24.52,6.39a1.09,1.08 -81.5 0 1 -0.38,-0.52l-0.83,-2.28q-0.16,-0.43 -0.62,-0.42q-8.28,0.26 -10.42,-5.68c-2.52,-7.03 3.04,-14.33 9.37,-17.16q8.09,-3.62 14.17,2.6a1.65,1.6 -75.4 0 1 0.4,0.71l0.48,1.85a0.47,0.47 0 0 0 0.76,0.24zm-5.3545,-0.4802a9.24,5.73 -44.1 0 0 -10.6231,2.3153a9.24,5.73 -44.1 0 0 -2.6479,10.5451a9.24,5.73 -44.1 0 0 10.6231,-2.3153a9.24,5.73 -44.1 0 0 2.6479,-10.5451z" fill="#ffffff"/>
  <path id="svg_118" d="m343.62,412.51l-0.2,1.08l-5.81,23.5a0.45,0.45 0 0 1 -0.76,0.2l-38.12,-40.41q-1.38,-3.1 -3.49,-5.5q-2.29,-2.6 -2.33,-2.65c-6.24,-7.74 -14.43,-16.69 -19.45,-22.54q-7.66,-8.95 -15.69,-18.24l55.67,-17.72q1.59,0.24 2.96,-0.88q6.89,-2.54 13.99,-4.64q8.98,-2.64 13.58,-4.13q5.38,-1.75 13.53,-4.31c4.03,-1.26 7.63,1.46 8.17,5.11q0.27,1.8 -0.95,6.7q-10.47,42.22 -21.1,84.43zm-13.8892,-24.4403a1.19,1.19 0 0 0 -1.5625,-0.625l-0.0736,0.0316a1.19,1.19 0 0 0 -0.6249,1.5625l3.1594,7.3715a1.19,1.19 0 0 0 1.5625,0.625l0.0736,-0.0316a1.19,1.19 0 0 0 0.6249,-1.5625l-3.1594,-7.3715zm11.008,21.4881a5.48,1.48 53.9 0 0 -2.033,-5.2998a5.48,1.48 53.9 0 0 -4.4246,-3.5558a5.48,1.48 53.9 0 0 2.033,5.2998a5.48,1.48 53.9 0 0 4.4246,3.5558z" fill="#ffffff"/>
  <path id="svg_119" d="m369.7,320.49q2.78,2.7 3.63,6.11q0.61,2.44 -0.55,6.47q-4.08,14.25 -7.33,28.67q-0.4,1.82 -1.34,3.45q-0.25,0.42 0.05,0.81q0.63,0.83 2.03,0.5c-0.72,2.26 -2.99,0.64 -4.19,2.54q-0.27,0.41 -0.75,0.31q-1.71,-0.34 -2.91,0.61c0.47,-2.1 0.66,-4.22 1.21,-6.24q2.47,-9.04 8.56,-34.21q1.51,-6.27 1.59,-9.02z" fill="#ced4df"/>
  <path id="svg_120" d="m265.07,340.27q-2.21,1.16 -7.84,2.52q-1.85,0.44 -3.25,0.05c-2.63,-0.74 -5.16,-5.19 -7.19,-5.96c-4.36,-1.65 -8.22,-0.32 -12.28,0.92c-1.69,0.51 -2.7,0.19 -3.79,-1.26q-2.26,-2.97 -5.28,-5.27l-0.55,-0.87a0.96,0.96 0 0 1 1.05,-1.44q19.51,4.86 37.75,9.43c0.59,0.15 0.74,0.37 1.21,0.68q0.26,0.17 0.23,0.49l-0.06,0.71z" fill="#ffffff"/>
  <ellipse id="svg_121" ry="5.73" rx="9.24" transform="rotate(-44.099998474121094 444.0599975585936,336.8200073242188) " cy="336.820007" cx="444.059998" fill="#aaab93"/>
  <path id="svg_122" d="m316.4,329.35q-1.37,1.12 -2.96,0.88q0.93,-0.96 2.96,-0.88z" fill="#ced4df"/>
  <path id="svg_123" d="m227.01,339.97l3.55,3.54a0.77,0.77 0 0 1 -0.33,1.29q-6.39,1.86 -12.57,4.1q-3.68,1.34 -7.16,2.43q-3.6,1.13 -7.16,2.38q-19.65,6.88 -40.09,12.31q25.67,-10.83 51.43,-20.59q5.85,-2.21 11.79,-4.21q0.47,0.71 0.54,-1.25z" fill="#ced4df"/>
  <path id="svg_124" d="m236.34,346.8c3.39,-1.12 6.67,-1.36 9.26,1.34q44.53,46.42 90.07,93.45a1.57,1.57 0 0 1 0.31,1.73c-1.84,4.22 -5.6,4.55 -9.86,3.49q-101.14,-25.1 -202.27,-50.27c-5.84,-1.46 -8.48,-1.58 -9.92,-7.43a1.81,1.81 0 0 1 1.18,-2.15q60.22,-20.15 121.23,-40.16z" fill="#ffffff"/>
  <path id="svg_125" d="m407.9,346.57l1.85,5.64c-2.01,0.78 -4.09,1.23 -5.96,2.07q-18.69,8.33 -37.53,16.33c-1.71,0.73 -2.88,2.35 -5.4,2.21a1.01,1 -71.5 0 0 -0.89,0.45q-0.62,0.91 -1.59,0.36q-0.43,-0.24 -0.49,-0.72q-0.11,-0.8 0.12,-1.62l0.33,-1.33q1.2,-0.95 2.91,-0.61q0.48,0.1 0.75,-0.31c1.2,-1.9 3.47,-0.28 4.19,-2.54q31.15,-13.19 39.86,-17.18q2.64,-1.21 1.85,-2.75z" fill="#000000"/>
  <path id="svg_126" d="m257.77,347.95q8.03,9.29 15.69,18.24c5.02,5.85 13.21,14.8 19.45,22.54q0.04,0.05 2.33,2.65q2.11,2.4 3.49,5.5q-11.23,-10.89 -21.75,-22.29q-0.61,-0.66 -4.23,-3.89c-2.01,-1.8 -3.14,-3.88 -5.29,-5.58q-2.3,-1.82 -4.16,-4.09q-2.21,-2.7 -3.88,-4.28q-3.15,-2.97 -5.75,-6.34a0.9,0.89 -32.3 0 1 0.31,-1.34q2.52,-1.27 3.79,-1.12z" fill="#ced4df"/>
  <path id="svg_127" d="m409.75,352.21q7.87,17.92 26.53,23.06a1.03,1.03 0 0 1 0.74,1.13l-0.53,4.01a1.12,1.11 -32.7 0 0 2.17,0.47l1.29,-4.17q0.18,-0.57 0.77,-0.53q26.1,1.78 39.39,-21.55q-1.8,13.64 -14,22.25q-2.23,1.57 -9.92,5.26q-9.99,2.33 -15.17,1.69q-22.6,-2.79 -31.94,-23.1a0.6,0.59 65.4 0 0 -0.78,-0.3l-45.08,19.51a5.36,5.35 -4.9 0 0 -3.06,3.63l-8.06,33.11q-3.82,-0.9 -4.58,-3.49l10.49,-41.9q-0.23,0.82 -0.12,1.62q0.06,0.48 0.49,0.72q0.97,0.55 1.59,-0.36a1.01,1 -71.5 0 1 0.89,-0.45c2.52,0.14 3.69,-1.48 5.4,-2.21q18.84,-8 37.53,-16.33c1.87,-0.84 3.95,-1.29 5.96,-2.07z" fill="#ced4df"/>
  <path id="svg_128" d="m456.19,382.14q-0.17,2.43 -0.91,4.33q-10.86,27.66 -28.88,51.21q-20.22,26.43 -44.88,42.86q-3.9,2.61 -17.84,9.86c-21.3,11.1 -48.16,15.71 -72.51,12.33c-4.71,-0.65 -10.19,-2.09 -15.4,-3.24q-3.39,-0.76 -6.04,-1.72q-25.13,-9.19 -45.3,-26.96q-3.12,-2.75 -11.62,-11.2c-10.17,-10.11 -17.75,-20.97 -26.94,-33.22q-1.88,-2.51 -1.86,-4.94q72.83,18.1 145.49,36.29q7.48,1.88 11.55,-2.67q2.12,-2.38 3.96,-9.72q3.15,-12.62 6.07,-25.22q1.56,-2.11 1.02,-3.45l8.06,-33.11a5.36,5.35 -4.9 0 1 3.06,-3.63l45.08,-19.51a0.6,0.59 65.4 0 1 0.78,0.3q9.34,20.31 31.94,23.1q5.18,0.64 15.17,-1.69zm-19.1086,5.4552a1.3,1.3 0 0 0 -0.7301,-1.6872l-0.093,-0.0369a1.3,1.3 0 0 0 -1.6873,0.7302l-2.8124,7.1035a1.3,1.3 0 0 0 0.7301,1.6872l0.093,0.0369a1.3,1.3 0 0 0 1.6873,-0.7302l2.8124,-7.1035zm-65.4414,4.2148q3.99,-1.04 8.15,-0.75a1.14,1.14 0 0 0 0.31,-2.26q-4.74,-0.98 -9.17,0.92a1.11,1.11 0 0 0 0.71,2.09zm13.48,1.58c1.54,2.35 2.59,3.33 3.27,6.86a0.68,0.68 0 0 0 0.75,0.55l0.84,-0.11a0.7,0.69 83.1 0 0 0.61,-0.78q-0.56,-4.59 -3.53,-7.99a1.22,1.22 0 0 0 -1.94,1.47zm-22.19,8.78c1.65,-2.12 1.6,-4.42 4.03,-7.19a0.8,0.8 0 0 0 -0.25,-1.25l-1,-0.5a0.66,0.64 33.7 0 0 -0.76,0.14q-3.12,3.43 -3.88,7.98a1.05,1.05 0 0 0 1.86,0.82zm67.6712,-0.9192a1.14,1.14 0 0 0 -0.2911,-1.5857l-0.0823,-0.0568a1.14,1.14 0 0 0 -1.5857,0.291l-4.4633,6.4699a1.14,1.14 0 0 0 0.2911,1.5857l0.0823,0.0568a1.14,1.14 0 0 0 1.5857,-0.291l4.4633,-6.4699zm-40.3112,5.1892l-1.52,-0.79a0.37,0.37 0 0 0 -0.5,0.15l-3.35,6.38a2.29,1.01 -62.3 0 0 -0.17,2.49l0.39,0.21a2.29,1.01 -62.3 0 0 1.96,-1.56l3.35,-6.38a0.37,0.37 0 0 0 -0.16,-0.5zm-24.02,9.4l-3.82,-8.66a0.43,0.43 0 0 0 -0.57,-0.22l-0.32,0.14a4.03,2.04 66.2 0 0 -0.24,4.52l0.92,2.06a4.03,2.04 66.2 0 0 3.49,2.87l0.32,-0.14a0.43,0.43 0 0 0 0.22,-0.57zm54.8063,-4.3411a1.14,1.14 0 0 0 -1.5973,-0.2188l-6.2448,4.74a1.14,1.14 0 0 0 -0.2188,1.5973l0.0483,0.0637a1.14,1.14 0 0 0 1.5973,0.2188l6.2448,-4.74a1.14,1.14 0 0 0 0.2188,-1.5973l-0.0483,-0.0637zm-42.1163,8.6611l1.69,-1.26a1.14,1.14 0 0 0 -1.14,-1.96c-3.26,1.4 -4.97,2.68 -8.67,1.6a1.18,1.18 0 0 0 -0.96,2.13q3.91,2.44 8.63,2.75q0.65,0.04 0.53,-0.6l-0.36,-1.94q-0.09,-0.44 0.28,-0.72zm29.7552,-0.4109a1.11,1.11 0 0 0 -1.3649,-0.7753l-7.7514,2.135a1.11,1.11 0 0 0 -0.7753,1.3649l0.0212,0.0772a1.11,1.11 0 0 0 1.3649,0.7753l7.7514,-2.135a1.11,1.11 0 0 0 0.7753,-1.3649l-0.0212,-0.0772zm-42.1775,2.3802a1.05,1.05 0 0 0 -0.877,-1.1983l-7.8267,-1.2116a1.05,1.05 0 0 0 -1.1983,0.877l-0.0734,0.4743a1.05,1.05 0 0 0 0.877,1.1983l7.8267,1.2116a1.05,1.05 0 0 0 1.1983,-0.877l0.0734,-0.4743zm27.5814,0.9238a1.07,1.07 0 0 0 -1.0756,-1.0643l-8.1199,0.0425a1.07,1.07 0 0 0 -1.0644,1.0756l0.0017,0.32a1.07,1.07 0 0 0 1.0756,1.0643l8.1199,-0.0425a1.07,1.07 0 0 0 1.0644,-1.0756l-0.0017,-0.32z" fill="#eeeeee"/>
  <rect id="svg_129" rx="1.3" height="10.24" width="2.7" transform="rotate(21.600000381469727 434.4200134277337,390.6499938964844) " y="385.529994" x="433.070013" fill="#aaab93"/>
  <rect id="svg_130" rx="1.19" height="10.4" width="2.46" transform="rotate(-23.200000762939453 330.17999267578074,392.2399902343749) " y="387.03999" x="328.949993" fill="#aaab93"/>
  <path id="svg_131" d="m371.64,391.81a1.11,1.11 0 0 1 -0.71,-2.09q4.43,-1.9 9.17,-0.92a1.14,1.14 0 0 1 -0.31,2.26q-4.16,-0.29 -8.15,0.75z" fill="#aaab93"/>
  <path id="svg_132" d="m388.39,400.25c-0.68,-3.53 -1.73,-4.51 -3.27,-6.86a1.22,1.22 0 0 1 1.94,-1.47q2.97,3.4 3.53,7.99a0.7,0.69 83.1 0 1 -0.61,0.78l-0.84,0.11a0.68,0.68 0 0 1 -0.75,-0.55z" fill="#aaab93"/>
  <path id="svg_133" d="m110.53,392.47q3.02,5.62 7.71,6.78q103.36,25.56 206.66,51.37q4.51,1.13 7.27,0.48c7.11,-1.66 7.69,-6.85 9.5,-14.15q2.42,-9.75 4.96,-20.04q2.09,-0.13 4.45,3.22q-2.92,12.6 -6.07,25.22q-1.84,7.34 -3.96,9.72q-4.07,4.55 -11.55,2.67q-72.66,-18.19 -145.49,-36.29q-1.6,-0.89 -3.14,-1.13q-2.16,-0.33 -2.24,-0.35q-39.64,-9.51 -57.61,-14.31q-5.42,-1.45 -6.95,-7.32q-0.13,-0.48 -0.47,-0.84q-2.11,-2.19 -3.07,-5.03z" fill="#ced4df"/>
  <path id="svg_134" d="m366.96,394.98c-2.43,2.77 -2.38,5.07 -4.03,7.19a1.05,1.05 0 0 1 -1.86,-0.82q0.76,-4.55 3.88,-7.98a0.66,0.64 33.7 0 1 0.76,-0.14l1,0.5a0.8,0.8 0 0 1 0.25,1.25z" fill="#aaab93"/>
  <rect id="svg_135" rx="1.14" height="10.14" width="2.38" transform="rotate(34.599998474121094 427.3900146484376,403.8099975585937) " y="398.739998" x="426.200015" fill="#aaab93"/>
  <ellipse id="svg_136" ry="1.48" rx="5.48" transform="rotate(53.900001525878906 337.510009765625,405.1300048828125) " cy="405.130005" cx="337.51001" fill="#aaab93"/>
  <path id="svg_137" d="m390.29,406.44a0.37,0.37 0 0 1 0.16,0.5l-3.35,6.38a2.29,1.01 -62.3 0 1 -1.96,1.56l-0.39,-0.21a2.29,1.01 -62.3 0 1 0.17,-2.49l3.35,-6.38a0.37,0.37 0 0 1 0.5,-0.15l1.52,0.79z" fill="#aaab93"/>
  <path id="svg_138" d="m366.27,415.84a0.43,0.43 0 0 1 -0.22,0.57l-0.32,0.14a4.03,2.04 66.2 0 1 -3.49,-2.87l-0.92,-2.06a4.03,2.04 66.2 0 1 0.24,-4.52l0.32,-0.14a0.43,0.43 0 0 1 0.57,0.22l3.82,8.66z" fill="#aaab93"/>
  <rect id="svg_139" rx="1.14" height="2.36" width="10.12" transform="rotate(-37.20000076293945 417.0700073242188,414.58999633789057) " y="413.409996" x="412.010007" fill="#aaab93"/>
  <path id="svg_140" d="m347.52,413.19q0.76,2.59 4.58,3.49q0.54,1.34 -1.02,3.45q-2.36,-3.35 -4.45,-3.22l-3.21,-3.32l0.2,-1.08q1.88,-0.37 3.9,0.68z" fill="#aaab93"/>
  <path id="svg_141" d="m378.68,420.88l0.36,1.94q0.12,0.64 -0.53,0.6q-4.72,-0.31 -8.63,-2.75a1.18,1.18 0 0 1 0.96,-2.13c3.7,1.08 5.41,-0.2 8.67,-1.6a1.14,1.14 0 0 1 1.14,1.96l-1.69,1.26q-0.37,0.28 -0.28,0.72z" fill="#aaab93"/>
  <rect id="svg_142" rx="1.11" height="2.3" width="10.26" transform="rotate(-15.399999618530273 403.77999877929693,421.1499938964844) " y="419.999994" x="398.649999" fill="#aaab93"/>
  <rect id="svg_143" rx="1.05" height="2.58" width="10.02" transform="rotate(8.800000190734863 361.54998779296835,421.6000061035156) " y="420.310006" x="356.539988" fill="#aaab93"/>
  <rect id="svg_144" rx="1.07" height="2.46" width="10.26" transform="rotate(-0.30000001192092896 388.9899902343629,423.23999023438137) " y="422.00999" x="383.85999" fill="#aaab93"/>
  <circle id="svg_145" r="6.17" cy="440.91" cx="448.24" fill="#aaab93"/>
  <circle id="svg_146" r="8.78" cy="458.26" cx="176.81" fill="#aaab93"/>
 </g>
</svg>