<svg width="564" height="564" xmlns="http://www.w3.org/2000/svg">
 <g>
  <title>background</title>
  <rect x="-1" y="-1" width="566" height="566" id="canvas_background" fill="none"/>
 </g>

 <g>
  <title>Layer 1</title>
  <g stroke-width="2" fill="none" id="svg_1">
   <path stroke="#bcc8db" d="m323.02,119.25c-6.83,-7.05 -16.21,-0.35 -11.81,8.07" id="svg_2"/>
   <path stroke="#ebebeb" d="m311.21,127.32l-29.64,-0.07" id="svg_3"/>
   <path stroke="#bcc8db" d="m281.57,127.25q-0.37,-0.3 -0.75,-0.38q-0.58,-0.11 -0.71,0.46q-0.07,0.33 0.17,0.6" id="svg_4"/>
   <path stroke="#ebebeb" d="m280.28,127.93l0.05,19.93q0,0.47 0.47,0.47l34.17,-0.05a0.5,0.5 0 0 0 0.5,-0.5l0.01,-15.53q0,-0.47 -0.21,-0.89q-0.07,-0.13 -0.18,-0.28q-0.45,-0.61 0.3,-0.73l1.07,-0.18" id="svg_5"/>
   <path stroke="#bcc8db" d="m316.46,130.17q2.97,0.42 6.42,-2.78" id="svg_6"/>
   <path stroke="#e0ecf1" d="m322.88,127.39l0.18,32.53a0.9,0.89 90 0 0 0.89,0.9l59.05,0.08a0.9,0.89 90 0 0 0.89,-0.9l0.01,-100.18a0.83,0.83 0 0 0 -0.83,-0.83l-59.33,0.01a0.58,0.58 0 0 0 -0.58,0.58l-0.14,59.67" id="svg_7"/>
   <path stroke="#9db5cd" d="m322.88,127.39q2.02,-4.02 0.14,-8.14" id="svg_8"/>
   <path stroke="#a8b4c7" d="m316.46,130.17l-3.36,-0.59a1.17,1.16 -56.3 0 0 -0.87,0.18l-11.75,7.94a2.19,2.18 42.3 0 1 -2.27,0.1l-17.93,-9.87" id="svg_9"/>
   <path stroke="#a8b4c7" d="m281.57,127.25q-0.11,-0.38 -0.19,-0.04q-0.04,0.16 0.1,0.24l17.14,9.54a1.54,1.54 0 0 0 1.63,-0.08l11.44,-7.96q0.46,-0.32 0.14,-0.77l-0.62,-0.86" id="svg_10"/>
   <path stroke="#e0ecf1" d="m451.78,59.7a0.71,0.71 0 0 0 -0.71,-0.71l-59.36,0a0.71,0.71 0 0 0 -0.71,0.71l0,100.44a0.71,0.71 0 0 0 0.71,0.71l59.36,0a0.71,0.71 0 0 0 0.71,-0.71l0,-100.44" id="svg_11"/>
   <path stroke="#f2aaaa" d="m246.62,110.98a14.73,14.73 0 0 0 -14.73,-14.73a14.73,14.73 0 0 0 -14.73,14.73a14.73,14.73 0 0 0 14.73,14.73a14.73,14.73 0 0 0 14.73,-14.73" id="svg_12"/>
   <path stroke="#ebebeb" d="m181.83,161.28l6.63,0.17a1.9,1.89 0.4 0 0 1.95,-1.91l-0.12,-18.4a0.9,0.9 0 0 0 -0.9,-0.89l-32.98,0.07q-1.28,0 -1.27,1.27l0.15,18.82a0.87,0.87 0 0 0 0.87,0.86l18.82,0.01a1.31,1.27 -27.5 0 1 0.71,0.21c1.98,1.3 4.17,3.32 5.13,5.52q0.3,0.68 1.13,1.01a0.37,0.37 0 0 0 0.46,-0.53q-1.46,-2.48 -1.47,-5.34a0.87,0.87 0 0 1 0.89,-0.87" id="svg_13"/>
   <path stroke="#bcc8db" d="m198.15,266.08l-1.43,10.65" id="svg_14"/>
   <path stroke="#aba2c0" d="m196.72,276.73q-13.42,-7.96 -26.47,-8.49c-28.72,-1.17 -44.44,30.06 -37.22,55.01q5.42,18.72 18.04,38.93c4.55,7.29 11.11,15.22 19.89,17.38" id="svg_15"/>
   <path stroke="#b59f9d" d="m170.96,379.56l-7.99,84.95a0.83,0.83 0 0 1 -0.83,0.75q-28.02,0.03 -55.89,0.27q-0.36,0 -0.74,0.17q-0.56,0.25 0.05,0.27q33.73,0.83 67.44,0.49c26.49,-0.26 53.01,0.35 79.52,0.21q1.42,-0.01 5.45,0.15c4.55,0.19 9.91,-0.35 13.61,-0.27q10.22,0.22 20.37,0.18" id="svg_16"/>
   <path stroke="#c0ccd4" d="m291.95,466.73l5.23,-0.23" id="svg_17"/>
   <path stroke="#a4a8ab" d="m297.18,466.5q44.31,-0.18 88.55,-0.04c1.44,0 1.94,-0.86 3.54,-0.57c4.74,0.88 9.99,0.12 13.96,0.25c6.37,0.22 12.8,-0.24 19.03,-0.09q9.3,0.23 18.59,-0.5q0.38,-0.03 0.05,-0.23q-0.18,-0.1 -0.4,-0.09q-4.84,0.26 -9.67,0.17q-4.59,-0.09 -9.66,0.06q-7.42,0.22 -14.91,-0.5" id="svg_18"/>
   <path stroke="#dfbcae" d="m406.26,464.96l0.39,-0.85" id="svg_19"/>
   <path stroke="#a4a8ab" d="m406.65,464.11l9.42,-40.99q0.13,-0.57 -0.45,-0.56l-8.64,0.1" id="svg_20"/>
   <path stroke="#c0ccd4" d="m406.98,422.66q-0.18,-0.22 -0.19,-0.47a0.63,0.63 0 0 1 0.5,-0.65c3.83,-0.81 9.74,-3.16 12.47,-6.6a1.42,1.4 -29 0 0 0.29,-0.99l-0.45,-4.87a2.66,2.65 -8.8 0 1 2.08,-2.84c4.21,-0.92 10.53,-2.27 13.35,-4.94c4.58,-4.33 -0.73,-9.97 -3.2,-14.22c-1.44,-2.47 -0.8,-4.5 0.55,-6.71q2.96,-4.86 4.78,-10.23q1.97,-5.82 -3.63,-6.89c-4.47,-0.86 -7.61,0.86 -11.87,3.06c-6.22,3.21 -8.88,-2.58 -14.98,-0.51" id="svg_21"/>
   <path stroke="#dfbcae" d="m406.68,365.8l0.08,-69.38" id="svg_22"/>
   <path stroke="#cfaea2" d="m406.76,296.42q3.77,1 6.25,0.3c5.21,-1.48 4.22,-9.55 -0.51,-9.57q-20.9,-0.06 -43.35,0.02" id="svg_23"/>
   <path stroke="#d1d4d7" d="m369.15,287.17q1.47,-8.83 5.63,-17.73" id="svg_24"/>
   <path stroke="#e0ecf1" d="m374.78,269.44q4.31,0.8 8.46,0.19q0.57,-0.09 0.57,-0.66l-0.17,-23.59" id="svg_25"/>
   <path stroke="#d1d4d7" d="m383.64,245.38q1.6,-3.91 0.38,-4.4" id="svg_26"/>
   <path stroke="#e0ecf1" d="m384.02,240.98l-0.07,-72.03a0.95,0.95 0 0 0 -0.95,-0.95l-58.76,0.02a0.96,0.95 -75.9 0 0 -0.84,0.51q-0.67,1.27 -0.5,3.32" id="svg_27"/>
   <path stroke="#ebebeb" d="m322.9,171.85c-20.83,-0.09 -19.48,29.12 0.16,27.54" id="svg_28"/>
   <path stroke="#e0ecf1" d="m323.06,199.39l0.16,41.57" id="svg_29"/>
   <path stroke="#d1d4d7" d="m323.22,240.96l-7.57,-0.05a0.87,0.86 9.6 0 0 -0.84,0.59l-14.27,41.53q-0.17,0.5 -0.7,0.49l-5.99,-0.13" id="svg_30"/>
   <path stroke="#fcd8c7" d="m293.85,283.39q1.48,-1.77 0.86,-3.34" id="svg_31"/>
   <path stroke="#bcc8db" d="m294.71,280.05l3.95,-15.24" id="svg_32"/>
   <path stroke="#fcd8c7" d="m298.66,264.81q2.05,-12.12 0.39,-25.94q-1.84,-15.25 -3.13,-20.12c-1.15,-4.36 -3.44,-10.21 -8.2,-10.17q-0.48,0.01 -0.86,-0.29l-1.01,-0.78" id="svg_33"/>
   <path stroke="#f2aaaa" d="m285.85,207.51l-2.81,-1.89q-0.4,-0.27 -0.44,-0.75l-0.12,-1.32q-0.05,-0.54 -0.59,-0.54l-16.39,-0.01" id="svg_34"/>
   <path stroke="#9992a7" d="m265.5,203c3.5,-7.31 6.18,-14.48 5.74,-22.63c-0.59,-11.03 -4.98,-24.04 -15.04,-29.11c-7.06,-3.57 -17.55,-4.48 -24.93,-1.83c-13.48,4.83 -14.6,17.9 -18.27,30.32c-0.91,3.06 -2.62,6.56 -5.23,7.77c-10.91,5.04 -17.14,9.24 -18.67,21.75c-0.56,4.61 -2.78,10.23 -6.11,14.18q-2.29,2.72 -4.6,5.38c-15.21,17.5 5.31,32.14 19.76,37.25" id="svg_35"/>
   <path stroke="#8c3d52" d="m265.5,203l-2.23,0.22q-0.55,0.05 -0.55,0.6l-0.02,5.74" id="svg_36"/>
   <path stroke="#9992a7" d="m262.7,209.56c-3.84,8.68 1.5,15.09 -1.18,23.57" id="svg_37"/>
   <path stroke="#565b83" d="m261.52,233.13q-3.48,-8.02 -9.82,-13.14" id="svg_38"/>
   <path stroke="#966b6f" d="m251.7,219.99q-2.75,-0.93 -4.13,-3.12q-4.16,-6.55 -3.66,-16.17q0.02,-0.41 0.39,-0.22c16.39,8.3 19.8,-11.7 20.36,-22.71c0.28,-5.43 -4.68,-11.32 -8.42,-14.8q-0.35,-0.33 -0.5,0.13c-7.62,23.27 -30.03,40.75 -49.06,54.58" id="svg_39"/>
   <path stroke="#565b83" d="m206.68,217.68c-8.15,5.48 -14.52,16.81 -10.76,26.66c4.44,11.62 7.44,22.34 14.3,33.76c3.24,5.4 6.19,8.68 12.28,8.47c2.98,-0.1 18.91,-1.48 19.07,-1.35q0.45,0.36 -0.12,0.45q-9.82,1.7 -19.77,1.89q-2.09,0.04 -3.33,-0.33c-8.5,-2.55 -15.71,-21.35 -18.4,-29.09q-0.7,-2.04 -1.14,-2.93q-0.62,-1.25 -0.62,0.14l-0.04,10.73" id="svg_40"/>
   <path stroke="#b9a1a3" d="m251.7,219.99q-1.26,7.19 -5.57,10.9c-6.48,5.57 -18.11,1.83 -23.98,-2.75q-0.37,-0.29 -4.47,-4.63q-4.39,-4.66 -11,-5.83" id="svg_41"/>
   <path stroke="#ef8371" d="m285.85,207.51q0.07,0.36 0.01,0.63q-0.07,0.31 -0.41,0.42q-0.44,0.14 -0.96,0.01" id="svg_42"/>
   <path stroke="#f2aaaa" d="m284.49,208.57q-0.52,-0.62 -1.19,-0.88q-0.45,-0.17 -0.44,0.32q0.18,5.42 -1.71,10.5q-0.25,0.66 0.45,0.55l1.04,-0.15" id="svg_43"/>
   <path stroke="#ef8371" d="m282.64,218.91q1.63,0.64 1.42,1.47" id="svg_44"/>
   <path stroke="#f2aaaa" d="m284.06,220.38q-4.31,-0.09 -5.78,3.44a1.01,0.99 -82.6 0 1 -0.78,0.61q-3.86,0.57 -7.78,0.27c-4.79,-0.36 -6.64,-11.32 -7.02,-15.14" id="svg_45"/>
   <path stroke="#b9a1a3" d="m294.71,280.05c-3.71,-4.6 -9.25,-5.05 -14.71,-4.21c-2.31,0.35 -6.28,1.94 -9.48,1.46q-5.53,-0.82 -13.18,-3.19" id="svg_46"/>
   <path stroke="#bcc8db" d="m257.34,274.11l-6.49,-8.34a0.57,0.57 0 0 0 -0.97,0.13l-2.47,5.9" id="svg_47"/>
   <path stroke="#b9a1a3" d="m247.41,271.8l-5.5,-0.97a0.77,0.76 15.8 0 0 -0.85,0.47q-2.51,6.48 0.17,12.83a1.24,1.23 89.2 0 0 0.66,0.65q1.67,0.68 3.15,0.13" id="svg_48"/>
   <path stroke="#bcc8db" d="m245.04,284.91q-0.45,13.14 4.98,25.59" id="svg_49"/>
   <path stroke="#72829a" d="m250.02,310.5l-2.78,-2.53q-0.38,-0.35 -0.9,-0.35l-60.69,-0.09" id="svg_50"/>
   <path stroke="#686b9c" d="m185.65,307.53q7.25,-14.81 11.07,-30.8" id="svg_51"/>
   <path stroke="#bcc8db" d="m282.31,259.56l-3.78,8.83a0.56,0.55 39.6 0 1 -0.97,0.09q-11.2,-16.53 -16.04,-35.35" id="svg_52"/>
   <path stroke="#fcd8c7" d="m284.49,208.57q0.18,0.23 0.29,0.52q0.1,0.25 0.04,0.57q-0.85,4.7 -2.18,9.25" id="svg_53"/>
   <path stroke="#b9a1a3" d="m298.66,264.81q-9.05,0.85 -16.35,-5.25" id="svg_54"/>
   <path stroke="#fcd8c7" d="m282.31,259.56q7.14,-16.49 7.44,-35.9q0.02,-1.29 -1.26,-1.44q-2.36,-0.28 -4.43,-1.84" id="svg_55"/>
   <path stroke="#cfaea2" d="m273.44,286.94q-9.98,0.33 -19.2,0.2q-2.92,-0.04 -4.31,0.86c-3.8,2.45 -2.15,8.66 2.69,8.8q2.12,0.06 4.08,0.09" id="svg_56"/>
   <path stroke="#dfbcae" d="m256.7,296.89l-0.14,13.58" id="svg_57"/>
   <path stroke="#b5b9be" d="m256.56,310.47l-6.54,0.03" id="svg_58"/>
   <path stroke="#fcd8c7" d="m257.34,274.11l-9.93,-2.31" id="svg_59"/>
   <path stroke="#fcd8c7" d="m268.34,283.34l-23.3,1.57" id="svg_60"/>
   <path stroke="#605c7e" d="m185.65,307.53q-4.18,15.46 -1.64,30.48c2.03,12.05 10.57,23.12 23.49,24.1q10.11,0.77 23.46,-1" id="svg_61"/>
   <path stroke="#504a6b" d="m230.96,361.11q-0.5,0.13 -0.56,0.49q-0.09,0.5 0.4,0.65c3.95,1.2 8.05,0.54 11.52,0.82q6.25,0.51 12.35,-0.17" id="svg_62"/>
   <path stroke="#968dab" d="m254.67,362.9q-0.03,1.31 1.05,1.45" id="svg_63"/>
   <path stroke="#8b5f6f" d="m255.72,364.35l0.5,0.21q0.48,0.2 0.48,0.73q0.01,6.99 0.11,13.96q0.01,0.71 -0.77,1.15" id="svg_64"/>
   <path stroke="#aba2c0" d="m256.04,380.4l-6.54,0.27" id="svg_65"/>
   <path stroke="#61415d" d="m249.5,380.67l-10.07,0.16" id="svg_66"/>
   <path stroke="#aba2c0" d="m239.43,380.83l-28.05,0.19" id="svg_67"/>
   <path stroke="#61415d" d="m211.38,381.02q-4.67,-0.75 -10.09,0.03" id="svg_68"/>
   <path stroke="#aba2c0" d="m201.29,381.05l-19.82,-0.45" id="svg_69"/>
   <path stroke="#61415d" d="m181.47,380.6q-0.05,-0.42 -0.22,-0.62q-0.14,-0.18 -0.55,-0.14q-4.77,0.41 -9.74,-0.28" id="svg_70"/>
   <path stroke="#5a6269" d="m256.71,352.6l-25.75,8.51" id="svg_71"/>
   <path stroke="#af6b51" d="m406.76,296.42l-150.06,0.47" id="svg_72"/>
   <path stroke="#b1c1c9" d="m383.64,245.38l-8.86,24.06" id="svg_73"/>
   <path stroke="#a1837a" d="m369.15,287.17l-95.71,-0.23" id="svg_74"/>
   <path stroke="#d1d4d7" d="m273.44,286.94q-0.89,-1.91 -5.1,-3.6" id="svg_75"/>
   <path stroke="#cdad9f" d="m268.34,283.34q2.79,-0.79 4.66,-0.57q10.55,1.24 20.85,0.62" id="svg_76"/>
   <path stroke="#a08983" d="m406.68,365.8q-0.18,13.6 -0.24,27.24q-0.01,0.84 0.32,1.35q0.59,0.93 1.37,0.68" id="svg_77"/>
   <path stroke="#dfbcae" d="m408.13,395.07q-1.54,1.87 -1.75,5.18" id="svg_78"/>
   <path stroke="#a08983" d="m406.38,400.25l0.13,22.52" id="svg_79"/>
   <path stroke="#84655a" d="m406.51,422.77l0.14,41.34" id="svg_80"/>
   <path stroke="#84655a" d="m406.26,464.96l-5.68,0.2q-0.72,0.03 -0.74,-0.7l-0.82,-41.98" id="svg_81"/>
   <path stroke="#a08983" d="m399.02,422.48q0.04,-0.07 0.1,-0.14q0.13,-0.14 0.13,-0.3l-0.65,-36.29" id="svg_82"/>
   <path stroke="#dfbcae" d="m398.6,385.75l-1.33,-74.22q-0.01,-0.58 -0.58,-0.58l-81.22,-0.06" id="svg_83"/>
   <path stroke="#95766d" d="m315.47,310.89l-48.9,-0.03q-0.57,0 -0.58,0.57l-0.58,37.51" id="svg_84"/>
   <path stroke="#84655a" d="m265.41,348.94l-0.16,14.02" id="svg_85"/>
   <path stroke="#dfbcae" d="m265.25,362.96q-0.72,2.14 0.14,4.2" id="svg_86"/>
   <path stroke="#84655a" d="m265.39,367.16l-0.57,12.7" id="svg_87"/>
   <path stroke="#dfbcae" d="m264.82,379.86l-1.5,85.44" id="svg_88"/>
   <path stroke="#955c4c" d="m263.32,465.3q-3.08,1.59 -6.15,0.04q-0.47,-0.24 -0.47,-0.76l-0.05,-8.41" id="svg_89"/>
   <path stroke="#dfbcae" d="m256.65,456.17q0.11,-37.72 0.15,-74.92q0,-0.93 -0.76,-0.85" id="svg_90"/>
   <path stroke="#cba89a" d="m255.72,364.35q0.69,0.04 0.96,-0.31q0.26,-0.35 0.05,-0.72q-0.23,-0.42 -0.13,-0.64" id="svg_91"/>
   <path stroke="#84655a" d="m256.6,362.68l0.11,-10.08" id="svg_92"/>
   <path stroke="#95766d" d="m256.71,352.6l-0.15,-42.13" id="svg_93"/>
   <path stroke="#909396" d="m256.6,362.68q-1.29,0.35 -1.93,0.22" id="svg_94"/>
   <path stroke="#b59f9d" d="m181.47,380.6q0.03,-0.31 -0.31,-0.04q-0.21,0.18 -0.25,0.46l-13.24,83.43q-0.14,0.88 0.76,0.88l24.36,-0.02a0.55,0.54 2.2 0 0 0.55,-0.5l7.95,-83.76" id="svg_95"/>
   <path stroke="#b59f9d" d="m211.38,381.02l-13.22,83.6a0.56,0.56 0 0 0 0.55,0.65l53.53,0.14a0.55,0.54 -4.5 0 0 0.54,-0.63l-13.35,-83.95" id="svg_96"/>
   <path stroke="#b59f9d" d="m249.5,380.67l7.15,75.5" id="svg_97"/>
   <path stroke="#a18a88" d="m282.68,465.01l5.49,0.57" id="svg_98"/>
   <path stroke="#766b72" d="m288.17,465.58q2.29,0.32 4.57,0.26q0.16,-0.01 0.27,0.04q0.19,0.08 0.28,0.19q0.26,0.31 -0.15,0.31q-0.77,-0.01 -1.19,0.35" id="svg_99"/>
   <path stroke="#b1c1c9" d="m384.02,240.98l-60.8,-0.02" id="svg_100"/>
   <path stroke="#cbd7dc" d="m323.06,199.39q5.55,-2.48 7.25,-3.85q2.25,-1.81 3.72,-5.29c4.23,-9.97 -3.9,-14.19 -11.13,-18.4" id="svg_101"/>
   <path stroke="#657480" d="m399.02,422.48l-24.38,-0.1" id="svg_102"/>
   <path stroke="#c0ccd4" d="m398.6,385.75c-3.85,2.31 -7.21,6.1 -5.92,10.78c1.1,3.94 3.09,8.97 -0.58,11.35q-0.65,0.42 -0.59,-0.34q0.36,-5.2 -0.58,-10.32a0.25,0.25 0 0 0 -0.47,-0.07l-3.25,6.71a0.52,0.52 0 0 1 -0.96,-0.37q1.49,-5.11 1.61,-10.72c0.09,-3.79 -2.37,-7.25 -4.43,-10.19a0.7,0.7 0 0 0 -1.23,0.17l-1.64,4.68a0.33,0.33 0 0 1 -0.65,-0.11c0.02,-3.3 0.38,-6.57 -0.94,-9.73a0.99,0.97 -89.4 0 0 -0.51,-0.53l-16.73,-7.69q-1.16,-0.54 -1.54,0.68q-3.4,10.67 -4.82,21.77q-0.2,1.65 1.45,1.72q8.28,0.34 15.63,3.95a0.35,0.35 0 0 1 -0.22,0.66q-7.75,-1.51 -15.62,-0.89a0.55,0.55 0 0 0 -0.49,0.68l2.11,8.39a1.49,1.47 83.5 0 0 1.39,1.12q8.14,0.26 15.86,2.77a0.27,0.27 0 0 1 -0.09,0.53l-12.56,-0.62a0.71,0.71 0 0 0 -0.64,1.08q4.44,7.12 12.45,11.17" id="svg_103"/>
   <path stroke="#a4a8ab" d="m374.64,422.38l-7.53,0.1a0.44,0.44 0 0 0 -0.42,0.54l9.55,41.5a0.64,0.64 0 0 1 -0.63,0.78l-66.29,0.07q-0.39,0 -0.21,-0.35q0.11,-0.22 0.38,-0.26c2.08,-0.36 9.15,-2.2 8.94,-4.67a1.41,1.4 3.3 0 0 -1.12,-1.25l-11.48,-2.27" id="svg_104"/>
   <path stroke="#fcd8c7" d="m305.83,456.57c-7.12,-1.07 -15.11,-3.04 -15.93,-10.8q-0.65,-6.15 -1.5,-9.89" id="svg_105"/>
   <path stroke="#a4a8ab" d="m288.4,435.88l2.4,-0.18q0.54,-0.05 0.62,-0.59c3.07,-22.56 5.66,-48.49 4.48,-72.27c-0.33,-6.7 -1.45,-14.29 -4.8,-19.17q-1.68,-2.45 -7.97,-2.13" id="svg_106"/>
   <path stroke="#fcd8c7" d="m309.2,410.82l2.24,18.22" id="svg_107"/>
   <path stroke="#a4a8ab" d="m311.44,429.04l0.1,8.15q0,0.52 0.53,0.54q8.47,0.29 16.87,1.29q4.1,0.49 7.1,-0.02c3.82,-0.66 9.39,-2.05 12.2,-4.71a1.29,1.29 0 0 0 -0.65,-2.21l-10.99,-2.11" id="svg_108"/>
   <path stroke="#fcd8c7" d="m336.6,429.97q-6.53,-1.06 -11.57,-3.45c-2.91,-1.39 -4.63,-3.96 -4.95,-7q-0.76,-7.04 -1.46,-10.35" id="svg_109"/>
   <path stroke="#657480" d="m406.98,422.66q0.04,-0.19 -0.47,0.11" id="svg_110"/>
   <path stroke="#c0ccd4" d="m406.38,400.25l17.21,-4.24q0.29,-0.07 0.17,-0.34q-0.05,-0.13 -0.16,-0.22q-0.16,-0.14 -0.48,-0.1q-7.77,0.84 -14.93,3.46a0.41,0.41 0 0 1 -0.51,-0.57q7.54,-14.85 19.83,-26.01q0.44,-0.39 -0.15,-0.43q-0.38,-0.03 -0.77,0.29q-8.06,6.71 -13.48,15.46a0.56,0.56 0 0 1 -1.03,-0.18q-1.21,-5.67 -0.79,-11.62q0.1,-1.44 -0.13,-2.57a0.37,0.37 0 0 0 -0.73,0.03q-0.83,7.86 0.98,15.53q0.12,0.52 -0.14,0.97l-3.14,5.36" id="svg_111"/>
   <path stroke="#b5b9be" d="m315.47,310.89c4.02,5.95 5,16.97 5.4,24.08q2.03,36.48 0.12,73.02q-0.03,0.49 -0.5,0.63l-1.87,0.55" id="svg_112"/>
   <path stroke="#b19285" d="m318.62,409.17l-9.42,1.65" id="svg_113"/>
   <path stroke="#b5b9be" d="m309.2,410.82q-2.62,0.99 -3.22,-0.59c-5.07,-13.21 -7.06,-29.09 -9.38,-44.39c-0.44,-2.93 -0.18,-6.28 -0.74,-9.45q-0.93,-5.25 -0.94,-5.31q-0.86,-6.95 -1.48,-13.79a0.63,0.63 0 0 0 -0.91,-0.5l-9.4,4.75" id="svg_114"/>
   <path stroke="#5a6269" d="m283.13,341.54l-17.72,7.4" id="svg_115"/>
   <path stroke="#657480" d="m297.18,466.5q-2.41,-1.39 -4.46,-1.47" id="svg_116"/>
   <path stroke="#909396" d="m292.72,465.03l-7.56,-0.41" id="svg_117"/>
   <path stroke="#a18172" d="m281.45,456.29c6.07,2.72 19.69,6.71 24.38,0.28" id="svg_118"/>
   <path stroke="#a18172" d="m288.4,435.88l-9.56,0.63" id="svg_119"/>
   <path stroke="#a4a8ab" d="m278.84,436.51l-1.4,0.09q-0.53,0.04 -0.72,-0.46q-3.14,-8.29 -4.4,-15.89q-3.51,-21.1 -2.95,-41.36q0.06,-2.51 -1.21,-0.26q-0.97,1.69 -3.34,1.23" id="svg_120"/>
   <path stroke="#a4a8ab" d="m265.39,367.16l3.48,2.86q0.59,0.49 0.61,-0.28l0.1,-6.03a0.66,0.66 0 0 0 -0.65,-0.68l-3.68,-0.07" id="svg_121"/>
   <path stroke="#fcd8c7" d="m278.84,436.51l2.61,19.78" id="svg_122"/>
   <path stroke="#a4a8ab" d="m281.45,456.29l0.04,7.43q0.01,0.52 0.53,0.58l3.14,0.32" id="svg_123"/>
   <path stroke="#ebebeb" d="m285.16,464.62l-2.48,0.39" id="svg_124"/>
   <path stroke="#b59f9d" d="m282.68,465.01l-19.36,0.29" id="svg_125"/>
   <path stroke="#abb7c0" d="m292.72,465.03q-1.82,0.95 -4.55,0.55" id="svg_126"/>
   <path stroke="#a18172" d="m336.6,429.97q-10.34,6.82 -25.16,-0.93" id="svg_127"/>
   <path stroke="#e0ecf1" d="m451.79,168.66a0.66,0.66 0 0 0 -0.66,-0.66l-59.48,0a0.66,0.66 0 0 0 -0.66,0.66l0,100.48a0.66,0.66 0 0 0 0.66,0.66l59.48,0a0.66,0.66 0 0 0 0.66,-0.66l0,-100.48" id="svg_128"/>
   <path stroke="#d1d4d7" d="m448.75,465.32c-1.47,-0.53 -2.55,-0.01 -3.95,0.28q-0.59,0.13 -0.05,0.23q2.02,0.36 3.98,-0.07a0.23,0.23 0 0 0 0.02,-0.44" id="svg_129"/>
   <path stroke="#ebebeb" d="m454.29,465.76a0.32,0.31 -57.3 0 0 -0.13,-0.61l-1.67,0.08a0.35,0.35 0 0 0 -0.05,0.7q0.96,0.19 1.85,-0.17" id="svg_130"/>
   <path stroke="#f2aaaa" d="m234.23,105.71l-0.87,-3.18a0.8,0.8 0 0 0 -1.54,-0.01q-1.16,4.2 -5.71,3.91a0.61,0.61 0 0 0 -0.65,0.63l0.32,8.67q0.02,0.53 0.55,0.58q4.2,0.39 8.42,0.41c3.8,0.01 4.71,-3.86 5,-7.22c0.25,-2.81 -3.16,-3.04 -4.98,-3.31q-0.43,-0.06 -0.54,-0.48" id="svg_131"/>
   <path stroke="#bcc8db" d="m316.87,125.96c1.09,-1.05 3.49,-3.28 2.72,-5.15c-0.79,-1.95 -3.05,-2.23 -4.57,-0.94a0.35,0.35 0 0 0 0.2,0.61q0.69,0.05 1.33,-0.34a1.54,1.54 0 0 1 1.97,2.31l-3.66,4.28a0.54,0.54 0 0 0 0.4,0.89l3.9,0.08q0.98,0.02 0.54,-0.86l-0.15,-0.28q-0.24,-0.48 -0.76,-0.32l-1.5,0.45a0.43,0.43 0 0 1 -0.42,-0.73" id="svg_132"/>
   <path stroke="#bcc0c3" d="m165.15,150.58a1.03,1.03 0 0 0 -1.03,-1.03a1.03,1.03 0 0 0 -1.03,1.03a1.03,1.03 0 0 0 1.03,1.03a1.03,1.03 0 0 0 1.03,-1.03" id="svg_133"/>
   <path stroke="#abb7c0" d="m174.11,150.75a1.02,1.02 0 0 0 -1.02,-1.02a1.02,1.02 0 0 0 -1.02,1.02a1.02,1.02 0 0 0 1.02,1.02a1.02,1.02 0 0 0 1.02,-1.02" id="svg_134"/>
   <path stroke="#abb7c0" d="m183.27,150.62a1,1 0 0 0 -1,-1a1,1 0 0 0 -1,1a1,1 0 0 0 1,1a1,1 0 0 0 1,-1" id="svg_135"/>
   <path stroke="#de9695" d="m322.19,192.83c3.28,-1.96 10.49,-10.12 4.03,-12.4c-1.84,-0.65 -3.9,0.22 -6.02,-0.03q-2.74,-0.31 -3.84,0.17q-3.32,1.46 -1.73,5.51q1.62,4.11 6.77,6.78q0.4,0.21 0.79,-0.03" id="svg_136"/>
   <path stroke="#565b83" d="m240.89,269.97c-16.57,-2.46 -18.89,-16.3 -23.55,-29.27q-1.98,-5.49 -6.43,-8.29q-0.2,-0.12 -0.38,-0.13q-0.28,-0.01 -0.41,0.14q-0.26,0.32 0.08,0.54q5.09,3.44 6.93,9.45c4.12,13.44 7.55,25.58 23.6,28.4q0.32,0.06 0.46,-0.24q0.09,-0.17 0.1,-0.3q0.02,-0.24 -0.4,-0.3" id="svg_137"/>
   <path stroke="#565b83" d="m250.69,264.85c5.44,-7.47 6.9,-16.75 2.82,-25.69a0.36,0.36 0 0 0 -0.66,0.28q5.15,13.16 -2.64,24.87q-0.05,0.08 -0.02,0.17l0.14,0.32q0.14,0.35 0.36,0.05" id="svg_138"/>
   <path stroke="#565b83" d="m221.29,272.63c1.44,-2.18 2.81,-5.05 6.02,-5.95q0.49,-0.14 0.17,-0.54q-0.47,-0.57 -1.11,-0.24q-3.83,1.96 -5.55,6.49a0.27,0.27 0 0 0 0.47,0.24" id="svg_139"/>
   <path stroke="#d1d4d7" d="m342.9915,269.9956a5.95,4.81 108.1 0 0 6.4205,-4.1612a5.95,4.81 108.1 0 0 -2.7235,-7.15a5.95,4.81 108.1 0 0 -6.4205,4.1612a5.95,4.81 108.1 0 0 2.7235,7.15" id="svg_140"/>
   <path stroke="#4f4c66" d="m246.4,311.11q-18.16,2.15 -35.43,10.3q-0.57,0.27 -0.71,0.69q-0.22,0.67 0.43,0.37q18.16,-8.48 38.06,-11.23a0.35,0.35 0 0 0 0.15,-0.64q-0.81,-0.52 -1.54,0.09q-0.42,0.36 -0.96,0.42" id="svg_141"/>
   <path stroke="#4f4c66" d="m300.839,332.3571a0.26,0.26 0 0 0 -0.3468,-0.1221l-6.3128,3.0246a0.26,0.26 0 0 0 -0.1221,0.3468l0.1037,0.2165a0.26,0.26 0 0 0 0.3468,0.1221l6.3128,-3.0246a0.26,0.26 0 0 0 0.1221,-0.3468l-0.1037,-0.2165" id="svg_142"/>
   <path stroke="#c0ccd4" d="m363.25,374.84q16.9,19.17 19.96,43.16q0.04,0.32 0.2,0.57q0.21,0.32 0.35,0.48a0.38,0.37 21.1 0 0 0.66,-0.29q-3.36,-25.35 -20.05,-43.87q-0.4,-0.45 -0.71,-0.59a0.35,0.34 -8 0 0 -0.41,0.54" id="svg_143"/>
   <path stroke="#c0ccd4" d="m388.94,421.11q-0.41,0.96 0.67,1.57a0.86,0.86 0 0 0 1.26,-0.99l-0.64,-2.19q-0.2,-0.69 -0.56,-0.06c-0.28,0.48 -0.47,1.06 -0.73,1.67" id="svg_144"/>
  </g>
  <path fill="#ffffff" d="m0,0l564,0l0,564l-564,0l0,-564zm323.02,119.25c-6.83,-7.05 -16.21,-0.35 -11.81,8.07l-29.64,-0.07q-0.37,-0.3 -0.75,-0.38q-0.58,-0.11 -0.71,0.46q-0.07,0.33 0.17,0.6l0.05,19.93q0,0.47 0.47,0.47l34.17,-0.05a0.5,0.5 0 0 0 0.5,-0.5l0.01,-15.53q0,-0.47 -0.21,-0.89q-0.07,-0.13 -0.18,-0.28q-0.45,-0.61 0.3,-0.73l1.07,-0.18q2.97,0.42 6.42,-2.78l0.18,32.53a0.9,0.89 90 0 0 0.89,0.9l59.05,0.08a0.9,0.89 90 0 0 0.89,-0.9l0.01,-100.18a0.83,0.83 0 0 0 -0.83,-0.83l-59.33,0.01a0.58,0.58 0 0 0 -0.58,0.58l-0.14,59.67zm128.76,-59.55a0.71,0.71 0 0 0 -0.71,-0.71l-59.36,0a0.71,0.71 0 0 0 -0.71,0.71l0,100.44a0.71,0.71 0 0 0 0.71,0.71l59.36,0a0.71,0.71 0 0 0 0.71,-0.71l0,-100.44zm-205.16,51.28a14.73,14.73 0 0 0 -14.73,-14.73a14.73,14.73 0 0 0 -14.73,14.73a14.73,14.73 0 0 0 14.73,14.73a14.73,14.73 0 0 0 14.73,-14.73zm-64.79,50.3l6.63,0.17a1.9,1.89 0.4 0 0 1.95,-1.91l-0.12,-18.4a0.9,0.9 0 0 0 -0.9,-0.89l-32.98,0.07q-1.28,0 -1.27,1.27l0.15,18.82a0.87,0.87 0 0 0 0.87,0.86l18.82,0.01a1.31,1.27 -27.5 0 1 0.71,0.21c1.98,1.3 4.17,3.32 5.13,5.52q0.3,0.68 1.13,1.01a0.37,0.37 0 0 0 0.46,-0.53q-1.46,-2.48 -1.47,-5.34a0.87,0.87 0 0 1 0.89,-0.87zm16.32,104.8l-1.43,10.65q-13.42,-7.96 -26.47,-8.49c-28.72,-1.17 -44.44,30.06 -37.22,55.01q5.42,18.72 18.04,38.93c4.55,7.29 11.11,15.22 19.89,17.38l-7.99,84.95a0.83,0.83 0 0 1 -0.83,0.75q-28.02,0.03 -55.89,0.27q-0.36,0 -0.74,0.17q-0.56,0.25 0.05,0.27q33.73,0.83 67.44,0.49c26.49,-0.26 53.01,0.35 79.52,0.21q1.42,-0.01 5.45,0.15c4.55,0.19 9.91,-0.35 13.61,-0.27q10.22,0.22 20.37,0.18l5.23,-0.23q44.31,-0.18 88.55,-0.04c1.44,0 1.94,-0.86 3.54,-0.57c4.74,0.88 9.99,0.12 13.96,0.25c6.37,0.22 12.8,-0.24 19.03,-0.09q9.3,0.23 18.59,-0.5q0.38,-0.03 0.05,-0.23q-0.18,-0.1 -0.4,-0.09q-4.84,0.26 -9.67,0.17q-4.59,-0.09 -9.66,0.06q-7.42,0.22 -14.91,-0.5l0.39,-0.85l9.42,-40.99q0.13,-0.57 -0.45,-0.56l-8.64,0.1q-0.18,-0.22 -0.19,-0.47a0.63,0.63 0 0 1 0.5,-0.65c3.83,-0.81 9.74,-3.16 12.47,-6.6a1.42,1.4 -29 0 0 0.29,-0.99l-0.45,-4.87a2.66,2.65 -8.8 0 1 2.08,-2.84c4.21,-0.92 10.53,-2.27 13.35,-4.94c4.58,-4.33 -0.73,-9.97 -3.2,-14.22c-1.44,-2.47 -0.8,-4.5 0.55,-6.71q2.96,-4.86 4.78,-10.23q1.97,-5.82 -3.63,-6.89c-4.47,-0.86 -7.61,0.86 -11.87,3.06c-6.22,3.21 -8.88,-2.58 -14.98,-0.51l0.08,-69.38q3.77,1 6.25,0.3c5.21,-1.48 4.22,-9.55 -0.51,-9.57q-20.9,-0.06 -43.35,0.02q1.47,-8.83 5.63,-17.73q4.31,0.8 8.46,0.19q0.57,-0.09 0.57,-0.66l-0.17,-23.59q1.6,-3.91 0.38,-4.4l-0.07,-72.03a0.95,0.95 0 0 0 -0.95,-0.95l-58.76,0.02a0.96,0.95 -75.9 0 0 -0.84,0.51q-0.67,1.27 -0.5,3.32c-20.83,-0.09 -19.48,29.12 0.16,27.54l0.16,41.57l-7.57,-0.05a0.87,0.86 9.6 0 0 -0.84,0.59l-14.27,41.53q-0.17,0.5 -0.7,0.49l-5.99,-0.13q1.48,-1.77 0.86,-3.34l3.95,-15.24q2.05,-12.12 0.39,-25.94q-1.84,-15.25 -3.13,-20.12c-1.15,-4.36 -3.44,-10.21 -8.2,-10.17q-0.48,0.01 -0.86,-0.29l-1.01,-0.78l-2.81,-1.89q-0.4,-0.27 -0.44,-0.75l-0.12,-1.32q-0.05,-0.54 -0.59,-0.54l-16.39,-0.01c3.5,-7.31 6.18,-14.48 5.74,-22.63c-0.59,-11.03 -4.98,-24.04 -15.04,-29.11c-7.06,-3.57 -17.55,-4.48 -24.93,-1.83c-13.48,4.83 -14.6,17.9 -18.27,30.32c-0.91,3.06 -2.62,6.56 -5.23,7.77c-10.91,5.04 -17.14,9.24 -18.67,21.75c-0.56,4.61 -2.78,10.23 -6.11,14.18q-2.29,2.72 -4.6,5.38c-15.21,17.5 5.31,32.14 19.76,37.25zm253.64,-97.42a0.66,0.66 0 0 0 -0.66,-0.66l-59.48,0a0.66,0.66 0 0 0 -0.66,0.66l0,100.48a0.66,0.66 0 0 0 0.66,0.66l59.48,0a0.66,0.66 0 0 0 0.66,-0.66l0,-100.48zm-3.04,296.66c-1.47,-0.53 -2.55,-0.01 -3.95,0.28q-0.59,0.13 -0.05,0.23q2.02,0.36 3.98,-0.07a0.23,0.23 0 0 0 0.02,-0.44zm5.54,0.44a0.32,0.31 -57.3 0 0 -0.13,-0.61l-1.67,0.08a0.35,0.35 0 0 0 -0.05,0.7q0.96,0.19 1.85,-0.17z" id="svg_145"/>
  <path fill="#c0d8e2" d="m322.88,127.39q2.02,-4.02 0.14,-8.14l0.14,-59.67a0.58,0.58 0 0 1 0.58,-0.58l59.33,-0.01a0.83,0.83 0 0 1 0.83,0.83l-0.01,100.18a0.9,0.89 -90 0 1 -0.89,0.9l-59.05,-0.08a0.9,0.89 90 0 1 -0.89,-0.9l-0.18,-32.53z" id="svg_146"/>
  <rect fill="#c0d8e2" x="391" y="58.99" width="60.78" height="101.86" rx="0.71" id="svg_147"/>
  <path fill="#e55554" d="m246.62,110.98a14.73,14.73 0 0 1 -14.73,14.73a14.73,14.73 0 0 1 -14.73,-14.73a14.73,14.73 0 0 1 14.73,-14.73a14.73,14.73 0 0 1 14.73,14.73zm-12.39,-5.27l-0.87,-3.18a0.8,0.8 0 0 0 -1.54,-0.01q-1.16,4.2 -5.71,3.91a0.61,0.61 0 0 0 -0.65,0.63l0.32,8.67q0.02,0.53 0.55,0.58q4.2,0.39 8.42,0.41c3.8,0.01 4.71,-3.86 5,-7.22c0.25,-2.81 -3.16,-3.04 -4.98,-3.31q-0.43,-0.06 -0.54,-0.48z" id="svg_148"/>
  <path fill="#ffffff" d="m234.77,106.19c1.82,0.27 5.23,0.5 4.98,3.31c-0.29,3.36 -1.2,7.23 -5,7.22q-4.22,-0.02 -8.42,-0.41q-0.53,-0.05 -0.55,-0.58l-0.32,-8.67a0.61,0.61 0 0 1 0.65,-0.63q4.55,0.29 5.71,-3.91a0.8,0.8 0 0 1 1.54,0.01l0.87,3.18q0.11,0.42 0.54,0.48z" id="svg_149"/>
  <path fill="#7991b7" d="m323.02,119.25q1.88,4.12 -0.14,8.14q-3.45,3.2 -6.42,2.78l-3.36,-0.59a1.17,1.16 -56.3 0 0 -0.87,0.18l-11.75,7.94a2.19,2.18 42.3 0 1 -2.27,0.1l-17.93,-9.87q-0.24,-0.27 -0.17,-0.6q0.13,-0.57 0.71,-0.46q0.38,0.08 0.75,0.38q-0.11,-0.38 -0.19,-0.04q-0.04,0.16 0.1,0.24l17.14,9.54a1.54,1.54 0 0 0 1.63,-0.08l11.44,-7.96q0.46,-0.32 0.14,-0.77l-0.62,-0.86c-4.4,-8.42 4.98,-15.12 11.81,-8.07zm-6.15,6.71c1.09,-1.05 3.49,-3.28 2.72,-5.15c-0.79,-1.95 -3.05,-2.23 -4.57,-0.94a0.35,0.35 0 0 0 0.2,0.61q0.69,0.05 1.33,-0.34a1.54,1.54 0 0 1 1.97,2.31l-3.66,4.28a0.54,0.54 0 0 0 0.4,0.89l3.9,0.08q0.98,0.02 0.54,-0.86l-0.15,-0.28q-0.24,-0.48 -0.76,-0.32l-1.5,0.45a0.43,0.43 0 0 1 -0.42,-0.73z" id="svg_150"/>
  <path fill="#ffffff" d="m317.29,126.69l1.5,-0.45q0.52,-0.16 0.76,0.32l0.15,0.28q0.44,0.88 -0.54,0.86l-3.9,-0.08a0.54,0.54 0 0 1 -0.4,-0.89l3.66,-4.28a1.54,1.54 0 0 0 -1.97,-2.31q-0.64,0.39 -1.33,0.34a0.35,0.35 0 0 1 -0.2,-0.61c1.52,-1.29 3.78,-1.01 4.57,0.94c0.77,1.87 -1.63,4.1 -2.72,5.15a0.43,0.43 0 0 0 0.42,0.73z" id="svg_151"/>
  <path fill="#d6d6d6" d="m281.57,127.25l29.64,0.07l0.62,0.86q0.32,0.45 -0.14,0.77l-11.44,7.96a1.54,1.54 0 0 1 -1.63,0.08l-17.14,-9.54q-0.14,-0.08 -0.1,-0.24q0.08,-0.34 0.19,0.04z" id="svg_152"/>
  <path fill="#d6d6d6" d="m280.28,127.93l17.93,9.87a2.19,2.18 42.3 0 0 2.27,-0.1l11.75,-7.94a1.17,1.16 -56.3 0 1 0.87,-0.18l3.36,0.59l-1.07,0.18q-0.75,0.12 -0.3,0.73q0.11,0.15 0.18,0.28q0.21,0.42 0.21,0.89l-0.01,15.53a0.5,0.5 0 0 1 -0.5,0.5l-34.17,0.05q-0.47,0 -0.47,-0.47l-0.05,-19.93z" id="svg_153"/>
  <path fill="#d6d6d6" d="m180.94,162.15q0.01,2.86 1.47,5.34a0.37,0.37 0 0 1 -0.46,0.53q-0.83,-0.33 -1.13,-1.01c-0.96,-2.2 -3.15,-4.22 -5.13,-5.52a1.31,1.27 -27.5 0 0 -0.71,-0.21l-18.82,-0.01a0.87,0.87 0 0 1 -0.87,-0.86l-0.15,-18.82q-0.01,-1.27 1.27,-1.27l32.98,-0.07a0.9,0.9 0 0 1 0.9,0.89l0.12,18.4a1.9,1.89 0.4 0 1 -1.95,1.91l-6.63,-0.17a0.87,0.87 0 0 0 -0.89,0.87zm-15.79,-11.57a1.03,1.03 0 0 0 -1.03,-1.03a1.03,1.03 0 0 0 -1.03,1.03a1.03,1.03 0 0 0 1.03,1.03a1.03,1.03 0 0 0 1.03,-1.03zm8.96,0.17a1.02,1.02 0 0 0 -1.02,-1.02a1.02,1.02 0 0 0 -1.02,1.02a1.02,1.02 0 0 0 1.02,1.02a1.02,1.02 0 0 0 1.02,-1.02zm9.16,-0.13a1,1 0 0 0 -1,-1a1,1 0 0 0 -1,1a1,1 0 0 0 1,1a1,1 0 0 0 1,-1z" id="svg_154"/>
  <path fill="#33244f" d="m265.5,203l-2.23,0.22q-0.55,0.05 -0.55,0.6l-0.02,5.74c-3.84,8.68 1.5,15.09 -1.18,23.57q-3.48,-8.02 -9.82,-13.14q-2.75,-0.93 -4.13,-3.12q-4.16,-6.55 -3.66,-16.17q0.02,-0.41 0.39,-0.22c16.39,8.3 19.8,-11.7 20.36,-22.71c0.28,-5.43 -4.68,-11.32 -8.42,-14.8q-0.35,-0.33 -0.5,0.13c-7.62,23.27 -30.03,40.75 -49.06,54.58c-8.15,5.48 -14.52,16.81 -10.76,26.66c4.44,11.62 7.44,22.34 14.3,33.76c3.24,5.4 6.19,8.68 12.28,8.47c2.98,-0.1 18.91,-1.48 19.07,-1.35q0.45,0.36 -0.12,0.45q-9.82,1.7 -19.77,1.89q-2.09,0.04 -3.33,-0.33c-8.5,-2.55 -15.71,-21.35 -18.4,-29.09q-0.7,-2.04 -1.14,-2.93q-0.62,-1.25 -0.62,0.14l-0.04,10.73c-14.45,-5.11 -34.97,-19.75 -19.76,-37.25q2.31,-2.66 4.6,-5.38c3.33,-3.95 5.55,-9.57 6.11,-14.18c1.53,-12.51 7.76,-16.71 18.67,-21.75c2.61,-1.21 4.32,-4.71 5.23,-7.77c3.67,-12.42 4.79,-25.49 18.27,-30.32c7.38,-2.65 17.87,-1.74 24.93,1.83c10.06,5.07 14.45,18.08 15.04,29.11c0.44,8.15 -2.24,15.32 -5.74,22.63z" id="svg_155"/>
  <circle fill="#a2a9af" cx="164.12" cy="150.58" r="1.03" id="svg_156"/>
  <circle fill="#8098a9" cx="173.09" cy="150.75" r="1.02" id="svg_157"/>
  <circle fill="#8098a9" cx="182.27" cy="150.62" r="1" id="svg_158"/>
  <path fill="#f8b18e" d="m251.7,219.99q-1.26,7.19 -5.57,10.9c-6.48,5.57 -18.11,1.83 -23.98,-2.75q-0.37,-0.29 -4.47,-4.63q-4.39,-4.66 -11,-5.83c19.03,-13.83 41.44,-31.31 49.06,-54.58q0.15,-0.46 0.5,-0.13c3.74,3.48 8.7,9.37 8.42,14.8c-0.56,11.01 -3.97,31.01 -20.36,22.71q-0.37,-0.19 -0.39,0.22q-0.5,9.62 3.66,16.17q1.38,2.19 4.13,3.12z" id="svg_159"/>
  <rect fill="#c0d8e2" x="390.99" y="168" width="60.8" height="101.8" rx="0.66" id="svg_160"/>
  <path fill="#c0d8e2" d="m384.02,240.98l-60.8,-0.02l-0.16,-41.57q5.55,-2.48 7.25,-3.85q2.25,-1.81 3.72,-5.29c4.23,-9.97 -3.9,-14.19 -11.13,-18.4q-0.17,-2.05 0.5,-3.32a0.96,0.95 -75.9 0 1 0.84,-0.51l58.76,-0.02a0.95,0.95 0 0 1 0.95,0.95l0.07,72.03z" id="svg_161"/>
  <path fill="#d6d6d6" d="m322.9,171.85c7.23,4.21 15.36,8.43 11.13,18.4q-1.47,3.48 -3.72,5.29q-1.7,1.37 -7.25,3.85c-19.64,1.58 -20.99,-27.63 -0.16,-27.54zm-0.71,20.98c3.28,-1.96 10.49,-10.12 4.03,-12.4c-1.84,-0.65 -3.9,0.22 -6.02,-0.03q-2.74,-0.31 -3.84,0.17q-3.32,1.46 -1.73,5.51q1.62,4.11 6.77,6.78q0.4,0.21 0.79,-0.03z" id="svg_162"/>
  <path fill="#e55554" d="m326.22,180.43c6.46,2.28 -0.75,10.44 -4.03,12.4q-0.39,0.24 -0.79,0.03q-5.15,-2.67 -6.77,-6.78q-1.59,-4.05 1.73,-5.51q1.1,-0.48 3.84,-0.17c2.12,0.25 4.18,-0.62 6.02,0.03z" id="svg_163"/>
  <path fill="#e55554" d="m265.5,203l16.39,0.01q0.54,0 0.59,0.54l0.12,1.32q0.04,0.48 0.44,0.75l2.81,1.89q0.07,0.36 0.01,0.63q-0.07,0.31 -0.41,0.42q-0.44,0.14 -0.96,0.01q-0.52,-0.62 -1.19,-0.88q-0.45,-0.17 -0.44,0.32q0.18,5.42 -1.71,10.5q-0.25,0.66 0.45,0.55l1.04,-0.15q1.63,0.64 1.42,1.47q-4.31,-0.09 -5.78,3.44a1.01,0.99 -82.6 0 1 -0.78,0.61q-3.86,0.57 -7.78,0.27c-4.79,-0.36 -6.64,-11.32 -7.02,-15.14l0.02,-5.74q0,-0.55 0.55,-0.6l2.23,-0.22z" id="svg_164"/>
  <path fill="#ffffff" d="m284.49,208.57q0.18,0.23 0.29,0.52q0.1,0.25 0.04,0.57q-0.85,4.7 -2.18,9.25l-1.04,0.15q-0.7,0.11 -0.45,-0.55q1.89,-5.08 1.71,-10.5q-0.01,-0.49 0.44,-0.32q0.67,0.26 1.19,0.88z" id="svg_165"/>
  <path fill="#f8b18e" d="m285.85,207.51l1.01,0.78q0.38,0.3 0.86,0.29c4.76,-0.04 7.05,5.81 8.2,10.17q1.29,4.87 3.13,20.12q1.66,13.82 -0.39,25.94q-9.05,0.85 -16.35,-5.25q7.14,-16.49 7.44,-35.9q0.02,-1.29 -1.26,-1.44q-2.36,-0.28 -4.43,-1.84q0.21,-0.83 -1.42,-1.47q1.33,-4.55 2.18,-9.25q0.06,-0.32 -0.04,-0.57q-0.11,-0.29 -0.29,-0.52q0.52,0.13 0.96,-0.01q0.34,-0.11 0.41,-0.42q0.06,-0.27 -0.01,-0.63z" id="svg_166"/>
  <path fill="#ffffff" d="m262.7,209.56c0.38,3.82 2.23,14.78 7.02,15.14q3.92,0.3 7.78,-0.27a1.01,0.99 -82.6 0 0 0.78,-0.61q1.47,-3.53 5.78,-3.44q2.07,1.56 4.43,1.84q1.28,0.15 1.26,1.44q-0.3,19.41 -7.44,35.9l-3.78,8.83a0.56,0.55 39.6 0 1 -0.97,0.09q-11.2,-16.53 -16.04,-35.35c2.68,-8.48 -2.66,-14.89 1.18,-23.57z" id="svg_167"/>
  <path fill="#7991b7" d="m206.68,217.68q6.61,1.17 11,5.83q4.1,4.34 4.47,4.63c5.87,4.58 17.5,8.32 23.98,2.75q4.31,-3.71 5.57,-10.9q6.34,5.12 9.82,13.14q4.84,18.82 16.04,35.35a0.56,0.55 39.6 0 0 0.97,-0.09l3.78,-8.83q7.3,6.1 16.35,5.25l-3.95,15.24c-3.71,-4.6 -9.25,-5.05 -14.71,-4.21c-2.31,0.35 -6.28,1.94 -9.48,1.46q-5.53,-0.82 -13.18,-3.19l-6.49,-8.34a0.57,0.57 0 0 0 -0.97,0.13l-2.47,5.9l-5.5,-0.97a0.77,0.76 15.8 0 0 -0.85,0.47q-2.51,6.48 0.17,12.83a1.24,1.23 89.2 0 0 0.66,0.65q1.67,0.68 3.15,0.13q-0.45,13.14 4.98,25.59l-2.78,-2.53q-0.38,-0.35 -0.9,-0.35l-60.69,-0.09q7.25,-14.81 11.07,-30.8l1.43,-10.65l0.04,-10.73q0,-1.39 0.62,-0.14q0.44,0.89 1.14,2.93c2.69,7.74 9.9,26.54 18.4,29.09q1.24,0.37 3.33,0.33q9.95,-0.19 19.77,-1.89q0.57,-0.09 0.12,-0.45c-0.16,-0.13 -16.09,1.25 -19.07,1.35c-6.09,0.21 -9.04,-3.07 -12.28,-8.47c-6.86,-11.42 -9.86,-22.14 -14.3,-33.76c-3.76,-9.85 2.61,-21.18 10.76,-26.66zm34.21,52.29c-16.57,-2.46 -18.89,-16.3 -23.55,-29.27q-1.98,-5.49 -6.43,-8.29q-0.2,-0.12 -0.38,-0.13q-0.28,-0.01 -0.41,0.14q-0.26,0.32 0.08,0.54q5.09,3.44 6.93,9.45c4.12,13.44 7.55,25.58 23.6,28.4q0.32,0.06 0.46,-0.24q0.09,-0.17 0.1,-0.3q0.02,-0.24 -0.4,-0.3zm9.8,-5.12c5.44,-7.47 6.9,-16.75 2.82,-25.69a0.36,0.36 0 0 0 -0.66,0.28q5.15,13.16 -2.64,24.87q-0.05,0.08 -0.02,0.17l0.14,0.32q0.14,0.35 0.36,0.05zm-29.4,7.78c1.44,-2.18 2.81,-5.05 6.02,-5.95q0.49,-0.14 0.17,-0.54q-0.47,-0.57 -1.11,-0.24q-3.83,1.96 -5.55,6.49a0.27,0.27 0 0 0 0.47,0.24z" id="svg_168"/>
  <path fill="#33244f" d="m217.34,240.7c4.66,12.97 6.98,26.81 23.55,29.27q0.42,0.06 0.4,0.3q-0.01,0.13 -0.1,0.3q-0.14,0.3 -0.46,0.24c-16.05,-2.82 -19.48,-14.96 -23.6,-28.4q-1.84,-6.01 -6.93,-9.45q-0.34,-0.22 -0.08,-0.54q0.13,-0.15 0.41,-0.14q0.18,0.01 0.38,0.13q4.45,2.8 6.43,8.29z" id="svg_169"/>
  <path fill="#33244f" d="m253.51,239.16c4.08,8.94 2.62,18.22 -2.82,25.69q-0.22,0.3 -0.36,-0.05l-0.14,-0.32q-0.03,-0.09 0.02,-0.17q7.79,-11.71 2.64,-24.87a0.36,0.36 0 0 1 0.66,-0.28z" id="svg_170"/>
  <path fill="#a2a9af" d="m323.22,240.96l60.8,0.02q1.22,0.49 -0.38,4.4l-8.86,24.06q-4.16,8.9 -5.63,17.73l-95.71,-0.23q-0.89,-1.91 -5.1,-3.6q2.79,-0.79 4.66,-0.57q10.55,1.24 20.85,0.62l5.99,0.13q0.53,0.01 0.7,-0.49l14.27,-41.53a0.87,0.86 9.6 0 1 0.84,-0.59l7.57,0.05zm19.7715,29.0356a5.95,4.81 108.1 0 0 6.4205,-4.1612a5.95,4.81 108.1 0 0 -2.7235,-7.15a5.95,4.81 108.1 0 0 -6.4205,4.1612a5.95,4.81 108.1 0 0 2.7235,7.15z" id="svg_171"/>
  <path fill="#c0d8e2" d="m383.64,245.38l0.17,23.59q0,0.57 -0.57,0.66q-4.15,0.61 -8.46,-0.19l8.86,-24.06z" id="svg_172"/>
  <ellipse fill="#ffffff" cx="344.839996" cy="264.339996" transform="rotate(108.0999984741211 344.8399963378906,264.3399963378907) " rx="5.95" ry="4.81" id="svg_173"/>
  <path fill="#ffffff" d="m257.34,274.11l-9.93,-2.31l2.47,-5.9a0.57,0.57 0 0 1 0.97,-0.13l6.49,8.34z" id="svg_174"/>
  <path fill="#33244f" d="m227.31,266.68c-3.21,0.9 -4.58,3.77 -6.02,5.95a0.27,0.27 0 0 1 -0.47,-0.24q1.72,-4.53 5.55,-6.49q0.64,-0.33 1.11,0.24q0.32,0.4 -0.17,0.54z" id="svg_175"/>
  <path fill="#564480" d="m196.72,276.73q-3.82,15.99 -11.07,30.8q-4.18,15.46 -1.64,30.48c2.03,12.05 10.57,23.12 23.49,24.1q10.11,0.77 23.46,-1q-0.5,0.13 -0.56,0.49q-0.09,0.5 0.4,0.65c3.95,1.2 8.05,0.54 11.52,0.82q6.25,0.51 12.35,-0.17q-0.03,1.31 1.05,1.45l0.5,0.21q0.48,0.2 0.48,0.73q0.01,6.99 0.11,13.96q0.01,0.71 -0.77,1.15l-6.54,0.27l-10.07,0.16l-28.05,0.19q-4.67,-0.75 -10.09,0.03l-19.82,-0.45q-0.05,-0.42 -0.22,-0.62q-0.14,-0.18 -0.55,-0.14q-4.77,0.41 -9.74,-0.28c-8.78,-2.16 -15.34,-10.09 -19.89,-17.38q-12.62,-20.21 -18.04,-38.93c-7.22,-24.95 8.5,-56.18 37.22,-55.01q13.05,0.53 26.47,8.49z" id="svg_176"/>
  <path fill="#f8b18e" d="m247.41,271.8l9.93,2.31q7.65,2.37 13.18,3.19c3.2,0.48 7.17,-1.11 9.48,-1.46c5.46,-0.84 11,-0.39 14.71,4.21q0.62,1.57 -0.86,3.34q-10.3,0.62 -20.85,-0.62q-1.87,-0.22 -4.66,0.57l-23.3,1.57q-1.48,0.55 -3.15,-0.13a1.24,1.23 89.2 0 1 -0.66,-0.65q-2.68,-6.35 -0.17,-12.83a0.77,0.76 15.8 0 1 0.85,-0.47l5.5,0.97z" id="svg_177"/>
  <path fill="#ffffff" d="m268.34,283.34q4.21,1.69 5.1,3.6q-9.98,0.33 -19.2,0.2q-2.92,-0.04 -4.31,0.86c-3.8,2.45 -2.15,8.66 2.69,8.8q2.12,0.06 4.08,0.09l-0.14,13.58l-6.54,0.03q-5.43,-12.45 -4.98,-25.59l23.3,-1.57z" id="svg_178"/>
  <path fill="#9f5d44" d="m273.44,286.94l95.71,0.23q22.45,-0.08 43.35,-0.02c4.73,0.02 5.72,8.09 0.51,9.57q-2.48,0.7 -6.25,-0.3l-150.06,0.47q-1.96,-0.03 -4.08,-0.09c-4.84,-0.14 -6.49,-6.35 -2.69,-8.8q1.39,-0.9 4.31,-0.86q9.22,0.13 19.2,-0.2z" id="svg_179"/>
  <path fill="#bf795d" d="m406.76,296.42l-0.08,69.38q-0.18,13.6 -0.24,27.24q-0.01,0.84 0.32,1.35q0.59,0.93 1.37,0.68q-1.54,1.87 -1.75,5.18l0.13,22.52l0.14,41.34l-0.39,0.85l-5.68,0.2q-0.72,0.03 -0.74,-0.7l-0.82,-41.98q0.04,-0.07 0.1,-0.14q0.13,-0.14 0.13,-0.3l-0.65,-36.29l-1.33,-74.22q-0.01,-0.58 -0.58,-0.58l-81.22,-0.06l-48.9,-0.03q-0.57,0 -0.58,0.57l-0.58,37.51l-0.16,14.02q-0.72,2.14 0.14,4.2l-0.57,12.7l-1.5,85.44q-3.08,1.59 -6.15,0.04q-0.47,-0.24 -0.47,-0.76l-0.05,-8.41q0.11,-37.72 0.15,-74.92q0,-0.93 -0.76,-0.85q0.78,-0.44 0.77,-1.15q-0.1,-6.97 -0.11,-13.96q0,-0.53 -0.48,-0.73l-0.5,-0.21q0.69,0.04 0.96,-0.31q0.26,-0.35 0.05,-0.72q-0.23,-0.42 -0.13,-0.64l0.11,-10.08l-0.15,-42.13l0.14,-13.58l150.06,-0.47z" id="svg_180"/>
  <path fill="#6a737c" d="m250.02,310.5l6.54,-0.03l0.15,42.13l-25.75,8.51q-13.35,1.77 -23.46,1c-12.92,-0.98 -21.46,-12.05 -23.49,-24.1q-2.54,-15.02 1.64,-30.48l60.69,0.09q0.52,0 0.9,0.35l2.78,2.53zm-3.62,0.61q-18.16,2.15 -35.43,10.3q-0.57,0.27 -0.71,0.69q-0.22,0.67 0.43,0.37q18.16,-8.48 38.06,-11.23a0.35,0.35 0 0 0 0.15,-0.64q-0.81,-0.52 -1.54,0.09q-0.42,0.36 -0.96,0.42z" id="svg_181"/>
  <path fill="#33244f" d="m247.36,310.69q0.73,-0.61 1.54,-0.09a0.35,0.35 0 0 1 -0.15,0.64q-19.9,2.75 -38.06,11.23q-0.65,0.3 -0.43,-0.37q0.14,-0.42 0.71,-0.69q17.27,-8.15 35.43,-10.3q0.54,-0.06 0.96,-0.42z" id="svg_182"/>
  <path fill="#6a737c" d="m315.47,310.89c4.02,5.95 5,16.97 5.4,24.08q2.03,36.48 0.12,73.02q-0.03,0.49 -0.5,0.63l-1.87,0.55l-9.42,1.65q-2.62,0.99 -3.22,-0.59c-5.07,-13.21 -7.06,-29.09 -9.38,-44.39c-0.44,-2.93 -0.18,-6.28 -0.74,-9.45q-0.93,-5.25 -0.94,-5.31q-0.86,-6.95 -1.48,-13.79a0.63,0.63 0 0 0 -0.91,-0.5l-9.4,4.75l-17.72,7.4l0.58,-37.51q0.01,-0.57 0.58,-0.57l48.9,0.03zm-14.631,21.4671a0.26,0.26 0 0 0 -0.3468,-0.1221l-6.3128,3.0246a0.26,0.26 0 0 0 -0.1221,0.3468l0.1037,0.2165a0.26,0.26 0 0 0 0.3468,0.1221l6.3128,-3.0246a0.26,0.26 0 0 0 0.1221,-0.3468l-0.1037,-0.2165z" id="svg_183"/>
  <path fill="#ffffff" d="m398.6,385.75c-3.85,2.31 -7.21,6.1 -5.92,10.78c1.1,3.94 3.09,8.97 -0.58,11.35q-0.65,0.42 -0.59,-0.34q0.36,-5.2 -0.58,-10.32a0.25,0.25 0 0 0 -0.47,-0.07l-3.25,6.71a0.52,0.52 0 0 1 -0.96,-0.37q1.49,-5.11 1.61,-10.72c0.09,-3.79 -2.37,-7.25 -4.43,-10.19a0.7,0.7 0 0 0 -1.23,0.17l-1.64,4.68a0.33,0.33 0 0 1 -0.65,-0.11c0.02,-3.3 0.38,-6.57 -0.94,-9.73a0.99,0.97 -89.4 0 0 -0.51,-0.53l-16.73,-7.69q-1.16,-0.54 -1.54,0.68q-3.4,10.67 -4.82,21.77q-0.2,1.65 1.45,1.72q8.28,0.34 15.63,3.95a0.35,0.35 0 0 1 -0.22,0.66q-7.75,-1.51 -15.62,-0.89a0.55,0.55 0 0 0 -0.49,0.68l2.11,8.39a1.49,1.47 83.5 0 0 1.39,1.12q8.14,0.26 15.86,2.77a0.27,0.27 0 0 1 -0.09,0.53l-12.56,-0.62a0.71,0.71 0 0 0 -0.64,1.08q4.44,7.12 12.45,11.17l-7.53,0.1a0.44,0.44 0 0 0 -0.42,0.54l9.55,41.5a0.64,0.64 0 0 1 -0.63,0.78l-66.29,0.07q-0.39,0 -0.21,-0.35q0.11,-0.22 0.38,-0.26c2.08,-0.36 9.15,-2.2 8.94,-4.67a1.41,1.4 3.3 0 0 -1.12,-1.25l-11.48,-2.27c-7.12,-1.07 -15.11,-3.04 -15.93,-10.8q-0.65,-6.15 -1.5,-9.89l2.4,-0.18q0.54,-0.05 0.62,-0.59c3.07,-22.56 5.66,-48.49 4.48,-72.27c-0.33,-6.7 -1.45,-14.29 -4.8,-19.17q-1.68,-2.45 -7.97,-2.13l9.4,-4.75a0.63,0.63 0 0 1 0.91,0.5q0.62,6.84 1.48,13.79q0.01,0.06 0.94,5.31c0.56,3.17 0.3,6.52 0.74,9.45c2.32,15.3 4.31,31.18 9.38,44.39q0.6,1.58 3.22,0.59l2.24,18.22l0.1,8.15q0,0.52 0.53,0.54q8.47,0.29 16.87,1.29q4.1,0.49 7.1,-0.02c3.82,-0.66 9.39,-2.05 12.2,-4.71a1.29,1.29 0 0 0 -0.65,-2.21l-10.99,-2.11q-6.53,-1.06 -11.57,-3.45c-2.91,-1.39 -4.63,-3.96 -4.95,-7q-0.76,-7.04 -1.46,-10.35l1.87,-0.55q0.47,-0.14 0.5,-0.63q1.91,-36.54 -0.12,-73.02c-0.4,-7.11 -1.38,-18.13 -5.4,-24.08l81.22,0.06q0.57,0 0.58,0.58l1.33,74.22z" id="svg_184"/>
  <rect fill="#33244f" x="293.74" y="333.709996" transform="rotate(-25.600000381469727 297.5,334.08999633789074) " width="7.52" height="0.76" rx="0.26" id="svg_185"/>
  <path fill="#495056" d="m283.13,341.54q6.29,-0.32 7.97,2.13c3.35,4.88 4.47,12.47 4.8,19.17c1.18,23.78 -1.41,49.71 -4.48,72.27q-0.08,0.54 -0.62,0.59l-2.4,0.18l-9.56,0.63l-1.4,0.09q-0.53,0.04 -0.72,-0.46q-3.14,-8.29 -4.4,-15.89q-3.51,-21.1 -2.95,-41.36q0.06,-2.51 -1.21,-0.26q-0.97,1.69 -3.34,1.23l0.57,-12.7l3.48,2.86q0.59,0.49 0.61,-0.28l0.1,-6.03a0.66,0.66 0 0 0 -0.65,-0.68l-3.68,-0.07l0.16,-14.02l17.72,-7.4z" id="svg_186"/>
  <path fill="#495056" d="m256.71,352.6l-0.11,10.08q-1.29,0.35 -1.93,0.22q-6.1,0.68 -12.35,0.17c-3.47,-0.28 -7.57,0.38 -11.52,-0.82q-0.49,-0.15 -0.4,-0.65q0.06,-0.36 0.56,-0.49l25.75,-8.51z" id="svg_187"/>
  <path fill="#d6d6d6" d="m256.6,362.68q-0.1,0.22 0.13,0.64q0.21,0.37 -0.05,0.72q-0.27,0.35 -0.96,0.31q-1.08,-0.14 -1.05,-1.45q0.64,0.13 1.93,-0.22z" id="svg_188"/>
  <path fill="#ffffff" d="m265.25,362.96l3.68,0.07a0.66,0.66 0 0 1 0.65,0.68l-0.1,6.03q-0.02,0.77 -0.61,0.28l-3.48,-2.86q-0.86,-2.06 -0.14,-4.2z" id="svg_189"/>
  <path fill="#8098a9" d="m406.98,422.66q0.04,-0.19 -0.47,0.11l-0.13,-22.52l17.21,-4.24q0.29,-0.07 0.17,-0.34q-0.05,-0.13 -0.16,-0.22q-0.16,-0.14 -0.48,-0.1q-7.77,0.84 -14.93,3.46a0.41,0.41 0 0 1 -0.51,-0.57q7.54,-14.85 19.83,-26.01q0.44,-0.39 -0.15,-0.43q-0.38,-0.03 -0.77,0.29q-8.06,6.71 -13.48,15.46a0.56,0.56 0 0 1 -1.03,-0.18q-1.21,-5.67 -0.79,-11.62q0.1,-1.44 -0.13,-2.57a0.37,0.37 0 0 0 -0.73,0.03q-0.83,7.86 0.98,15.53q0.12,0.52 -0.14,0.97l-3.14,5.36q-0.78,0.25 -1.37,-0.68q-0.33,-0.51 -0.32,-1.35q0.06,-13.64 0.24,-27.24c6.1,-2.07 8.76,3.72 14.98,0.51c4.26,-2.2 7.4,-3.92 11.87,-3.06q5.6,1.07 3.63,6.89q-1.82,5.37 -4.78,10.23c-1.35,2.21 -1.99,4.24 -0.55,6.71c2.47,4.25 7.78,9.89 3.2,14.22c-2.82,2.67 -9.14,4.02 -13.35,4.94a2.66,2.65 -8.8 0 0 -2.08,2.84l0.45,4.87a1.42,1.4 -29 0 1 -0.29,0.99c-2.73,3.44 -8.64,5.79 -12.47,6.6a0.63,0.63 0 0 0 -0.5,0.65q0.01,0.25 0.19,0.47z" id="svg_190"/>
  <path fill="#8098a9" d="m398.6,385.75l0.65,36.29q0,0.16 -0.13,0.3q-0.06,0.07 -0.1,0.14l-24.38,-0.1q-8.01,-4.05 -12.45,-11.17a0.71,0.71 0 0 1 0.64,-1.08l12.56,0.62a0.27,0.27 0 0 0 0.09,-0.53q-7.72,-2.51 -15.86,-2.77a1.49,1.47 83.5 0 1 -1.39,-1.12l-2.11,-8.39a0.55,0.55 0 0 1 0.49,-0.68q7.87,-0.62 15.62,0.89a0.35,0.35 0 0 0 0.22,-0.66q-7.35,-3.61 -15.63,-3.95q-1.65,-0.07 -1.45,-1.72q1.42,-11.1 4.82,-21.77q0.38,-1.22 1.54,-0.68l16.73,7.69a0.99,0.97 -89.4 0 1 0.51,0.53c1.32,3.16 0.96,6.43 0.94,9.73a0.33,0.33 0 0 0 0.65,0.11l1.64,-4.68a0.7,0.7 0 0 1 1.23,-0.17c2.06,2.94 4.52,6.4 4.43,10.19q-0.12,5.61 -1.61,10.72a0.52,0.52 0 0 0 0.96,0.37l3.25,-6.71a0.25,0.25 0 0 1 0.47,0.07q0.94,5.12 0.58,10.32q-0.06,0.76 0.59,0.34c3.67,-2.38 1.68,-7.41 0.58,-11.35c-1.29,-4.68 2.07,-8.47 5.92,-10.78zm-35.35,-10.91q16.9,19.17 19.96,43.16q0.04,0.32 0.2,0.57q0.21,0.32 0.35,0.48a0.38,0.37 21.1 0 0 0.66,-0.29q-3.36,-25.35 -20.05,-43.87q-0.4,-0.45 -0.71,-0.59a0.35,0.34 -8 0 0 -0.41,0.54zm25.69,46.27q-0.41,0.96 0.67,1.57a0.86,0.86 0 0 0 1.26,-0.99l-0.64,-2.19q-0.2,-0.69 -0.56,-0.06c-0.28,0.48 -0.47,1.06 -0.73,1.67z" id="svg_191"/>
  <path fill="#ffffff" d="m406.38,400.25q0.21,-3.31 1.75,-5.18l3.14,-5.36q0.26,-0.45 0.14,-0.97q-1.81,-7.67 -0.98,-15.53a0.37,0.37 0 0 1 0.73,-0.03q0.23,1.13 0.13,2.57q-0.42,5.95 0.79,11.62a0.56,0.56 0 0 0 1.03,0.18q5.42,-8.75 13.48,-15.46q0.39,-0.32 0.77,-0.29q0.59,0.04 0.15,0.43q-12.29,11.16 -19.83,26.01a0.41,0.41 0 0 0 0.51,0.57q7.16,-2.62 14.93,-3.46q0.32,-0.04 0.48,0.1q0.11,0.09 0.16,0.22q0.12,0.27 -0.17,0.34l-17.21,4.24z" id="svg_192"/>
  <path fill="#ffffff" d="m363.25,374.84a0.35,0.34 -8 0 1 0.41,-0.54q0.31,0.14 0.71,0.59q16.69,18.52 20.05,43.87a0.38,0.37 21.1 0 1 -0.66,0.29q-0.14,-0.16 -0.35,-0.48q-0.16,-0.25 -0.2,-0.57q-3.06,-23.99 -19.96,-43.16z" id="svg_193"/>
  <path fill="#ffffff" d="m278.84,436.51l2.61,19.78l0.04,7.43q0.01,0.52 0.53,0.58l3.14,0.32l-2.48,0.39l-19.36,0.29l1.5,-85.44q2.37,0.46 3.34,-1.23q1.27,-2.25 1.21,0.26q-0.56,20.26 2.95,41.36q1.26,7.6 4.4,15.89q0.19,0.5 0.72,0.46l1.4,-0.09z" id="svg_194"/>
  <path fill="#6b3e3a" d="m181.47,380.6q0.03,-0.31 -0.31,-0.04q-0.21,0.18 -0.25,0.46l-13.24,83.43q-0.14,0.88 0.76,0.88l24.36,-0.02a0.55,0.54 2.2 0 0 0.55,-0.5l7.95,-83.76q5.42,-0.78 10.09,-0.03l-13.22,83.6a0.56,0.56 0 0 0 0.55,0.65l53.53,0.14a0.55,0.54 -4.5 0 0 0.54,-0.63l-13.35,-83.95l10.07,-0.16l7.15,75.5l0.05,8.41q0,0.52 0.47,0.76q3.07,1.55 6.15,-0.04l19.36,-0.29l5.49,0.57q2.29,0.32 4.57,0.26q0.16,-0.01 0.27,0.04q0.19,0.08 0.28,0.19q0.26,0.31 -0.15,0.31q-0.77,-0.01 -1.19,0.35q-10.15,0.04 -20.37,-0.18c-3.7,-0.08 -9.06,0.46 -13.61,0.27q-4.03,-0.16 -5.45,-0.15c-26.51,0.14 -53.03,-0.47 -79.52,-0.21q-33.71,0.34 -67.44,-0.49q-0.61,-0.02 -0.05,-0.27q0.38,-0.17 0.74,-0.17q27.87,-0.24 55.89,-0.27a0.83,0.83 0 0 0 0.83,-0.75l7.99,-84.95q4.97,0.69 9.74,0.28q0.41,-0.04 0.55,0.14q0.17,0.2 0.22,0.62z" id="svg_195"/>
  <path fill="#ffffff" d="m256.04,380.4q0.76,-0.08 0.76,0.85q-0.04,37.2 -0.15,74.92l-7.15,-75.5l6.54,-0.27z" id="svg_196"/>
  <path fill="#ffffff" d="m181.47,380.6l19.82,0.45l-7.95,83.76a0.55,0.54 2.2 0 1 -0.55,0.5l-24.36,0.02q-0.9,0 -0.76,-0.88l13.24,-83.43q0.04,-0.28 0.25,-0.46q0.34,-0.27 0.31,0.04z" id="svg_197"/>
  <path fill="#ffffff" d="m239.43,380.83l13.35,83.95a0.55,0.54 -4.5 0 1 -0.54,0.63l-53.53,-0.14a0.56,0.56 0 0 1 -0.55,-0.65l13.22,-83.6l28.05,-0.19z" id="svg_198"/>
  <path fill="#f8b18e" d="m318.62,409.17q0.7,3.31 1.46,10.35c0.32,3.04 2.04,5.61 4.95,7q5.04,2.39 11.57,3.45q-10.34,6.82 -25.16,-0.93l-2.24,-18.22l9.42,-1.65z" id="svg_199"/>
  <path fill="#ffffff" d="m388.94,421.11c0.26,-0.61 0.45,-1.19 0.73,-1.67q0.36,-0.63 0.56,0.06l0.64,2.19a0.86,0.86 0 0 1 -1.26,0.99q-1.08,-0.61 -0.67,-1.57z" id="svg_200"/>
  <path fill="#495056" d="m374.64,422.38l24.38,0.1l0.82,41.98q0.02,0.73 0.74,0.7l5.68,-0.2q7.49,0.72 14.91,0.5q5.07,-0.15 9.66,-0.06q4.83,0.09 9.67,-0.17q0.22,-0.01 0.4,0.09q0.33,0.2 -0.05,0.23q-9.29,0.73 -18.59,0.5c-6.23,-0.15 -12.66,0.31 -19.03,0.09c-3.97,-0.13 -9.22,0.63 -13.96,-0.25c-1.6,-0.29 -2.1,0.57 -3.54,0.57q-44.24,-0.14 -88.55,0.04q-2.41,-1.39 -4.46,-1.47l-7.56,-0.41l-3.14,-0.32q-0.52,-0.06 -0.53,-0.58l-0.04,-7.43c6.07,2.72 19.69,6.71 24.38,0.28l11.48,2.27a1.41,1.4 3.3 0 1 1.12,1.25c0.21,2.47 -6.86,4.31 -8.94,4.67q-0.27,0.04 -0.38,0.26q-0.18,0.35 0.21,0.35l66.29,-0.07a0.64,0.64 0 0 0 0.63,-0.78l-9.55,-41.5a0.44,0.44 0 0 1 0.42,-0.54l7.53,-0.1z" id="svg_201"/>
  <path fill="#495056" d="m406.98,422.66l8.64,-0.1q0.58,-0.01 0.45,0.56l-9.42,40.99l-0.14,-41.34q0.51,-0.3 0.47,-0.11z" id="svg_202"/>
  <path fill="#495056" d="m311.44,429.04q14.82,7.75 25.16,0.93l10.99,2.11a1.29,1.29 0 0 1 0.65,2.21c-2.81,2.66 -8.38,4.05 -12.2,4.71q-3,0.51 -7.1,0.02q-8.4,-1 -16.87,-1.29q-0.53,-0.02 -0.53,-0.54l-0.1,-8.15z" id="svg_203"/>
  <path fill="#f8b18e" d="m288.4,435.88q0.85,3.74 1.5,9.89c0.82,7.76 8.81,9.73 15.93,10.8c-4.69,6.43 -18.31,2.44 -24.38,-0.28l-2.61,-19.78l9.56,-0.63z" id="svg_204"/>
  <path fill="#d6d6d6" d="m285.16,464.62l7.56,0.41q-1.82,0.95 -4.55,0.55l-5.49,-0.57l2.48,-0.39z" id="svg_205"/>
  <path fill="#8098a9" d="m292.72,465.03q2.05,0.08 4.46,1.47l-5.23,0.23q0.42,-0.36 1.19,-0.35q0.41,0 0.15,-0.31q-0.09,-0.11 -0.28,-0.19q-0.11,-0.05 -0.27,-0.04q-2.28,0.06 -4.57,-0.26q2.73,0.4 4.55,-0.55z" id="svg_206"/>
  <path fill="#a2a9af" d="m444.8,465.6c1.4,-0.29 2.48,-0.81 3.95,-0.28a0.23,0.23 0 0 1 -0.02,0.44q-1.96,0.43 -3.98,0.07q-0.54,-0.1 0.05,-0.23z" id="svg_207"/>
  <path fill="#d6d6d6" d="m454.29,465.76q-0.89,0.36 -1.85,0.17a0.35,0.35 0 0 1 0.05,-0.7l1.67,-0.08a0.32,0.31 -57.3 0 1 0.13,0.61z" id="svg_208"/>
 </g>
</svg>