<svg width="917.9999999999999" height="917.9999999999999" xmlns="http://www.w3.org/2000/svg">
 <g>
  <title>background</title>
  <rect x="-1" y="-1" width="1178.923077" height="1178.923077" id="canvas_background" fill="none"/>
 </g>

 <g>
  <title>Layer 1</title>
  <g stroke-width="2" fill="none" id="svg_1">
   <path stroke="#9daacc" d="m684.16,127.26c-5.94,-7.61 -14.93,-11.71 -24.15,-14.07c-29.76,-7.62 -91.16,-5.36 -82.63,42.73c3.7,20.8 22.79,26.4 41.59,23.32q0.53,-0.09 0.79,0.37c7,12.15 14.08,25.09 17.27,38.74" id="svg_2"/>
   <path stroke="#f5f3ff" d="m637.03,218.35q-25.84,-2.88 -51.52,0.51c-31.51,4.17 -59.18,17.35 -83.43,36.23q-19.37,15.09 -37.25,34.61" id="svg_3"/>
   <path stroke="#cdd1fa" d="m464.83,289.7l-0.6,-3.15q-0.11,-0.6 -0.72,-0.59l-100.25,0.59q-0.51,0 -0.43,0.51l12.72,73.97" id="svg_4"/>
   <path stroke="#f5f3ff" d="m375.55,361.03q-33.27,7.69 -66.87,13.51" id="svg_5"/>
   <path stroke="#a8a3d7" d="m308.68,374.54l0,-130.81" id="svg_6"/>
   <path stroke="#cdd1fa" d="m308.68,243.73q-0.07,-0.02 0.08,-0.27q0.08,-0.12 0.21,-0.21q7.61,-5.3 7.32,-14.64" id="svg_7"/>
   <path stroke="#a8a3d7" d="m316.29,228.61l43.92,-32.05" id="svg_8"/>
   <path stroke="#cdd1fa" d="m360.21,196.56q0.44,9.37 3.07,18.05q0.17,0.56 0.71,0.34l29.25,-11.52" id="svg_9"/>
   <path stroke="#fed386" d="m393.24,203.43q7.27,4.82 17.48,1.93c8.36,-2.37 17.64,-6.82 18.49,-15.97" id="svg_10"/>
   <path stroke="#cdd1fa" d="m429.21,189.39l25.67,-9.97a0.45,0.45 0 0 0 0.21,-0.66c-5.2,-8.17 -12.11,-15.67 -20.14,-20.98q-25.78,-17.06 -54.45,-0.23c-5.55,3.26 -10.71,8.25 -14.07,14q-1.12,1.93 -2.21,3.59" id="svg_11"/>
   <path stroke="#a8a3d7" d="m364.22,175.14l-56.63,41.29" id="svg_12"/>
   <path stroke="#cdd1fa" d="m307.59,216.43q-6.61,-2.71 -12.38,-0.24c-9.81,4.21 -12.91,18.25 -3.77,25.4q1.27,1 2.11,2.09" id="svg_13"/>
   <path stroke="#a8a3d7" d="m293.55,243.68l-0.01,134.46" id="svg_14"/>
   <path stroke="#f5f3ff" d="m293.54,378.14q-28.55,6.55 -55.99,15.66q-0.48,0.16 -0.82,0.55l-1.2,1.38" id="svg_15"/>
   <path stroke="#a8a3d7" d="m235.53,395.73l-46.73,0.04q-0.57,0 -0.57,0.57l-0.04,15.79" id="svg_16"/>
   <path stroke="#f5f3ff" d="m188.19,412.13q-31.33,12.88 -59.83,30.28c-53.08,32.41 -88.24,77.66 -100.62,139.07q-3.55,17.64 -4.37,38.04" id="svg_17"/>
   <path stroke="#cdd1fa" d="m23.37,619.52q-0.6,5.49 0.31,10.75" id="svg_18"/>
   <path stroke="#f5f3ff" d="m23.68,630.27q-1.29,18.65 0.63,38.49c4.66,48.24 27.32,88.05 61.33,121.6q20.32,20.04 45.05,33.48" id="svg_19"/>
   <path stroke="#cdd1fa" d="m130.69,823.84q1.06,1.86 2.48,5.15q8.29,19.26 29.29,20.58q11.47,0.72 21.03,-5.87" id="svg_20"/>
   <path stroke="#f5f3ff" d="m183.49,843.7q19.07,4.57 38.26,5.49q0.9,0.04 2.45,-0.04" id="svg_21"/>
   <path stroke="#cdd1fa" d="m224.2,849.15q9.08,0.96 18.75,0.45" id="svg_22"/>
   <path stroke="#f5f3ff" d="m242.95,849.6q19.59,0.19 38.8,-2.22c35.92,-4.51 71.5,-13.03 105.27,-26.06q19.04,-7.34 38.12,-14.58q54.69,-20.73 113.54,-23.56" id="svg_23"/>
   <path stroke="#cdd1fa" d="m538.68,783.18l9.14,-0.37" id="svg_24"/>
   <path stroke="#f5f3ff" d="m547.82,782.81l11.42,-0.32" id="svg_25"/>
   <path stroke="#cdd1fa" d="m559.24,782.49l17.36,-0.26" id="svg_26"/>
   <path stroke="#f5f3ff" d="m576.6,782.23l25.76,-0.07" id="svg_27"/>
   <path stroke="#ffdcd8" d="m602.36,782.16q1.2,2.73 4.13,4.79a0.55,0.54 17.8 0 0 0.86,-0.44l-0.03,-4.71" id="svg_28"/>
   <path stroke="#f5f3ff" d="m607.32,781.8q0.75,-0.05 1.17,0.37" id="svg_29"/>
   <path stroke="#cdd1fa" d="m608.49,782.17l8.55,0.11" id="svg_30"/>
   <path stroke="#f5f3ff" d="m617.04,782.28l21.51,-0.48" id="svg_31"/>
   <path stroke="#cdd1fa" d="m638.55,781.8l5.7,-0.03q0.32,0 0.55,-0.22q0.5,-0.51 0,-0.5" id="svg_32"/>
   <path stroke="#f5f3ff" d="m644.8,781.05q0.3,0.01 0.52,0.08q0.79,0.23 0.93,0.22q30.7,-1.11 61.37,-8.15" id="svg_33"/>
   <path stroke="#cdd1fa" d="m707.62,773.2l6.22,-1.7" id="svg_34"/>
   <path stroke="#f5f3ff" d="m713.84,771.5c36.6,-9.82 70.42,-30.55 96.38,-57.9c45.1,-47.55 42.37,-116.57 -1.86,-163.46q-4.23,-4.49 -17.66,-18.07q-16.89,-17.08 -32.01,-38.62c-10.76,-15.31 -17.21,-29.74 -18.2,-48.18q-0.37,-6.77 1.3,-19.45q1.29,-9.79 2.47,-19.59q3.68,-30.37 0.42,-61.52" id="svg_35"/>
   <path stroke="#9daacc" d="m744.68,344.71q7,-6.35 14.51,-14.27c13.8,-14.55 24.56,-32.03 26.07,-52.22c1.65,-21.96 -3.2,-39.23 -22.72,-52.35" id="svg_36"/>
   <path stroke="#f5f3ff" d="m762.54,225.87q18.14,-1.76 31.67,-9.68c39.26,-22.95 47.9,-75.94 16.58,-109.52c-17.51,-18.79 -43.78,-26.98 -69.11,-20.51c-24.69,6.31 -44.93,25.44 -51.22,50.91" id="svg_37"/>
   <path stroke="#9daacc" d="m690.46,137.07l-5.48,-8.71" id="svg_38"/>
   <path stroke="#929ecc" d="m684.98,128.36q-0.56,-0.49 -0.82,-1.1" id="svg_40"/>
   <path stroke="#929ecc" d="m744.68,344.71l-7.82,6.11" id="svg_41"/>
   <path stroke="#9b7e53" d="m736.86,350.82l6.4,-39.88a0.58,0.58 0 0 0 -0.84,-0.6c-11.65,6.13 -26.95,8.24 -38.4,1.04c-8.75,-5.51 -13.91,-14.61 -16.95,-24.63q-5.79,-19.07 0.46,-36.44q3.42,-9.49 3.56,-10.05q3.22,-12.94 0.13,-25.79" id="svg_42"/>
   <path stroke="#9d87a5" d="m691.22,214.47q-0.28,-5.3 -0.8,-10.34c-0.78,-7.58 -3.35,-15.58 -4.77,-23.47a0.8,0.79 -21.5 0 1 0.36,-0.82c8.03,-5.01 5.4,-14.55 -0.98,-19.4c-3.74,-2.84 -6.33,-0.93 -9.85,0.55q-0.48,0.2 -0.88,-0.12q-12.38,-10 -28.35,-7.31q-0.48,0.08 -0.58,0.56q-0.27,1.3 -0.35,2.62c-0.52,8.81 -5.39,19.37 -14.98,21.21c-2.11,0.41 -4.78,0.2 -7.19,0.37q-0.51,0.04 -0.16,0.41q0.64,0.66 0.99,1.53q2.3,5.73 4.67,11.47a1.11,1.08 -4 0 0 0.77,0.65q4.39,1.01 6.25,5.15q5.69,12.67 16.19,21.6q7.53,6.41 17,4.13q0.49,-0.12 0.5,0.38q0.03,0.92 -0.35,1.42" id="svg_43"/>
   <path stroke="#9b7e53" d="m668.71,225.06l-9.13,11.31a1.42,1.41 -26.4 0 0 -0.31,0.91c0.14,6.26 0.46,12.18 -1.61,18.1q-3.3,9.47 -8.76,17.85c-8.19,12.58 -21.73,18.81 -18.4,36.67" id="svg_44"/>
   <path stroke="#929ecc" d="m630.5,309.9c-15.97,-19.42 -17.41,-41.03 -5.77,-62.71q3.52,-6.55 5.36,-9.11c5.05,-7.03 8.55,-11.81 6.94,-19.73" id="svg_45"/>
   <path stroke="#929ecc" d="m762.54,225.87q-6.63,-4.7 -21.85,-13.26c-28.37,-15.97 -37.61,-49.49 -50.23,-75.54" id="svg_46"/>
   <path stroke="#c2c5fa" d="m713.84,771.5l-0.02,-272.24" id="svg_47"/>
   <path stroke="#f3c786" d="m713.82,499.26l8.29,-0.02q0.48,0 0.51,-0.47q0.92,-11.98 -7.15,-19.27" id="svg_48"/>
   <path stroke="#929ecc" d="m715.47,479.5q11.62,-9.17 14.01,-23.5q3.51,-21.07 -4.39,-42.62" id="svg_49"/>
   <path stroke="#f3c786" d="m736.86,350.82l-4.84,34.74q-0.08,0.52 0.35,0.83l3.86,2.75a0.5,0.5 0 0 1 0.05,0.78l-10.69,9.87q-0.41,0.37 -0.41,0.92l-0.09,12.67" id="svg_50"/>
   <path stroke="#9b7e53" d="m725.09,413.38c-28.98,4.55 -60.91,0.5 -85.92,-16.16" id="svg_51"/>
   <path stroke="#feb05e" d="m639.17,397.22q27.95,5.6 58.83,6.59q9.55,0.3 16.57,-0.77q0.64,-0.09 0.27,-0.62l-21.04,-29.47q-0.32,-0.44 -0.86,-0.47l-69.14,-3.62q-0.59,-0.03 -0.83,-0.57l-6.61,-14.73" id="svg_52"/>
   <path stroke="#f3c786" d="m616.36,353.56l-1.02,-2.02q-0.26,-0.51 0.04,-1l7.43,-11.85q0.44,-0.7 0.65,0.1l0.81,3.15a0.36,0.36 0 0 0 0.66,0.09l9.91,-16.77a1.19,1.17 -41.1 0 0 0.08,-1.03q-0.4,-1.02 0.05,-2.01q0.23,-0.52 0.02,-1.04l-4.49,-11.28" id="svg_53"/>
   <path stroke="#feb05e" d="m691.22,214.47q-10.75,16.49 -10.69,35.49q0.01,0.94 -0.43,0.1c-1.3,-2.5 -2.45,-5.98 -5.64,-7.55q-0.17,-0.09 -0.08,-0.25q0.08,-0.17 0.17,-0.37q0.09,-0.21 -0.04,-0.41q-4.39,-7.05 -5.8,-16.42" id="svg_54"/>
   <path stroke="#f5d0d8" d="m616.36,353.56q-45.55,1.59 -90.86,3.75q-8.19,0.38 -20.11,-2.54" id="svg_55"/>
   <path stroke="#9e96d7" d="m505.39,354.77l22.83,-26.9" id="svg_56"/>
   <path stroke="#929ecc" d="m528.22,327.87c4.68,-5.74 -0.95,-11.04 -5.73,-4.64" id="svg_57"/>
   <path stroke="#9e96d7" d="m522.49,323.23l-24.66,29.16" id="svg_58"/>
   <path stroke="#f5d0d8" d="m497.83,352.39q-11.76,-2.71 -20.67,8.98" id="svg_59"/>
   <path stroke="#c2c5fa" d="m477.16,361.37l-12.33,-71.67" id="svg_60"/>
   <path stroke="#9b7e53" d="m715.47,479.5q-10.52,6.86 -21.22,7.96q-55.62,5.72 -115.08,3.85q-0.45,-0.02 -0.27,0.4l3.25,7.55" id="svg_61"/>
   <path stroke="#6a7cc7" d="m582.15,499.26l5.31,16.34" id="svg_62"/>
   <path stroke="#9d87a5" d="m606.75,648.59l-7.97,4.44" id="svg_65"/>
   <path stroke="#9d87a5" d="m598.57,652.96l0.66,14.96q0.02,0.5 -0.33,0.86l-0.81,0.81a0.71,0.71 0 0 0 -0.05,0.93l0.54,0.67q0.26,0.32 -0.12,0.5l-21.74,10.13" id="svg_67"/>
   <path stroke="#6a7cc7" d="m576.72,681.82l0.33,-264.05" id="svg_68"/>
   <path stroke="#c2c5fa" d="m707.62,773.2l0.05,-42.22q0,-0.48 -0.48,-0.48l-61.95,0.01q-0.44,0 -0.44,0.43l0,50.11" id="svg_70"/>
   <path stroke="#c2c5fa" d="m638.55,781.8l-0.03,-42.58" id="svg_71"/>
   <path stroke="#cdaed2" d="m638.52,739.22l0.08,-5.73" id="svg_72"/>
   <path stroke="#c2c5fa" d="m638.6,733.49l0.01,-217.58q0,-0.41 -0.42,-0.41l-21.48,0.01q-0.19,0 -0.06,0.14l0.22,0.25a0.72,0.71 25.1 0 1 0.17,0.46l0.01,133.82" id="svg_73"/>
   <path stroke="#cdaed2" d="m617.05,650.18l0.02,74.06" id="svg_74"/>
   <path stroke="#c2c5fa" d="m617.07,724.24l-0.03,58.04" id="svg_75"/>
   <path stroke="#c2c5fa" d="m608.49,782.17l0.29,-52.95q0,-0.5 -0.48,-0.66q-0.46,-0.15 -1.06,-0.07" id="svg_76"/>
   <path stroke="#cdaed2" d="m607.24,728.49l-22.54,-0.02" id="svg_77"/>
   <path stroke="#c2c5fa" d="m584.7,728.47l-7.31,0q-0.59,0.01 -0.58,-0.58l0.04,-6.07q0,-0.58 0.58,-0.58l30.81,0.01q0.5,0 0.5,-0.51l-0.48,-44.79" id="svg_78"/>
   <path stroke="#cdaed2" d="m608.26,675.95q-1.22,-13.11 -0.75,-26.57q0.03,-0.67 -0.76,-0.79" id="svg_79"/>
   <path stroke="#c2c5fa" d="m607.25,623.89l0.06,-107.85q0,-0.5 -0.5,-0.49l-19.35,0.05" id="svg_80"/>
   <path stroke="#cba580" d="m713.82,499.26l-131.67,0" id="svg_81"/>
   <path stroke="#9d87a5" d="m639.17,397.22l-10.24,-3.01" id="svg_82"/>
   <path stroke="#f5d0d8" d="m628.93,394.21q-22.37,-5.94 -45.36,-5.82" id="svg_83"/>
   <path stroke="#bd97c1" d="m583.57,388.39l-23.71,-0.23" id="svg_84"/>
   <path stroke="#f5d0d8" d="m559.86,388.16q-8.33,-2.55 -13.72,-7.91a1.14,1.13 64.6 0 0 -0.88,-0.32q-1.55,0.12 -3.04,1.02q-5.55,3.37 -9.43,7.57" id="svg_85"/>
   <path stroke="#bd97c1" d="m532.79,388.52q-9.05,1.69 -19.58,0.79q-0.42,-0.03 -0.35,-0.45q0.06,-0.36 0.28,-0.6" id="svg_86"/>
   <path stroke="#f5d0d8" d="m513.14,388.26l5.43,-12.14a0.77,0.77 0 0 0 -1.08,-0.98c-11.09,6.3 -23.58,11.5 -35.91,12.15" id="svg_87"/>
   <path stroke="#f5d0d8" d="m487.21,376.42q2.52,0.64 5.12,0.24q0.5,-0.08 0.72,-0.53q1.48,-3.09 0.44,-7.1" id="svg_88"/>
   <path stroke="#464ea4" d="m528.22,327.87l-5.73,-4.64" id="svg_89"/>
   <path stroke="#a880b0" d="m505.39,354.77l-11.9,14.26" id="svg_90"/>
   <path stroke="#9e96d7" d="m493.49,369.03l-6.28,7.39" id="svg_91"/>
   <path stroke="#a880b0" d="m487.21,376.42l-7.37,0.67" id="svg_92"/>
   <path stroke="#a880b0" d="m479.3,374.23l18.53,-21.84" id="svg_93"/>
   <path stroke="#cdaed2" d="m477.16,361.37l2.14,12.86" id="svg_94"/>
   <path stroke="#7675d2" d="m479.3,374.23l0.54,2.86" id="svg_95"/>
   <path stroke="#cdaed2" d="m479.84,377.09l1.74,10.2" id="svg_96"/>
   <path stroke="#c2c5fa" d="m481.58,387.29q-0.1,0.15 -0.05,0.65a0.47,0.46 87.1 0 0 0.45,0.41q0.19,0.01 0.34,-0.09" id="svg_97"/>
   <path stroke="#8a8ce3" d="m482.32,388.26l0.68,5.86q0.06,0.53 -0.47,0.52c-6.52,-0.07 -13.43,1.02 -19.35,0.99q-28.74,-0.14 -57.48,0.24" id="svg_98"/>
   <path stroke="#7675d2" d="m405.7,395.87l-25.73,0.04" id="svg_99"/>
   <path stroke="#c2c5fa" d="m379.97,395.91c0.81,-1.07 1.33,-1.55 1.08,-2.98q-2.75,-15.96 -5.5,-31.9" id="svg_100"/>
   <path stroke="#464ea4" d="m623.19,395.84q0.15,0.3 0.13,0.7" id="svg_101"/>
   <path stroke="#7675d2" d="m576.7,417.29l-22.47,0.21" id="svg_103"/>
   <path stroke="#9e96d7" d="m554.23,417.5l-311.29,-0.01" id="svg_104"/>
   <path stroke="#7675d2" d="m242.94,417.49l-18.73,-0.05" id="svg_105"/>
   <path stroke="#9e96d7" d="m224.21,417.44l-35.45,0.03q-0.53,0 -0.54,-0.54l-0.03,-4.8" id="svg_106"/>
   <path stroke="#f5d0d8" d="m608.26,675.95q-1,0.24 -1,0.54q-0.16,21.69 -0.14,43.16a0.77,0.76 0 0 1 -0.77,0.76l-23.02,0.03a1.17,1.17 0 0 1 -1.15,-0.95q-1.92,-9.82 -5.51,-20.02" id="svg_107"/>
   <path stroke="#bd97c1" d="m598.57,652.96q0.31,-0.46 0.21,0.07" id="svg_108"/>
   <path stroke="#cdaed2" d="m576.72,681.82q-1.06,8.98 -0.05,17.65" id="svg_109"/>
   <path stroke="#c2c5fa" d="m576.67,699.47l-0.07,82.76" id="svg_110"/>
   <path stroke="#c2c5fa" d="m559.24,782.49l0.01,-53.48q0,-0.5 -0.5,-0.5l-10.52,-0.01q-0.42,0 -0.42,0.43l0.01,53.88" id="svg_111"/>
   <path stroke="#c2c5fa" d="m538.68,783.18l-0.02,-203.9q0,-0.5 0.27,-0.91l0.39,-0.58" id="svg_112"/>
   <path stroke="#6a7cc7" d="m539.32,577.79q1.14,2.52 2.49,4.87q1.51,2.64 2.12,4.98q2.37,9.06 3.9,18.01" id="svg_113"/>
   <path stroke="#c2c5fa" d="m547.83,605.65l-0.05,115.1q0,0.48 0.48,0.48l10.49,0.01q0.53,0 0.53,-0.53q0,-33.78 0,-67.54c0,-0.97 -0.3,-1.71 -0.59,-2.6" id="svg_114"/>
   <path stroke="#6a7cc7" d="m558.69,650.57q0.16,-0.07 0.28,-0.14q0.25,-0.15 0.25,-0.43l0,-231.45q0,-0.52 -0.5,-0.65q-2.06,-0.52 -4.49,-0.05" id="svg_115"/>
   <path stroke="#c2c5fa" d="m554.23,417.85q0,-0.17 0,-0.35" id="svg_116"/>
   <path stroke="#929ecc" d="m628.93,394.21l-5.74,1.63" id="svg_117"/>
   <path stroke="#8a8ce3" d="m577.05,417.77q0.05,-0.11 -0.35,-0.48" id="svg_119"/>
   <path stroke="#f5d0d8" d="m607.24,728.49l0.08,53.31" id="svg_120"/>
   <path stroke="#f5d0d8" d="m584.7,728.47q3.41,14.53 5.03,18.77c2.18,5.68 7.46,11.89 10.12,18.78c2.05,5.33 1.32,10.61 2.51,16.14" id="svg_121"/>
   <path stroke="#f5d0d8" d="m638.6,733.49q-1.65,-8.59 -3.88,-13.47c-3.29,-7.22 -7.94,-15.41 -8.92,-22.76q-1.01,-7.51 0.89,-14.93c1.67,-6.55 6.66,-15.06 3.91,-21.88q-0.87,-2.15 -3.65,-4q-4.75,-3.17 -9.9,-6.27" id="svg_122"/>
   <path stroke="#f5d0d8" d="m638.52,739.22q-1.15,8.54 -6.72,13.04a1.38,1.37 23.3 0 1 -0.78,0.31q-5.27,0.39 -5.45,-4.46q-0.52,-13.94 -8.5,-23.87" id="svg_123"/>
   <path stroke="#b2ade8" d="m583.57,388.39l0.11,7.71" id="svg_124"/>
   <path stroke="#665dc0" d="m583.68,396.1q-49.38,0.27 -98.88,0.15c-1.6,0 -2.88,1.11 -4.05,1c-11.36,-1 -26.2,-0.66 -34,-0.84q-20.51,-0.48 -41.05,-0.54" id="svg_125"/>
   <path stroke="#b2ade8" d="m559.86,388.16l-27.07,0.36" id="svg_126"/>
   <path stroke="#b2ade8" d="m513.14,388.26l-30.82,0" id="svg_127"/>
   <path stroke="#9e96d7" d="m379.97,395.91l-46.12,-0.15q-0.51,0 -0.87,-0.37q-0.93,-0.96 -1.65,-1.21" id="svg_128"/>
   <path stroke="#c2c5fa" d="m331.33,394.18c-3.23,-7.51 -14.95,-8.16 -21.64,-8.12q-0.51,0 -0.95,0.28q-0.69,0.43 -0.99,0.43q-4.08,-0.03 -8.15,-0.02q-1.18,0.01 -7.62,-0.53q-3.35,-0.28 -6.67,0.2c-6.54,0.95 -11.91,1.64 -15.31,7.77" id="svg_129"/>
   <path stroke="#9e96d7" d="m270,394.19l-1.4,1.19q-0.39,0.33 -0.9,0.33l-32.17,0.02" id="svg_130"/>
   <path stroke="#c2c5fa" d="m242.94,417.49l0.01,432.11" id="svg_131"/>
   <path stroke="#c2c5fa" d="m224.21,417.44l-0.01,431.71" id="svg_132"/>
   <path stroke="#c2c5fa" d="m183.49,843.7c20.21,-17.63 19.9,-51.05 17.85,-75.49q-0.05,-0.52 -0.45,-0.83q-0.42,-0.32 -0.61,-0.24" id="svg_133"/>
   <path stroke="#b2ade8" d="m200.28,767.14c-6.81,-3.13 -17.8,-3.07 -24.35,-3.29" id="svg_134"/>
   <path stroke="#c2c5fa" d="m175.93,763.85q0.79,-16 0.28,-31.6q-0.28,-8.4 -2.39,-16.47c-1.22,-4.65 -2.5,-9.91 -2.06,-13.42c2.5,-20.01 7.92,-43.74 -6.33,-60.99q-4.71,-5.71 -5.33,-6.68c-4.45,-6.92 -6.16,-14.68 -7.36,-23.47q-1.36,-9.97 -9.19,-14.51q-13.54,-7.87 -27.41,-15.13q-6.48,-3.39 -10.72,-9.08c-7.87,-10.59 -22.34,-14.62 -34.88,-15.08a0.44,0.44 0 0 0 -0.38,0.68l62,95.27a0.68,0.67 -15.1 0 0 0.55,0.31l0.37,0.02q0.43,0.01 0.66,0.37q8.83,13.24 17.49,26.57c9.32,14.32 15.33,22.63 17.3,36.08q2.18,14.85 3.96,47.11" id="svg_135"/>
   <path stroke="#b2ade8" d="m172.49,763.83l-10.56,-0.39" id="svg_136"/>
   <path stroke="#c2c5fa" d="m161.93,763.44c-0.78,-18.16 -11.64,-33.6 -25.04,-45.34q-10.06,-8.8 -20.87,-16.65q-11.05,-8.01 -15.2,-20.94c-3.54,-10.99 -4.81,-17.4 -17.38,-20.6q-8.29,-2.1 -14.21,-7.58c-6.68,-6.17 -13.11,-17.48 -16.85,-26.79q-0.2,-0.49 -0.68,-0.73q-6.13,-3.07 -18.98,-8.01q-5.46,-2.09 -9.35,2.72" id="svg_137"/>
   <path stroke="#929ecc" d="m554.23,417.85q-18.8,11.66 -37.04,24.33q-8.79,6.1 -10.84,8.94c-11.3,15.65 -1.8,41.98 4.24,58.29q12.87,34.81 28.73,68.38" id="svg_138"/>
   <path stroke="#7675d2" d="m331.33,394.18l-61.33,0.01" id="svg_139"/>
   <path stroke="#929ecc" d="m558.69,650.57l-10.86,-44.92" id="svg_140"/>
   <path stroke="#9e96d7" d="m308.68,374.54l-0.04,10.98q0,0.71 -0.7,0.7l-13.85,-0.13q-0.54,-0.01 -0.54,-0.55l-0.01,-7.4" id="svg_141"/>
   <path stroke="#8a8ce3" d="m175.93,763.85q0.36,2.44 -2.69,2.52q-0.47,0.02 -0.52,-0.46l-0.23,-2.08" id="svg_142"/>
   <path stroke="#8a8ce3" d="m161.93,763.44q-0.87,1.03 -1.13,2.43q-0.12,0.62 -0.75,0.62l-1.84,0.02q-0.58,0 -0.65,-0.57l-0.28,-2.14" id="svg_143"/>
   <path stroke="#c2c5fa" d="m157.28,763.8q-0.47,-12.06 -5.72,-22.74c-1.19,-2.41 -3.46,-4.83 -5.56,-6.06c-12.1,-7.15 -27.51,-12.23 -41.26,-17.71q-0.54,-0.21 -0.59,0.37l-0.07,0.79q-0.06,0.68 -0.7,0.42q-10.47,-4.18 -20.65,-9.13q-15.73,-7.64 -26.51,-21.48q-20.13,-25.86 -32.54,-57.99" id="svg_144"/>
   <path stroke="#8a8ce3" d="m200.28,767.14q-3.14,1.88 -7.54,2.3q-23.45,2.24 -45,1.13q-12.97,-0.66 -21.28,-2.15" id="svg_145"/>
   <path stroke="#7675d2" d="m308.68,243.73q-7.65,3.38 -15.13,-0.05" id="svg_146"/>
   <path stroke="#b2ade8" d="m157.28,763.8q-15.34,-0.31 -30.65,2.25a1.18,1.17 -17.4 0 0 -0.87,1.66q0.15,0.32 0.7,0.71" id="svg_147"/>
   <path stroke="#c2c5fa" d="m126.46,768.42q-1.16,17.95 -0.4,30.84q0.61,10.39 4.63,24.58" id="svg_148"/>
   <path stroke="#7675d2" d="m316.29,228.61q-1.37,-8.47 -8.7,-12.18" id="svg_149"/>
   <path stroke="#cba580" d="m429.21,189.39l-35.97,14.04" id="svg_150"/>
   <path stroke="#7675d2" d="m360.21,196.56q-0.34,-10.61 4.01,-21.42" id="svg_151"/>
   <path stroke="#cdd1fa" d="m411.06,335.54q5.08,3.11 4.64,9.23q-0.13,1.91 -2.27,3.34q-0.48,0.32 -0.11,0.76c6.27,7.63 14.99,2.39 13.77,-6.59q-0.86,-6.38 -5.36,-10.28c-4.19,-3.64 -9.73,-3.67 -12.18,1.97q-0.19,0.43 0.2,0.71q0.68,0.48 1.31,0.86" id="svg_152"/>
   <path stroke="#c2c5fa" d="m644.12,515.63a0.64,0.63 0 0 1 0.64,0.63l-0.01,205.49q0,0.5 0.5,0.5l61.97,0q0.5,0 0.5,-0.5l0,-205.76q0,-0.48 -0.48,-0.48l-67.86,-0.03a0.06,0.06 0 0 0 -0.04,0.1q0.15,0.13 0.29,0.1c1.18,-0.29 3.28,-0.05 4.49,-0.05" id="svg_155"/>
  </g>
  <path fill="#ffffff" d="m0,0l918,0l0,918l-918,0l0,-918zm684.16,127.26c-5.94,-7.61 -14.93,-11.71 -24.15,-14.07c-29.76,-7.62 -91.16,-5.36 -82.63,42.73c3.7,20.8 22.79,26.4 41.59,23.32q0.53,-0.09 0.79,0.37c7,12.15 14.08,25.09 17.27,38.74q-25.84,-2.88 -51.52,0.51c-31.51,4.17 -59.18,17.35 -83.43,36.23q-19.37,15.09 -37.25,34.61l-0.6,-3.15q-0.11,-0.6 -0.72,-0.59l-100.25,0.59q-0.51,0 -0.43,0.51l12.72,73.97q-33.27,7.69 -66.87,13.51l0,-130.81q-0.07,-0.02 0.08,-0.27q0.08,-0.12 0.21,-0.21q7.61,-5.3 7.32,-14.64l43.92,-32.05q0.44,9.37 3.07,18.05q0.17,0.56 0.71,0.34l29.25,-11.52q7.27,4.82 17.48,1.93c8.36,-2.37 17.64,-6.82 18.49,-15.97l25.67,-9.97a0.45,0.45 0 0 0 0.21,-0.66c-5.2,-8.17 -12.11,-15.67 -20.14,-20.98q-25.78,-17.06 -54.45,-0.23c-5.55,3.26 -10.71,8.25 -14.07,14q-1.12,1.93 -2.21,3.59l-56.63,41.29q-6.61,-2.71 -12.38,-0.24c-9.81,4.21 -12.91,18.25 -3.77,25.4q1.27,1 2.11,2.09l-0.01,134.46q-28.55,6.55 -55.99,15.66q-0.48,0.16 -0.82,0.55l-1.2,1.38l-46.73,0.04q-0.57,0 -0.57,0.57l-0.04,15.79q-31.33,12.88 -59.83,30.28c-53.08,32.41 -88.24,77.66 -100.62,139.07q-3.55,17.64 -4.37,38.04q-0.6,5.49 0.31,10.75q-1.29,18.65 0.63,38.49c4.66,48.24 27.32,88.05 61.33,121.6q20.32,20.04 45.05,33.48q1.06,1.86 2.48,5.15q8.29,19.26 29.29,20.58q11.47,0.72 21.03,-5.87q19.07,4.57 38.26,5.49q0.9,0.04 2.45,-0.04q9.08,0.96 18.75,0.45q19.59,0.19 38.8,-2.22c35.92,-4.51 71.5,-13.03 105.27,-26.06q19.04,-7.34 38.12,-14.58q54.69,-20.73 113.54,-23.56l9.14,-0.37l11.42,-0.32l17.36,-0.26l25.76,-0.07q1.2,2.73 4.13,4.79a0.55,0.54 17.8 0 0 0.86,-0.44l-0.03,-4.71q0.75,-0.05 1.17,0.37l8.55,0.11l21.51,-0.48l5.7,-0.03q0.32,0 0.55,-0.22q0.5,-0.51 0,-0.5q0.3,0.01 0.52,0.08q0.79,0.23 0.93,0.22q30.7,-1.11 61.37,-8.15l6.22,-1.7c36.6,-9.82 70.42,-30.55 96.38,-57.9c45.1,-47.55 42.37,-116.57 -1.86,-163.46q-4.23,-4.49 -17.66,-18.07q-16.89,-17.08 -32.01,-38.62c-10.76,-15.31 -17.21,-29.74 -18.2,-48.18q-0.37,-6.77 1.3,-19.45q1.29,-9.79 2.47,-19.59q3.68,-30.37 0.42,-61.52q7,-6.35 14.51,-14.27c13.8,-14.55 24.56,-32.03 26.07,-52.22c1.65,-21.96 -3.2,-39.23 -22.72,-52.35q18.14,-1.76 31.67,-9.68c39.26,-22.95 47.9,-75.94 16.58,-109.52c-17.51,-18.79 -43.78,-26.98 -69.11,-20.51c-24.69,6.31 -44.93,25.44 -51.22,50.91l-5.48,-8.71l1.07,-0.67a1.31,1.29 -5.3 0 0 0.54,-0.64c15.03,-37.49 54.51,-57.73 93.36,-47.32c47.9,12.84 72.56,67.34 49.34,111.6q-17.36,33.12 -55.81,41.48a0.5,0.5 0 0 0 -0.35,0.71c0.33,0.66 1.15,0.96 1.92,0.81c37.28,-7.6 64.66,-39.61 64.86,-77.71c0.16,-30.52 -16.4,-58.44 -43.56,-72.38c-22.02,-11.31 -48,-12.02 -70.62,-1.41q-28.94,13.58 -41.57,44.43z" id="svg_156"/>
  <path fill="#DDDDDD" d="m759.080714,238.898144q-8.25507,-5.458085 -27.205622,-15.398766c-35.32373,-18.545874 -46.828533,-57.472469 -62.541803,-87.724193c7.831733,-29.578173 33.03273,-51.793738 63.77446,-59.121507c31.5386,-7.513576 64.247601,1.997427 86.049452,23.818152c38.9968,38.996272 28.239062,100.533272 -20.6439,127.184983q-16.846319,9.197453 -39.432588,11.241332l0.000001,-0.000001z" id="svg_158" stroke="null"/>
  <path fill="#c9bea3" d="m684.16,127.26q0.26,0.61 0.82,1.1l5.48,8.71c12.62,26.05 21.86,59.57 50.23,75.54q15.22,8.56 21.85,13.26c19.52,13.12 24.37,30.39 22.72,52.35c-1.51,20.19 -12.27,37.67 -26.07,52.22q-7.51,7.92 -14.51,14.27l-7.82,6.11l6.4,-39.88a0.58,0.58 0 0 0 -0.84,-0.6c-11.65,6.13 -26.95,8.24 -38.4,1.04c-8.75,-5.51 -13.91,-14.61 -16.95,-24.63q-5.79,-19.07 0.46,-36.44q3.42,-9.49 3.56,-10.05q3.22,-12.94 0.13,-25.79q-0.28,-5.3 -0.8,-10.34c-0.78,-7.58 -3.35,-15.58 -4.77,-23.47a0.8,0.79 -21.5 0 1 0.36,-0.82c8.03,-5.01 5.4,-14.55 -0.98,-19.4c-3.74,-2.84 -6.33,-0.93 -9.85,0.55q-0.48,0.2 -0.88,-0.12q-12.38,-10 -28.35,-7.31q-0.48,0.08 -0.58,0.56q-0.27,1.3 -0.35,2.62c-0.52,8.81 -5.39,19.37 -14.98,21.21c-2.11,0.41 -4.78,0.2 -7.19,0.37q-0.51,0.04 -0.16,0.41q0.64,0.66 0.99,1.53q2.3,5.73 4.67,11.47a1.11,1.08 -4 0 0 0.77,0.65q4.39,1.01 6.25,5.15q5.69,12.67 16.19,21.6q7.53,6.41 17,4.13q0.49,-0.12 0.5,0.38q0.03,0.92 -0.35,1.42l-9.13,11.31a1.42,1.41 -26.4 0 0 -0.31,0.91c0.14,6.26 0.46,12.18 -1.61,18.1q-3.3,9.47 -8.76,17.85c-8.19,12.58 -21.73,18.81 -18.4,36.67c-15.97,-19.42 -17.41,-41.03 -5.77,-62.71q3.52,-6.55 5.36,-9.11c5.05,-7.03 8.55,-11.81 6.94,-19.73c-3.19,-13.65 -10.27,-26.59 -17.27,-38.74q-0.26,-0.46 -0.79,-0.37c-18.8,3.08 -37.89,-2.52 -41.59,-23.32c-8.53,-48.09 52.87,-50.35 82.63,-42.73c9.22,2.36 18.21,6.46 24.15,14.07z" id="svg_159"/>
  <path fill="#c9bea3" d="m429.21,189.39l-35.97,14.04l-29.25,11.52q-0.54,0.22 -0.71,-0.34q-2.63,-8.68 -3.07,-18.05q-0.34,-10.61 4.01,-21.42q1.09,-1.66 2.21,-3.59c3.36,-5.75 8.52,-10.74 14.07,-14q28.67,-16.83 54.45,0.23c8.03,5.31 14.94,12.81 20.14,20.98a0.45,0.45 0 0 1 -0.21,0.66l-25.67,9.97z" id="svg_160"/>
  <path fill="#ffd7d3" d="m691.22,214.47q-10.75,16.49 -10.69,35.49q0.01,0.94 -0.43,0.1c-1.3,-2.5 -2.45,-5.98 -5.64,-7.55q-0.17,-0.09 -0.08,-0.25q0.08,-0.17 0.17,-0.37q0.09,-0.21 -0.04,-0.41q-4.39,-7.05 -5.8,-16.42q0.38,-0.5 0.35,-1.42q-0.01,-0.5 -0.5,-0.38q-9.47,2.28 -17,-4.13q-10.5,-8.93 -16.19,-21.6q-1.86,-4.14 -6.25,-5.15a1.11,1.08 -4 0 1 -0.77,-0.65q-2.37,-5.74 -4.67,-11.47q-0.35,-0.87 -0.99,-1.53q-0.35,-0.37 0.16,-0.41c2.41,-0.17 5.08,0.04 7.19,-0.37c9.59,-1.84 14.46,-12.4 14.98,-21.21q0.08,-1.32 0.35,-2.62q0.1,-0.48 0.58,-0.56q15.97,-2.69 28.35,7.31q0.4,0.32 0.88,0.12c3.52,-1.48 6.11,-3.39 9.85,-0.55c6.38,4.85 9.01,14.39 0.98,19.4a0.8,0.79 -21.5 0 0 -0.36,0.82c1.42,7.89 3.99,15.89 4.77,23.47q0.52,5.04 0.8,10.34z" id="svg_161"/>
  <path fill="#666666" d="m364.22,175.14q-4.35,10.81 -4.01,21.42l-43.92,32.05q-1.37,-8.47 -8.7,-12.18l56.63,-41.29z" id="svg_162"/>
  <path fill="#DDDDDD" d="m429.21,189.39c-0.85,9.15 -10.13,13.6 -18.49,15.97q-10.21,2.89 -17.48,-1.93l35.97,-14.04z" id="svg_163"/>
  <path fill="#a7d3c5" d="m691.22,214.47q3.09,12.85 -0.13,25.79q-0.14,0.56 -3.56,10.05q-6.25,17.37 -0.46,36.44c3.04,10.02 8.2,19.12 16.95,24.63c11.45,7.2 26.75,5.09 38.4,-1.04a0.58,0.58 0 0 1 0.84,0.6l-6.4,39.88l-4.84,34.74q-0.08,0.52 0.35,0.83l3.86,2.75a0.5,0.5 0 0 1 0.05,0.78l-10.69,9.87q-0.41,0.37 -0.41,0.92l-0.09,12.67c-28.98,4.55 -60.91,0.5 -85.92,-16.16q27.95,5.6 58.83,6.59q9.55,0.3 16.57,-0.77q0.64,-0.09 0.27,-0.62l-21.04,-29.47q-0.32,-0.44 -0.86,-0.47l-69.14,-3.62q-0.59,-0.03 -0.83,-0.57l-6.61,-14.73l-1.02,-2.02q-0.26,-0.51 0.04,-1l7.43,-11.85q0.44,-0.7 0.65,0.1l0.81,3.15a0.36,0.36 0 0 0 0.66,0.09l9.91,-16.77a1.19,1.17 -41.1 0 0 0.08,-1.03q-0.4,-1.02 0.05,-2.01q0.23,-0.52 0.02,-1.04l-4.49,-11.28c-3.33,-17.86 10.21,-24.09 18.4,-36.67q5.46,-8.38 8.76,-17.85c2.07,-5.92 1.75,-11.84 1.61,-18.1a1.42,1.41 -26.4 0 1 0.31,-0.91l9.13,-11.31q1.41,9.37 5.8,16.42q0.13,0.2 0.04,0.41q-0.09,0.2 -0.17,0.37q-0.09,0.16 0.08,0.25c3.19,1.57 4.34,5.05 5.64,7.55q0.44,0.84 0.43,-0.1q-0.06,-19 10.69,-35.49z" id="svg_164"/>
  <path fill="#c9bea3" d="m307.59,216.43q7.33,3.71 8.7,12.18q0.29,9.34 -7.32,14.64q-0.13,0.09 -0.21,0.21q-0.15,0.25 -0.08,0.27q-7.65,3.38 -15.13,-0.05q-0.84,-1.09 -2.11,-2.09c-9.14,-7.15 -6.04,-21.19 3.77,-25.4q5.77,-2.47 12.38,0.24z" id="svg_165"/>
  <path fill="#DDDDDD" d="m637.03,218.35c1.61,7.92 -1.89,12.7 -6.94,19.73q-1.84,2.56 -5.36,9.11c-11.64,21.68 -10.2,43.29 5.77,62.71l4.49,11.28q0.21,0.52 -0.02,1.04q-0.45,0.99 -0.05,2.01a1.19,1.17 -41.1 0 1 -0.08,1.03l-9.91,16.77a0.36,0.36 0 0 1 -0.66,-0.09l-0.81,-3.15q-0.21,-0.8 -0.65,-0.1l-7.43,11.85q-0.3,0.49 -0.04,1l1.02,2.02q-45.55,1.59 -90.86,3.75q-8.19,0.38 -20.11,-2.54l22.83,-26.9c4.68,-5.74 -0.95,-11.04 -5.73,-4.64l-24.66,29.16q-11.76,-2.71 -20.67,8.98l-12.33,-71.67q17.88,-19.52 37.25,-34.61c24.25,-18.88 51.92,-32.06 83.43,-36.23q25.68,-3.39 51.52,-0.51z" id="svg_166"/>
  <path fill="#666666" d="m293.55,243.68q7.48,3.43 15.13,0.05l0,130.81l-0.04,10.98q0,0.71 -0.7,0.7l-13.85,-0.13q-0.54,-0.01 -0.54,-0.55l-0.01,-7.4l0.01,-134.46z" id="svg_167"/>
  <path fill="#666666" d="m464.83,289.7l12.33,71.67l2.14,12.86l0.54,2.86l1.74,10.2q-0.1,0.15 -0.05,0.65a0.47,0.46 87.1 0 0 0.45,0.41q0.19,0.01 0.34,-0.09l0.68,5.86q0.06,0.53 -0.47,0.52c-6.52,-0.07 -13.43,1.02 -19.35,0.99q-28.74,-0.14 -57.48,0.24l-25.73,0.04c0.81,-1.07 1.33,-1.55 1.08,-2.98q-2.75,-15.96 -5.5,-31.9l-12.72,-73.97q-0.08,-0.51 0.43,-0.51l100.25,-0.59q0.61,-0.01 0.72,0.59l0.6,3.15zm-53.77,45.84q5.08,3.11 4.64,9.23q-0.13,1.91 -2.27,3.34q-0.48,0.32 -0.11,0.76c6.27,7.63 14.99,2.39 13.77,-6.59q-0.86,-6.38 -5.36,-10.28c-4.19,-3.64 -9.73,-3.67 -12.18,1.97q-0.19,0.43 0.2,0.71q0.68,0.48 1.31,0.86z" id="svg_168"/>
  <path fill="#3a5599" d="m528.22,327.87l-5.73,-4.64c4.78,-6.4 10.41,-1.1 5.73,4.64z" id="svg_169"/>
  <path fill="#000000" d="m522.49,323.23l5.73,4.64l-22.83,26.9l-11.9,14.26l-6.28,7.39l-7.37,0.67l-0.54,-2.86l18.53,-21.84l24.66,-29.16z" id="svg_170"/>
  <path fill="#DDDDDD" d="m411.06,335.54q-0.63,-0.38 -1.31,-0.86q-0.39,-0.28 -0.2,-0.71c2.45,-5.64 7.99,-5.61 12.18,-1.97q4.5,3.9 5.36,10.28c1.22,8.98 -7.5,14.22 -13.77,6.59q-0.37,-0.44 0.11,-0.76q2.14,-1.43 2.27,-3.34q0.44,-6.12 -4.64,-9.23z" id="svg_171"/>
  <path fill="#DDDDDD" d="m744.68,344.71q3.26,31.15 -0.42,61.52q-1.18,9.8 -2.47,19.59q-1.67,12.68 -1.3,19.45c0.99,18.44 7.44,32.87 18.2,48.18q15.12,21.54 32.01,38.62q13.43,13.58 17.66,18.07c44.23,46.89 46.96,115.91 1.86,163.46c-25.96,27.35 -59.78,48.08 -96.38,57.9l-0.02,-272.24l8.29,-0.02q0.48,0 0.51,-0.47q0.92,-11.98 -7.15,-19.27q11.62,-9.17 14.01,-23.5q3.51,-21.07 -4.39,-42.62l0.09,-12.67q0,-0.55 0.41,-0.92l10.69,-9.87a0.5,0.5 0 0 0 -0.05,-0.78l-3.86,-2.75q-0.43,-0.31 -0.35,-0.83l4.84,-34.74l7.82,-6.11z" id="svg_172"/>
  <path fill="#ffb9b0" d="m497.83,352.39l-18.53,21.84l-2.14,-12.86q8.91,-11.69 20.67,-8.98z" id="svg_173"/>
  <path fill="#ffd7d3" d="m616.36,353.56l6.61,14.73q0.24,0.54 0.83,0.57l69.14,3.62q0.54,0.03 0.86,0.47l21.04,29.47q0.37,0.53 -0.27,0.62q-7.02,1.07 -16.57,0.77q-30.88,-0.99 -58.83,-6.59l-10.24,-3.01q-22.37,-5.94 -45.36,-5.82l-23.71,-0.23q-8.33,-2.55 -13.72,-7.91a1.14,1.13 64.6 0 0 -0.88,-0.32q-1.55,0.12 -3.04,1.02q-5.55,3.37 -9.43,7.57q-9.05,1.69 -19.58,0.79q-0.42,-0.03 -0.35,-0.45q0.06,-0.36 0.28,-0.6l5.43,-12.14a0.77,0.77 0 0 0 -1.08,-0.98c-11.09,6.3 -23.58,11.5 -35.91,12.15l-1.74,-10.2l7.37,-0.67q2.52,0.64 5.12,0.24q0.5,-0.08 0.72,-0.53q1.48,-3.09 0.44,-7.1l11.9,-14.26q11.92,2.92 20.11,2.54q45.31,-2.16 90.86,-3.75z" id="svg_174"/>
  <path fill="#DDDDDD" d="m375.55,361.03q2.75,15.94 5.5,31.9c0.25,1.43 -0.27,1.91 -1.08,2.98l-46.12,-0.15q-0.51,0 -0.87,-0.37q-0.93,-0.96 -1.65,-1.21c-3.23,-7.51 -14.95,-8.16 -21.64,-8.12q-0.51,0 -0.95,0.28q-0.69,0.43 -0.99,0.43q-4.08,-0.03 -8.15,-0.02q-1.18,0.01 -7.62,-0.53q-3.35,-0.28 -6.67,0.2c-6.54,0.95 -11.91,1.64 -15.31,7.77l-1.4,1.19q-0.39,0.33 -0.9,0.33l-32.17,0.02l1.2,-1.38q0.34,-0.39 0.82,-0.55q27.44,-9.11 55.99,-15.66l0.01,7.4q0,0.54 0.54,0.55l13.85,0.13q0.7,0.01 0.7,-0.7l0.04,-10.98q33.6,-5.82 66.87,-13.51z" id="svg_175"/>
  <path fill="#DDDDDD" d="m493.49,369.03q1.04,4.01 -0.44,7.1q-0.22,0.45 -0.72,0.53q-2.6,0.4 -5.12,-0.24l6.28,-7.39z" id="svg_176"/>
  <path fill="#DDDDDD" d="m513.14,388.26l-30.82,0q-0.15,0.1 -0.34,0.09a0.47,0.46 87.1 0 1 -0.45,-0.41q-0.05,-0.5 0.05,-0.65c12.33,-0.65 24.82,-5.85 35.91,-12.15a0.77,0.77 0 0 1 1.08,0.98l-5.43,12.14z" id="svg_177"/>
  <path fill="#DDDDDD" d="m559.86,388.16l-27.07,0.36q3.88,-4.2 9.43,-7.57q1.49,-0.9 3.04,-1.02a1.14,1.13 64.6 0 1 0.88,0.32q5.39,5.36 13.72,7.91z" id="svg_178"/>
  <path fill="#c9bea3" d="m331.33,394.18l-61.33,0.01c3.4,-6.13 8.77,-6.82 15.31,-7.77q3.32,-0.48 6.67,-0.2q6.44,0.54 7.62,0.53q4.07,-0.01 8.15,0.02q0.3,0 0.99,-0.43q0.44,-0.28 0.95,-0.28c6.69,-0.04 18.41,0.61 21.64,8.12z" id="svg_179"/>
  <path fill="#666666" d="m482.32,388.26l30.82,0q-0.22,0.24 -0.28,0.6q-0.07,0.42 0.35,0.45q10.53,0.9 19.58,-0.79l27.07,-0.36l23.71,0.23l0.11,7.71q-49.38,0.27 -98.88,0.15c-1.6,0 -2.88,1.11 -4.05,1c-11.36,-1 -26.2,-0.66 -34,-0.84q-20.51,-0.48 -41.05,-0.54q28.74,-0.38 57.48,-0.24c5.92,0.03 12.83,-1.06 19.35,-0.99q0.53,0.01 0.47,-0.52l-0.68,-5.86z" id="svg_180"/>
  <path fill="#DDDDDD" d="m628.93,394.21l-5.74,1.63l-39.51,0.26l-0.11,-7.71q22.99,-0.12 45.36,5.82z" id="svg_181"/>
  <path fill="#c9bea3" d="m331.602481,394.18q0.721779,0.257797 1.654077,1.247736q0.36089,0.381539 0.87215,0.381539l46.233962,0.154678l25.793579,-0.041247q20.590754,0.061871 41.151434,0.556841c7.819274,0.185614 22.695943,-0.16499 34.084014,0.866197c1.172891,0.113431 2.456054,-1.031187 4.060008,-1.031187q49.622314,0.123742 99.124332,-0.154678l39.607629,-0.268109q0.150371,0.309356 0.130321,0.721831l0.020049,20.47937a0.842076,0.866197 0 0 1 -0.842076,0.866197l-45.913171,0.051559l-22.525523,0.216549l-312.059195,-0.010312l-18.776282,-0.051559l-35.537597,0.030936q-0.53131,0 -0.541334,-0.556841l-0.030074,-4.949697l0.040099,-16.28244q0,-0.587776 0.571408,-0.587776l46.845469,-0.041247l32.249492,-0.020624q0.51126,0 0.902224,-0.340292l1.403459,-1.227112l61.481546,-0.010312z" id="svg_182" stroke="null"/>
  <path fill="#444444" d="m628.924036,394.011193l10.24,3.01c25.01,16.66 56.94,20.71 85.92,16.16q7.9,21.55 4.39,42.62q-2.39,14.33 -14.01,23.5q-10.52,6.86 -21.22,7.96q-55.62,5.72 -115.08,3.85q-0.45,-0.02 -0.27,0.4l3.25,7.55l5.31,16.34q5.34,19.55 7.05,39.4q0.58,6.65 1.33,31.64q0.11,3.64 1.22,7.07q4.85,14.96 10.19,30.18l-0.09,24q0,0.3 -0.22,0.51l-0.19,0.19l-7.97,4.44l-0.14,-4.05a0.17,0.16 -44.3 0 0 -0.33,0q-0.18,2.14 0.26,3.98l0.66,14.96q0.02,0.5 -0.33,0.86l-0.81,0.81a0.71,0.71 0 0 0 -0.05,0.93l0.54,0.67q0.26,0.32 -0.12,0.5l-21.74,10.13l0.33,-264.05l45.26,0.06a1.35,1.35 0 0 0 1.35,-1.37l-0.34,-19.92q0.02,-0.4 -0.13,-0.7l5.74,-1.63zm-32.51,202.51c0.882843,5.37 4.501372,12.420457 0.2,16.13a0.13,0.05 68.2 0 0 0.13,0.15l-0.05,-16.27a0.14,0.14 0 0 0 -0.28,-0.01zm1.22,24.65c0.35165,5.484036 4.937793,10.285964 -0.04,15.88a0.1,0.1 0 0 0 0.2,0l-0.03,-15.88q0,-0.13 -0.14,0q0,0 0.01,0z" id="svg_183"/>
  <path fill="#c9bea3" d="m621.93843,396.540001l0.329924,18.245873a1.309993,1.236543 0 0 1 -1.309993,1.254862l-43.918733,-0.054957q0.048518,-0.100755 -0.339628,-0.43966l44.44273,-0.045798a0.815107,0.769404 0 0 0 0.815107,-0.769404l-0.019407,-18.190915l0,-0.000001z" id="svg_184" stroke="null"/>
  <path fill="#DDDDDD" d="m188.19,412.13l0.03,4.8q0.01,0.54 0.54,0.54l35.45,-0.03l-0.01,431.71q-1.55,0.08 -2.45,0.04q-19.19,-0.92 -38.26,-5.49c20.21,-17.63 19.9,-51.05 17.85,-75.49q-0.05,-0.52 -0.45,-0.83q-0.42,-0.32 -0.61,-0.24c-6.81,-3.13 -17.8,-3.07 -24.35,-3.29q0.79,-16 0.28,-31.6q-0.28,-8.4 -2.39,-16.47c-1.22,-4.65 -2.5,-9.91 -2.06,-13.42c2.5,-20.01 7.92,-43.74 -6.33,-60.99q-4.71,-5.71 -5.33,-6.68c-4.45,-6.92 -6.16,-14.68 -7.36,-23.47q-1.36,-9.97 -9.19,-14.51q-13.54,-7.87 -27.41,-15.13q-6.48,-3.39 -10.72,-9.08c-7.87,-10.59 -22.34,-14.62 -34.88,-15.08a0.44,0.44 0 0 0 -0.38,0.68l62,95.27a0.68,0.67 -15.1 0 0 0.55,0.31l0.37,0.02q0.43,0.01 0.66,0.37q8.83,13.24 17.49,26.57c9.32,14.32 15.33,22.63 17.3,36.08q2.18,14.85 3.96,47.11l-10.56,-0.39c-0.78,-18.16 -11.64,-33.6 -25.04,-45.34q-10.06,-8.8 -20.87,-16.65q-11.05,-8.01 -15.2,-20.94c-3.54,-10.99 -4.81,-17.4 -17.38,-20.6q-8.29,-2.1 -14.21,-7.58c-6.68,-6.17 -13.11,-17.48 -16.85,-26.79q-0.2,-0.49 -0.68,-0.73q-6.13,-3.07 -18.98,-8.01q-5.46,-2.09 -9.35,2.72q0.82,-20.4 4.37,-38.04c12.38,-61.41 47.54,-106.66 100.62,-139.07q28.5,-17.4 59.83,-30.28z" id="svg_185"/>
  <path fill="#666666" d="m242.94,417.49l0.01,432.11q-9.67,0.51 -18.75,-0.45l0.01,-431.71l18.73,0.05z" id="svg_186"/>
  <path fill="#666666" d="m576.7,417.29q0.4,0.37 0.35,0.48l-0.33,264.05q-1.06,8.98 -0.05,17.65l-0.07,82.76l-17.36,0.26l0.01,-53.48q0,-0.5 -0.5,-0.5l-10.52,-0.01q-0.42,0 -0.42,0.43l0.01,53.88l-9.14,0.37l-0.02,-203.9q0,-0.5 0.27,-0.91l0.39,-0.58q1.14,2.52 2.49,4.87q1.51,2.64 2.12,4.98q2.37,9.06 3.9,18.01l-0.05,115.1q0,0.48 0.48,0.48l10.49,0.01q0.53,0 0.53,-0.53q0,-33.78 0,-67.54c0,-0.97 -0.3,-1.71 -0.59,-2.6q0.16,-0.07 0.28,-0.14q0.25,-0.15 0.25,-0.43l0,-231.45q0,-0.52 -0.5,-0.65q-2.06,-0.52 -4.49,-0.05q0,-0.17 0,-0.35l22.47,-0.21z" id="svg_187"/>
  <path fill="#DDDDDD" d="m242.94,417.49l311.29,0.01q0,0.18 0,0.35q-18.8,11.66 -37.04,24.33q-8.79,6.1 -10.84,8.94c-11.3,15.65 -1.8,41.98 4.24,58.29q12.87,34.81 28.73,68.38l-0.39,0.58q-0.27,0.41 -0.27,0.91l0.02,203.9q-58.85,2.83 -113.54,23.56q-19.08,7.24 -38.12,14.58c-33.77,13.03 -69.35,21.55 -105.27,26.06q-19.21,2.41 -38.8,2.22l-0.01,-432.11z" id="svg_188"/>
  <path fill="#444444" d="m554.23,417.85q2.43,-0.47 4.49,0.05q0.5,0.13 0.5,0.65l0,231.45q0,0.28 -0.25,0.43q-0.12,0.07 -0.28,0.14l-10.86,-44.92q-1.53,-8.95 -3.9,-18.01q-0.61,-2.34 -2.12,-4.98q-1.35,-2.35 -2.49,-4.87q-15.86,-33.57 -28.73,-68.38c-6.04,-16.31 -15.54,-42.64 -4.24,-58.29q2.05,-2.84 10.84,-8.94q18.24,-12.67 37.04,-24.33z" id="svg_189"/>
  <path fill="#c9bea3" d="m715.47,479.5q8.07,7.29 7.15,19.27q-0.03,0.47 -0.51,0.47l-8.29,0.02l-131.67,0l-3.25,-7.55q-0.18,-0.42 0.27,-0.4q59.46,1.87 115.08,-3.85q10.7,-1.1 21.22,-7.96z" id="svg_190"/>
  <path fill="#666666" d="m582.15,499.26l131.67,0l0.02,272.24l-6.22,1.7l0.05,-42.22q0,-0.48 -0.48,-0.48l-61.95,0.01q-0.44,0 -0.44,0.43l0,50.11q0.5,-0.01 0,0.5q-0.23,0.22 -0.55,0.22l-5.7,0.03l-0.03,-42.58l0.08,-5.73l0.01,-217.58q0,-0.41 -0.42,-0.41l-21.48,0.01q-0.19,0 -0.06,0.14l0.22,0.25a0.72,0.71 25.1 0 1 0.17,0.46l0.01,133.82l0.02,74.06l-0.03,58.04l-8.55,-0.11l0.29,-52.95q0,-0.5 -0.48,-0.66q-0.46,-0.15 -1.06,-0.07l-22.54,-0.02l-7.31,0q-0.59,0.01 -0.58,-0.58l0.04,-6.07q0,-0.58 0.58,-0.58l30.81,0.01q0.5,0 0.5,-0.51l-0.48,-44.79q-1.22,-13.11 -0.75,-26.57q0.03,-0.67 -0.76,-0.79l0.19,-0.19q0.22,-0.21 0.22,-0.51l0.09,-24l0.06,-107.85q0,-0.5 -0.5,-0.49l-19.35,0.05l-5.31,-16.34zm61.97,16.37a0.64,0.63 0 0 1 0.64,0.63l-0.01,205.49q0,0.5 0.5,0.5l61.97,0q0.5,0 0.5,-0.5l0,-205.76q0,-0.48 -0.48,-0.48l-67.86,-0.03a0.06,0.06 0 0 0 -0.04,0.1q0.15,0.13 0.29,0.1c1.18,-0.29 3.28,-0.05 4.49,-0.05z" id="svg_191"/>
  <path fill="#DDDDDD" d="m644.12,515.63c-1.21,0 -3.31,-0.24 -4.49,0.05q-0.14,0.03 -0.29,-0.1a0.06,0.06 0 0 1 0.04,-0.1l67.86,0.03q0.48,0 0.48,0.48l0,205.76q0,0.5 -0.5,0.5l-61.97,0q-0.5,0 -0.5,-0.5l0.01,-205.49a0.64,0.63 0 0 0 -0.64,-0.63z" id="svg_192"/>
  <path fill="#DDDDDD" d="m607.25,623.89q-5.34,-15.22 -10.19,-30.18q-1.11,-3.43 -1.22,-7.07q-0.75,-24.99 -1.33,-31.64q-1.71,-19.85 -7.05,-39.4l19.35,-0.05q0.5,-0.01 0.5,0.49l-0.06,107.85z" id="svg_193"/>
  <path fill="#DDDDDD" d="m638.6,733.49q-1.65,-8.59 -3.88,-13.47c-3.29,-7.22 -7.94,-15.41 -8.92,-22.76q-1.01,-7.51 0.89,-14.93c1.67,-6.55 6.66,-15.06 3.91,-21.88q-0.87,-2.15 -3.65,-4q-4.75,-3.17 -9.9,-6.27l-0.01,-133.82a0.72,0.71 25.1 0 0 -0.17,-0.46l-0.22,-0.25q-0.13,-0.14 0.06,-0.14l21.48,-0.01q0.42,0 0.42,0.41l-0.01,217.58z" id="svg_194"/>
  <path fill="#a7d3c5" d="m175.93,763.85q0.36,2.44 -2.69,2.52q-0.47,0.02 -0.52,-0.46l-0.23,-2.08q-1.78,-32.26 -3.96,-47.11c-1.97,-13.45 -7.98,-21.76 -17.3,-36.08q-8.66,-13.33 -17.49,-26.57q-0.23,-0.36 -0.66,-0.37l-0.37,-0.02a0.68,0.67 -15.1 0 1 -0.55,-0.31l-62,-95.27a0.44,0.44 0 0 1 0.38,-0.68c12.54,0.46 27.01,4.49 34.88,15.08q4.24,5.69 10.72,9.08q13.87,7.26 27.41,15.13q7.83,4.54 9.19,14.51c1.2,8.79 2.91,16.55 7.36,23.47q0.62,0.97 5.33,6.68c14.25,17.25 8.83,40.98 6.33,60.99c-0.44,3.51 0.84,8.77 2.06,13.42q2.11,8.07 2.39,16.47q0.51,15.6 -0.28,31.6z" id="svg_195"/>
  <path fill="#DDDDDD" d="m547.83,605.65l10.86,44.92c0.29,0.89 0.59,1.63 0.59,2.6q0,33.76 0,67.54q0,0.53 -0.53,0.53l-10.49,-0.01q-0.48,0 -0.48,-0.48l0.05,-115.1z" id="svg_197"/>
  <path fill="#a7d3c5" d="m161.93,763.44q-0.87,1.03 -1.13,2.43q-0.12,0.62 -0.75,0.62l-1.84,0.02q-0.58,0 -0.65,-0.57l-0.28,-2.14q-0.47,-12.06 -5.72,-22.74c-1.19,-2.41 -3.46,-4.83 -5.56,-6.06c-12.1,-7.15 -27.51,-12.23 -41.26,-17.71q-0.54,-0.21 -0.59,0.37l-0.07,0.79q-0.06,0.68 -0.7,0.42q-10.47,-4.18 -20.65,-9.13q-15.73,-7.64 -26.51,-21.48q-20.13,-25.86 -32.54,-57.99q-0.91,-5.26 -0.31,-10.75q3.89,-4.81 9.35,-2.72q12.85,4.94 18.98,8.01q0.48,0.24 0.68,0.73c3.74,9.31 10.17,20.62 16.85,26.79q5.92,5.48 14.21,7.58c12.57,3.2 13.84,9.61 17.38,20.6q4.15,12.93 15.2,20.94q10.81,7.85 20.87,16.65c13.4,11.74 24.26,27.18 25.04,45.34z" id="svg_198"/>
  <path fill="#DDDDDD" d="m23.68,630.27q12.41,32.13 32.54,57.99q10.78,13.84 26.51,21.48q10.18,4.95 20.65,9.13q0.64,0.26 0.7,-0.42l0.07,-0.79q0.05,-0.58 0.59,-0.37c13.75,5.48 29.16,10.56 41.26,17.71c2.1,1.23 4.37,3.65 5.56,6.06q5.25,10.68 5.72,22.74q-15.34,-0.31 -30.65,2.25a1.18,1.17 -17.4 0 0 -0.87,1.66q0.15,0.32 0.7,0.71q-1.16,17.95 -0.4,30.84q0.61,10.39 4.63,24.58q-24.73,-13.44 -45.05,-33.48c-34.01,-33.55 -56.67,-73.36 -61.33,-121.6q-1.92,-19.84 -0.63,-38.49z" id="svg_200"/>
  <path fill="#ffd7d3" d="m606.75,648.59q0.79,0.12 0.76,0.79q-0.47,13.46 0.75,26.57q-1,0.24 -1,0.54q-0.16,21.69 -0.14,43.16a0.77,0.76 0 0 1 -0.77,0.76l-23.02,0.03a1.17,1.17 0 0 1 -1.15,-0.95q-1.92,-9.82 -5.51,-20.02q-1.01,-8.67 0.05,-17.65l21.74,-10.13q0.38,-0.18 0.12,-0.5l-0.54,-0.67a0.71,0.71 0 0 1 0.05,-0.93l0.81,-0.81q0.35,-0.36 0.33,-0.86l-0.66,-14.96q0.31,-0.46 0.21,0.07l7.97,-4.44z" id="svg_201"/>
  <path fill="#ffd7d3" d="m617.05,650.18q5.15,3.1 9.9,6.27q2.78,1.85 3.65,4c2.75,6.82 -2.24,15.33 -3.91,21.88q-1.9,7.42 -0.89,14.93c0.98,7.35 5.63,15.54 8.92,22.76q2.23,4.88 3.88,13.47l-0.08,5.73q-1.15,8.54 -6.72,13.04a1.38,1.37 23.3 0 1 -0.78,0.31q-5.27,0.39 -5.45,-4.46q-0.52,-13.94 -8.5,-23.87l-0.02,-74.06z" id="svg_203"/>
  <path fill="#DDDDDD" d="m608.26,675.95l0.48,44.79q0,0.51 -0.5,0.51l-30.81,-0.01q-0.58,0 -0.58,0.58l-0.04,6.07q-0.01,0.59 0.58,0.58l7.31,0q3.41,14.53 5.03,18.77c2.18,5.68 7.46,11.89 10.12,18.78c2.05,5.33 1.32,10.61 2.51,16.14l-25.76,0.07l0.07,-82.76q3.59,10.2 5.51,20.02a1.17,1.17 0 0 0 1.15,0.95l23.02,-0.03a0.77,0.76 0 0 0 0.77,-0.76q-0.02,-21.47 0.14,-43.16q0,-0.3 1,-0.54z" id="svg_204"/>
  <path fill="#DDDDDD" d="m617.07,724.24q7.98,9.93 8.5,23.87q0.18,4.85 5.45,4.46a1.38,1.37 23.3 0 0 0.78,-0.31q5.57,-4.5 6.72,-13.04l0.03,42.58l-21.51,0.48l0.03,-58.04z" id="svg_205"/>
  <path fill="#DDDDDD" d="m559.24,782.49l-11.42,0.32l-0.01,-53.88q0,-0.43 0.42,-0.43l10.52,0.01q0.5,0 0.5,0.5l-0.01,53.48z" id="svg_206"/>
  <path fill="#ffd7d3" d="m584.7,728.47l22.54,0.02l0.08,53.31l0.03,4.71a0.55,0.54 17.8 0 1 -0.86,0.44q-2.93,-2.06 -4.13,-4.79c-1.19,-5.53 -0.46,-10.81 -2.51,-16.14c-2.66,-6.89 -7.94,-13.1 -10.12,-18.78q-1.62,-4.24 -5.03,-18.77z" id="svg_207"/>
  <path fill="#eae6ff" d="m607.24,728.49q0.6,-0.08 1.06,0.07q0.48,0.16 0.48,0.66l-0.29,52.95q-0.42,-0.42 -1.17,-0.37l-0.08,-53.31z" id="svg_208"/>
  <path fill="#DDDDDD" d="m707.62,773.2q-30.67,7.04 -61.37,8.15q-0.14,0.01 -0.93,-0.22q-0.22,-0.07 -0.52,-0.08l0,-50.11q0,-0.43 0.44,-0.43l61.95,-0.01q0.48,0 0.48,0.48l-0.05,42.22z" id="svg_209"/>
  <path fill="#c9bea3" d="m161.93,763.44l10.56,0.39l0.23,2.08q0.05,0.48 0.52,0.46q3.05,-0.08 2.69,-2.52c6.55,0.22 17.54,0.16 24.35,3.29q-3.14,1.88 -7.54,2.3q-23.45,2.24 -45,1.13q-12.97,-0.66 -21.28,-2.15q-0.55,-0.39 -0.7,-0.71a1.18,1.17 -17.4 0 1 0.87,-1.66q15.31,-2.56 30.65,-2.25l0.28,2.14q0.07,0.57 0.65,0.57l1.84,-0.02q0.63,0 0.75,-0.62q0.26,-1.4 1.13,-2.43z" id="svg_210"/>
  <path fill="#666666" d="m200.28,767.14q0.19,-0.08 0.61,0.24q0.4,0.31 0.45,0.83c2.05,24.44 2.36,57.86 -17.85,75.49q-9.56,6.59 -21.03,5.87q-21,-1.32 -29.29,-20.58q-1.42,-3.29 -2.48,-5.15q-4.02,-14.19 -4.63,-24.58q-0.76,-12.89 0.4,-30.84q8.31,1.49 21.28,2.15q21.55,1.11 45,-1.13q4.4,-0.42 7.54,-2.3z" id="svg_211"/>
 </g>
</svg>