<?xml version="1.0" encoding="UTF-8" standalone="no"?>
<!DOCTYPE svg PUBLIC "-//W3C//DTD SVG 1.1//EN" "http://www.w3.org/Graphics/SVG/1.1/DTD/svg11.dtd">
<svg xmlns="http://www.w3.org/2000/svg" version="1.1" viewBox="0.00 0.00 500.00 500.00">
<g stroke-width="2.00" fill="none" stroke-linecap="butt">
<path stroke="#737676" vector-effect="non-scaling-stroke" d="
  M 223.01 248.14
  L 148.02 248.58
  Q 147.36 248.58 147.40 249.24
  L 147.86 256.29
  A 0.72 0.72 0.0 0 0 148.58 256.97
  L 226.93 257.07
  A 1.79 1.78 78.0 0 1 228.56 258.14
  L 290.88 400.84
  A 1.03 1.02 78.1 0 0 291.82 401.46
  Q 334.61 401.63 376.82 401.27
  Q 390.63 401.14 396.73 399.93
  C 427.60 393.80 449.90 365.22 454.38 335.21
  C 459.94 297.87 438.08 263.08 402.81 250.80
  Q 400.64 250.04 402.68 248.98
  C 450.15 224.34 454.68 163.57 420.85 125.59
  Q 414.38 118.32 407.09 114.19
  C 395.87 107.81 381.46 106.27 369.50 106.22
  Q 344.70 106.12 292.11 106.65
  Q 291.50 106.66 291.50 107.27
  L 291.47 113.47
  A 1.37 1.37 0.0 0 0 292.84 114.85
  Q 330.67 115.03 365.00 114.94
  Q 379.53 114.90 387.72 116.28
  C 398.07 118.03 408.22 124.25 415.54 132.19
  C 444.35 163.45 439.34 217.17 402.04 239.86
  C 391.39 246.34 379.73 248.42 367.25 248.44
  Q 301.75 248.56 236.03 248.48
  A 2.82 2.82 0.0 0 1 233.46 246.78
  Q 203.81 178.76 174.22 110.73
  Q 172.84 107.55 171.74 106.66
  C 169.44 104.78 165.09 105.31 163.78 108.31
  Q 99.97 254.50 36.22 400.56
  Q 35.82 401.48 36.83 401.48
  L 44.63 401.46
  Q 45.25 401.46 45.49 400.90
  L 167.98 119.88
  A 0.50 0.49 45.5 0 1 168.89 119.89
  L 223.79 246.96
  Q 224.29 248.14 223.01 248.14"
/>
<path stroke="#737676" vector-effect="non-scaling-stroke" d="
  M 238.33 258.31
  L 296.34 391.95
  A 1.69 1.67 -11.2 0 0 297.87 392.96
  Q 340.02 393.09 381.99 392.80
  C 406.79 392.62 429.21 376.25 439.63 354.93
  C 454.73 324.07 445.25 287.44 417.66 267.57
  Q 407.56 260.30 395.71 257.91
  Q 390.02 256.76 375.79 256.80
  Q 307.18 256.98 239.16 257.12
  Q 237.81 257.12 238.33 258.31"
/>
</g>
<path fill="#000000" d="
  M 0.00 0.00
  L 500.00 0.00
  L 500.00 500.00
  L 0.00 500.00
  L 0.00 0.00
  Z
  M 223.01 248.14
  L 148.02 248.58
  Q 147.36 248.58 147.40 249.24
  L 147.86 256.29
  A 0.72 0.72 0.0 0 0 148.58 256.97
  L 226.93 257.07
  A 1.79 1.78 78.0 0 1 228.56 258.14
  L 290.88 400.84
  A 1.03 1.02 78.1 0 0 291.82 401.46
  Q 334.61 401.63 376.82 401.27
  Q 390.63 401.14 396.73 399.93
  C 427.60 393.80 449.90 365.22 454.38 335.21
  C 459.94 297.87 438.08 263.08 402.81 250.80
  Q 400.64 250.04 402.68 248.98
  C 450.15 224.34 454.68 163.57 420.85 125.59
  Q 414.38 118.32 407.09 114.19
  C 395.87 107.81 381.46 106.27 369.50 106.22
  Q 344.70 106.12 292.11 106.65
  Q 291.50 106.66 291.50 107.27
  L 291.47 113.47
  A 1.37 1.37 0.0 0 0 292.84 114.85
  Q 330.67 115.03 365.00 114.94
  Q 379.53 114.90 387.72 116.28
  C 398.07 118.03 408.22 124.25 415.54 132.19
  C 444.35 163.45 439.34 217.17 402.04 239.86
  C 391.39 246.34 379.73 248.42 367.25 248.44
  Q 301.75 248.56 236.03 248.48
  A 2.82 2.82 0.0 0 1 233.46 246.78
  Q 203.81 178.76 174.22 110.73
  Q 172.84 107.55 171.74 106.66
  C 169.44 104.78 165.09 105.31 163.78 108.31
  Q 99.97 254.50 36.22 400.56
  Q 35.82 401.48 36.83 401.48
  L 44.63 401.46
  Q 45.25 401.46 45.49 400.90
  L 167.98 119.88
  A 0.50 0.49 45.5 0 1 168.89 119.89
  L 223.79 246.96
  Q 224.29 248.14 223.01 248.14
  Z"
/>
<path fill="#e6ebec" d="
  M 223.01 248.14
  Q 224.29 248.14 223.79 246.96
  L 168.89 119.89
  A 0.50 0.49 45.5 0 0 167.98 119.88
  L 45.49 400.90
  Q 45.25 401.46 44.63 401.46
  L 36.83 401.48
  Q 35.82 401.48 36.22 400.56
  Q 99.97 254.50 163.78 108.31
  C 165.09 105.31 169.44 104.78 171.74 106.66
  Q 172.84 107.55 174.22 110.73
  Q 203.81 178.76 233.46 246.78
  A 2.82 2.82 0.0 0 0 236.03 248.48
  Q 301.75 248.56 367.25 248.44
  C 379.73 248.42 391.39 246.34 402.04 239.86
  C 439.34 217.17 444.35 163.45 415.54 132.19
  C 408.22 124.25 398.07 118.03 387.72 116.28
  Q 379.53 114.90 365.00 114.94
  Q 330.67 115.03 292.84 114.85
  A 1.37 1.37 0.0 0 1 291.47 113.47
  L 291.50 107.27
  Q 291.50 106.66 292.11 106.65
  Q 344.70 106.12 369.50 106.22
  C 381.46 106.27 395.87 107.81 407.09 114.19
  Q 414.38 118.32 420.85 125.59
  C 454.68 163.57 450.15 224.34 402.68 248.98
  Q 400.64 250.04 402.81 250.80
  C 438.08 263.08 459.94 297.87 454.38 335.21
  C 449.90 365.22 427.60 393.80 396.73 399.93
  Q 390.63 401.14 376.82 401.27
  Q 334.61 401.63 291.82 401.46
  A 1.03 1.02 78.1 0 1 290.88 400.84
  L 228.56 258.14
  A 1.79 1.78 78.0 0 0 226.93 257.07
  L 148.58 256.97
  A 0.72 0.72 0.0 0 1 147.86 256.29
  L 147.40 249.24
  Q 147.36 248.58 148.02 248.58
  L 223.01 248.14
  Z
  M 238.33 258.31
  L 296.34 391.95
  A 1.69 1.67 -11.2 0 0 297.87 392.96
  Q 340.02 393.09 381.99 392.80
  C 406.79 392.62 429.21 376.25 439.63 354.93
  C 454.73 324.07 445.25 287.44 417.66 267.57
  Q 407.56 260.30 395.71 257.91
  Q 390.02 256.76 375.79 256.80
  Q 307.18 256.98 239.16 257.12
  Q 237.81 257.12 238.33 258.31
  Z"
/>
<path fill="#000000" d="
  M 296.34 391.95
  L 238.33 258.31
  Q 237.81 257.12 239.16 257.12
  Q 307.18 256.98 375.79 256.80
  Q 390.02 256.76 395.71 257.91
  Q 407.56 260.30 417.66 267.57
  C 445.25 287.44 454.73 324.07 439.63 354.93
  C 429.21 376.25 406.79 392.62 381.99 392.80
  Q 340.02 393.09 297.87 392.96
  A 1.69 1.67 -11.2 0 1 296.34 391.95
  Z"
/>
</svg>
