<svg width="500" height="500" xmlns="http://www.w3.org/2000/svg" version="1.1">
 <g>
  <title>Layer 1</title>
  <g id="svg_23">
   <path fill="none" d="m227.19459,244.69023q1.3,-0.01 0.79,-1.2l-54.84,-126.92q-0.52,-1.21 -1.04,-0.01q-60.37,138.52 -121.01,277.64q-0.92,2.1 -1.76,3.37a1.08,1.07 17.1 0 1 -0.89,0.47l-6.99,-0.05a0.94,0.93 11.9 0 1 -0.86,-1.31q63.46,-145.4 126.64,-290.14c3.01,-6.9 8.5,-5.49 11.13,0.55q28.57,65.78 57.25,131.51q1.7,3.9 2.77,5.91a1.03,1.02 75.8 0 0 0.9,0.54q65.47,-0.02 130.9,-0.18q3.65,0 7.28,-0.15c18.78,-0.75 34.78,-9.05 46.13,-23.89c21.78,-28.49 19.35,-72.28 -8.21,-96.51q-14.25,-12.53 -34.69,-12.66q-41.07,-0.26 -83.39,-0.24a1.63,1.63 0 0 1 -1.63,-1.65l0.07,-6.22a0.36,0.36 0 0 1 0.36,-0.36q40.19,-0.46 80.09,-0.39c17.59,0.03 34.8,4.24 47.52,17.93c35.51,38.2 31.17,99.34 -17.17,125.09a0.76,0.76 0 0 0 0.11,1.39c39,13.44 61.1,53.93 49.94,94.08c-7.25,26.06 -28.19,49.76 -55.61,55.19q-6.02,1.19 -19.92,1.33q-42.58,0.41 -85.05,0.16a1.03,1.02 78.1 0 1 -0.94,-0.62l-62.45,-142.97a1.3,1.3 0 0 0 -1.19,-0.78l-78.6,-0.1q-0.7,0 -0.75,-0.7l-0.47,-7.03q-0.04,-0.67 0.63,-0.67l74.95,-0.41zm216.83,106.4c9.88,-20.4 9.29,-45.33 -2.3,-65.06c-9.75,-16.6 -25.07,-28.8 -44.06,-31.93q-5.31,-0.87 -19.97,-0.82q-67.38,0.26 -134.4,0.37a0.84,0.84 0 0 0 -0.77,1.17l58.15,133.97a1.15,1.14 78.2 0 0 1.05,0.69c25.63,0.06 51.36,-0.08 77.11,0.23q11.79,0.14 17.6,-1.23q33.28,-7.84 47.59,-37.39z" id="svg_5" stroke="#000" stroke-width="8" opacity="undefined" stroke-linecap="undefined" stroke-linejoin="undefined"/>
   <line fill="none" stroke="#000" stroke-width="8" opacity="NaN" x1="172.54295" y1="108.32702" x2="46.07188" y2="394.60261" id="svg_8" stroke-linejoin="undefined" stroke-linecap="undefined"/>
   <path fill="none" stroke="#000" stroke-width="10" opacity="NaN" d="m298.52382,106.85643c0,0 92.64741,0.9804 92.16394,0.49692c0.48347,0.48348 15.18941,4.40506 14.70594,3.92158c0.48347,0.48348 8.32664,5.38546 7.84317,4.90198c0.48347,0.48348 5.87565,5.87566 6.36585,6.36585c0.4902,0.4902 11.27455,13.23534 10.79108,12.75187c0.48347,0.48348 9.30703,20.09139 9.30703,20.09139c0,0 4.90198,19.11772 4.90198,19.11772c0,0 -2.94119,19.11772 -2.94119,19.11772c0,0 -6.86277,20.58831 -6.86277,20.58831c0,0 -12.25495,15.68633 -12.25495,15.68633c0,0 -9.31376,8.33336 -9.79723,7.84989c0.48347,0.48348 -7.3597,5.38545 -7.84317,4.90198c0.48347,0.48348 -0.98712,6.85605 -1.47059,6.37257c0.48347,0.48348 8.32664,4.40506 7.84317,3.92158c0.48347,0.48348 11.26783,4.89526 10.78435,4.41178c0.48347,0.48347 10.28743,11.26783 9.80396,10.78435c0.48347,0.48347 13.71881,14.69921 13.71881,15.18941c0,0.4902 8.33336,27.94128 7.84989,27.45781c0.48347,0.48347 1.95406,23.03258 1.46387,23.03258c-0.4902,0 -10.29416,28.43148 -10.29416,28.43148c0,0 -24.0197,21.07851 -24.0197,21.07851c0,0 -25.98049,9.80396 -25.98049,9.80396c0,0 -18.13732,0.9804 -18.13732,0.9804c0,0 -38.72564,0 -38.72564,0c0,0 -37.74524,-0.4902 -38.22871,-0.97367" id="svg_16"/>
   <line fill="none" stroke-width="8" x1="172.54295" y1="104.40543" x2="298.52382" y2="395.09281" id="svg_17" stroke="#000"/>
   <line fill="none" stroke="#000" stroke-width="8" x1="155.87622" y1="250.97462" x2="406.85756" y2="247.54324" id="svg_18"/>
   <line fill="none" stroke="#000" stroke-width="8" x1="425.97528" y1="225.48433" x2="399.01439" y2="247.05304" id="svg_19"/>
   <line fill="none" stroke="#000" stroke-width="8" x1="432.83805" y1="267.64135" x2="402.44578" y2="249.01383" id="svg_20"/>
   <line fill="none" stroke="#000" stroke-width="8" x1="456.36755" y1="318.13174" x2="452.93616" y2="300.48461" id="svg_21"/>
   <line fill="none" stroke="#000" stroke-width="8" x1="380.87707" y1="106.36623" x2="415.68112" y2="117.15059" id="svg_22"/>
  </g>
 </g>

</svg>